<?xml version="1.0" encoding="utf-8"?>
<svg xmlns="http://www.w3.org/2000/svg" xmlns:xlink="http://www.w3.org/1999/xlink" width="600" height="400" viewBox="0 0 2400 1600">
<defs>
  <clipPath id="clip290">
    <rect x="0" y="0" width="2400" height="1600"/>
  </clipPath>
</defs>
<path clip-path="url(#clip290)" d="M0 1600 L2400 1600 L2400 0 L0 0  Z" fill="#ffffff" fill-rule="evenodd" fill-opacity="1"/>
<defs>
  <clipPath id="clip291">
    <rect x="480" y="0" width="1681" height="1600"/>
  </clipPath>
</defs>
<path clip-path="url(#clip290)" d="M265.445 1486.45 L2352.76 1486.45 L2352.76 123.472 L265.445 123.472  Z" fill="#ffffff" fill-rule="evenodd" fill-opacity="1"/>
<defs>
  <clipPath id="clip292">
    <rect x="265" y="123" width="2088" height="1364"/>
  </clipPath>
</defs>
<polyline clip-path="url(#clip292)" style="stroke:#000000; stroke-linecap:round; stroke-linejoin:round; stroke-width:2; stroke-opacity:0.1; fill:none" points="679.323,1486.45 679.323,123.472 "/>
<polyline clip-path="url(#clip292)" style="stroke:#000000; stroke-linecap:round; stroke-linejoin:round; stroke-width:2; stroke-opacity:0.1; fill:none" points="1229.27,1486.45 1229.27,123.472 "/>
<polyline clip-path="url(#clip292)" style="stroke:#000000; stroke-linecap:round; stroke-linejoin:round; stroke-width:2; stroke-opacity:0.1; fill:none" points="1761.48,1486.45 1761.48,123.472 "/>
<polyline clip-path="url(#clip292)" style="stroke:#000000; stroke-linecap:round; stroke-linejoin:round; stroke-width:2; stroke-opacity:0.1; fill:none" points="2311.42,1486.45 2311.42,123.472 "/>
<polyline clip-path="url(#clip290)" style="stroke:#000000; stroke-linecap:round; stroke-linejoin:round; stroke-width:4; stroke-opacity:1; fill:none" points="265.445,1486.45 2352.76,1486.45 "/>
<polyline clip-path="url(#clip290)" style="stroke:#000000; stroke-linecap:round; stroke-linejoin:round; stroke-width:4; stroke-opacity:1; fill:none" points="679.323,1486.45 679.323,1467.55 "/>
<polyline clip-path="url(#clip290)" style="stroke:#000000; stroke-linecap:round; stroke-linejoin:round; stroke-width:4; stroke-opacity:1; fill:none" points="1229.27,1486.45 1229.27,1467.55 "/>
<polyline clip-path="url(#clip290)" style="stroke:#000000; stroke-linecap:round; stroke-linejoin:round; stroke-width:4; stroke-opacity:1; fill:none" points="1761.48,1486.45 1761.48,1467.55 "/>
<polyline clip-path="url(#clip290)" style="stroke:#000000; stroke-linecap:round; stroke-linejoin:round; stroke-width:4; stroke-opacity:1; fill:none" points="2311.42,1486.45 2311.42,1467.55 "/>
<path clip-path="url(#clip290)" d="M551.118 1544.91 L567.437 1544.91 L567.437 1548.85 L545.493 1548.85 L545.493 1544.91 Q548.155 1542.16 552.738 1537.53 Q557.345 1532.88 558.525 1531.53 Q560.771 1529.01 561.65 1527.27 Q562.553 1525.51 562.553 1523.82 Q562.553 1521.07 560.609 1519.33 Q558.688 1517.6 555.586 1517.6 Q553.387 1517.6 550.933 1518.36 Q548.502 1519.13 545.725 1520.68 L545.725 1515.95 Q548.549 1514.82 551.002 1514.24 Q553.456 1513.66 555.493 1513.66 Q560.863 1513.66 564.058 1516.35 Q567.252 1519.03 567.252 1523.52 Q567.252 1525.65 566.442 1527.57 Q565.655 1529.47 563.549 1532.07 Q562.97 1532.74 559.868 1535.95 Q556.766 1539.15 551.118 1544.91 Z" fill="#000000" fill-rule="nonzero" fill-opacity="1" /><path clip-path="url(#clip290)" d="M587.252 1517.37 Q583.641 1517.37 581.812 1520.93 Q580.007 1524.47 580.007 1531.6 Q580.007 1538.71 581.812 1542.27 Q583.641 1545.82 587.252 1545.82 Q590.886 1545.82 592.692 1542.27 Q594.521 1538.71 594.521 1531.6 Q594.521 1524.47 592.692 1520.93 Q590.886 1517.37 587.252 1517.37 M587.252 1513.66 Q593.062 1513.66 596.118 1518.27 Q599.197 1522.85 599.197 1531.6 Q599.197 1540.33 596.118 1544.94 Q593.062 1549.52 587.252 1549.52 Q581.442 1549.52 578.363 1544.94 Q575.308 1540.33 575.308 1531.6 Q575.308 1522.85 578.363 1518.27 Q581.442 1513.66 587.252 1513.66 Z" fill="#000000" fill-rule="nonzero" fill-opacity="1" /><path clip-path="url(#clip290)" d="M608.224 1544.91 L615.863 1544.91 L615.863 1518.55 L607.553 1520.21 L607.553 1515.95 L615.817 1514.29 L620.493 1514.29 L620.493 1544.91 L628.132 1544.91 L628.132 1548.85 L608.224 1548.85 L608.224 1544.91 Z" fill="#000000" fill-rule="nonzero" fill-opacity="1" /><path clip-path="url(#clip290)" d="M641.604 1544.91 L657.923 1544.91 L657.923 1548.85 L635.979 1548.85 L635.979 1544.91 Q638.641 1542.16 643.224 1537.53 Q647.831 1532.88 649.011 1531.53 Q651.256 1529.01 652.136 1527.27 Q653.039 1525.51 653.039 1523.82 Q653.039 1521.07 651.094 1519.33 Q649.173 1517.6 646.071 1517.6 Q643.872 1517.6 641.419 1518.36 Q638.988 1519.13 636.21 1520.68 L636.21 1515.95 Q639.034 1514.82 641.488 1514.24 Q643.942 1513.66 645.979 1513.66 Q651.349 1513.66 654.543 1516.35 Q657.738 1519.03 657.738 1523.52 Q657.738 1525.65 656.928 1527.57 Q656.141 1529.47 654.034 1532.07 Q653.456 1532.74 650.354 1535.95 Q647.252 1539.15 641.604 1544.91 Z" fill="#000000" fill-rule="nonzero" fill-opacity="1" /><path clip-path="url(#clip290)" d="M664.983 1533.96 L677.46 1533.96 L677.46 1537.76 L664.983 1537.76 L664.983 1533.96 Z" fill="#000000" fill-rule="nonzero" fill-opacity="1" /><path clip-path="url(#clip290)" d="M685.654 1544.91 L693.293 1544.91 L693.293 1518.55 L684.983 1520.21 L684.983 1515.95 L693.247 1514.29 L697.923 1514.29 L697.923 1544.91 L705.562 1544.91 L705.562 1548.85 L685.654 1548.85 L685.654 1544.91 Z" fill="#000000" fill-rule="nonzero" fill-opacity="1" /><path clip-path="url(#clip290)" d="M725.006 1517.37 Q721.395 1517.37 719.566 1520.93 Q717.761 1524.47 717.761 1531.6 Q717.761 1538.71 719.566 1542.27 Q721.395 1545.82 725.006 1545.82 Q728.64 1545.82 730.446 1542.27 Q732.275 1538.71 732.275 1531.6 Q732.275 1524.47 730.446 1520.93 Q728.64 1517.37 725.006 1517.37 M725.006 1513.66 Q730.816 1513.66 733.872 1518.27 Q736.95 1522.85 736.95 1531.6 Q736.95 1540.33 733.872 1544.94 Q730.816 1549.52 725.006 1549.52 Q719.196 1549.52 716.117 1544.94 Q713.062 1540.33 713.062 1531.6 Q713.062 1522.85 716.117 1518.27 Q719.196 1513.66 725.006 1513.66 Z" fill="#000000" fill-rule="nonzero" fill-opacity="1" /><path clip-path="url(#clip290)" d="M742.413 1533.96 L754.89 1533.96 L754.89 1537.76 L742.413 1537.76 L742.413 1533.96 Z" fill="#000000" fill-rule="nonzero" fill-opacity="1" /><path clip-path="url(#clip290)" d="M772.274 1517.37 Q768.663 1517.37 766.835 1520.93 Q765.029 1524.47 765.029 1531.6 Q765.029 1538.71 766.835 1542.27 Q768.663 1545.82 772.274 1545.82 Q775.909 1545.82 777.714 1542.27 Q779.543 1538.71 779.543 1531.6 Q779.543 1524.47 777.714 1520.93 Q775.909 1517.37 772.274 1517.37 M772.274 1513.66 Q778.084 1513.66 781.14 1518.27 Q784.219 1522.85 784.219 1531.6 Q784.219 1540.33 781.14 1544.94 Q778.084 1549.52 772.274 1549.52 Q766.464 1549.52 763.385 1544.94 Q760.33 1540.33 760.33 1531.6 Q760.33 1522.85 763.385 1518.27 Q766.464 1513.66 772.274 1513.66 Z" fill="#000000" fill-rule="nonzero" fill-opacity="1" /><path clip-path="url(#clip290)" d="M793.246 1544.91 L800.885 1544.91 L800.885 1518.55 L792.575 1520.21 L792.575 1515.95 L800.839 1514.29 L805.515 1514.29 L805.515 1544.91 L813.154 1544.91 L813.154 1548.85 L793.246 1548.85 L793.246 1544.91 Z" fill="#000000" fill-rule="nonzero" fill-opacity="1" /><path clip-path="url(#clip290)" d="M1101.06 1544.91 L1117.38 1544.91 L1117.38 1548.85 L1095.44 1548.85 L1095.44 1544.91 Q1098.1 1542.16 1102.68 1537.53 Q1107.29 1532.88 1108.47 1531.53 Q1110.72 1529.01 1111.6 1527.27 Q1112.5 1525.51 1112.5 1523.82 Q1112.5 1521.07 1110.55 1519.33 Q1108.63 1517.6 1105.53 1517.6 Q1103.33 1517.6 1100.88 1518.36 Q1098.45 1519.13 1095.67 1520.68 L1095.67 1515.95 Q1098.49 1514.82 1100.95 1514.24 Q1103.4 1513.66 1105.44 1513.66 Q1110.81 1513.66 1114 1516.35 Q1117.2 1519.03 1117.2 1523.52 Q1117.2 1525.65 1116.39 1527.57 Q1115.6 1529.47 1113.49 1532.07 Q1112.92 1532.74 1109.81 1535.95 Q1106.71 1539.15 1101.06 1544.91 Z" fill="#000000" fill-rule="nonzero" fill-opacity="1" /><path clip-path="url(#clip290)" d="M1137.2 1517.37 Q1133.59 1517.37 1131.76 1520.93 Q1129.95 1524.47 1129.95 1531.6 Q1129.95 1538.71 1131.76 1542.27 Q1133.59 1545.82 1137.2 1545.82 Q1140.83 1545.82 1142.64 1542.27 Q1144.47 1538.71 1144.47 1531.6 Q1144.47 1524.47 1142.64 1520.93 Q1140.83 1517.37 1137.2 1517.37 M1137.2 1513.66 Q1143.01 1513.66 1146.06 1518.27 Q1149.14 1522.85 1149.14 1531.6 Q1149.14 1540.33 1146.06 1544.94 Q1143.01 1549.52 1137.2 1549.52 Q1131.39 1549.52 1128.31 1544.94 Q1125.25 1540.33 1125.25 1531.6 Q1125.25 1522.85 1128.31 1518.27 Q1131.39 1513.66 1137.2 1513.66 Z" fill="#000000" fill-rule="nonzero" fill-opacity="1" /><path clip-path="url(#clip290)" d="M1158.17 1544.91 L1165.81 1544.91 L1165.81 1518.55 L1157.5 1520.21 L1157.5 1515.95 L1165.76 1514.29 L1170.44 1514.29 L1170.44 1544.91 L1178.08 1544.91 L1178.08 1548.85 L1158.17 1548.85 L1158.17 1544.91 Z" fill="#000000" fill-rule="nonzero" fill-opacity="1" /><path clip-path="url(#clip290)" d="M1191.55 1544.91 L1207.87 1544.91 L1207.87 1548.85 L1185.92 1548.85 L1185.92 1544.91 Q1188.59 1542.16 1193.17 1537.53 Q1197.78 1532.88 1198.96 1531.53 Q1201.2 1529.01 1202.08 1527.27 Q1202.98 1525.51 1202.98 1523.82 Q1202.98 1521.07 1201.04 1519.33 Q1199.12 1517.6 1196.02 1517.6 Q1193.82 1517.6 1191.36 1518.36 Q1188.93 1519.13 1186.16 1520.68 L1186.16 1515.95 Q1188.98 1514.82 1191.43 1514.24 Q1193.89 1513.66 1195.92 1513.66 Q1201.3 1513.66 1204.49 1516.35 Q1207.68 1519.03 1207.68 1523.52 Q1207.68 1525.65 1206.87 1527.57 Q1206.09 1529.47 1203.98 1532.07 Q1203.4 1532.74 1200.3 1535.95 Q1197.2 1539.15 1191.55 1544.91 Z" fill="#000000" fill-rule="nonzero" fill-opacity="1" /><path clip-path="url(#clip290)" d="M1214.93 1533.96 L1227.41 1533.96 L1227.41 1537.76 L1214.93 1537.76 L1214.93 1533.96 Z" fill="#000000" fill-rule="nonzero" fill-opacity="1" /><path clip-path="url(#clip290)" d="M1235.6 1544.91 L1243.24 1544.91 L1243.24 1518.55 L1234.93 1520.21 L1234.93 1515.95 L1243.19 1514.29 L1247.87 1514.29 L1247.87 1544.91 L1255.51 1544.91 L1255.51 1548.85 L1235.6 1548.85 L1235.6 1544.91 Z" fill="#000000" fill-rule="nonzero" fill-opacity="1" /><path clip-path="url(#clip290)" d="M1265.76 1544.91 L1273.4 1544.91 L1273.4 1518.55 L1265.09 1520.21 L1265.09 1515.95 L1273.35 1514.29 L1278.03 1514.29 L1278.03 1544.91 L1285.67 1544.91 L1285.67 1548.85 L1265.76 1548.85 L1265.76 1544.91 Z" fill="#000000" fill-rule="nonzero" fill-opacity="1" /><path clip-path="url(#clip290)" d="M1292.36 1533.96 L1304.84 1533.96 L1304.84 1537.76 L1292.36 1537.76 L1292.36 1533.96 Z" fill="#000000" fill-rule="nonzero" fill-opacity="1" /><path clip-path="url(#clip290)" d="M1322.22 1517.37 Q1318.61 1517.37 1316.78 1520.93 Q1314.98 1524.47 1314.98 1531.6 Q1314.98 1538.71 1316.78 1542.27 Q1318.61 1545.82 1322.22 1545.82 Q1325.85 1545.82 1327.66 1542.27 Q1329.49 1538.71 1329.49 1531.6 Q1329.49 1524.47 1327.66 1520.93 Q1325.85 1517.37 1322.22 1517.37 M1322.22 1513.66 Q1328.03 1513.66 1331.09 1518.27 Q1334.16 1522.85 1334.16 1531.6 Q1334.16 1540.33 1331.09 1544.94 Q1328.03 1549.52 1322.22 1549.52 Q1316.41 1549.52 1313.33 1544.94 Q1310.28 1540.33 1310.28 1531.6 Q1310.28 1522.85 1313.33 1518.27 Q1316.41 1513.66 1322.22 1513.66 Z" fill="#000000" fill-rule="nonzero" fill-opacity="1" /><path clip-path="url(#clip290)" d="M1343.19 1544.91 L1350.83 1544.91 L1350.83 1518.55 L1342.52 1520.21 L1342.52 1515.95 L1350.78 1514.29 L1355.46 1514.29 L1355.46 1544.91 L1363.1 1544.91 L1363.1 1548.85 L1343.19 1548.85 L1343.19 1544.91 Z" fill="#000000" fill-rule="nonzero" fill-opacity="1" /><path clip-path="url(#clip290)" d="M1633.27 1544.91 L1649.59 1544.91 L1649.59 1548.85 L1627.64 1548.85 L1627.64 1544.91 Q1630.31 1542.16 1634.89 1537.53 Q1639.5 1532.88 1640.68 1531.53 Q1642.92 1529.01 1643.8 1527.27 Q1644.71 1525.51 1644.71 1523.82 Q1644.71 1521.07 1642.76 1519.33 Q1640.84 1517.6 1637.74 1517.6 Q1635.54 1517.6 1633.08 1518.36 Q1630.65 1519.13 1627.88 1520.68 L1627.88 1515.95 Q1630.7 1514.82 1633.15 1514.24 Q1635.61 1513.66 1637.64 1513.66 Q1643.02 1513.66 1646.21 1516.35 Q1649.4 1519.03 1649.4 1523.52 Q1649.4 1525.65 1648.59 1527.57 Q1647.81 1529.47 1645.7 1532.07 Q1645.12 1532.74 1642.02 1535.95 Q1638.92 1539.15 1633.27 1544.91 Z" fill="#000000" fill-rule="nonzero" fill-opacity="1" /><path clip-path="url(#clip290)" d="M1669.4 1517.37 Q1665.79 1517.37 1663.96 1520.93 Q1662.16 1524.47 1662.16 1531.6 Q1662.16 1538.71 1663.96 1542.27 Q1665.79 1545.82 1669.4 1545.82 Q1673.04 1545.82 1674.84 1542.27 Q1676.67 1538.71 1676.67 1531.6 Q1676.67 1524.47 1674.84 1520.93 Q1673.04 1517.37 1669.4 1517.37 M1669.4 1513.66 Q1675.21 1513.66 1678.27 1518.27 Q1681.35 1522.85 1681.35 1531.6 Q1681.35 1540.33 1678.27 1544.94 Q1675.21 1549.52 1669.4 1549.52 Q1663.59 1549.52 1660.52 1544.94 Q1657.46 1540.33 1657.46 1531.6 Q1657.46 1522.85 1660.52 1518.27 Q1663.59 1513.66 1669.4 1513.66 Z" fill="#000000" fill-rule="nonzero" fill-opacity="1" /><path clip-path="url(#clip290)" d="M1690.38 1544.91 L1698.01 1544.91 L1698.01 1518.55 L1689.7 1520.21 L1689.7 1515.95 L1697.97 1514.29 L1702.64 1514.29 L1702.64 1544.91 L1710.28 1544.91 L1710.28 1548.85 L1690.38 1548.85 L1690.38 1544.91 Z" fill="#000000" fill-rule="nonzero" fill-opacity="1" /><path clip-path="url(#clip290)" d="M1723.76 1544.91 L1740.07 1544.91 L1740.07 1548.85 L1718.13 1548.85 L1718.13 1544.91 Q1720.79 1542.16 1725.38 1537.53 Q1729.98 1532.88 1731.16 1531.53 Q1733.41 1529.01 1734.29 1527.27 Q1735.19 1525.51 1735.19 1523.82 Q1735.19 1521.07 1733.25 1519.33 Q1731.32 1517.6 1728.22 1517.6 Q1726.02 1517.6 1723.57 1518.36 Q1721.14 1519.13 1718.36 1520.68 L1718.36 1515.95 Q1721.19 1514.82 1723.64 1514.24 Q1726.09 1513.66 1728.13 1513.66 Q1733.5 1513.66 1736.7 1516.35 Q1739.89 1519.03 1739.89 1523.52 Q1739.89 1525.65 1739.08 1527.57 Q1738.29 1529.47 1736.19 1532.07 Q1735.61 1532.74 1732.51 1535.95 Q1729.4 1539.15 1723.76 1544.91 Z" fill="#000000" fill-rule="nonzero" fill-opacity="1" /><path clip-path="url(#clip290)" d="M1747.14 1533.96 L1759.61 1533.96 L1759.61 1537.76 L1747.14 1537.76 L1747.14 1533.96 Z" fill="#000000" fill-rule="nonzero" fill-opacity="1" /><path clip-path="url(#clip290)" d="M1767.81 1544.91 L1775.45 1544.91 L1775.45 1518.55 L1767.13 1520.21 L1767.13 1515.95 L1775.4 1514.29 L1780.07 1514.29 L1780.07 1544.91 L1787.71 1544.91 L1787.71 1548.85 L1767.81 1548.85 L1767.81 1544.91 Z" fill="#000000" fill-rule="nonzero" fill-opacity="1" /><path clip-path="url(#clip290)" d="M1801.19 1544.91 L1817.51 1544.91 L1817.51 1548.85 L1795.56 1548.85 L1795.56 1544.91 Q1798.22 1542.16 1802.81 1537.53 Q1807.41 1532.88 1808.59 1531.53 Q1810.84 1529.01 1811.72 1527.27 Q1812.62 1525.51 1812.62 1523.82 Q1812.62 1521.07 1810.68 1519.33 Q1808.76 1517.6 1805.65 1517.6 Q1803.45 1517.6 1801 1518.36 Q1798.57 1519.13 1795.79 1520.68 L1795.79 1515.95 Q1798.62 1514.82 1801.07 1514.24 Q1803.52 1513.66 1805.56 1513.66 Q1810.93 1513.66 1814.13 1516.35 Q1817.32 1519.03 1817.32 1523.52 Q1817.32 1525.65 1816.51 1527.57 Q1815.72 1529.47 1813.62 1532.07 Q1813.04 1532.74 1809.94 1535.95 Q1806.83 1539.15 1801.19 1544.91 Z" fill="#000000" fill-rule="nonzero" fill-opacity="1" /><path clip-path="url(#clip290)" d="M1824.57 1533.96 L1837.04 1533.96 L1837.04 1537.76 L1824.57 1537.76 L1824.57 1533.96 Z" fill="#000000" fill-rule="nonzero" fill-opacity="1" /><path clip-path="url(#clip290)" d="M1854.43 1517.37 Q1850.82 1517.37 1848.99 1520.93 Q1847.18 1524.47 1847.18 1531.6 Q1847.18 1538.71 1848.99 1542.27 Q1850.82 1545.82 1854.43 1545.82 Q1858.06 1545.82 1859.87 1542.27 Q1861.69 1538.71 1861.69 1531.6 Q1861.69 1524.47 1859.87 1520.93 Q1858.06 1517.37 1854.43 1517.37 M1854.43 1513.66 Q1860.24 1513.66 1863.29 1518.27 Q1866.37 1522.85 1866.37 1531.6 Q1866.37 1540.33 1863.29 1544.94 Q1860.24 1549.52 1854.43 1549.52 Q1848.62 1549.52 1845.54 1544.94 Q1842.48 1540.33 1842.48 1531.6 Q1842.48 1522.85 1845.54 1518.27 Q1848.62 1513.66 1854.43 1513.66 Z" fill="#000000" fill-rule="nonzero" fill-opacity="1" /><path clip-path="url(#clip290)" d="M1875.4 1544.91 L1883.04 1544.91 L1883.04 1518.55 L1874.73 1520.21 L1874.73 1515.95 L1882.99 1514.29 L1887.67 1514.29 L1887.67 1544.91 L1895.31 1544.91 L1895.31 1548.85 L1875.4 1548.85 L1875.4 1544.91 Z" fill="#000000" fill-rule="nonzero" fill-opacity="1" /><path clip-path="url(#clip290)" d="M2183.22 1544.91 L2199.54 1544.91 L2199.54 1548.85 L2177.59 1548.85 L2177.59 1544.91 Q2180.25 1542.16 2184.84 1537.53 Q2189.44 1532.88 2190.62 1531.53 Q2192.87 1529.01 2193.75 1527.27 Q2194.65 1525.51 2194.65 1523.82 Q2194.65 1521.07 2192.71 1519.33 Q2190.79 1517.6 2187.68 1517.6 Q2185.48 1517.6 2183.03 1518.36 Q2180.6 1519.13 2177.82 1520.68 L2177.82 1515.95 Q2180.65 1514.82 2183.1 1514.24 Q2185.55 1513.66 2187.59 1513.66 Q2192.96 1513.66 2196.16 1516.35 Q2199.35 1519.03 2199.35 1523.52 Q2199.35 1525.65 2198.54 1527.57 Q2197.75 1529.47 2195.65 1532.07 Q2195.07 1532.74 2191.97 1535.95 Q2188.86 1539.15 2183.22 1544.91 Z" fill="#000000" fill-rule="nonzero" fill-opacity="1" /><path clip-path="url(#clip290)" d="M2219.35 1517.37 Q2215.74 1517.37 2213.91 1520.93 Q2212.1 1524.47 2212.1 1531.6 Q2212.1 1538.71 2213.91 1542.27 Q2215.74 1545.82 2219.35 1545.82 Q2222.98 1545.82 2224.79 1542.27 Q2226.62 1538.71 2226.62 1531.6 Q2226.62 1524.47 2224.79 1520.93 Q2222.98 1517.37 2219.35 1517.37 M2219.35 1513.66 Q2225.16 1513.66 2228.22 1518.27 Q2231.29 1522.85 2231.29 1531.6 Q2231.29 1540.33 2228.22 1544.94 Q2225.16 1549.52 2219.35 1549.52 Q2213.54 1549.52 2210.46 1544.94 Q2207.41 1540.33 2207.41 1531.6 Q2207.41 1522.85 2210.46 1518.27 Q2213.54 1513.66 2219.35 1513.66 Z" fill="#000000" fill-rule="nonzero" fill-opacity="1" /><path clip-path="url(#clip290)" d="M2240.32 1544.91 L2247.96 1544.91 L2247.96 1518.55 L2239.65 1520.21 L2239.65 1515.95 L2247.91 1514.29 L2252.59 1514.29 L2252.59 1544.91 L2260.23 1544.91 L2260.23 1548.85 L2240.32 1548.85 L2240.32 1544.91 Z" fill="#000000" fill-rule="nonzero" fill-opacity="1" /><path clip-path="url(#clip290)" d="M2283.84 1530.21 Q2287.2 1530.93 2289.07 1533.2 Q2290.97 1535.47 2290.97 1538.8 Q2290.97 1543.92 2287.45 1546.72 Q2283.93 1549.52 2277.45 1549.52 Q2275.28 1549.52 2272.96 1549.08 Q2270.67 1548.66 2268.22 1547.81 L2268.22 1543.29 Q2270.16 1544.43 2272.47 1545.01 Q2274.79 1545.58 2277.31 1545.58 Q2281.71 1545.58 2284 1543.85 Q2286.32 1542.11 2286.32 1538.8 Q2286.32 1535.75 2284.16 1534.03 Q2282.03 1532.3 2278.22 1532.3 L2274.19 1532.3 L2274.19 1528.45 L2278.4 1528.45 Q2281.85 1528.45 2283.68 1527.09 Q2285.51 1525.7 2285.51 1523.11 Q2285.51 1520.45 2283.61 1519.03 Q2281.73 1517.6 2278.22 1517.6 Q2276.29 1517.6 2274.1 1518.01 Q2271.9 1518.43 2269.26 1519.31 L2269.26 1515.14 Q2271.92 1514.4 2274.23 1514.03 Q2276.57 1513.66 2278.63 1513.66 Q2283.96 1513.66 2287.06 1516.09 Q2290.16 1518.5 2290.16 1522.62 Q2290.16 1525.49 2288.52 1527.48 Q2286.87 1529.45 2283.84 1530.21 Z" fill="#000000" fill-rule="nonzero" fill-opacity="1" /><path clip-path="url(#clip290)" d="M2297.08 1533.96 L2309.56 1533.96 L2309.56 1537.76 L2297.08 1537.76 L2297.08 1533.96 Z" fill="#000000" fill-rule="nonzero" fill-opacity="1" /><path clip-path="url(#clip290)" d="M2326.94 1517.37 Q2323.33 1517.37 2321.5 1520.93 Q2319.7 1524.47 2319.7 1531.6 Q2319.7 1538.71 2321.5 1542.27 Q2323.33 1545.82 2326.94 1545.82 Q2330.58 1545.82 2332.38 1542.27 Q2334.21 1538.71 2334.21 1531.6 Q2334.21 1524.47 2332.38 1520.93 Q2330.58 1517.37 2326.94 1517.37 M2326.94 1513.66 Q2332.75 1513.66 2335.81 1518.27 Q2338.89 1522.85 2338.89 1531.6 Q2338.89 1540.33 2335.81 1544.94 Q2332.75 1549.52 2326.94 1549.52 Q2321.13 1549.52 2318.05 1544.94 Q2315 1540.33 2315 1531.6 Q2315 1522.85 2318.05 1518.27 Q2321.13 1513.66 2326.94 1513.66 Z" fill="#000000" fill-rule="nonzero" fill-opacity="1" /><path clip-path="url(#clip290)" d="M2347.91 1544.91 L2355.55 1544.91 L2355.55 1518.55 L2347.24 1520.21 L2347.24 1515.95 L2355.51 1514.29 L2360.18 1514.29 L2360.18 1544.91 L2367.82 1544.91 L2367.82 1548.85 L2347.91 1548.85 L2347.91 1544.91 Z" fill="#000000" fill-rule="nonzero" fill-opacity="1" /><path clip-path="url(#clip290)" d="M2374.51 1533.96 L2386.99 1533.96 L2386.99 1537.76 L2374.51 1537.76 L2374.51 1533.96 Z" fill="#000000" fill-rule="nonzero" fill-opacity="1" /><path clip-path="url(#clip290)" d="M2404.37 1517.37 Q2400.76 1517.37 2398.93 1520.93 Q2397.13 1524.47 2397.13 1531.6 Q2397.13 1538.71 2398.93 1542.27 Q2400.76 1545.82 2404.37 1545.82 Q2408.01 1545.82 2409.81 1542.27 Q2411.64 1538.71 2411.64 1531.6 Q2411.64 1524.47 2409.81 1520.93 Q2408.01 1517.37 2404.37 1517.37 M2404.37 1513.66 Q2410.18 1513.66 2413.24 1518.27 Q2416.32 1522.85 2416.32 1531.6 Q2416.32 1540.33 2413.24 1544.94 Q2410.18 1549.52 2404.37 1549.52 Q2398.56 1549.52 2395.48 1544.94 Q2392.43 1540.33 2392.43 1531.6 Q2392.43 1522.85 2395.48 1518.27 Q2398.56 1513.66 2404.37 1513.66 Z" fill="#000000" fill-rule="nonzero" fill-opacity="1" /><path clip-path="url(#clip290)" d="M2425.34 1544.91 L2432.98 1544.91 L2432.98 1518.55 L2424.67 1520.21 L2424.67 1515.95 L2432.94 1514.29 L2437.61 1514.29 L2437.61 1544.91 L2445.25 1544.91 L2445.25 1548.85 L2425.34 1548.85 L2425.34 1544.91 Z" fill="#000000" fill-rule="nonzero" fill-opacity="1" /><polyline clip-path="url(#clip292)" style="stroke:#000000; stroke-linecap:round; stroke-linejoin:round; stroke-width:2; stroke-opacity:0.1; fill:none" points="265.445,1451.13 2352.76,1451.13 "/>
<polyline clip-path="url(#clip292)" style="stroke:#000000; stroke-linecap:round; stroke-linejoin:round; stroke-width:2; stroke-opacity:0.1; fill:none" points="265.445,1155.26 2352.76,1155.26 "/>
<polyline clip-path="url(#clip292)" style="stroke:#000000; stroke-linecap:round; stroke-linejoin:round; stroke-width:2; stroke-opacity:0.1; fill:none" points="265.445,859.399 2352.76,859.399 "/>
<polyline clip-path="url(#clip292)" style="stroke:#000000; stroke-linecap:round; stroke-linejoin:round; stroke-width:2; stroke-opacity:0.1; fill:none" points="265.445,563.535 2352.76,563.535 "/>
<polyline clip-path="url(#clip292)" style="stroke:#000000; stroke-linecap:round; stroke-linejoin:round; stroke-width:2; stroke-opacity:0.1; fill:none" points="265.445,267.67 2352.76,267.67 "/>
<polyline clip-path="url(#clip290)" style="stroke:#000000; stroke-linecap:round; stroke-linejoin:round; stroke-width:4; stroke-opacity:1; fill:none" points="265.445,1486.45 265.445,123.472 "/>
<polyline clip-path="url(#clip290)" style="stroke:#000000; stroke-linecap:round; stroke-linejoin:round; stroke-width:4; stroke-opacity:1; fill:none" points="265.445,1451.13 284.342,1451.13 "/>
<polyline clip-path="url(#clip290)" style="stroke:#000000; stroke-linecap:round; stroke-linejoin:round; stroke-width:4; stroke-opacity:1; fill:none" points="265.445,1155.26 284.342,1155.26 "/>
<polyline clip-path="url(#clip290)" style="stroke:#000000; stroke-linecap:round; stroke-linejoin:round; stroke-width:4; stroke-opacity:1; fill:none" points="265.445,859.399 284.342,859.399 "/>
<polyline clip-path="url(#clip290)" style="stroke:#000000; stroke-linecap:round; stroke-linejoin:round; stroke-width:4; stroke-opacity:1; fill:none" points="265.445,563.535 284.342,563.535 "/>
<polyline clip-path="url(#clip290)" style="stroke:#000000; stroke-linecap:round; stroke-linejoin:round; stroke-width:4; stroke-opacity:1; fill:none" points="265.445,267.67 284.342,267.67 "/>
<path clip-path="url(#clip290)" d="M217.5 1436.93 Q213.889 1436.93 212.061 1440.49 Q210.255 1444.03 210.255 1451.16 Q210.255 1458.27 212.061 1461.83 Q213.889 1465.38 217.5 1465.38 Q221.135 1465.38 222.94 1461.83 Q224.769 1458.27 224.769 1451.16 Q224.769 1444.03 222.94 1440.49 Q221.135 1436.93 217.5 1436.93 M217.5 1433.22 Q223.31 1433.22 226.366 1437.83 Q229.445 1442.41 229.445 1451.16 Q229.445 1459.89 226.366 1464.5 Q223.31 1469.08 217.5 1469.08 Q211.69 1469.08 208.612 1464.5 Q205.556 1459.89 205.556 1451.16 Q205.556 1442.41 208.612 1437.83 Q211.69 1433.22 217.5 1433.22 Z" fill="#000000" fill-rule="nonzero" fill-opacity="1" /><path clip-path="url(#clip290)" d="M121.043 1168.61 L137.362 1168.61 L137.362 1172.54 L115.418 1172.54 L115.418 1168.61 Q118.08 1165.85 122.663 1161.22 Q127.269 1156.57 128.45 1155.23 Q130.695 1152.71 131.575 1150.97 Q132.478 1149.21 132.478 1147.52 Q132.478 1144.77 130.533 1143.03 Q128.612 1141.29 125.51 1141.29 Q123.311 1141.29 120.857 1142.06 Q118.427 1142.82 115.649 1144.37 L115.649 1139.65 Q118.473 1138.52 120.927 1137.94 Q123.38 1137.36 125.418 1137.36 Q130.788 1137.36 133.982 1140.04 Q137.177 1142.73 137.177 1147.22 Q137.177 1149.35 136.367 1151.27 Q135.579 1153.17 133.473 1155.76 Q132.894 1156.43 129.792 1159.65 Q126.691 1162.84 121.043 1168.61 Z" fill="#000000" fill-rule="nonzero" fill-opacity="1" /><path clip-path="url(#clip290)" d="M157.177 1141.06 Q153.566 1141.06 151.737 1144.63 Q149.931 1148.17 149.931 1155.3 Q149.931 1162.4 151.737 1165.97 Q153.566 1169.51 157.177 1169.51 Q160.811 1169.51 162.616 1165.97 Q164.445 1162.4 164.445 1155.3 Q164.445 1148.17 162.616 1144.63 Q160.811 1141.06 157.177 1141.06 M157.177 1137.36 Q162.987 1137.36 166.042 1141.96 Q169.121 1146.55 169.121 1155.3 Q169.121 1164.02 166.042 1168.63 Q162.987 1173.21 157.177 1173.21 Q151.366 1173.21 148.288 1168.63 Q145.232 1164.02 145.232 1155.3 Q145.232 1146.55 148.288 1141.96 Q151.366 1137.36 157.177 1137.36 Z" fill="#000000" fill-rule="nonzero" fill-opacity="1" /><path clip-path="url(#clip290)" d="M187.338 1141.06 Q183.727 1141.06 181.899 1144.63 Q180.093 1148.17 180.093 1155.3 Q180.093 1162.4 181.899 1165.97 Q183.727 1169.51 187.338 1169.51 Q190.973 1169.51 192.778 1165.97 Q194.607 1162.4 194.607 1155.3 Q194.607 1148.17 192.778 1144.63 Q190.973 1141.06 187.338 1141.06 M187.338 1137.36 Q193.149 1137.36 196.204 1141.96 Q199.283 1146.55 199.283 1155.3 Q199.283 1164.02 196.204 1168.63 Q193.149 1173.21 187.338 1173.21 Q181.528 1173.21 178.45 1168.63 Q175.394 1164.02 175.394 1155.3 Q175.394 1146.55 178.45 1141.96 Q181.528 1137.36 187.338 1137.36 Z" fill="#000000" fill-rule="nonzero" fill-opacity="1" /><path clip-path="url(#clip290)" d="M217.5 1141.06 Q213.889 1141.06 212.061 1144.63 Q210.255 1148.17 210.255 1155.3 Q210.255 1162.4 212.061 1165.97 Q213.889 1169.51 217.5 1169.51 Q221.135 1169.51 222.94 1165.97 Q224.769 1162.4 224.769 1155.3 Q224.769 1148.17 222.94 1144.63 Q221.135 1141.06 217.5 1141.06 M217.5 1137.36 Q223.31 1137.36 226.366 1141.96 Q229.445 1146.55 229.445 1155.3 Q229.445 1164.02 226.366 1168.63 Q223.31 1173.21 217.5 1173.21 Q211.69 1173.21 208.612 1168.63 Q205.556 1164.02 205.556 1155.3 Q205.556 1146.55 208.612 1141.96 Q211.69 1137.36 217.5 1137.36 Z" fill="#000000" fill-rule="nonzero" fill-opacity="1" /><path clip-path="url(#clip290)" d="M129.862 846.193 L118.056 864.642 L129.862 864.642 L129.862 846.193 M128.635 842.119 L134.515 842.119 L134.515 864.642 L139.445 864.642 L139.445 868.531 L134.515 868.531 L134.515 876.679 L129.862 876.679 L129.862 868.531 L114.26 868.531 L114.26 864.017 L128.635 842.119 Z" fill="#000000" fill-rule="nonzero" fill-opacity="1" /><path clip-path="url(#clip290)" d="M157.177 845.198 Q153.566 845.198 151.737 848.763 Q149.931 852.304 149.931 859.434 Q149.931 866.54 151.737 870.105 Q153.566 873.647 157.177 873.647 Q160.811 873.647 162.616 870.105 Q164.445 866.54 164.445 859.434 Q164.445 852.304 162.616 848.763 Q160.811 845.198 157.177 845.198 M157.177 841.494 Q162.987 841.494 166.042 846.1 Q169.121 850.684 169.121 859.434 Q169.121 868.161 166.042 872.767 Q162.987 877.35 157.177 877.35 Q151.366 877.35 148.288 872.767 Q145.232 868.161 145.232 859.434 Q145.232 850.684 148.288 846.1 Q151.366 841.494 157.177 841.494 Z" fill="#000000" fill-rule="nonzero" fill-opacity="1" /><path clip-path="url(#clip290)" d="M187.338 845.198 Q183.727 845.198 181.899 848.763 Q180.093 852.304 180.093 859.434 Q180.093 866.54 181.899 870.105 Q183.727 873.647 187.338 873.647 Q190.973 873.647 192.778 870.105 Q194.607 866.54 194.607 859.434 Q194.607 852.304 192.778 848.763 Q190.973 845.198 187.338 845.198 M187.338 841.494 Q193.149 841.494 196.204 846.1 Q199.283 850.684 199.283 859.434 Q199.283 868.161 196.204 872.767 Q193.149 877.35 187.338 877.35 Q181.528 877.35 178.45 872.767 Q175.394 868.161 175.394 859.434 Q175.394 850.684 178.45 846.1 Q181.528 841.494 187.338 841.494 Z" fill="#000000" fill-rule="nonzero" fill-opacity="1" /><path clip-path="url(#clip290)" d="M217.5 845.198 Q213.889 845.198 212.061 848.763 Q210.255 852.304 210.255 859.434 Q210.255 866.54 212.061 870.105 Q213.889 873.647 217.5 873.647 Q221.135 873.647 222.94 870.105 Q224.769 866.54 224.769 859.434 Q224.769 852.304 222.94 848.763 Q221.135 845.198 217.5 845.198 M217.5 841.494 Q223.31 841.494 226.366 846.1 Q229.445 850.684 229.445 859.434 Q229.445 868.161 226.366 872.767 Q223.31 877.35 217.5 877.35 Q211.69 877.35 208.612 872.767 Q205.556 868.161 205.556 859.434 Q205.556 850.684 208.612 846.1 Q211.69 841.494 217.5 841.494 Z" fill="#000000" fill-rule="nonzero" fill-opacity="1" /><path clip-path="url(#clip290)" d="M127.593 561.671 Q124.445 561.671 122.593 563.824 Q120.765 565.977 120.765 569.727 Q120.765 573.454 122.593 575.63 Q124.445 577.782 127.593 577.782 Q130.742 577.782 132.57 575.63 Q134.422 573.454 134.422 569.727 Q134.422 565.977 132.57 563.824 Q130.742 561.671 127.593 561.671 M136.876 547.019 L136.876 551.278 Q135.117 550.445 133.311 550.005 Q131.529 549.565 129.769 549.565 Q125.14 549.565 122.686 552.69 Q120.255 555.815 119.908 562.134 Q121.274 560.12 123.334 559.056 Q125.394 557.968 127.871 557.968 Q133.08 557.968 136.089 561.139 Q139.121 564.287 139.121 569.727 Q139.121 575.051 135.973 578.268 Q132.825 581.486 127.593 581.486 Q121.598 581.486 118.427 576.903 Q115.256 572.296 115.256 563.569 Q115.256 555.375 119.144 550.514 Q123.033 545.63 129.584 545.63 Q131.343 545.63 133.126 545.977 Q134.931 546.324 136.876 547.019 Z" fill="#000000" fill-rule="nonzero" fill-opacity="1" /><path clip-path="url(#clip290)" d="M157.177 549.333 Q153.566 549.333 151.737 552.898 Q149.931 556.44 149.931 563.569 Q149.931 570.676 151.737 574.241 Q153.566 577.782 157.177 577.782 Q160.811 577.782 162.616 574.241 Q164.445 570.676 164.445 563.569 Q164.445 556.44 162.616 552.898 Q160.811 549.333 157.177 549.333 M157.177 545.63 Q162.987 545.63 166.042 550.236 Q169.121 554.82 169.121 563.569 Q169.121 572.296 166.042 576.903 Q162.987 581.486 157.177 581.486 Q151.366 581.486 148.288 576.903 Q145.232 572.296 145.232 563.569 Q145.232 554.82 148.288 550.236 Q151.366 545.63 157.177 545.63 Z" fill="#000000" fill-rule="nonzero" fill-opacity="1" /><path clip-path="url(#clip290)" d="M187.338 549.333 Q183.727 549.333 181.899 552.898 Q180.093 556.44 180.093 563.569 Q180.093 570.676 181.899 574.241 Q183.727 577.782 187.338 577.782 Q190.973 577.782 192.778 574.241 Q194.607 570.676 194.607 563.569 Q194.607 556.44 192.778 552.898 Q190.973 549.333 187.338 549.333 M187.338 545.63 Q193.149 545.63 196.204 550.236 Q199.283 554.82 199.283 563.569 Q199.283 572.296 196.204 576.903 Q193.149 581.486 187.338 581.486 Q181.528 581.486 178.45 576.903 Q175.394 572.296 175.394 563.569 Q175.394 554.82 178.45 550.236 Q181.528 545.63 187.338 545.63 Z" fill="#000000" fill-rule="nonzero" fill-opacity="1" /><path clip-path="url(#clip290)" d="M217.5 549.333 Q213.889 549.333 212.061 552.898 Q210.255 556.44 210.255 563.569 Q210.255 570.676 212.061 574.241 Q213.889 577.782 217.5 577.782 Q221.135 577.782 222.94 574.241 Q224.769 570.676 224.769 563.569 Q224.769 556.44 222.94 552.898 Q221.135 549.333 217.5 549.333 M217.5 545.63 Q223.31 545.63 226.366 550.236 Q229.445 554.82 229.445 563.569 Q229.445 572.296 226.366 576.903 Q223.31 581.486 217.5 581.486 Q211.69 581.486 208.612 576.903 Q205.556 572.296 205.556 563.569 Q205.556 554.82 208.612 550.236 Q211.69 545.63 217.5 545.63 Z" fill="#000000" fill-rule="nonzero" fill-opacity="1" /><path clip-path="url(#clip290)" d="M127.015 268.539 Q123.681 268.539 121.76 270.321 Q119.862 272.103 119.862 275.228 Q119.862 278.353 121.76 280.136 Q123.681 281.918 127.015 281.918 Q130.348 281.918 132.269 280.136 Q134.191 278.33 134.191 275.228 Q134.191 272.103 132.269 270.321 Q130.371 268.539 127.015 268.539 M122.339 266.548 Q119.33 265.807 117.64 263.747 Q115.973 261.687 115.973 258.724 Q115.973 254.58 118.913 252.173 Q121.876 249.765 127.015 249.765 Q132.177 249.765 135.117 252.173 Q138.056 254.58 138.056 258.724 Q138.056 261.687 136.367 263.747 Q134.7 265.807 131.714 266.548 Q135.093 267.335 136.968 269.626 Q138.867 271.918 138.867 275.228 Q138.867 280.251 135.788 282.937 Q132.732 285.622 127.015 285.622 Q121.297 285.622 118.218 282.937 Q115.163 280.251 115.163 275.228 Q115.163 271.918 117.061 269.626 Q118.959 267.335 122.339 266.548 M120.626 259.164 Q120.626 261.849 122.293 263.353 Q123.982 264.858 127.015 264.858 Q130.024 264.858 131.714 263.353 Q133.427 261.849 133.427 259.164 Q133.427 256.478 131.714 254.974 Q130.024 253.469 127.015 253.469 Q123.982 253.469 122.293 254.974 Q120.626 256.478 120.626 259.164 Z" fill="#000000" fill-rule="nonzero" fill-opacity="1" /><path clip-path="url(#clip290)" d="M157.177 253.469 Q153.566 253.469 151.737 257.034 Q149.931 260.576 149.931 267.705 Q149.931 274.812 151.737 278.376 Q153.566 281.918 157.177 281.918 Q160.811 281.918 162.616 278.376 Q164.445 274.812 164.445 267.705 Q164.445 260.576 162.616 257.034 Q160.811 253.469 157.177 253.469 M157.177 249.765 Q162.987 249.765 166.042 254.372 Q169.121 258.955 169.121 267.705 Q169.121 276.432 166.042 281.038 Q162.987 285.622 157.177 285.622 Q151.366 285.622 148.288 281.038 Q145.232 276.432 145.232 267.705 Q145.232 258.955 148.288 254.372 Q151.366 249.765 157.177 249.765 Z" fill="#000000" fill-rule="nonzero" fill-opacity="1" /><path clip-path="url(#clip290)" d="M187.338 253.469 Q183.727 253.469 181.899 257.034 Q180.093 260.576 180.093 267.705 Q180.093 274.812 181.899 278.376 Q183.727 281.918 187.338 281.918 Q190.973 281.918 192.778 278.376 Q194.607 274.812 194.607 267.705 Q194.607 260.576 192.778 257.034 Q190.973 253.469 187.338 253.469 M187.338 249.765 Q193.149 249.765 196.204 254.372 Q199.283 258.955 199.283 267.705 Q199.283 276.432 196.204 281.038 Q193.149 285.622 187.338 285.622 Q181.528 285.622 178.45 281.038 Q175.394 276.432 175.394 267.705 Q175.394 258.955 178.45 254.372 Q181.528 249.765 187.338 249.765 Z" fill="#000000" fill-rule="nonzero" fill-opacity="1" /><path clip-path="url(#clip290)" d="M217.5 253.469 Q213.889 253.469 212.061 257.034 Q210.255 260.576 210.255 267.705 Q210.255 274.812 212.061 278.376 Q213.889 281.918 217.5 281.918 Q221.135 281.918 222.94 278.376 Q224.769 274.812 224.769 267.705 Q224.769 260.576 222.94 257.034 Q221.135 253.469 217.5 253.469 M217.5 249.765 Q223.31 249.765 226.366 254.372 Q229.445 258.955 229.445 267.705 Q229.445 276.432 226.366 281.038 Q223.31 285.622 217.5 285.622 Q211.69 285.622 208.612 281.038 Q205.556 276.432 205.556 267.705 Q205.556 258.955 208.612 254.372 Q211.69 249.765 217.5 249.765 Z" fill="#000000" fill-rule="nonzero" fill-opacity="1" /><path clip-path="url(#clip290)" d="M21.7677 966.744 L58.7206 966.744 L58.7206 958.978 Q58.7206 949.143 54.2646 944.592 Q49.8086 940.008 40.1964 940.008 Q30.6479 940.008 26.2237 944.592 Q21.7677 949.143 21.7677 958.978 L21.7677 966.744 M16.4842 973.174 L16.4842 959.965 Q16.4842 946.151 22.2451 939.69 Q27.9743 933.229 40.1964 933.229 Q52.4822 933.229 58.2432 939.722 Q64.0042 946.215 64.0042 959.965 L64.0042 973.174 L16.4842 973.174 Z" fill="#000000" fill-rule="nonzero" fill-opacity="1" /><path clip-path="url(#clip290)" d="M46.0847 907.034 Q46.0847 914.132 47.7079 916.869 Q49.3312 919.606 53.2461 919.606 Q56.3653 919.606 58.2114 917.569 Q60.0256 915.5 60.0256 911.968 Q60.0256 907.098 56.5881 904.17 Q53.1188 901.209 47.3897 901.209 L46.0847 901.209 L46.0847 907.034 M43.6657 895.353 L64.0042 895.353 L64.0042 901.209 L58.5933 901.209 Q61.8398 903.215 63.3994 906.207 Q64.9272 909.198 64.9272 913.527 Q64.9272 919.002 61.8716 922.248 Q58.7843 925.463 53.6281 925.463 Q47.6125 925.463 44.5569 921.452 Q41.5014 917.41 41.5014 909.421 L41.5014 901.209 L40.9285 901.209 Q36.8862 901.209 34.6901 903.883 Q32.4621 906.525 32.4621 911.331 Q32.4621 914.386 33.1941 917.283 Q33.9262 920.179 35.3903 922.853 L29.9795 922.853 Q28.7381 919.638 28.1334 916.614 Q27.4968 913.591 27.4968 910.726 Q27.4968 902.992 31.5072 899.172 Q35.5176 895.353 43.6657 895.353 Z" fill="#000000" fill-rule="nonzero" fill-opacity="1" /><path clip-path="url(#clip290)" d="M28.3562 883.29 L28.3562 877.434 L64.0042 877.434 L64.0042 883.29 L28.3562 883.29 M14.479 883.29 L14.479 877.434 L21.895 877.434 L21.895 883.29 L14.479 883.29 Z" fill="#000000" fill-rule="nonzero" fill-opacity="1" /><path clip-path="url(#clip290)" d="M14.479 865.18 L14.479 859.323 L64.0042 859.323 L64.0042 865.18 L14.479 865.18 Z" fill="#000000" fill-rule="nonzero" fill-opacity="1" /><path clip-path="url(#clip290)" d="M67.3143 832.237 Q73.68 834.72 75.6216 837.075 Q77.5631 839.43 77.5631 843.377 L77.5631 848.056 L72.6615 848.056 L72.6615 844.618 Q72.6615 842.199 71.5157 840.863 Q70.3699 839.526 66.1048 837.903 L63.4312 836.852 L28.3562 851.271 L28.3562 845.064 L56.238 833.924 L28.3562 822.784 L28.3562 816.577 L67.3143 832.237 Z" fill="#000000" fill-rule="nonzero" fill-opacity="1" /><path clip-path="url(#clip290)" d="M33.8307 767.116 Q33.2578 768.103 33.0032 769.28 Q32.7167 770.426 32.7167 771.826 Q32.7167 776.792 35.9632 779.465 Q39.1779 782.107 45.2253 782.107 L64.0042 782.107 L64.0042 787.995 L28.3562 787.995 L28.3562 782.107 L33.8944 782.107 Q30.6479 780.261 29.0883 777.301 Q27.4968 774.341 27.4968 770.108 Q27.4968 769.503 27.5923 768.771 Q27.656 768.039 27.8151 767.148 L33.8307 767.116 Z" fill="#000000" fill-rule="nonzero" fill-opacity="1" /><path clip-path="url(#clip290)" d="M28.3562 760.973 L28.3562 755.117 L64.0042 755.117 L64.0042 760.973 L28.3562 760.973 M14.479 760.973 L14.479 755.117 L21.895 755.117 L21.895 760.973 L14.479 760.973 Z" fill="#000000" fill-rule="nonzero" fill-opacity="1" /><path clip-path="url(#clip290)" d="M33.7671 719.405 L14.479 719.405 L14.479 713.548 L64.0042 713.548 L64.0042 719.405 L58.657 719.405 Q61.8398 721.251 63.3994 724.084 Q64.9272 726.885 64.9272 730.831 Q64.9272 737.293 59.771 741.367 Q54.6147 745.409 46.212 745.409 Q37.8093 745.409 32.6531 741.367 Q27.4968 737.293 27.4968 730.831 Q27.4968 726.885 29.0564 724.084 Q30.5842 721.251 33.7671 719.405 M46.212 739.361 Q52.6732 739.361 56.3653 736.72 Q60.0256 734.046 60.0256 729.399 Q60.0256 724.752 56.3653 722.078 Q52.6732 719.405 46.212 719.405 Q39.7508 719.405 36.0905 722.078 Q32.3984 724.752 32.3984 729.399 Q32.3984 734.046 36.0905 736.72 Q39.7508 739.361 46.212 739.361 Z" fill="#000000" fill-rule="nonzero" fill-opacity="1" /><path clip-path="url(#clip290)" d="M44.7161 670.994 L47.5806 670.994 L47.5806 697.921 Q53.6281 697.539 56.8109 694.292 Q59.9619 691.014 59.9619 685.189 Q59.9619 681.815 59.1344 678.664 Q58.3069 675.482 56.6518 672.362 L62.1899 672.362 Q63.5267 675.513 64.227 678.824 Q64.9272 682.134 64.9272 685.539 Q64.9272 694.069 59.9619 699.066 Q54.9967 704.032 46.5303 704.032 Q37.7774 704.032 32.6531 699.321 Q27.4968 694.579 27.4968 686.558 Q27.4968 679.365 32.1438 675.195 Q36.7589 670.994 44.7161 670.994 M42.9973 676.85 Q38.1912 676.914 35.3266 679.556 Q32.4621 682.166 32.4621 686.494 Q32.4621 691.396 35.2312 694.356 Q38.0002 697.284 43.0292 697.73 L42.9973 676.85 Z" fill="#000000" fill-rule="nonzero" fill-opacity="1" /><path clip-path="url(#clip290)" d="M29.4065 638.656 L34.9447 638.656 Q33.6716 641.139 33.035 643.812 Q32.3984 646.486 32.3984 649.35 Q32.3984 653.711 33.7352 655.907 Q35.072 658.071 37.7456 658.071 Q39.7826 658.071 40.9603 656.512 Q42.1061 654.952 43.1565 650.242 L43.6021 648.236 Q44.9389 641.998 47.3897 639.388 Q49.8086 636.746 54.1691 636.746 Q59.1344 636.746 62.0308 640.693 Q64.9272 644.608 64.9272 651.483 Q64.9272 654.347 64.3543 657.467 Q63.8132 660.554 62.6992 663.991 L56.6518 663.991 Q58.3387 660.745 59.198 657.594 Q60.0256 654.443 60.0256 651.355 Q60.0256 647.218 58.6251 644.99 Q57.1929 642.762 54.6147 642.762 Q52.2276 642.762 50.9545 644.385 Q49.6813 645.976 48.5037 651.419 L48.0262 653.456 Q46.8804 658.899 44.5251 661.318 Q42.138 663.737 38.0002 663.737 Q32.9713 663.737 30.2341 660.172 Q27.4968 656.607 27.4968 650.051 Q27.4968 646.804 27.9743 643.939 Q28.4517 641.075 29.4065 638.656 Z" fill="#000000" fill-rule="nonzero" fill-opacity="1" /><path clip-path="url(#clip290)" d="M542.811 12.096 L577.568 12.096 L577.568 18.9825 L550.994 18.9825 L550.994 36.8065 L574.975 36.8065 L574.975 43.6931 L550.994 43.6931 L550.994 72.576 L542.811 72.576 L542.811 12.096 Z" fill="#000000" fill-rule="nonzero" fill-opacity="1" /><path clip-path="url(#clip290)" d="M604.83 32.4315 Q598.835 32.4315 595.351 37.1306 Q591.867 41.7891 591.867 49.9314 Q591.867 58.0738 595.311 62.7728 Q598.795 67.4314 604.83 67.4314 Q610.785 67.4314 614.269 62.7323 Q617.753 58.0333 617.753 49.9314 Q617.753 41.8701 614.269 37.1711 Q610.785 32.4315 604.83 32.4315 M604.83 26.1121 Q614.553 26.1121 620.102 32.4315 Q625.652 38.7509 625.652 49.9314 Q625.652 61.0714 620.102 67.4314 Q614.553 73.7508 604.83 73.7508 Q595.068 73.7508 589.518 67.4314 Q584.009 61.0714 584.009 49.9314 Q584.009 38.7509 589.518 32.4315 Q595.068 26.1121 604.83 26.1121 Z" fill="#000000" fill-rule="nonzero" fill-opacity="1" /><path clip-path="url(#clip290)" d="M670.658 28.9478 L670.658 35.9153 Q667.498 34.1734 664.298 33.3227 Q661.138 32.4315 657.897 32.4315 Q650.646 32.4315 646.636 37.0496 Q642.625 41.6271 642.625 49.9314 Q642.625 58.2358 646.636 62.8538 Q650.646 67.4314 657.897 67.4314 Q661.138 67.4314 664.298 66.5807 Q667.498 65.6895 670.658 63.9476 L670.658 70.8341 Q667.538 72.2924 664.176 73.0216 Q660.854 73.7508 657.087 73.7508 Q646.838 73.7508 640.802 67.3098 Q634.767 60.8689 634.767 49.9314 Q634.767 38.832 640.843 32.472 Q646.96 26.1121 657.573 26.1121 Q661.016 26.1121 664.298 26.8413 Q667.579 27.5299 670.658 28.9478 Z" fill="#000000" fill-rule="nonzero" fill-opacity="1" /><path clip-path="url(#clip290)" d="M682.851 54.671 L682.851 27.2059 L690.304 27.2059 L690.304 54.3874 Q690.304 60.8284 692.816 64.0691 Q695.328 67.2693 700.351 67.2693 Q706.387 67.2693 709.87 63.421 Q713.395 59.5726 713.395 52.9291 L713.395 27.2059 L720.848 27.2059 L720.848 72.576 L713.395 72.576 L713.395 65.6084 Q710.68 69.7404 707.075 71.7658 Q703.51 73.7508 698.771 73.7508 Q690.953 73.7508 686.902 68.8897 Q682.851 64.0286 682.851 54.671 M701.606 26.1121 L701.606 26.1121 Z" fill="#000000" fill-rule="nonzero" fill-opacity="1" /><path clip-path="url(#clip290)" d="M765.125 28.5427 L765.125 35.5912 Q761.965 33.9709 758.562 33.1607 Q755.159 32.3505 751.514 32.3505 Q745.964 32.3505 743.169 34.0519 Q740.414 35.7533 740.414 39.156 Q740.414 41.7486 742.399 43.2475 Q744.384 44.7058 750.379 46.0426 L752.931 46.6097 Q760.871 48.3111 764.193 51.4303 Q767.555 54.509 767.555 60.0587 Q767.555 66.3781 762.532 70.0644 Q757.549 73.7508 748.799 73.7508 Q745.154 73.7508 741.184 73.0216 Q737.254 72.3329 732.879 70.9151 L732.879 63.2184 Q737.011 65.3654 741.022 66.4591 Q745.032 67.5124 748.962 67.5124 Q754.228 67.5124 757.063 65.73 Q759.899 63.9071 759.899 60.6258 Q759.899 57.5877 757.833 55.9673 Q755.808 54.3469 748.881 52.8481 L746.288 52.2405 Q739.361 50.7821 736.282 47.7845 Q733.204 44.7463 733.204 39.4801 Q733.204 33.0797 737.741 29.5959 Q742.278 26.1121 750.622 26.1121 Q754.754 26.1121 758.4 26.7198 Q762.046 27.3274 765.125 28.5427 Z" fill="#000000" fill-rule="nonzero" fill-opacity="1" /><path clip-path="url(#clip290)" d="M823.377 32.4315 Q817.381 32.4315 813.898 37.1306 Q810.414 41.7891 810.414 49.9314 Q810.414 58.0738 813.857 62.7728 Q817.341 67.4314 823.377 67.4314 Q829.331 67.4314 832.815 62.7323 Q836.299 58.0333 836.299 49.9314 Q836.299 41.8701 832.815 37.1711 Q829.331 32.4315 823.377 32.4315 M823.377 26.1121 Q833.099 26.1121 838.649 32.4315 Q844.198 38.7509 844.198 49.9314 Q844.198 61.0714 838.649 67.4314 Q833.099 73.7508 823.377 73.7508 Q813.614 73.7508 808.064 67.4314 Q802.555 61.0714 802.555 49.9314 Q802.555 38.7509 808.064 32.4315 Q813.614 26.1121 823.377 26.1121 Z" fill="#000000" fill-rule="nonzero" fill-opacity="1" /><path clip-path="url(#clip290)" d="M894.267 45.1919 L894.267 72.576 L886.814 72.576 L886.814 45.4349 Q886.814 38.994 884.302 35.7938 Q881.791 32.5936 876.768 32.5936 Q870.732 32.5936 867.248 36.4419 Q863.764 40.2903 863.764 46.9338 L863.764 72.576 L856.27 72.576 L856.27 27.2059 L863.764 27.2059 L863.764 34.2544 Q866.438 30.163 870.043 28.1376 Q873.689 26.1121 878.428 26.1121 Q886.247 26.1121 890.257 30.9732 Q894.267 35.7938 894.267 45.1919 Z" fill="#000000" fill-rule="nonzero" fill-opacity="1" /><path clip-path="url(#clip290)" d="M942.878 14.324 L942.878 27.2059 L958.231 27.2059 L958.231 32.9987 L942.878 32.9987 L942.878 57.6282 Q942.878 63.1779 944.377 64.7578 Q945.916 66.3376 950.575 66.3376 L958.231 66.3376 L958.231 72.576 L950.575 72.576 Q941.947 72.576 938.665 69.3758 Q935.384 66.1351 935.384 57.6282 L935.384 32.9987 L929.915 32.9987 L929.915 27.2059 L935.384 27.2059 L935.384 14.324 L942.878 14.324 Z" fill="#000000" fill-rule="nonzero" fill-opacity="1" /><path clip-path="url(#clip290)" d="M1005.75 45.1919 L1005.75 72.576 L998.295 72.576 L998.295 45.4349 Q998.295 38.994 995.783 35.7938 Q993.272 32.5936 988.248 32.5936 Q982.213 32.5936 978.729 36.4419 Q975.245 40.2903 975.245 46.9338 L975.245 72.576 L967.751 72.576 L967.751 9.54393 L975.245 9.54393 L975.245 34.2544 Q977.919 30.163 981.524 28.1376 Q985.17 26.1121 989.909 26.1121 Q997.728 26.1121 1001.74 30.9732 Q1005.75 35.7938 1005.75 45.1919 Z" fill="#000000" fill-rule="nonzero" fill-opacity="1" /><path clip-path="url(#clip290)" d="M1059.42 48.0275 L1059.42 51.6733 L1025.15 51.6733 Q1025.64 59.3701 1029.77 63.421 Q1033.94 67.4314 1041.36 67.4314 Q1045.65 67.4314 1049.66 66.3781 Q1053.71 65.3249 1057.68 63.2184 L1057.68 70.267 Q1053.67 71.9684 1049.46 72.8596 Q1045.24 73.7508 1040.91 73.7508 Q1030.05 73.7508 1023.69 67.4314 Q1017.37 61.1119 1017.37 50.3365 Q1017.37 39.1965 1023.37 32.6746 Q1029.41 26.1121 1039.61 26.1121 Q1048.77 26.1121 1054.08 32.0264 Q1059.42 37.9003 1059.42 48.0275 M1051.97 45.84 Q1051.89 39.7232 1048.53 36.0774 Q1045.2 32.4315 1039.69 32.4315 Q1033.46 32.4315 1029.69 35.9558 Q1025.96 39.4801 1025.4 45.8805 L1051.97 45.84 Z" fill="#000000" fill-rule="nonzero" fill-opacity="1" /><path clip-path="url(#clip290)" d="M1105.4 14.324 L1105.4 27.2059 L1120.75 27.2059 L1120.75 32.9987 L1105.4 32.9987 L1105.4 57.6282 Q1105.4 63.1779 1106.9 64.7578 Q1108.44 66.3376 1113.1 66.3376 L1120.75 66.3376 L1120.75 72.576 L1113.1 72.576 Q1104.47 72.576 1101.19 69.3758 Q1097.91 66.1351 1097.91 57.6282 L1097.91 32.9987 L1092.44 32.9987 L1092.44 27.2059 L1097.91 27.2059 L1097.91 14.324 L1105.4 14.324 Z" fill="#000000" fill-rule="nonzero" fill-opacity="1" /><path clip-path="url(#clip290)" d="M1169.36 48.0275 L1169.36 51.6733 L1135.09 51.6733 Q1135.58 59.3701 1139.71 63.421 Q1143.88 67.4314 1151.3 67.4314 Q1155.59 67.4314 1159.6 66.3781 Q1163.65 65.3249 1167.62 63.2184 L1167.62 70.267 Q1163.61 71.9684 1159.4 72.8596 Q1155.19 73.7508 1150.85 73.7508 Q1140 73.7508 1133.64 67.4314 Q1127.32 61.1119 1127.32 50.3365 Q1127.32 39.1965 1133.31 32.6746 Q1139.35 26.1121 1149.56 26.1121 Q1158.71 26.1121 1164.02 32.0264 Q1169.36 37.9003 1169.36 48.0275 M1161.91 45.84 Q1161.83 39.7232 1158.47 36.0774 Q1155.15 32.4315 1149.64 32.4315 Q1143.4 32.4315 1139.63 35.9558 Q1135.9 39.4801 1135.34 45.8805 L1161.91 45.84 Z" fill="#000000" fill-rule="nonzero" fill-opacity="1" /><path clip-path="url(#clip290)" d="M1210.52 28.5427 L1210.52 35.5912 Q1207.36 33.9709 1203.96 33.1607 Q1200.56 32.3505 1196.91 32.3505 Q1191.36 32.3505 1188.57 34.0519 Q1185.81 35.7533 1185.81 39.156 Q1185.81 41.7486 1187.8 43.2475 Q1189.78 44.7058 1195.78 46.0426 L1198.33 46.6097 Q1206.27 48.3111 1209.59 51.4303 Q1212.95 54.509 1212.95 60.0587 Q1212.95 66.3781 1207.93 70.0644 Q1202.95 73.7508 1194.2 73.7508 Q1190.55 73.7508 1186.58 73.0216 Q1182.65 72.3329 1178.28 70.9151 L1178.28 63.2184 Q1182.41 65.3654 1186.42 66.4591 Q1190.43 67.5124 1194.36 67.5124 Q1199.62 67.5124 1202.46 65.73 Q1205.3 63.9071 1205.3 60.6258 Q1205.3 57.5877 1203.23 55.9673 Q1201.2 54.3469 1194.28 52.8481 L1191.68 52.2405 Q1184.76 50.7821 1181.68 47.7845 Q1178.6 44.7463 1178.6 39.4801 Q1178.6 33.0797 1183.14 29.5959 Q1187.67 26.1121 1196.02 26.1121 Q1200.15 26.1121 1203.8 26.7198 Q1207.44 27.3274 1210.52 28.5427 Z" fill="#000000" fill-rule="nonzero" fill-opacity="1" /><path clip-path="url(#clip290)" d="M1232.19 14.324 L1232.19 27.2059 L1247.55 27.2059 L1247.55 32.9987 L1232.19 32.9987 L1232.19 57.6282 Q1232.19 63.1779 1233.69 64.7578 Q1235.23 66.3376 1239.89 66.3376 L1247.55 66.3376 L1247.55 72.576 L1239.89 72.576 Q1231.26 72.576 1227.98 69.3758 Q1224.7 66.1351 1224.7 57.6282 L1224.7 32.9987 L1219.23 32.9987 L1219.23 27.2059 L1224.7 27.2059 L1224.7 14.324 L1232.19 14.324 Z" fill="#000000" fill-rule="nonzero" fill-opacity="1" /><path clip-path="url(#clip290)" d="M1257.35 27.2059 L1264.8 27.2059 L1264.8 72.576 L1257.35 72.576 L1257.35 27.2059 M1257.35 9.54393 L1264.8 9.54393 L1264.8 18.9825 L1257.35 18.9825 L1257.35 9.54393 Z" fill="#000000" fill-rule="nonzero" fill-opacity="1" /><path clip-path="url(#clip290)" d="M1318.11 45.1919 L1318.11 72.576 L1310.66 72.576 L1310.66 45.4349 Q1310.66 38.994 1308.15 35.7938 Q1305.64 32.5936 1300.61 32.5936 Q1294.58 32.5936 1291.09 36.4419 Q1287.61 40.2903 1287.61 46.9338 L1287.61 72.576 L1280.12 72.576 L1280.12 27.2059 L1287.61 27.2059 L1287.61 34.2544 Q1290.28 30.163 1293.89 28.1376 Q1297.53 26.1121 1302.27 26.1121 Q1310.09 26.1121 1314.1 30.9732 Q1318.11 35.7938 1318.11 45.1919 Z" fill="#000000" fill-rule="nonzero" fill-opacity="1" /><path clip-path="url(#clip290)" d="M1362.84 49.3643 Q1362.84 41.2625 1359.47 36.8065 Q1356.15 32.3505 1350.12 32.3505 Q1344.12 32.3505 1340.76 36.8065 Q1337.44 41.2625 1337.44 49.3643 Q1337.44 57.4256 1340.76 61.8816 Q1344.12 66.3376 1350.12 66.3376 Q1356.15 66.3376 1359.47 61.8816 Q1362.84 57.4256 1362.84 49.3643 M1370.29 66.9452 Q1370.29 78.5308 1365.14 84.1616 Q1360 89.8329 1349.39 89.8329 Q1345.46 89.8329 1341.97 89.2252 Q1338.49 88.6581 1335.21 87.4428 L1335.21 80.1917 Q1338.49 81.9741 1341.69 82.8248 Q1344.89 83.6755 1348.21 83.6755 Q1355.54 83.6755 1359.19 79.8271 Q1362.84 76.0193 1362.84 68.282 L1362.84 64.5957 Q1360.53 68.6061 1356.92 70.5911 Q1353.32 72.576 1348.29 72.576 Q1339.95 72.576 1334.84 66.2161 Q1329.74 59.8562 1329.74 49.3643 Q1329.74 38.832 1334.84 32.472 Q1339.95 26.1121 1348.29 26.1121 Q1353.32 26.1121 1356.92 28.0971 Q1360.53 30.082 1362.84 34.0924 L1362.84 27.2059 L1370.29 27.2059 L1370.29 66.9452 Z" fill="#000000" fill-rule="nonzero" fill-opacity="1" /><path clip-path="url(#clip290)" d="M1419.22 65.7705 L1419.22 89.8329 L1411.73 89.8329 L1411.73 27.2059 L1419.22 27.2059 L1419.22 34.0924 Q1421.57 30.0415 1425.14 28.0971 Q1428.74 26.1121 1433.73 26.1121 Q1441.99 26.1121 1447.13 32.6746 Q1452.32 39.2371 1452.32 49.9314 Q1452.32 60.6258 1447.13 67.1883 Q1441.99 73.7508 1433.73 73.7508 Q1428.74 73.7508 1425.14 71.8063 Q1421.57 69.8214 1419.22 65.7705 M1444.58 49.9314 Q1444.58 41.7081 1441.18 37.0496 Q1437.82 32.3505 1431.9 32.3505 Q1425.99 32.3505 1422.59 37.0496 Q1419.22 41.7081 1419.22 49.9314 Q1419.22 58.1548 1422.59 62.8538 Q1425.99 67.5124 1431.9 67.5124 Q1437.82 67.5124 1441.18 62.8538 Q1444.58 58.1548 1444.58 49.9314 Z" fill="#000000" fill-rule="nonzero" fill-opacity="1" /><path clip-path="url(#clip290)" d="M1503.48 48.0275 L1503.48 51.6733 L1469.21 51.6733 Q1469.7 59.3701 1473.83 63.421 Q1478 67.4314 1485.42 67.4314 Q1489.71 67.4314 1493.72 66.3781 Q1497.77 65.3249 1501.74 63.2184 L1501.74 70.267 Q1497.73 71.9684 1493.52 72.8596 Q1489.3 73.7508 1484.97 73.7508 Q1474.11 73.7508 1467.75 67.4314 Q1461.43 61.1119 1461.43 50.3365 Q1461.43 39.1965 1467.43 32.6746 Q1473.47 26.1121 1483.67 26.1121 Q1492.83 26.1121 1498.14 32.0264 Q1503.48 37.9003 1503.48 48.0275 M1496.03 45.84 Q1495.95 39.7232 1492.59 36.0774 Q1489.26 32.4315 1483.76 32.4315 Q1477.52 32.4315 1473.75 35.9558 Q1470.02 39.4801 1469.46 45.8805 L1496.03 45.84 Z" fill="#000000" fill-rule="nonzero" fill-opacity="1" /><path clip-path="url(#clip290)" d="M1542.01 34.1734 Q1540.75 33.4443 1539.25 33.1202 Q1537.79 32.7556 1536.01 32.7556 Q1529.69 32.7556 1526.29 36.8875 Q1522.93 40.9789 1522.93 48.6757 L1522.93 72.576 L1515.43 72.576 L1515.43 27.2059 L1522.93 27.2059 L1522.93 34.2544 Q1525.28 30.1225 1529.04 28.1376 Q1532.81 26.1121 1538.2 26.1121 Q1538.97 26.1121 1539.9 26.2337 Q1540.83 26.3147 1541.97 26.5172 L1542.01 34.1734 Z" fill="#000000" fill-rule="nonzero" fill-opacity="1" /><path clip-path="url(#clip290)" d="M1549.83 27.2059 L1557.28 27.2059 L1557.28 72.576 L1549.83 72.576 L1549.83 27.2059 M1549.83 9.54393 L1557.28 9.54393 L1557.28 18.9825 L1549.83 18.9825 L1549.83 9.54393 Z" fill="#000000" fill-rule="nonzero" fill-opacity="1" /><path clip-path="url(#clip290)" d="M1590.46 32.4315 Q1584.46 32.4315 1580.98 37.1306 Q1577.49 41.7891 1577.49 49.9314 Q1577.49 58.0738 1580.94 62.7728 Q1584.42 67.4314 1590.46 67.4314 Q1596.41 67.4314 1599.89 62.7323 Q1603.38 58.0333 1603.38 49.9314 Q1603.38 41.8701 1599.89 37.1711 Q1596.41 32.4315 1590.46 32.4315 M1590.46 26.1121 Q1600.18 26.1121 1605.73 32.4315 Q1611.28 38.7509 1611.28 49.9314 Q1611.28 61.0714 1605.73 67.4314 Q1600.18 73.7508 1590.46 73.7508 Q1580.69 73.7508 1575.14 67.4314 Q1569.63 61.0714 1569.63 49.9314 Q1569.63 38.7509 1575.14 32.4315 Q1580.69 26.1121 1590.46 26.1121 Z" fill="#000000" fill-rule="nonzero" fill-opacity="1" /><path clip-path="url(#clip290)" d="M1653.49 34.0924 L1653.49 9.54393 L1660.94 9.54393 L1660.94 72.576 L1653.49 72.576 L1653.49 65.7705 Q1651.14 69.8214 1647.53 71.8063 Q1643.97 73.7508 1638.95 73.7508 Q1630.72 73.7508 1625.54 67.1883 Q1620.39 60.6258 1620.39 49.9314 Q1620.39 39.2371 1625.54 32.6746 Q1630.72 26.1121 1638.95 26.1121 Q1643.97 26.1121 1647.53 28.0971 Q1651.14 30.0415 1653.49 34.0924 M1628.09 49.9314 Q1628.09 58.1548 1631.45 62.8538 Q1634.85 67.5124 1640.77 67.5124 Q1646.68 67.5124 1650.09 62.8538 Q1653.49 58.1548 1653.49 49.9314 Q1653.49 41.7081 1650.09 37.0496 Q1646.68 32.3505 1640.77 32.3505 Q1634.85 32.3505 1631.45 37.0496 Q1628.09 41.7081 1628.09 49.9314 Z" fill="#000000" fill-rule="nonzero" fill-opacity="1" /><path clip-path="url(#clip290)" d="M1720.57 9.62495 Q1715.14 18.942 1712.51 28.0566 Q1709.88 37.1711 1709.88 46.5287 Q1709.88 55.8863 1712.51 65.0818 Q1715.18 74.2369 1720.57 83.5134 L1714.09 83.5134 Q1708.01 73.9938 1704.97 64.7983 Q1701.98 55.6027 1701.98 46.5287 Q1701.98 37.4952 1704.97 28.3401 Q1707.97 19.1851 1714.09 9.62495 L1720.57 9.62495 Z" fill="#000000" fill-rule="nonzero" fill-opacity="1" /><path clip-path="url(#clip290)" d="M1735.36 12.096 L1770.11 12.096 L1770.11 18.9825 L1743.54 18.9825 L1743.54 36.8065 L1767.52 36.8065 L1767.52 43.6931 L1743.54 43.6931 L1743.54 72.576 L1735.36 72.576 L1735.36 12.096 Z" fill="#000000" fill-rule="nonzero" fill-opacity="1" /><path clip-path="url(#clip290)" d="M1782.75 9.54393 L1790.21 9.54393 L1790.21 72.576 L1782.75 72.576 L1782.75 9.54393 Z" fill="#000000" fill-rule="nonzero" fill-opacity="1" /><path clip-path="url(#clip290)" d="M1805.03 54.671 L1805.03 27.2059 L1812.49 27.2059 L1812.49 54.3874 Q1812.49 60.8284 1815 64.0691 Q1817.51 67.2693 1822.53 67.2693 Q1828.57 67.2693 1832.05 63.421 Q1835.58 59.5726 1835.58 52.9291 L1835.58 27.2059 L1843.03 27.2059 L1843.03 72.576 L1835.58 72.576 L1835.58 65.6084 Q1832.86 69.7404 1829.26 71.7658 Q1825.69 73.7508 1820.95 73.7508 Q1813.13 73.7508 1809.08 68.8897 Q1805.03 64.0286 1805.03 54.671 M1823.79 26.1121 L1823.79 26.1121 Z" fill="#000000" fill-rule="nonzero" fill-opacity="1" /><path clip-path="url(#clip290)" d="M1896.1 27.2059 L1879.69 49.2833 L1896.95 72.576 L1888.16 72.576 L1874.95 54.752 L1861.74 72.576 L1852.95 72.576 L1870.58 48.8377 L1854.45 27.2059 L1863.24 27.2059 L1875.27 43.369 L1887.31 27.2059 L1896.1 27.2059 Z" fill="#000000" fill-rule="nonzero" fill-opacity="1" /><path clip-path="url(#clip290)" d="M1908.53 62.2867 L1917.08 62.2867 L1917.08 72.576 L1908.53 72.576 L1908.53 62.2867 Z" fill="#000000" fill-rule="nonzero" fill-opacity="1" /><path clip-path="url(#clip290)" d="M1934.18 12.096 L1945.19 12.096 L1972.01 62.6918 L1972.01 12.096 L1979.95 12.096 L1979.95 72.576 L1968.93 72.576 L1942.11 21.9802 L1942.11 72.576 L1934.18 72.576 L1934.18 12.096 Z" fill="#000000" fill-rule="nonzero" fill-opacity="1" /><path clip-path="url(#clip290)" d="M1996.23 12.096 L2007.25 12.096 L2034.07 62.6918 L2034.07 12.096 L2042.01 12.096 L2042.01 72.576 L2030.99 72.576 L2004.17 21.9802 L2004.17 72.576 L1996.23 72.576 L1996.23 12.096 Z" fill="#000000" fill-rule="nonzero" fill-opacity="1" /><path clip-path="url(#clip290)" d="M2056.8 9.62495 L2063.28 9.62495 Q2069.35 19.1851 2072.35 28.3401 Q2075.39 37.4952 2075.39 46.5287 Q2075.39 55.6027 2072.35 64.7983 Q2069.35 73.9938 2063.28 83.5134 L2056.8 83.5134 Q2062.18 74.2369 2064.82 65.0818 Q2067.49 55.8863 2067.49 46.5287 Q2067.49 37.1711 2064.82 28.0566 Q2062.18 18.942 2056.8 9.62495 Z" fill="#000000" fill-rule="nonzero" fill-opacity="1" /><polyline clip-path="url(#clip292)" style="stroke:#009af9; stroke-linecap:round; stroke-linejoin:round; stroke-width:4; stroke-opacity:1; fill:none" points="324.52,302.139 342.26,286.902 360,296.665 377.74,266.339 395.48,162.047 413.221,366.341 430.961,434.982 448.701,848.6 466.441,328.175 484.181,309.091 501.922,242.966 519.662,209.237 537.402,281.428 555.142,351.104 572.882,336.015 590.622,307.168 608.363,357.465 626.103,354.211 643.843,185.568 661.583,432.023 679.323,448.444 697.064,764.87 714.804,330.985 732.544,367.081 750.284,244.593 768.024,272.848 785.765,931.886 803.505,640.755 821.245,505.545 838.985,313.381 856.725,331.281 874.466,373.886 892.206,399.478 909.946,469.006 927.686,582.026 945.426,336.607 963.167,347.406 980.907,340.305 998.647,648.744 1016.39,254.357 1034.13,441.639 1051.87,407.023 1069.61,346.666 1087.35,313.086 1105.09,362.495 1122.83,349.921 1140.57,289.564 1158.31,791.498 1176.05,1447.87 1193.79,1288.99 1211.53,627.737 1229.27,565.606 1247.01,586.168 1264.75,691.052 1282.49,695.638 1300.23,673.152 1317.97,609.985 1335.71,706.289 1353.45,664.868 1371.19,564.718 1388.93,484.243 1406.67,437.497 1424.41,523.741 1442.15,845.493 1459.89,638.24 1477.63,645.637 1495.37,608.21 1513.11,618.418 1530.85,760.432 1548.59,637.649 1566.33,617.678 1584.07,689.869 1601.81,1092.39 1619.55,872.713 1637.29,1114.29 1655.03,1092.54 1672.77,698.597 1690.51,865.464 1708.25,673.005 1725.99,663.685 1743.74,612.648 1761.48,683.212 1779.22,763.391 1796.96,528.919 1814.7,473.888 1832.44,603.624 1850.18,655.992 1867.92,710.283 1885.66,625.37 1903.4,973.603 1921.14,686.318 1938.88,637.353 1956.62,664.277 1974.36,632.767 1992.1,621.08 2009.84,704.514 2027.58,891.057 2045.32,772.859 2063.06,629.069 2080.8,671.969 2098.54,840.464 2116.28,915.169 2134.02,1192.39 2151.76,1186.77 2169.5,1315.03 2187.24,1301.27 2204.98,1385.89 2222.72,1138.4 2240.46,993.278 2258.2,1252.75 2275.94,1185.44 2293.68,1047.42 "/>
<polyline clip-path="url(#clip292)" style="stroke:#e26f46; stroke-linecap:round; stroke-linejoin:round; stroke-width:4; stroke-opacity:1; fill:none" points="324.52,432.98 342.26,472.831 360,448.959 377.74,476.5 395.48,408.922 413.221,454.522 430.961,576.178 448.701,792.145 466.441,454.405 484.181,425.538 501.922,486.637 519.662,481.43 537.402,340.284 555.142,317.324 572.882,386.99 590.622,441.654 608.363,515.073 626.103,518.702 643.843,285.646 661.583,342.213 679.323,434.263 697.064,812.542 714.804,561.961 732.544,535.083 750.284,339.808 768.024,359.088 785.765,562.995 803.505,666.505 821.245,601.121 838.985,390.95 856.725,383.287 874.466,414.44 892.206,393.716 909.946,418.313 927.686,593.622 945.426,408.205 963.167,407.272 980.907,551.758 998.647,518.501 1016.39,283.042 1034.13,386.42 1051.87,300.959 1069.61,331.787 1087.35,333.337 1105.09,510.272 1122.83,503.091 1140.57,505.961 1158.31,646.691 1176.05,813.669 1193.79,776.705 1211.53,627.886 1229.27,590.902 1247.01,515.129 1264.75,626.519 1282.49,565.365 1300.23,566.305 1317.97,628.984 1335.71,765.818 1353.45,516.018 1371.19,482.119 1388.93,376.891 1406.67,449.605 1424.41,462.904 1442.15,770.445 1459.89,647.776 1477.63,642.896 1495.37,467.485 1513.11,484.244 1530.85,603.276 1548.59,572.296 1566.33,566.346 1584.07,497.57 1601.81,475.251 1619.55,426.276 1637.29,603.999 1655.03,611.159 1672.77,444.132 1690.51,803.075 1708.25,616.808 1725.99,525.748 1743.74,462.687 1761.48,606.426 1779.22,616.267 1796.96,370.702 1814.7,411.333 1832.44,487.262 1850.18,579.297 1867.92,612.859 1885.66,546.817 1903.4,608.782 1921.14,558.098 1938.88,700.609 1956.62,627.304 1974.36,516.166 1992.1,538.128 2009.84,455.399 2027.58,554.262 2045.32,510.495 2063.06,483.627 2080.8,566.134 2098.54,598.392 2116.28,779.535 2134.02,831.097 2151.76,732.269 2169.5,725.171 2187.24,872.477 2204.98,1026.16 2222.72,913.514 2240.46,699.396 2258.2,797.852 2275.94,864.436 2293.68,728.1 "/>
<path clip-path="url(#clip290)" d="M335.022 1441.02 L622.618 1441.02 L622.618 1285.5 L335.022 1285.5  Z" fill="#ffffff" fill-rule="evenodd" fill-opacity="1"/>
<polyline clip-path="url(#clip290)" style="stroke:#000000; stroke-linecap:round; stroke-linejoin:round; stroke-width:4; stroke-opacity:1; fill:none" points="335.022,1441.02 622.618,1441.02 622.618,1285.5 335.022,1285.5 335.022,1441.02 "/>
<polyline clip-path="url(#clip290)" style="stroke:#009af9; stroke-linecap:round; stroke-linejoin:round; stroke-width:4; stroke-opacity:1; fill:none" points="358.214,1337.34 497.368,1337.34 "/>
<path clip-path="url(#clip290)" d="M532.459 1331.68 Q529.033 1331.68 527.042 1334.36 Q525.051 1337.02 525.051 1341.68 Q525.051 1346.33 527.019 1349.01 Q529.01 1351.68 532.459 1351.68 Q535.861 1351.68 537.852 1348.99 Q539.843 1346.31 539.843 1341.68 Q539.843 1337.07 537.852 1334.38 Q535.861 1331.68 532.459 1331.68 M532.459 1328.06 Q538.014 1328.06 541.185 1331.68 Q544.357 1335.29 544.357 1341.68 Q544.357 1348.04 541.185 1351.68 Q538.014 1355.29 532.459 1355.29 Q526.88 1355.29 523.709 1351.68 Q520.561 1348.04 520.561 1341.68 Q520.561 1335.29 523.709 1331.68 Q526.88 1328.06 532.459 1328.06 Z" fill="#000000" fill-rule="nonzero" fill-opacity="1" /><path clip-path="url(#clip290)" d="M570.028 1341.68 Q570.028 1336.98 568.083 1334.31 Q566.162 1331.63 562.783 1331.63 Q559.403 1331.63 557.458 1334.31 Q555.537 1336.98 555.537 1341.68 Q555.537 1346.37 557.458 1349.06 Q559.403 1351.72 562.783 1351.72 Q566.162 1351.72 568.083 1349.06 Q570.028 1346.37 570.028 1341.68 M555.537 1332.62 Q556.88 1330.31 558.917 1329.2 Q560.977 1328.06 563.824 1328.06 Q568.546 1328.06 571.486 1331.81 Q574.449 1335.56 574.449 1341.68 Q574.449 1347.79 571.486 1351.54 Q568.546 1355.29 563.824 1355.29 Q560.977 1355.29 558.917 1354.18 Q556.88 1353.04 555.537 1350.73 L555.537 1354.62 L551.255 1354.62 L551.255 1318.6 L555.537 1318.6 L555.537 1332.62 Z" fill="#000000" fill-rule="nonzero" fill-opacity="1" /><path clip-path="url(#clip290)" d="M598.037 1329.45 L598.037 1333.48 Q596.231 1332.56 594.287 1332.09 Q592.343 1331.63 590.259 1331.63 Q587.088 1331.63 585.491 1332.6 Q583.917 1333.57 583.917 1335.52 Q583.917 1337 585.051 1337.86 Q586.185 1338.69 589.611 1339.45 L591.069 1339.78 Q595.606 1340.75 597.505 1342.53 Q599.426 1344.29 599.426 1347.46 Q599.426 1351.07 596.555 1353.18 Q593.708 1355.29 588.708 1355.29 Q586.625 1355.29 584.356 1354.87 Q582.111 1354.48 579.611 1353.67 L579.611 1349.27 Q581.972 1350.5 584.264 1351.12 Q586.556 1351.72 588.801 1351.72 Q591.81 1351.72 593.431 1350.7 Q595.051 1349.66 595.051 1347.79 Q595.051 1346.05 593.87 1345.12 Q592.713 1344.2 588.755 1343.34 L587.273 1343 Q583.315 1342.16 581.556 1340.45 Q579.796 1338.71 579.796 1335.7 Q579.796 1332.05 582.389 1330.06 Q584.981 1328.06 589.75 1328.06 Q592.111 1328.06 594.194 1328.41 Q596.278 1328.76 598.037 1329.45 Z" fill="#000000" fill-rule="nonzero" fill-opacity="1" /><polyline clip-path="url(#clip290)" style="stroke:#e26f46; stroke-linecap:round; stroke-linejoin:round; stroke-width:4; stroke-opacity:1; fill:none" points="358.214,1389.18 497.368,1389.18 "/>
<path clip-path="url(#clip290)" d="M520.561 1380.53 L525.074 1380.53 L533.176 1402.29 L541.278 1380.53 L545.792 1380.53 L536.07 1406.46 L530.283 1406.46 L520.561 1380.53 Z" fill="#000000" fill-rule="nonzero" fill-opacity="1" /><path clip-path="url(#clip290)" d="M563.454 1393.42 Q558.292 1393.42 556.301 1394.6 Q554.31 1395.78 554.31 1398.63 Q554.31 1400.9 555.792 1402.24 Q557.296 1403.56 559.866 1403.56 Q563.408 1403.56 565.537 1401.06 Q567.69 1398.54 567.69 1394.37 L567.69 1393.42 L563.454 1393.42 M571.949 1391.66 L571.949 1406.46 L567.69 1406.46 L567.69 1402.52 Q566.232 1404.88 564.056 1406.02 Q561.88 1407.13 558.732 1407.13 Q554.75 1407.13 552.389 1404.9 Q550.051 1402.66 550.051 1398.91 Q550.051 1394.53 552.968 1392.31 Q555.908 1390.09 561.718 1390.09 L567.69 1390.09 L567.69 1389.67 Q567.69 1386.73 565.745 1385.14 Q563.824 1383.52 560.329 1383.52 Q558.107 1383.52 556 1384.05 Q553.894 1384.58 551.949 1385.65 L551.949 1381.71 Q554.287 1380.81 556.486 1380.37 Q558.685 1379.9 560.769 1379.9 Q566.394 1379.9 569.171 1382.82 Q571.949 1385.74 571.949 1391.66 Z" fill="#000000" fill-rule="nonzero" fill-opacity="1" /><path clip-path="url(#clip290)" d="M580.722 1370.44 L584.981 1370.44 L584.981 1406.46 L580.722 1406.46 L580.722 1370.44 Z" fill="#000000" fill-rule="nonzero" fill-opacity="1" /></svg>
