<?xml version="1.0" encoding="utf-8"?>
<svg xmlns="http://www.w3.org/2000/svg" xmlns:xlink="http://www.w3.org/1999/xlink" width="600" height="400" viewBox="0 0 2400 1600">
<defs>
  <clipPath id="clip500">
    <rect x="0" y="0" width="2400" height="1600"/>
  </clipPath>
</defs>
<path clip-path="url(#clip500)" d="M0 1600 L2400 1600 L2400 0 L0 0  Z" fill="#ffffff" fill-rule="evenodd" fill-opacity="1"/>
<defs>
  <clipPath id="clip501">
    <rect x="480" y="0" width="1681" height="1600"/>
  </clipPath>
</defs>
<path clip-path="url(#clip500)" d="M277.246 1486.45 L2352.76 1486.45 L2352.76 47.2441 L277.246 47.2441  Z" fill="#ffffff" fill-rule="evenodd" fill-opacity="1"/>
<defs>
  <clipPath id="clip502">
    <rect x="277" y="47" width="2077" height="1440"/>
  </clipPath>
</defs>
<polyline clip-path="url(#clip502)" style="stroke:#000000; stroke-linecap:round; stroke-linejoin:round; stroke-width:2; stroke-opacity:0.1; fill:none" points="277.246,1486.45 277.246,47.2441 "/>
<polyline clip-path="url(#clip502)" style="stroke:#000000; stroke-linecap:round; stroke-linejoin:round; stroke-width:2; stroke-opacity:0.1; fill:none" points="692.348,1486.45 692.348,47.2441 "/>
<polyline clip-path="url(#clip502)" style="stroke:#000000; stroke-linecap:round; stroke-linejoin:round; stroke-width:2; stroke-opacity:0.1; fill:none" points="1107.45,1486.45 1107.45,47.2441 "/>
<polyline clip-path="url(#clip502)" style="stroke:#000000; stroke-linecap:round; stroke-linejoin:round; stroke-width:2; stroke-opacity:0.1; fill:none" points="1522.55,1486.45 1522.55,47.2441 "/>
<polyline clip-path="url(#clip502)" style="stroke:#000000; stroke-linecap:round; stroke-linejoin:round; stroke-width:2; stroke-opacity:0.1; fill:none" points="1937.65,1486.45 1937.65,47.2441 "/>
<polyline clip-path="url(#clip502)" style="stroke:#000000; stroke-linecap:round; stroke-linejoin:round; stroke-width:2; stroke-opacity:0.1; fill:none" points="2352.76,1486.45 2352.76,47.2441 "/>
<polyline clip-path="url(#clip502)" style="stroke:#000000; stroke-linecap:round; stroke-linejoin:round; stroke-width:2; stroke-opacity:0.1; fill:none" points="277.246,1441.47 2352.76,1441.47 "/>
<polyline clip-path="url(#clip502)" style="stroke:#000000; stroke-linecap:round; stroke-linejoin:round; stroke-width:2; stroke-opacity:0.1; fill:none" points="277.246,1329.03 2352.76,1329.03 "/>
<polyline clip-path="url(#clip502)" style="stroke:#000000; stroke-linecap:round; stroke-linejoin:round; stroke-width:2; stroke-opacity:0.1; fill:none" points="277.246,1216.6 2352.76,1216.6 "/>
<polyline clip-path="url(#clip502)" style="stroke:#000000; stroke-linecap:round; stroke-linejoin:round; stroke-width:2; stroke-opacity:0.1; fill:none" points="277.246,1104.16 2352.76,1104.16 "/>
<polyline clip-path="url(#clip502)" style="stroke:#000000; stroke-linecap:round; stroke-linejoin:round; stroke-width:2; stroke-opacity:0.1; fill:none" points="277.246,991.722 2352.76,991.722 "/>
<polyline clip-path="url(#clip502)" style="stroke:#000000; stroke-linecap:round; stroke-linejoin:round; stroke-width:2; stroke-opacity:0.1; fill:none" points="277.246,879.284 2352.76,879.284 "/>
<polyline clip-path="url(#clip502)" style="stroke:#000000; stroke-linecap:round; stroke-linejoin:round; stroke-width:2; stroke-opacity:0.1; fill:none" points="277.246,766.846 2352.76,766.846 "/>
<polyline clip-path="url(#clip502)" style="stroke:#000000; stroke-linecap:round; stroke-linejoin:round; stroke-width:2; stroke-opacity:0.1; fill:none" points="277.246,654.408 2352.76,654.408 "/>
<polyline clip-path="url(#clip502)" style="stroke:#000000; stroke-linecap:round; stroke-linejoin:round; stroke-width:2; stroke-opacity:0.1; fill:none" points="277.246,541.97 2352.76,541.97 "/>
<polyline clip-path="url(#clip502)" style="stroke:#000000; stroke-linecap:round; stroke-linejoin:round; stroke-width:2; stroke-opacity:0.1; fill:none" points="277.246,429.533 2352.76,429.533 "/>
<polyline clip-path="url(#clip502)" style="stroke:#000000; stroke-linecap:round; stroke-linejoin:round; stroke-width:2; stroke-opacity:0.1; fill:none" points="277.246,317.095 2352.76,317.095 "/>
<polyline clip-path="url(#clip502)" style="stroke:#000000; stroke-linecap:round; stroke-linejoin:round; stroke-width:2; stroke-opacity:0.1; fill:none" points="277.246,204.657 2352.76,204.657 "/>
<polyline clip-path="url(#clip502)" style="stroke:#000000; stroke-linecap:round; stroke-linejoin:round; stroke-width:2; stroke-opacity:0.1; fill:none" points="277.246,92.2192 2352.76,92.2192 "/>
<polyline clip-path="url(#clip500)" style="stroke:#000000; stroke-linecap:round; stroke-linejoin:round; stroke-width:4; stroke-opacity:1; fill:none" points="277.246,1486.45 2352.76,1486.45 "/>
<polyline clip-path="url(#clip500)" style="stroke:#000000; stroke-linecap:round; stroke-linejoin:round; stroke-width:4; stroke-opacity:1; fill:none" points="277.246,1486.45 277.246,1467.55 "/>
<polyline clip-path="url(#clip500)" style="stroke:#000000; stroke-linecap:round; stroke-linejoin:round; stroke-width:4; stroke-opacity:1; fill:none" points="692.348,1486.45 692.348,1467.55 "/>
<polyline clip-path="url(#clip500)" style="stroke:#000000; stroke-linecap:round; stroke-linejoin:round; stroke-width:4; stroke-opacity:1; fill:none" points="1107.45,1486.45 1107.45,1467.55 "/>
<polyline clip-path="url(#clip500)" style="stroke:#000000; stroke-linecap:round; stroke-linejoin:round; stroke-width:4; stroke-opacity:1; fill:none" points="1522.55,1486.45 1522.55,1467.55 "/>
<polyline clip-path="url(#clip500)" style="stroke:#000000; stroke-linecap:round; stroke-linejoin:round; stroke-width:4; stroke-opacity:1; fill:none" points="1937.65,1486.45 1937.65,1467.55 "/>
<polyline clip-path="url(#clip500)" style="stroke:#000000; stroke-linecap:round; stroke-linejoin:round; stroke-width:4; stroke-opacity:1; fill:none" points="2352.76,1486.45 2352.76,1467.55 "/>
<path clip-path="url(#clip500)" d="M254.63 1517.37 Q251.019 1517.37 249.19 1520.93 Q247.385 1524.47 247.385 1531.6 Q247.385 1538.71 249.19 1542.27 Q251.019 1545.82 254.63 1545.82 Q258.264 1545.82 260.07 1542.27 Q261.899 1538.71 261.899 1531.6 Q261.899 1524.47 260.07 1520.93 Q258.264 1517.37 254.63 1517.37 M254.63 1513.66 Q260.44 1513.66 263.496 1518.27 Q266.574 1522.85 266.574 1531.6 Q266.574 1540.33 263.496 1544.94 Q260.44 1549.52 254.63 1549.52 Q248.82 1549.52 245.741 1544.94 Q242.686 1540.33 242.686 1531.6 Q242.686 1522.85 245.741 1518.27 Q248.82 1513.66 254.63 1513.66 Z" fill="#000000" fill-rule="nonzero" fill-opacity="1" /><path clip-path="url(#clip500)" d="M274.792 1542.97 L279.676 1542.97 L279.676 1548.85 L274.792 1548.85 L274.792 1542.97 Z" fill="#000000" fill-rule="nonzero" fill-opacity="1" /><path clip-path="url(#clip500)" d="M299.861 1517.37 Q296.25 1517.37 294.422 1520.93 Q292.616 1524.47 292.616 1531.6 Q292.616 1538.71 294.422 1542.27 Q296.25 1545.82 299.861 1545.82 Q303.496 1545.82 305.301 1542.27 Q307.13 1538.71 307.13 1531.6 Q307.13 1524.47 305.301 1520.93 Q303.496 1517.37 299.861 1517.37 M299.861 1513.66 Q305.672 1513.66 308.727 1518.27 Q311.806 1522.85 311.806 1531.6 Q311.806 1540.33 308.727 1544.94 Q305.672 1549.52 299.861 1549.52 Q294.051 1549.52 290.973 1544.94 Q287.917 1540.33 287.917 1531.6 Q287.917 1522.85 290.973 1518.27 Q294.051 1513.66 299.861 1513.66 Z" fill="#000000" fill-rule="nonzero" fill-opacity="1" /><path clip-path="url(#clip500)" d="M670.346 1517.37 Q666.734 1517.37 664.906 1520.93 Q663.1 1524.47 663.1 1531.6 Q663.1 1538.71 664.906 1542.27 Q666.734 1545.82 670.346 1545.82 Q673.98 1545.82 675.785 1542.27 Q677.614 1538.71 677.614 1531.6 Q677.614 1524.47 675.785 1520.93 Q673.98 1517.37 670.346 1517.37 M670.346 1513.66 Q676.156 1513.66 679.211 1518.27 Q682.29 1522.85 682.29 1531.6 Q682.29 1540.33 679.211 1544.94 Q676.156 1549.52 670.346 1549.52 Q664.535 1549.52 661.457 1544.94 Q658.401 1540.33 658.401 1531.6 Q658.401 1522.85 661.457 1518.27 Q664.535 1513.66 670.346 1513.66 Z" fill="#000000" fill-rule="nonzero" fill-opacity="1" /><path clip-path="url(#clip500)" d="M690.508 1542.97 L695.392 1542.97 L695.392 1548.85 L690.508 1548.85 L690.508 1542.97 Z" fill="#000000" fill-rule="nonzero" fill-opacity="1" /><path clip-path="url(#clip500)" d="M706.387 1544.91 L714.026 1544.91 L714.026 1518.55 L705.716 1520.21 L705.716 1515.95 L713.98 1514.29 L718.655 1514.29 L718.655 1544.91 L726.294 1544.91 L726.294 1548.85 L706.387 1548.85 L706.387 1544.91 Z" fill="#000000" fill-rule="nonzero" fill-opacity="1" /><path clip-path="url(#clip500)" d="M1085.63 1517.37 Q1082.02 1517.37 1080.19 1520.93 Q1078.39 1524.47 1078.39 1531.6 Q1078.39 1538.71 1080.19 1542.27 Q1082.02 1545.82 1085.63 1545.82 Q1089.27 1545.82 1091.07 1542.27 Q1092.9 1538.71 1092.9 1531.6 Q1092.9 1524.47 1091.07 1520.93 Q1089.27 1517.37 1085.63 1517.37 M1085.63 1513.66 Q1091.44 1513.66 1094.5 1518.27 Q1097.58 1522.85 1097.58 1531.6 Q1097.58 1540.33 1094.5 1544.94 Q1091.44 1549.52 1085.63 1549.52 Q1079.82 1549.52 1076.74 1544.94 Q1073.69 1540.33 1073.69 1531.6 Q1073.69 1522.85 1076.74 1518.27 Q1079.82 1513.66 1085.63 1513.66 Z" fill="#000000" fill-rule="nonzero" fill-opacity="1" /><path clip-path="url(#clip500)" d="M1105.79 1542.97 L1110.68 1542.97 L1110.68 1548.85 L1105.79 1548.85 L1105.79 1542.97 Z" fill="#000000" fill-rule="nonzero" fill-opacity="1" /><path clip-path="url(#clip500)" d="M1124.89 1544.91 L1141.21 1544.91 L1141.21 1548.85 L1119.27 1548.85 L1119.27 1544.91 Q1121.93 1542.16 1126.51 1537.53 Q1131.12 1532.88 1132.3 1531.53 Q1134.54 1529.01 1135.42 1527.27 Q1136.33 1525.51 1136.33 1523.82 Q1136.33 1521.07 1134.38 1519.33 Q1132.46 1517.6 1129.36 1517.6 Q1127.16 1517.6 1124.71 1518.36 Q1122.28 1519.13 1119.5 1520.68 L1119.5 1515.95 Q1122.32 1514.82 1124.78 1514.24 Q1127.23 1513.66 1129.27 1513.66 Q1134.64 1513.66 1137.83 1516.35 Q1141.03 1519.03 1141.03 1523.52 Q1141.03 1525.65 1140.22 1527.57 Q1139.43 1529.47 1137.32 1532.07 Q1136.74 1532.74 1133.64 1535.95 Q1130.54 1539.15 1124.89 1544.91 Z" fill="#000000" fill-rule="nonzero" fill-opacity="1" /><path clip-path="url(#clip500)" d="M1500.26 1517.37 Q1496.65 1517.37 1494.82 1520.93 Q1493.01 1524.47 1493.01 1531.6 Q1493.01 1538.71 1494.82 1542.27 Q1496.65 1545.82 1500.26 1545.82 Q1503.89 1545.82 1505.7 1542.27 Q1507.53 1538.71 1507.53 1531.6 Q1507.53 1524.47 1505.7 1520.93 Q1503.89 1517.37 1500.26 1517.37 M1500.26 1513.66 Q1506.07 1513.66 1509.13 1518.27 Q1512.2 1522.85 1512.2 1531.6 Q1512.2 1540.33 1509.13 1544.94 Q1506.07 1549.52 1500.26 1549.52 Q1494.45 1549.52 1491.37 1544.94 Q1488.32 1540.33 1488.32 1531.6 Q1488.32 1522.85 1491.37 1518.27 Q1494.45 1513.66 1500.26 1513.66 Z" fill="#000000" fill-rule="nonzero" fill-opacity="1" /><path clip-path="url(#clip500)" d="M1520.42 1542.97 L1525.31 1542.97 L1525.31 1548.85 L1520.42 1548.85 L1520.42 1542.97 Z" fill="#000000" fill-rule="nonzero" fill-opacity="1" /><path clip-path="url(#clip500)" d="M1549.66 1530.21 Q1553.01 1530.93 1554.89 1533.2 Q1556.79 1535.47 1556.79 1538.8 Q1556.79 1543.92 1553.27 1546.72 Q1549.75 1549.52 1543.27 1549.52 Q1541.09 1549.52 1538.78 1549.08 Q1536.49 1548.66 1534.03 1547.81 L1534.03 1543.29 Q1535.98 1544.43 1538.29 1545.01 Q1540.61 1545.58 1543.13 1545.58 Q1547.53 1545.58 1549.82 1543.85 Q1552.14 1542.11 1552.14 1538.8 Q1552.14 1535.75 1549.98 1534.03 Q1547.85 1532.3 1544.03 1532.3 L1540.01 1532.3 L1540.01 1528.45 L1544.22 1528.45 Q1547.67 1528.45 1549.5 1527.09 Q1551.32 1525.7 1551.32 1523.11 Q1551.32 1520.45 1549.43 1519.03 Q1547.55 1517.6 1544.03 1517.6 Q1542.11 1517.6 1539.91 1518.01 Q1537.71 1518.43 1535.07 1519.31 L1535.07 1515.14 Q1537.74 1514.4 1540.05 1514.03 Q1542.39 1513.66 1544.45 1513.66 Q1549.77 1513.66 1552.88 1516.09 Q1555.98 1518.5 1555.98 1522.62 Q1555.98 1525.49 1554.33 1527.48 Q1552.69 1529.45 1549.66 1530.21 Z" fill="#000000" fill-rule="nonzero" fill-opacity="1" /><path clip-path="url(#clip500)" d="M1914.8 1517.37 Q1911.18 1517.37 1909.36 1520.93 Q1907.55 1524.47 1907.55 1531.6 Q1907.55 1538.71 1909.36 1542.27 Q1911.18 1545.82 1914.8 1545.82 Q1918.43 1545.82 1920.23 1542.27 Q1922.06 1538.71 1922.06 1531.6 Q1922.06 1524.47 1920.23 1520.93 Q1918.43 1517.37 1914.8 1517.37 M1914.8 1513.66 Q1920.61 1513.66 1923.66 1518.27 Q1926.74 1522.85 1926.74 1531.6 Q1926.74 1540.33 1923.66 1544.94 Q1920.61 1549.52 1914.8 1549.52 Q1908.99 1549.52 1905.91 1544.94 Q1902.85 1540.33 1902.85 1531.6 Q1902.85 1522.85 1905.91 1518.27 Q1908.99 1513.66 1914.8 1513.66 Z" fill="#000000" fill-rule="nonzero" fill-opacity="1" /><path clip-path="url(#clip500)" d="M1934.96 1542.97 L1939.84 1542.97 L1939.84 1548.85 L1934.96 1548.85 L1934.96 1542.97 Z" fill="#000000" fill-rule="nonzero" fill-opacity="1" /><path clip-path="url(#clip500)" d="M1962.87 1518.36 L1951.07 1536.81 L1962.87 1536.81 L1962.87 1518.36 M1961.65 1514.29 L1967.53 1514.29 L1967.53 1536.81 L1972.46 1536.81 L1972.46 1540.7 L1967.53 1540.7 L1967.53 1548.85 L1962.87 1548.85 L1962.87 1540.7 L1947.27 1540.7 L1947.27 1536.19 L1961.65 1514.29 Z" fill="#000000" fill-rule="nonzero" fill-opacity="1" /><path clip-path="url(#clip500)" d="M2330.64 1517.37 Q2327.03 1517.37 2325.2 1520.93 Q2323.39 1524.47 2323.39 1531.6 Q2323.39 1538.71 2325.2 1542.27 Q2327.03 1545.82 2330.64 1545.82 Q2334.27 1545.82 2336.08 1542.27 Q2337.91 1538.71 2337.91 1531.6 Q2337.91 1524.47 2336.08 1520.93 Q2334.27 1517.37 2330.64 1517.37 M2330.64 1513.66 Q2336.45 1513.66 2339.5 1518.27 Q2342.58 1522.85 2342.58 1531.6 Q2342.58 1540.33 2339.5 1544.94 Q2336.45 1549.52 2330.64 1549.52 Q2324.83 1549.52 2321.75 1544.94 Q2318.69 1540.33 2318.69 1531.6 Q2318.69 1522.85 2321.75 1518.27 Q2324.83 1513.66 2330.64 1513.66 Z" fill="#000000" fill-rule="nonzero" fill-opacity="1" /><path clip-path="url(#clip500)" d="M2350.8 1542.97 L2355.68 1542.97 L2355.68 1548.85 L2350.8 1548.85 L2350.8 1542.97 Z" fill="#000000" fill-rule="nonzero" fill-opacity="1" /><path clip-path="url(#clip500)" d="M2365.92 1514.29 L2384.27 1514.29 L2384.27 1518.22 L2370.2 1518.22 L2370.2 1526.7 Q2371.22 1526.35 2372.23 1526.19 Q2373.25 1526 2374.27 1526 Q2380.06 1526 2383.44 1529.17 Q2386.82 1532.34 2386.82 1537.76 Q2386.82 1543.34 2383.35 1546.44 Q2379.87 1549.52 2373.55 1549.52 Q2371.38 1549.52 2369.11 1549.15 Q2366.86 1548.78 2364.46 1548.04 L2364.46 1543.34 Q2366.54 1544.47 2368.76 1545.03 Q2370.98 1545.58 2373.46 1545.58 Q2377.47 1545.58 2379.8 1543.48 Q2382.14 1541.37 2382.14 1537.76 Q2382.14 1534.15 2379.8 1532.04 Q2377.47 1529.94 2373.46 1529.94 Q2371.59 1529.94 2369.71 1530.35 Q2367.86 1530.77 2365.92 1531.65 L2365.92 1514.29 Z" fill="#000000" fill-rule="nonzero" fill-opacity="1" /><polyline clip-path="url(#clip500)" style="stroke:#000000; stroke-linecap:round; stroke-linejoin:round; stroke-width:4; stroke-opacity:1; fill:none" points="277.246,1486.45 277.246,47.2441 "/>
<polyline clip-path="url(#clip500)" style="stroke:#000000; stroke-linecap:round; stroke-linejoin:round; stroke-width:4; stroke-opacity:1; fill:none" points="277.246,1441.47 296.143,1441.47 "/>
<polyline clip-path="url(#clip500)" style="stroke:#000000; stroke-linecap:round; stroke-linejoin:round; stroke-width:4; stroke-opacity:1; fill:none" points="277.246,1329.03 296.143,1329.03 "/>
<polyline clip-path="url(#clip500)" style="stroke:#000000; stroke-linecap:round; stroke-linejoin:round; stroke-width:4; stroke-opacity:1; fill:none" points="277.246,1216.6 296.143,1216.6 "/>
<polyline clip-path="url(#clip500)" style="stroke:#000000; stroke-linecap:round; stroke-linejoin:round; stroke-width:4; stroke-opacity:1; fill:none" points="277.246,1104.16 296.143,1104.16 "/>
<polyline clip-path="url(#clip500)" style="stroke:#000000; stroke-linecap:round; stroke-linejoin:round; stroke-width:4; stroke-opacity:1; fill:none" points="277.246,991.722 296.143,991.722 "/>
<polyline clip-path="url(#clip500)" style="stroke:#000000; stroke-linecap:round; stroke-linejoin:round; stroke-width:4; stroke-opacity:1; fill:none" points="277.246,879.284 296.143,879.284 "/>
<polyline clip-path="url(#clip500)" style="stroke:#000000; stroke-linecap:round; stroke-linejoin:round; stroke-width:4; stroke-opacity:1; fill:none" points="277.246,766.846 296.143,766.846 "/>
<polyline clip-path="url(#clip500)" style="stroke:#000000; stroke-linecap:round; stroke-linejoin:round; stroke-width:4; stroke-opacity:1; fill:none" points="277.246,654.408 296.143,654.408 "/>
<polyline clip-path="url(#clip500)" style="stroke:#000000; stroke-linecap:round; stroke-linejoin:round; stroke-width:4; stroke-opacity:1; fill:none" points="277.246,541.97 296.143,541.97 "/>
<polyline clip-path="url(#clip500)" style="stroke:#000000; stroke-linecap:round; stroke-linejoin:round; stroke-width:4; stroke-opacity:1; fill:none" points="277.246,429.533 296.143,429.533 "/>
<polyline clip-path="url(#clip500)" style="stroke:#000000; stroke-linecap:round; stroke-linejoin:round; stroke-width:4; stroke-opacity:1; fill:none" points="277.246,317.095 296.143,317.095 "/>
<polyline clip-path="url(#clip500)" style="stroke:#000000; stroke-linecap:round; stroke-linejoin:round; stroke-width:4; stroke-opacity:1; fill:none" points="277.246,204.657 296.143,204.657 "/>
<polyline clip-path="url(#clip500)" style="stroke:#000000; stroke-linecap:round; stroke-linejoin:round; stroke-width:4; stroke-opacity:1; fill:none" points="277.246,92.2192 296.143,92.2192 "/>
<path clip-path="url(#clip500)" d="M165.135 1442.55 Q166.64 1443.06 168.052 1444.73 Q169.487 1446.39 170.922 1449.31 L175.667 1458.75 L170.644 1458.75 L166.223 1449.89 Q164.51 1446.41 162.89 1445.28 Q161.292 1444.15 158.515 1444.15 L153.422 1444.15 L153.422 1458.75 L148.746 1458.75 L148.746 1424.19 L159.302 1424.19 Q165.228 1424.19 168.144 1426.67 Q171.061 1429.15 171.061 1434.15 Q171.061 1437.41 169.533 1439.56 Q168.029 1441.72 165.135 1442.55 M153.422 1428.04 L153.422 1440.3 L159.302 1440.3 Q162.681 1440.3 164.394 1438.75 Q166.13 1437.18 166.13 1434.15 Q166.13 1431.11 164.394 1429.59 Q162.681 1428.04 159.302 1428.04 L153.422 1428.04 Z" fill="#000000" fill-rule="nonzero" fill-opacity="1" /><path clip-path="url(#clip500)" d="M191.315 1428.8 L184.973 1446 L197.681 1446 L191.315 1428.8 M188.677 1424.19 L193.977 1424.19 L207.149 1458.75 L202.288 1458.75 L199.139 1449.89 L183.561 1449.89 L180.413 1458.75 L175.482 1458.75 L188.677 1424.19 Z" fill="#000000" fill-rule="nonzero" fill-opacity="1" /><path clip-path="url(#clip500)" d="M216.871 1428.04 L216.871 1454.91 L222.519 1454.91 Q229.672 1454.91 232.982 1451.67 Q236.315 1448.43 236.315 1441.44 Q236.315 1434.49 232.982 1431.28 Q229.672 1428.04 222.519 1428.04 L216.871 1428.04 M212.195 1424.19 L221.801 1424.19 Q231.848 1424.19 236.547 1428.38 Q241.246 1432.55 241.246 1441.44 Q241.246 1450.37 236.524 1454.56 Q231.801 1458.75 221.801 1458.75 L212.195 1458.75 L212.195 1424.19 Z" fill="#000000" fill-rule="nonzero" fill-opacity="1" /><path clip-path="url(#clip500)" d="M180.621 1311.75 L207.774 1311.75 L207.774 1315.32 L185.922 1342.38 L208.306 1342.38 L208.306 1346.31 L180.089 1346.31 L180.089 1342.75 L201.94 1315.69 L180.621 1315.69 L180.621 1311.75 Z" fill="#000000" fill-rule="nonzero" fill-opacity="1" /><path clip-path="url(#clip500)" d="M215.088 1311.75 L221.385 1311.75 L236.709 1340.67 L236.709 1311.75 L241.246 1311.75 L241.246 1346.31 L234.949 1346.31 L219.625 1317.4 L219.625 1346.31 L215.088 1346.31 L215.088 1311.75 Z" fill="#000000" fill-rule="nonzero" fill-opacity="1" /><path clip-path="url(#clip500)" d="M221.408 1217.37 L221.408 1230.03 L228.908 1230.03 Q232.681 1230.03 234.487 1228.48 Q236.315 1226.91 236.315 1223.69 Q236.315 1220.45 234.487 1218.92 Q232.681 1217.37 228.908 1217.37 L221.408 1217.37 M221.408 1203.16 L221.408 1213.58 L228.329 1213.58 Q231.755 1213.58 233.422 1212.3 Q235.112 1211.01 235.112 1208.37 Q235.112 1205.75 233.422 1204.46 Q231.755 1203.16 228.329 1203.16 L221.408 1203.16 M216.732 1199.32 L228.676 1199.32 Q234.024 1199.32 236.917 1201.54 Q239.811 1203.76 239.811 1207.86 Q239.811 1211.03 238.329 1212.91 Q236.848 1214.78 233.977 1215.24 Q237.426 1215.98 239.324 1218.34 Q241.246 1220.68 241.246 1224.2 Q241.246 1228.83 238.098 1231.35 Q234.949 1233.88 229.139 1233.88 L216.732 1233.88 L216.732 1199.32 Z" fill="#000000" fill-rule="nonzero" fill-opacity="1" /><path clip-path="url(#clip500)" d="M162.195 1091.49 L155.853 1108.68 L168.561 1108.68 L162.195 1091.49 M159.556 1086.88 L164.857 1086.88 L178.028 1121.44 L173.167 1121.44 L170.019 1112.57 L154.441 1112.57 L151.293 1121.44 L146.362 1121.44 L159.556 1086.88 Z" fill="#000000" fill-rule="nonzero" fill-opacity="1" /><path clip-path="url(#clip500)" d="M205.806 1116.51 L205.806 1107.23 L198.167 1107.23 L198.167 1103.38 L210.436 1103.38 L210.436 1118.22 Q207.727 1120.14 204.464 1121.14 Q201.2 1122.11 197.496 1122.11 Q189.394 1122.11 184.811 1117.39 Q180.251 1112.64 180.251 1104.19 Q180.251 1095.72 184.811 1091 Q189.394 1086.25 197.496 1086.25 Q200.876 1086.25 203.908 1087.09 Q206.964 1087.92 209.533 1089.54 L209.533 1094.52 Q206.94 1092.32 204.024 1091.21 Q201.107 1090.1 197.889 1090.1 Q191.547 1090.1 188.353 1093.64 Q185.181 1097.18 185.181 1104.19 Q185.181 1111.18 188.353 1114.73 Q191.547 1118.27 197.889 1118.27 Q200.366 1118.27 202.311 1117.85 Q204.255 1117.41 205.806 1116.51 Z" fill="#000000" fill-rule="nonzero" fill-opacity="1" /><path clip-path="url(#clip500)" d="M218.977 1086.88 L240.829 1086.88 L240.829 1090.81 L223.653 1090.81 L223.653 1101.05 L240.111 1101.05 L240.111 1104.98 L223.653 1104.98 L223.653 1117.5 L241.246 1117.5 L241.246 1121.44 L218.977 1121.44 L218.977 1086.88 Z" fill="#000000" fill-rule="nonzero" fill-opacity="1" /><path clip-path="url(#clip500)" d="M152.404 974.442 L181.64 974.442 L181.64 978.377 L169.371 978.377 L169.371 1009 L164.672 1009 L164.672 978.377 L152.404 978.377 L152.404 974.442 Z" fill="#000000" fill-rule="nonzero" fill-opacity="1" /><path clip-path="url(#clip500)" d="M194.024 979.048 L187.681 996.247 L200.389 996.247 L194.024 979.048 M191.385 974.442 L196.686 974.442 L209.857 1009 L204.996 1009 L201.848 1000.14 L186.269 1000.14 L183.121 1009 L178.191 1009 L191.385 974.442 Z" fill="#000000" fill-rule="nonzero" fill-opacity="1" /><path clip-path="url(#clip500)" d="M213.237 974.442 L218.26 974.442 L226.848 987.289 L235.482 974.442 L240.505 974.442 L229.394 991.039 L241.246 1009 L236.223 1009 L226.5 994.303 L216.709 1009 L211.663 1009 L224 990.553 L213.237 974.442 Z" fill="#000000" fill-rule="nonzero" fill-opacity="1" /><path clip-path="url(#clip500)" d="M143.144 864.666 L143.144 869.596 Q140.783 867.397 138.098 866.309 Q135.436 865.221 132.427 865.221 Q126.501 865.221 123.353 868.856 Q120.205 872.467 120.205 879.319 Q120.205 886.147 123.353 889.781 Q126.501 893.393 132.427 893.393 Q135.436 893.393 138.098 892.305 Q140.783 891.217 143.144 889.018 L143.144 893.902 Q140.691 895.568 137.936 896.402 Q135.205 897.235 132.149 897.235 Q124.302 897.235 119.788 892.443 Q115.274 887.629 115.274 879.319 Q115.274 870.985 119.788 866.194 Q124.302 861.379 132.149 861.379 Q135.251 861.379 137.982 862.212 Q140.737 863.022 143.144 864.666 Z" fill="#000000" fill-rule="nonzero" fill-opacity="1" /><path clip-path="url(#clip500)" d="M150.367 862.004 L155.042 862.004 L155.042 876.17 L172.033 876.17 L172.033 862.004 L176.709 862.004 L176.709 896.564 L172.033 896.564 L172.033 880.106 L155.042 880.106 L155.042 896.564 L150.367 896.564 L150.367 862.004 Z" fill="#000000" fill-rule="nonzero" fill-opacity="1" /><path clip-path="url(#clip500)" d="M197.565 866.61 L191.223 883.809 L203.931 883.809 L197.565 866.61 M194.927 862.004 L200.227 862.004 L213.399 896.564 L208.538 896.564 L205.389 887.698 L189.811 887.698 L186.663 896.564 L181.732 896.564 L194.927 862.004 Z" fill="#000000" fill-rule="nonzero" fill-opacity="1" /><path clip-path="url(#clip500)" d="M239.162 863.138 L239.162 867.698 Q236.5 866.425 234.139 865.8 Q231.778 865.175 229.579 865.175 Q225.76 865.175 223.676 866.657 Q221.616 868.138 221.616 870.869 Q221.616 873.161 222.982 874.342 Q224.371 875.499 228.213 876.217 L231.037 876.795 Q236.269 877.791 238.746 880.314 Q241.246 882.814 241.246 887.027 Q241.246 892.05 237.866 894.642 Q234.51 897.235 228.005 897.235 Q225.551 897.235 222.774 896.68 Q220.019 896.124 217.056 895.036 L217.056 890.221 Q219.903 891.818 222.635 892.629 Q225.366 893.439 228.005 893.439 Q232.01 893.439 234.186 891.865 Q236.362 890.291 236.362 887.374 Q236.362 884.828 234.787 883.393 Q233.237 881.957 229.672 881.24 L226.825 880.684 Q221.593 879.643 219.255 877.42 Q216.917 875.198 216.917 871.24 Q216.917 866.657 220.135 864.018 Q223.375 861.379 229.047 861.379 Q231.477 861.379 234 861.819 Q236.524 862.258 239.162 863.138 Z" fill="#000000" fill-rule="nonzero" fill-opacity="1" /><path clip-path="url(#clip500)" d="M97.7974 749.566 L102.473 749.566 L102.473 784.126 L97.7974 784.126 L97.7974 749.566 Z" fill="#000000" fill-rule="nonzero" fill-opacity="1" /><path clip-path="url(#clip500)" d="M111.779 749.566 L118.075 749.566 L133.399 778.478 L133.399 749.566 L137.936 749.566 L137.936 784.126 L131.64 784.126 L116.316 755.214 L116.316 784.126 L111.779 784.126 L111.779 749.566 Z" fill="#000000" fill-rule="nonzero" fill-opacity="1" /><path clip-path="url(#clip500)" d="M151.918 753.409 L151.918 780.283 L157.566 780.283 Q164.718 780.283 168.029 777.043 Q171.362 773.802 171.362 766.811 Q171.362 759.867 168.029 756.649 Q164.718 753.409 157.566 753.409 L151.918 753.409 M147.242 749.566 L156.848 749.566 Q166.894 749.566 171.593 753.756 Q176.292 757.922 176.292 766.811 Q176.292 775.746 171.57 779.936 Q166.848 784.126 156.848 784.126 L147.242 784.126 L147.242 749.566 Z" fill="#000000" fill-rule="nonzero" fill-opacity="1" /><path clip-path="url(#clip500)" d="M183.214 749.566 L187.913 749.566 L187.913 770.561 Q187.913 776.117 189.927 778.57 Q191.94 781.001 196.454 781.001 Q200.945 781.001 202.959 778.57 Q204.973 776.117 204.973 770.561 L204.973 749.566 L209.672 749.566 L209.672 771.14 Q209.672 777.899 206.315 781.348 Q202.982 784.797 196.454 784.797 Q189.903 784.797 186.547 781.348 Q183.214 777.899 183.214 771.14 L183.214 749.566 Z" fill="#000000" fill-rule="nonzero" fill-opacity="1" /><path clip-path="url(#clip500)" d="M239.162 750.7 L239.162 755.26 Q236.5 753.987 234.139 753.362 Q231.778 752.737 229.579 752.737 Q225.76 752.737 223.676 754.219 Q221.616 755.7 221.616 758.432 Q221.616 760.723 222.982 761.904 Q224.371 763.061 228.213 763.779 L231.037 764.358 Q236.269 765.353 238.746 767.876 Q241.246 770.376 241.246 774.589 Q241.246 779.612 237.866 782.205 Q234.51 784.797 228.005 784.797 Q225.551 784.797 222.774 784.242 Q220.019 783.686 217.056 782.598 L217.056 777.783 Q219.903 779.381 222.635 780.191 Q225.366 781.001 228.005 781.001 Q232.01 781.001 234.186 779.427 Q236.362 777.853 236.362 774.936 Q236.362 772.39 234.787 770.955 Q233.237 769.52 229.672 768.802 L226.825 768.246 Q221.593 767.205 219.255 764.983 Q216.917 762.76 216.917 758.802 Q216.917 754.219 220.135 751.58 Q223.375 748.941 229.047 748.941 Q231.477 748.941 234 749.381 Q236.524 749.821 239.162 750.7 Z" fill="#000000" fill-rule="nonzero" fill-opacity="1" /><path clip-path="url(#clip500)" d="M155.482 639.79 L155.482 644.721 Q153.121 642.522 150.436 641.434 Q147.774 640.346 144.765 640.346 Q138.839 640.346 135.691 643.98 Q132.543 647.591 132.543 654.443 Q132.543 661.272 135.691 664.906 Q138.839 668.517 144.765 668.517 Q147.774 668.517 150.436 667.429 Q153.121 666.341 155.482 664.142 L155.482 669.026 Q153.029 670.693 150.274 671.526 Q147.543 672.359 144.487 672.359 Q136.64 672.359 132.126 667.568 Q127.612 662.753 127.612 654.443 Q127.612 646.11 132.126 641.318 Q136.64 636.503 144.487 636.503 Q147.589 636.503 150.32 637.337 Q153.075 638.147 155.482 639.79 Z" fill="#000000" fill-rule="nonzero" fill-opacity="1" /><path clip-path="url(#clip500)" d="M179.093 655.485 Q180.598 655.994 182.01 657.66 Q183.445 659.327 184.88 662.244 L189.626 671.688 L184.603 671.688 L180.181 662.822 Q178.468 659.35 176.848 658.216 Q175.251 657.082 172.473 657.082 L167.38 657.082 L167.38 671.688 L162.704 671.688 L162.704 637.128 L173.26 637.128 Q179.186 637.128 182.103 639.605 Q185.019 642.082 185.019 647.082 Q185.019 650.346 183.491 652.498 Q181.987 654.651 179.093 655.485 M167.38 640.971 L167.38 653.239 L173.26 653.239 Q176.64 653.239 178.353 651.688 Q180.089 650.114 180.089 647.082 Q180.089 644.049 178.353 642.522 Q176.64 640.971 173.26 640.971 L167.38 640.971 Z" fill="#000000" fill-rule="nonzero" fill-opacity="1" /><path clip-path="url(#clip500)" d="M195.644 637.128 L200.32 637.128 L200.32 671.688 L195.644 671.688 L195.644 637.128 Z" fill="#000000" fill-rule="nonzero" fill-opacity="1" /><path clip-path="url(#clip500)" d="M209.626 637.128 L216.593 637.128 L225.412 660.647 L234.278 637.128 L241.246 637.128 L241.246 671.688 L236.686 671.688 L236.686 641.341 L227.774 665.045 L223.075 665.045 L214.163 641.341 L214.163 671.688 L209.626 671.688 L209.626 637.128 Z" fill="#000000" fill-rule="nonzero" fill-opacity="1" /><path clip-path="url(#clip500)" d="M55.668 528.533 L55.668 541.519 L61.5476 541.519 Q64.8115 541.519 66.5939 539.829 Q68.3763 538.139 68.3763 535.014 Q68.3763 531.913 66.5939 530.223 Q64.8115 528.533 61.5476 528.533 L55.668 528.533 M50.9921 524.69 L61.5476 524.69 Q67.3578 524.69 70.3207 527.329 Q73.3068 529.945 73.3068 535.014 Q73.3068 540.13 70.3207 542.746 Q67.3578 545.362 61.5476 545.362 L55.668 545.362 L55.668 559.25 L50.9921 559.25 L50.9921 524.69 Z" fill="#000000" fill-rule="nonzero" fill-opacity="1" /><path clip-path="url(#clip500)" d="M74.7883 524.69 L104.024 524.69 L104.024 528.626 L91.7558 528.626 L91.7558 559.25 L87.0567 559.25 L87.0567 528.626 L74.7883 528.626 L74.7883 524.69 Z" fill="#000000" fill-rule="nonzero" fill-opacity="1" /><path clip-path="url(#clip500)" d="M124.927 543.047 Q126.432 543.556 127.844 545.223 Q129.279 546.889 130.714 549.806 L135.459 559.25 L130.436 559.25 L126.015 550.385 Q124.302 546.912 122.682 545.778 Q121.084 544.644 118.307 544.644 L113.214 544.644 L113.214 559.25 L108.538 559.25 L108.538 524.69 L119.094 524.69 Q125.02 524.69 127.936 527.167 Q130.853 529.644 130.853 534.644 Q130.853 537.908 129.325 540.061 Q127.82 542.213 124.927 543.047 M113.214 528.533 L113.214 540.801 L119.094 540.801 Q122.473 540.801 124.186 539.251 Q125.922 537.676 125.922 534.644 Q125.922 531.612 124.186 530.084 Q122.473 528.533 119.094 528.533 L113.214 528.533 Z" fill="#000000" fill-rule="nonzero" fill-opacity="1" /><path clip-path="url(#clip500)" d="M151.107 529.297 L144.765 546.496 L157.473 546.496 L151.107 529.297 M148.468 524.69 L153.769 524.69 L166.941 559.25 L162.079 559.25 L158.931 550.385 L143.353 550.385 L140.205 559.25 L135.274 559.25 L148.468 524.69 Z" fill="#000000" fill-rule="nonzero" fill-opacity="1" /><path clip-path="url(#clip500)" d="M163.515 524.69 L192.751 524.69 L192.751 528.626 L180.482 528.626 L180.482 559.25 L175.783 559.25 L175.783 528.626 L163.515 528.626 L163.515 524.69 Z" fill="#000000" fill-rule="nonzero" fill-opacity="1" /><path clip-path="url(#clip500)" d="M197.264 524.69 L201.94 524.69 L201.94 559.25 L197.264 559.25 L197.264 524.69 Z" fill="#000000" fill-rule="nonzero" fill-opacity="1" /><path clip-path="url(#clip500)" d="M225.274 527.862 Q220.181 527.862 217.172 531.658 Q214.186 535.454 214.186 542.005 Q214.186 548.533 217.172 552.329 Q220.181 556.125 225.274 556.125 Q230.366 556.125 233.329 552.329 Q236.315 548.533 236.315 542.005 Q236.315 535.454 233.329 531.658 Q230.366 527.862 225.274 527.862 M225.274 524.065 Q232.542 524.065 236.894 528.95 Q241.246 533.811 241.246 542.005 Q241.246 550.176 236.894 555.061 Q232.542 559.922 225.274 559.922 Q217.982 559.922 213.607 555.061 Q209.255 550.2 209.255 542.005 Q209.255 533.811 213.607 528.95 Q217.982 524.065 225.274 524.065 Z" fill="#000000" fill-rule="nonzero" fill-opacity="1" /><path clip-path="url(#clip500)" d="M145.158 412.253 L151.455 412.253 L166.779 441.164 L166.779 412.253 L171.316 412.253 L171.316 446.813 L165.019 446.813 L149.695 417.901 L149.695 446.813 L145.158 446.813 L145.158 412.253 Z" fill="#000000" fill-rule="nonzero" fill-opacity="1" /><path clip-path="url(#clip500)" d="M194.649 415.424 Q189.556 415.424 186.547 419.22 Q183.561 423.016 183.561 429.567 Q183.561 436.095 186.547 439.891 Q189.556 443.688 194.649 443.688 Q199.741 443.688 202.704 439.891 Q205.69 436.095 205.69 429.567 Q205.69 423.016 202.704 419.22 Q199.741 415.424 194.649 415.424 M194.649 411.628 Q201.917 411.628 206.269 416.512 Q210.621 421.373 210.621 429.567 Q210.621 437.739 206.269 442.623 Q201.917 447.484 194.649 447.484 Q187.357 447.484 182.982 442.623 Q178.63 437.762 178.63 429.567 Q178.63 421.373 182.982 416.512 Q187.357 411.628 194.649 411.628 Z" fill="#000000" fill-rule="nonzero" fill-opacity="1" /><path clip-path="url(#clip500)" d="M213.237 412.253 L218.26 412.253 L226.848 425.1 L235.482 412.253 L240.505 412.253 L229.394 428.85 L241.246 446.813 L236.223 446.813 L226.5 432.114 L216.709 446.813 L211.663 446.813 L224 428.364 L213.237 412.253 Z" fill="#000000" fill-rule="nonzero" fill-opacity="1" /><path clip-path="url(#clip500)" d="M172.635 303.657 L172.635 330.532 L178.283 330.532 Q185.436 330.532 188.746 327.292 Q192.079 324.051 192.079 317.06 Q192.079 310.116 188.746 306.898 Q185.436 303.657 178.283 303.657 L172.635 303.657 M167.959 299.815 L177.566 299.815 Q187.612 299.815 192.311 304.005 Q197.01 308.171 197.01 317.06 Q197.01 325.995 192.288 330.185 Q187.565 334.375 177.566 334.375 L167.959 334.375 L167.959 299.815 Z" fill="#000000" fill-rule="nonzero" fill-opacity="1" /><path clip-path="url(#clip500)" d="M204.464 299.815 L209.139 299.815 L209.139 334.375 L204.464 334.375 L204.464 299.815 Z" fill="#000000" fill-rule="nonzero" fill-opacity="1" /><path clip-path="url(#clip500)" d="M239.162 300.949 L239.162 305.509 Q236.5 304.236 234.139 303.611 Q231.778 302.986 229.579 302.986 Q225.76 302.986 223.676 304.468 Q221.616 305.949 221.616 308.68 Q221.616 310.972 222.982 312.153 Q224.371 313.31 228.213 314.028 L231.037 314.606 Q236.269 315.602 238.746 318.125 Q241.246 320.625 241.246 324.838 Q241.246 329.861 237.866 332.454 Q234.51 335.046 228.005 335.046 Q225.551 335.046 222.774 334.491 Q220.019 333.935 217.056 332.847 L217.056 328.032 Q219.903 329.629 222.635 330.44 Q225.366 331.25 228.005 331.25 Q232.01 331.25 234.186 329.676 Q236.362 328.102 236.362 325.185 Q236.362 322.639 234.787 321.204 Q233.237 319.768 229.672 319.051 L226.825 318.495 Q221.593 317.454 219.255 315.231 Q216.917 313.009 216.917 309.051 Q216.917 304.468 220.135 301.829 Q223.375 299.19 229.047 299.19 Q231.477 299.19 234 299.63 Q236.524 300.069 239.162 300.949 Z" fill="#000000" fill-rule="nonzero" fill-opacity="1" /><path clip-path="url(#clip500)" d="M106.27 187.377 L110.946 187.377 L110.946 218.002 L127.774 218.002 L127.774 221.937 L106.27 221.937 L106.27 187.377 Z" fill="#000000" fill-rule="nonzero" fill-opacity="1" /><path clip-path="url(#clip500)" d="M153.399 188.511 L153.399 193.071 Q150.737 191.798 148.376 191.173 Q146.015 190.548 143.816 190.548 Q139.996 190.548 137.913 192.03 Q135.853 193.511 135.853 196.243 Q135.853 198.534 137.219 199.715 Q138.607 200.872 142.45 201.59 L145.274 202.169 Q150.505 203.164 152.982 205.687 Q155.482 208.187 155.482 212.4 Q155.482 217.423 152.103 220.016 Q148.746 222.608 142.242 222.608 Q139.788 222.608 137.01 222.053 Q134.256 221.497 131.293 220.409 L131.293 215.594 Q134.14 217.192 136.871 218.002 Q139.603 218.812 142.242 218.812 Q146.246 218.812 148.422 217.238 Q150.598 215.664 150.598 212.747 Q150.598 210.201 149.024 208.766 Q147.473 207.331 143.908 206.613 L141.061 206.057 Q135.83 205.016 133.492 202.794 Q131.154 200.571 131.154 196.613 Q131.154 192.03 134.371 189.391 Q137.612 186.752 143.283 186.752 Q145.714 186.752 148.237 187.192 Q150.76 187.632 153.399 188.511 Z" fill="#000000" fill-rule="nonzero" fill-opacity="1" /><path clip-path="url(#clip500)" d="M157.982 187.377 L187.218 187.377 L187.218 191.312 L174.95 191.312 L174.95 221.937 L170.251 221.937 L170.251 191.312 L157.982 191.312 L157.982 187.377 Z" fill="#000000" fill-rule="nonzero" fill-opacity="1" /><path clip-path="url(#clip500)" d="M199.602 191.983 L193.26 209.182 L205.968 209.182 L199.602 191.983 M196.964 187.377 L202.264 187.377 L215.436 221.937 L210.575 221.937 L207.426 213.071 L191.848 213.071 L188.7 221.937 L183.769 221.937 L196.964 187.377 Z" fill="#000000" fill-rule="nonzero" fill-opacity="1" /><path clip-path="url(#clip500)" d="M212.01 187.377 L241.246 187.377 L241.246 191.312 L228.977 191.312 L228.977 221.937 L224.278 221.937 L224.278 191.312 L212.01 191.312 L212.01 187.377 Z" fill="#000000" fill-rule="nonzero" fill-opacity="1" /><path clip-path="url(#clip500)" d="M193.075 93.2956 Q194.579 93.8049 195.991 95.4715 Q197.427 97.1382 198.862 100.055 L203.607 109.499 L198.584 109.499 L194.163 100.634 Q192.45 97.1613 190.829 96.0271 Q189.232 94.8928 186.454 94.8928 L181.362 94.8928 L181.362 109.499 L176.686 109.499 L176.686 74.9392 L187.241 74.9392 Q193.167 74.9392 196.084 77.4161 Q199.001 79.8929 199.001 84.8929 Q199.001 88.1567 197.473 90.3095 Q195.968 92.4623 193.075 93.2956 M181.362 78.7818 L181.362 91.0502 L187.241 91.0502 Q190.621 91.0502 192.334 89.4993 Q194.07 87.9253 194.07 84.8929 Q194.07 81.8605 192.334 80.3327 Q190.621 78.7818 187.241 78.7818 L181.362 78.7818 Z" fill="#000000" fill-rule="nonzero" fill-opacity="1" /><path clip-path="url(#clip500)" d="M209.626 74.9392 L216.593 74.9392 L225.412 98.4576 L234.278 74.9392 L241.246 74.9392 L241.246 109.499 L236.686 109.499 L236.686 79.1522 L227.774 102.856 L223.075 102.856 L214.163 79.1522 L214.163 109.499 L209.626 109.499 L209.626 74.9392 Z" fill="#000000" fill-rule="nonzero" fill-opacity="1" /><path clip-path="url(#clip502)" d="M282.727 1486.45 L277.246 1486.45 L277.246 1396.5 L282.727 1396.5 L282.727 1486.45 L282.727 1486.45  Z" fill="#009af9" fill-rule="evenodd" fill-opacity="1"/>
<polyline clip-path="url(#clip502)" style="stroke:#000000; stroke-linecap:round; stroke-linejoin:round; stroke-width:4; stroke-opacity:1; fill:none" points="282.727,1486.45 277.246,1486.45 277.246,1396.5 282.727,1396.5 282.727,1486.45 "/>
<path clip-path="url(#clip502)" d="M286.158 1374.01 L277.246 1374.01 L277.246 1284.06 L286.158 1284.06 L286.158 1374.01 L286.158 1374.01  Z" fill="#009af9" fill-rule="evenodd" fill-opacity="1"/>
<polyline clip-path="url(#clip502)" style="stroke:#000000; stroke-linecap:round; stroke-linejoin:round; stroke-width:4; stroke-opacity:1; fill:none" points="286.158,1374.01 277.246,1374.01 277.246,1284.06 286.158,1284.06 286.158,1374.01 "/>
<path clip-path="url(#clip502)" d="M299.266 1261.57 L277.246 1261.57 L277.246 1171.62 L299.266 1171.62 L299.266 1261.57 L299.266 1261.57  Z" fill="#009af9" fill-rule="evenodd" fill-opacity="1"/>
<polyline clip-path="url(#clip502)" style="stroke:#000000; stroke-linecap:round; stroke-linejoin:round; stroke-width:4; stroke-opacity:1; fill:none" points="299.266,1261.57 277.246,1261.57 277.246,1171.62 299.266,1171.62 299.266,1261.57 "/>
<path clip-path="url(#clip502)" d="M299.515 1149.13 L277.246 1149.13 L277.246 1059.18 L299.515 1059.18 L299.515 1149.13 L299.515 1149.13  Z" fill="#009af9" fill-rule="evenodd" fill-opacity="1"/>
<polyline clip-path="url(#clip502)" style="stroke:#000000; stroke-linecap:round; stroke-linejoin:round; stroke-width:4; stroke-opacity:1; fill:none" points="299.515,1149.13 277.246,1149.13 277.246,1059.18 299.515,1059.18 299.515,1149.13 "/>
<path clip-path="url(#clip502)" d="M313.719 1036.7 L277.246 1036.7 L277.246 946.746 L313.719 946.746 L313.719 1036.7 L313.719 1036.7  Z" fill="#009af9" fill-rule="evenodd" fill-opacity="1"/>
<polyline clip-path="url(#clip502)" style="stroke:#000000; stroke-linecap:round; stroke-linejoin:round; stroke-width:4; stroke-opacity:1; fill:none" points="313.719,1036.7 277.246,1036.7 277.246,946.746 313.719,946.746 313.719,1036.7 "/>
<path clip-path="url(#clip502)" d="M315.278 924.259 L277.246 924.259 L277.246 834.309 L315.278 834.309 L315.278 924.259 L315.278 924.259  Z" fill="#009af9" fill-rule="evenodd" fill-opacity="1"/>
<polyline clip-path="url(#clip502)" style="stroke:#000000; stroke-linecap:round; stroke-linejoin:round; stroke-width:4; stroke-opacity:1; fill:none" points="315.278,924.259 277.246,924.259 277.246,834.309 315.278,834.309 315.278,924.259 "/>
<path clip-path="url(#clip502)" d="M335.388 811.821 L277.246 811.821 L277.246 721.871 L335.388 721.871 L335.388 811.821 L335.388 811.821  Z" fill="#009af9" fill-rule="evenodd" fill-opacity="1"/>
<polyline clip-path="url(#clip502)" style="stroke:#000000; stroke-linecap:round; stroke-linejoin:round; stroke-width:4; stroke-opacity:1; fill:none" points="335.388,811.821 277.246,811.821 277.246,721.871 335.388,721.871 335.388,811.821 "/>
<path clip-path="url(#clip502)" d="M349.157 699.383 L277.246 699.383 L277.246 609.433 L349.157 609.433 L349.157 699.383 L349.157 699.383  Z" fill="#009af9" fill-rule="evenodd" fill-opacity="1"/>
<polyline clip-path="url(#clip502)" style="stroke:#000000; stroke-linecap:round; stroke-linejoin:round; stroke-width:4; stroke-opacity:1; fill:none" points="349.157,699.383 277.246,699.383 277.246,609.433 349.157,609.433 349.157,699.383 "/>
<path clip-path="url(#clip502)" d="M352.976 586.946 L277.246 586.946 L277.246 496.995 L352.976 496.995 L352.976 586.946 L352.976 586.946  Z" fill="#009af9" fill-rule="evenodd" fill-opacity="1"/>
<polyline clip-path="url(#clip502)" style="stroke:#000000; stroke-linecap:round; stroke-linejoin:round; stroke-width:4; stroke-opacity:1; fill:none" points="352.976,586.946 277.246,586.946 277.246,496.995 352.976,496.995 352.976,586.946 "/>
<path clip-path="url(#clip502)" d="M360.956 474.508 L277.246 474.508 L277.246 384.557 L360.956 384.557 L360.956 474.508 L360.956 474.508  Z" fill="#009af9" fill-rule="evenodd" fill-opacity="1"/>
<polyline clip-path="url(#clip502)" style="stroke:#000000; stroke-linecap:round; stroke-linejoin:round; stroke-width:4; stroke-opacity:1; fill:none" points="360.956,474.508 277.246,474.508 277.246,384.557 360.956,384.557 360.956,474.508 "/>
<path clip-path="url(#clip502)" d="M808.053 362.07 L277.246 362.07 L277.246 272.12 L808.053 272.12 L808.053 362.07 L808.053 362.07  Z" fill="#009af9" fill-rule="evenodd" fill-opacity="1"/>
<polyline clip-path="url(#clip502)" style="stroke:#000000; stroke-linecap:round; stroke-linejoin:round; stroke-width:4; stroke-opacity:1; fill:none" points="808.053,362.07 277.246,362.07 277.246,272.12 808.053,272.12 808.053,362.07 "/>
<path clip-path="url(#clip502)" d="M1506.26 249.632 L277.246 249.632 L277.246 159.682 L1506.26 159.682 L1506.26 249.632 L1506.26 249.632  Z" fill="#009af9" fill-rule="evenodd" fill-opacity="1"/>
<polyline clip-path="url(#clip502)" style="stroke:#000000; stroke-linecap:round; stroke-linejoin:round; stroke-width:4; stroke-opacity:1; fill:none" points="1506.26,249.632 277.246,249.632 277.246,159.682 1506.26,159.682 1506.26,249.632 "/>
<path clip-path="url(#clip502)" d="M1574.06 137.194 L277.246 137.194 L277.246 47.2441 L1574.06 47.2441 L1574.06 137.194 L1574.06 137.194  Z" fill="#009af9" fill-rule="evenodd" fill-opacity="1"/>
<polyline clip-path="url(#clip502)" style="stroke:#000000; stroke-linecap:round; stroke-linejoin:round; stroke-width:4; stroke-opacity:1; fill:none" points="1574.06,137.194 277.246,137.194 277.246,47.2441 1574.06,47.2441 1574.06,137.194 "/>
<circle clip-path="url(#clip502)" style="fill:#009af9; stroke:none; fill-opacity:0" cx="282.727" cy="1441.47" r="2"/>
<circle clip-path="url(#clip502)" style="fill:#009af9; stroke:none; fill-opacity:0" cx="286.158" cy="1329.03" r="2"/>
<circle clip-path="url(#clip502)" style="fill:#009af9; stroke:none; fill-opacity:0" cx="299.266" cy="1216.6" r="2"/>
<circle clip-path="url(#clip502)" style="fill:#009af9; stroke:none; fill-opacity:0" cx="299.515" cy="1104.16" r="2"/>
<circle clip-path="url(#clip502)" style="fill:#009af9; stroke:none; fill-opacity:0" cx="313.719" cy="991.722" r="2"/>
<circle clip-path="url(#clip502)" style="fill:#009af9; stroke:none; fill-opacity:0" cx="315.278" cy="879.284" r="2"/>
<circle clip-path="url(#clip502)" style="fill:#009af9; stroke:none; fill-opacity:0" cx="335.388" cy="766.846" r="2"/>
<circle clip-path="url(#clip502)" style="fill:#009af9; stroke:none; fill-opacity:0" cx="349.157" cy="654.408" r="2"/>
<circle clip-path="url(#clip502)" style="fill:#009af9; stroke:none; fill-opacity:0" cx="352.976" cy="541.97" r="2"/>
<circle clip-path="url(#clip502)" style="fill:#009af9; stroke:none; fill-opacity:0" cx="360.956" cy="429.533" r="2"/>
<circle clip-path="url(#clip502)" style="fill:#009af9; stroke:none; fill-opacity:0" cx="808.053" cy="317.095" r="2"/>
<circle clip-path="url(#clip502)" style="fill:#009af9; stroke:none; fill-opacity:0" cx="1506.26" cy="204.657" r="2"/>
<circle clip-path="url(#clip502)" style="fill:#009af9; stroke:none; fill-opacity:0" cx="1574.06" cy="92.2192" r="2"/>
<polyline clip-path="url(#clip502)" style="stroke:#000000; stroke-linecap:round; stroke-linejoin:round; stroke-width:4; stroke-opacity:1; fill:none" points="281.519,1441.47 283.936,1441.47 "/>
<polyline clip-path="url(#clip502)" style="stroke:#000000; stroke-linecap:round; stroke-linejoin:round; stroke-width:4; stroke-opacity:1; fill:none" points="283.788,1329.03 288.528,1329.03 "/>
<polyline clip-path="url(#clip502)" style="stroke:#000000; stroke-linecap:round; stroke-linejoin:round; stroke-width:4; stroke-opacity:1; fill:none" points="295.77,1216.6 302.761,1216.6 "/>
<polyline clip-path="url(#clip502)" style="stroke:#000000; stroke-linecap:round; stroke-linejoin:round; stroke-width:4; stroke-opacity:1; fill:none" points="297.377,1104.16 301.653,1104.16 "/>
<polyline clip-path="url(#clip502)" style="stroke:#000000; stroke-linecap:round; stroke-linejoin:round; stroke-width:4; stroke-opacity:1; fill:none" points="310.46,991.722 316.978,991.722 "/>
<polyline clip-path="url(#clip502)" style="stroke:#000000; stroke-linecap:round; stroke-linejoin:round; stroke-width:4; stroke-opacity:1; fill:none" points="298.887,879.284 331.669,879.284 "/>
<polyline clip-path="url(#clip502)" style="stroke:#000000; stroke-linecap:round; stroke-linejoin:round; stroke-width:4; stroke-opacity:1; fill:none" points="319.965,766.846 350.811,766.846 "/>
<polyline clip-path="url(#clip502)" style="stroke:#000000; stroke-linecap:round; stroke-linejoin:round; stroke-width:4; stroke-opacity:1; fill:none" points="341.692,654.408 356.623,654.408 "/>
<polyline clip-path="url(#clip502)" style="stroke:#000000; stroke-linecap:round; stroke-linejoin:round; stroke-width:4; stroke-opacity:1; fill:none" points="344.65,541.97 361.303,541.97 "/>
<polyline clip-path="url(#clip502)" style="stroke:#000000; stroke-linecap:round; stroke-linejoin:round; stroke-width:4; stroke-opacity:1; fill:none" points="351.834,429.533 370.078,429.533 "/>
<polyline clip-path="url(#clip502)" style="stroke:#000000; stroke-linecap:round; stroke-linejoin:round; stroke-width:4; stroke-opacity:1; fill:none" points="553.815,317.095 1062.29,317.095 "/>
<polyline clip-path="url(#clip502)" style="stroke:#000000; stroke-linecap:round; stroke-linejoin:round; stroke-width:4; stroke-opacity:1; fill:none" points="1335.55,204.657 1676.98,204.657 "/>
<polyline clip-path="url(#clip502)" style="stroke:#000000; stroke-linecap:round; stroke-linejoin:round; stroke-width:4; stroke-opacity:1; fill:none" points="1428.84,92.2192 1719.28,92.2192 "/>
<line clip-path="url(#clip502)" x1="281.519" y1="1457.47" x2="281.519" y2="1425.47" style="stroke:#000000; stroke-width:4; stroke-opacity:1"/>
<line clip-path="url(#clip502)" x1="283.936" y1="1457.47" x2="283.936" y2="1425.47" style="stroke:#000000; stroke-width:4; stroke-opacity:1"/>
<line clip-path="url(#clip502)" x1="283.788" y1="1345.03" x2="283.788" y2="1313.03" style="stroke:#000000; stroke-width:4; stroke-opacity:1"/>
<line clip-path="url(#clip502)" x1="288.528" y1="1345.03" x2="288.528" y2="1313.03" style="stroke:#000000; stroke-width:4; stroke-opacity:1"/>
<line clip-path="url(#clip502)" x1="295.77" y1="1232.6" x2="295.77" y2="1200.6" style="stroke:#000000; stroke-width:4; stroke-opacity:1"/>
<line clip-path="url(#clip502)" x1="302.761" y1="1232.6" x2="302.761" y2="1200.6" style="stroke:#000000; stroke-width:4; stroke-opacity:1"/>
<line clip-path="url(#clip502)" x1="297.377" y1="1120.16" x2="297.377" y2="1088.16" style="stroke:#000000; stroke-width:4; stroke-opacity:1"/>
<line clip-path="url(#clip502)" x1="301.653" y1="1120.16" x2="301.653" y2="1088.16" style="stroke:#000000; stroke-width:4; stroke-opacity:1"/>
<line clip-path="url(#clip502)" x1="310.46" y1="1007.72" x2="310.46" y2="975.722" style="stroke:#000000; stroke-width:4; stroke-opacity:1"/>
<line clip-path="url(#clip502)" x1="316.978" y1="1007.72" x2="316.978" y2="975.722" style="stroke:#000000; stroke-width:4; stroke-opacity:1"/>
<line clip-path="url(#clip502)" x1="298.887" y1="895.284" x2="298.887" y2="863.284" style="stroke:#000000; stroke-width:4; stroke-opacity:1"/>
<line clip-path="url(#clip502)" x1="331.669" y1="895.284" x2="331.669" y2="863.284" style="stroke:#000000; stroke-width:4; stroke-opacity:1"/>
<line clip-path="url(#clip502)" x1="319.965" y1="782.846" x2="319.965" y2="750.846" style="stroke:#000000; stroke-width:4; stroke-opacity:1"/>
<line clip-path="url(#clip502)" x1="350.811" y1="782.846" x2="350.811" y2="750.846" style="stroke:#000000; stroke-width:4; stroke-opacity:1"/>
<line clip-path="url(#clip502)" x1="341.692" y1="670.408" x2="341.692" y2="638.408" style="stroke:#000000; stroke-width:4; stroke-opacity:1"/>
<line clip-path="url(#clip502)" x1="356.623" y1="670.408" x2="356.623" y2="638.408" style="stroke:#000000; stroke-width:4; stroke-opacity:1"/>
<line clip-path="url(#clip502)" x1="344.65" y1="557.97" x2="344.65" y2="525.97" style="stroke:#000000; stroke-width:4; stroke-opacity:1"/>
<line clip-path="url(#clip502)" x1="361.303" y1="557.97" x2="361.303" y2="525.97" style="stroke:#000000; stroke-width:4; stroke-opacity:1"/>
<line clip-path="url(#clip502)" x1="351.834" y1="445.533" x2="351.834" y2="413.533" style="stroke:#000000; stroke-width:4; stroke-opacity:1"/>
<line clip-path="url(#clip502)" x1="370.078" y1="445.533" x2="370.078" y2="413.533" style="stroke:#000000; stroke-width:4; stroke-opacity:1"/>
<line clip-path="url(#clip502)" x1="553.815" y1="333.095" x2="553.815" y2="301.095" style="stroke:#000000; stroke-width:4; stroke-opacity:1"/>
<line clip-path="url(#clip502)" x1="1062.29" y1="333.095" x2="1062.29" y2="301.095" style="stroke:#000000; stroke-width:4; stroke-opacity:1"/>
<line clip-path="url(#clip502)" x1="1335.55" y1="220.657" x2="1335.55" y2="188.657" style="stroke:#000000; stroke-width:4; stroke-opacity:1"/>
<line clip-path="url(#clip502)" x1="1676.98" y1="220.657" x2="1676.98" y2="188.657" style="stroke:#000000; stroke-width:4; stroke-opacity:1"/>
<line clip-path="url(#clip502)" x1="1428.84" y1="108.219" x2="1428.84" y2="76.2192" style="stroke:#000000; stroke-width:4; stroke-opacity:1"/>
<line clip-path="url(#clip502)" x1="1719.28" y1="108.219" x2="1719.28" y2="76.2192" style="stroke:#000000; stroke-width:4; stroke-opacity:1"/>
<path clip-path="url(#clip500)" d="M1650.93 198.898 L2283.57 198.898 L2283.57 95.2176 L1650.93 95.2176  Z" fill="#ffffff" fill-rule="evenodd" fill-opacity="1"/>
<polyline clip-path="url(#clip500)" style="stroke:#000000; stroke-linecap:round; stroke-linejoin:round; stroke-width:4; stroke-opacity:1; fill:none" points="1650.93,198.898 2283.57,198.898 2283.57,95.2176 1650.93,95.2176 1650.93,198.898 "/>
<path clip-path="url(#clip500)" d="M1673.99 167.794 L1812.36 167.794 L1812.36 126.322 L1673.99 126.322 L1673.99 167.794  Z" fill="#009af9" fill-rule="evenodd" fill-opacity="1"/>
<polyline clip-path="url(#clip500)" style="stroke:#000000; stroke-linecap:round; stroke-linejoin:round; stroke-width:4; stroke-opacity:1; fill:none" points="1673.99,167.794 1812.36,167.794 1812.36,126.322 1673.99,126.322 1673.99,167.794 "/>
<path clip-path="url(#clip500)" d="M1857.67 130.912 L1857.67 135.472 Q1855 134.199 1852.64 133.574 Q1850.28 132.949 1848.08 132.949 Q1844.26 132.949 1842.18 134.43 Q1840.12 135.912 1840.12 138.643 Q1840.12 140.935 1841.49 142.115 Q1842.87 143.273 1846.72 143.99 L1849.54 144.569 Q1854.77 145.565 1857.25 148.088 Q1859.75 150.588 1859.75 154.801 Q1859.75 159.824 1856.37 162.416 Q1853.01 165.009 1846.51 165.009 Q1844.05 165.009 1841.28 164.453 Q1838.52 163.898 1835.56 162.81 L1835.56 157.995 Q1838.41 159.592 1841.14 160.402 Q1843.87 161.213 1846.51 161.213 Q1850.51 161.213 1852.69 159.639 Q1854.87 158.064 1854.87 155.148 Q1854.87 152.602 1853.29 151.166 Q1851.74 149.731 1848.18 149.014 L1845.33 148.458 Q1840.1 147.416 1837.76 145.194 Q1835.42 142.972 1835.42 139.014 Q1835.42 134.43 1838.64 131.791 Q1841.88 129.153 1847.55 129.153 Q1849.98 129.153 1852.5 129.592 Q1855.03 130.032 1857.67 130.912 Z" fill="#000000" fill-rule="nonzero" fill-opacity="1" /><path clip-path="url(#clip500)" d="M1876.9 141.398 Q1873.48 141.398 1871.49 144.083 Q1869.49 146.745 1869.49 151.398 Q1869.49 156.051 1871.46 158.736 Q1873.45 161.398 1876.9 161.398 Q1880.3 161.398 1882.3 158.713 Q1884.29 156.027 1884.29 151.398 Q1884.29 146.791 1882.3 144.106 Q1880.3 141.398 1876.9 141.398 M1876.9 137.787 Q1882.46 137.787 1885.63 141.398 Q1888.8 145.009 1888.8 151.398 Q1888.8 157.764 1885.63 161.398 Q1882.46 165.009 1876.9 165.009 Q1871.32 165.009 1868.15 161.398 Q1865 157.764 1865 151.398 Q1865 145.009 1868.15 141.398 Q1871.32 137.787 1876.9 137.787 Z" fill="#000000" fill-rule="nonzero" fill-opacity="1" /><path clip-path="url(#clip500)" d="M1914.47 151.398 Q1914.47 146.699 1912.53 144.037 Q1910.61 141.352 1907.23 141.352 Q1903.85 141.352 1901.9 144.037 Q1899.98 146.699 1899.98 151.398 Q1899.98 156.097 1901.9 158.782 Q1903.85 161.444 1907.23 161.444 Q1910.61 161.444 1912.53 158.782 Q1914.47 156.097 1914.47 151.398 M1899.98 142.347 Q1901.32 140.032 1903.36 138.921 Q1905.42 137.787 1908.27 137.787 Q1912.99 137.787 1915.93 141.537 Q1918.89 145.287 1918.89 151.398 Q1918.89 157.509 1915.93 161.259 Q1912.99 165.009 1908.27 165.009 Q1905.42 165.009 1903.36 163.898 Q1901.32 162.763 1899.98 160.449 L1899.98 164.338 L1895.7 164.338 L1895.7 128.319 L1899.98 128.319 L1899.98 142.347 Z" fill="#000000" fill-rule="nonzero" fill-opacity="1" /><path clip-path="url(#clip500)" d="M1936 141.398 Q1932.57 141.398 1930.58 144.083 Q1928.59 146.745 1928.59 151.398 Q1928.59 156.051 1930.56 158.736 Q1932.55 161.398 1936 161.398 Q1939.4 161.398 1941.39 158.713 Q1943.38 156.027 1943.38 151.398 Q1943.38 146.791 1941.39 144.106 Q1939.4 141.398 1936 141.398 M1936 137.787 Q1941.55 137.787 1944.73 141.398 Q1947.9 145.009 1947.9 151.398 Q1947.9 157.764 1944.73 161.398 Q1941.55 165.009 1936 165.009 Q1930.42 165.009 1927.25 161.398 Q1924.1 157.764 1924.1 151.398 Q1924.1 145.009 1927.25 141.398 Q1930.42 137.787 1936 137.787 Z" fill="#000000" fill-rule="nonzero" fill-opacity="1" /><path clip-path="url(#clip500)" d="M1954.96 128.319 L1959.22 128.319 L1959.22 164.338 L1954.96 164.338 L1954.96 128.319 Z" fill="#000000" fill-rule="nonzero" fill-opacity="1" /><path clip-path="url(#clip500)" d="M1983.2 138.412 L1987.46 138.412 L1987.46 164.338 L1983.2 164.338 L1983.2 138.412 M1983.2 128.319 L1987.46 128.319 L1987.46 133.713 L1983.2 133.713 L1983.2 128.319 Z" fill="#000000" fill-rule="nonzero" fill-opacity="1" /><path clip-path="url(#clip500)" d="M2017.92 148.689 L2017.92 164.338 L2013.66 164.338 L2013.66 148.828 Q2013.66 145.148 2012.23 143.319 Q2010.79 141.49 2007.92 141.49 Q2004.47 141.49 2002.48 143.69 Q2000.49 145.889 2000.49 149.685 L2000.49 164.338 L1996.21 164.338 L1996.21 138.412 L2000.49 138.412 L2000.49 142.44 Q2002.02 140.102 2004.08 138.944 Q2006.16 137.787 2008.87 137.787 Q2013.34 137.787 2015.63 140.565 Q2017.92 143.319 2017.92 148.689 Z" fill="#000000" fill-rule="nonzero" fill-opacity="1" /><path clip-path="url(#clip500)" d="M2043.48 142.347 L2043.48 128.319 L2047.73 128.319 L2047.73 164.338 L2043.48 164.338 L2043.48 160.449 Q2042.13 162.763 2040.07 163.898 Q2038.04 165.009 2035.16 165.009 Q2030.47 165.009 2027.5 161.259 Q2024.56 157.509 2024.56 151.398 Q2024.56 145.287 2027.5 141.537 Q2030.47 137.787 2035.16 137.787 Q2038.04 137.787 2040.07 138.921 Q2042.13 140.032 2043.48 142.347 M2028.96 151.398 Q2028.96 156.097 2030.88 158.782 Q2032.83 161.444 2036.21 161.444 Q2039.59 161.444 2041.53 158.782 Q2043.48 156.097 2043.48 151.398 Q2043.48 146.699 2041.53 144.037 Q2039.59 141.352 2036.21 141.352 Q2032.83 141.352 2030.88 144.037 Q2028.96 146.699 2028.96 151.398 Z" fill="#000000" fill-rule="nonzero" fill-opacity="1" /><path clip-path="url(#clip500)" d="M2078.68 150.31 L2078.68 152.393 L2059.1 152.393 Q2059.38 156.791 2061.74 159.106 Q2064.12 161.398 2068.36 161.398 Q2070.81 161.398 2073.1 160.796 Q2075.42 160.194 2077.69 158.99 L2077.69 163.018 Q2075.4 163.99 2072.99 164.5 Q2070.58 165.009 2068.1 165.009 Q2061.9 165.009 2058.27 161.398 Q2054.66 157.787 2054.66 151.629 Q2054.66 145.264 2058.08 141.537 Q2061.53 137.787 2067.36 137.787 Q2072.6 137.787 2075.63 141.166 Q2078.68 144.523 2078.68 150.31 M2074.42 149.06 Q2074.38 145.565 2072.46 143.481 Q2070.56 141.398 2067.41 141.398 Q2063.85 141.398 2061.69 143.412 Q2059.56 145.426 2059.24 149.083 L2074.42 149.06 Z" fill="#000000" fill-rule="nonzero" fill-opacity="1" /><path clip-path="url(#clip500)" d="M2106.39 138.412 L2097.02 151.027 L2106.88 164.338 L2101.85 164.338 L2094.31 154.152 L2086.76 164.338 L2081.74 164.338 L2091.81 150.773 L2082.6 138.412 L2087.62 138.412 L2094.49 147.648 L2101.37 138.412 L2106.39 138.412 Z" fill="#000000" fill-rule="nonzero" fill-opacity="1" /><path clip-path="url(#clip500)" d="M2146.58 151.398 Q2146.58 146.699 2144.63 144.037 Q2142.71 141.352 2139.33 141.352 Q2135.95 141.352 2134.01 144.037 Q2132.09 146.699 2132.09 151.398 Q2132.09 156.097 2134.01 158.782 Q2135.95 161.444 2139.33 161.444 Q2142.71 161.444 2144.63 158.782 Q2146.58 156.097 2146.58 151.398 M2132.09 142.347 Q2133.43 140.032 2135.47 138.921 Q2137.53 137.787 2140.37 137.787 Q2145.09 137.787 2148.03 141.537 Q2151 145.287 2151 151.398 Q2151 157.509 2148.03 161.259 Q2145.09 165.009 2140.37 165.009 Q2137.53 165.009 2135.47 163.898 Q2133.43 162.763 2132.09 160.449 L2132.09 164.338 L2127.8 164.338 L2127.8 128.319 L2132.09 128.319 L2132.09 142.347 Z" fill="#000000" fill-rule="nonzero" fill-opacity="1" /><path clip-path="url(#clip500)" d="M2168.84 166.745 Q2167.04 171.375 2165.33 172.787 Q2163.61 174.199 2160.74 174.199 L2157.34 174.199 L2157.34 170.634 L2159.84 170.634 Q2161.6 170.634 2162.57 169.8 Q2163.54 168.967 2164.72 165.865 L2165.49 163.921 L2155 138.412 L2159.52 138.412 L2167.62 158.689 L2175.72 138.412 L2180.23 138.412 L2168.84 166.745 Z" fill="#000000" fill-rule="nonzero" fill-opacity="1" /><path clip-path="url(#clip500)" d="M2219.84 139.407 L2219.84 143.389 Q2218.03 142.393 2216.21 141.907 Q2214.4 141.398 2212.55 141.398 Q2208.4 141.398 2206.11 144.037 Q2203.82 146.652 2203.82 151.398 Q2203.82 156.143 2206.11 158.782 Q2208.4 161.398 2212.55 161.398 Q2214.4 161.398 2216.21 160.912 Q2218.03 160.402 2219.84 159.407 L2219.84 163.342 Q2218.06 164.176 2216.14 164.592 Q2214.24 165.009 2212.09 165.009 Q2206.23 165.009 2202.78 161.328 Q2199.33 157.648 2199.33 151.398 Q2199.33 145.055 2202.8 141.421 Q2206.3 137.787 2212.36 137.787 Q2214.33 137.787 2216.21 138.203 Q2218.08 138.597 2219.84 139.407 Z" fill="#000000" fill-rule="nonzero" fill-opacity="1" /><path clip-path="url(#clip500)" d="M2237.29 141.398 Q2233.87 141.398 2231.88 144.083 Q2229.89 146.745 2229.89 151.398 Q2229.89 156.051 2231.85 158.736 Q2233.84 161.398 2237.29 161.398 Q2240.7 161.398 2242.69 158.713 Q2244.68 156.027 2244.68 151.398 Q2244.68 146.791 2242.69 144.106 Q2240.7 141.398 2237.29 141.398 M2237.29 137.787 Q2242.85 137.787 2246.02 141.398 Q2249.19 145.009 2249.19 151.398 Q2249.19 157.764 2246.02 161.398 Q2242.85 165.009 2237.29 165.009 Q2231.71 165.009 2228.54 161.398 Q2225.4 157.764 2225.4 151.398 Q2225.4 145.009 2228.54 141.398 Q2231.71 137.787 2237.29 137.787 Z" fill="#000000" fill-rule="nonzero" fill-opacity="1" /><path clip-path="url(#clip500)" d="M2256.25 128.319 L2260.51 128.319 L2260.51 164.338 L2256.25 164.338 L2256.25 128.319 Z" fill="#000000" fill-rule="nonzero" fill-opacity="1" /></svg>
