<?xml version="1.0" encoding="utf-8"?>
<svg xmlns="http://www.w3.org/2000/svg" xmlns:xlink="http://www.w3.org/1999/xlink" width="600" height="400" viewBox="0 0 2400 1600">
<defs>
  <clipPath id="clip380">
    <rect x="0" y="0" width="2400" height="1600"/>
  </clipPath>
</defs>
<path clip-path="url(#clip380)" d="M0 1600 L2400 1600 L2400 0 L0 0  Z" fill="#ffffff" fill-rule="evenodd" fill-opacity="1"/>
<defs>
  <clipPath id="clip381">
    <rect x="480" y="0" width="1681" height="1600"/>
  </clipPath>
</defs>
<path clip-path="url(#clip380)" d="M156.598 1486.45 L2352.76 1486.45 L2352.76 47.2441 L156.598 47.2441  Z" fill="#ffffff" fill-rule="evenodd" fill-opacity="1"/>
<defs>
  <clipPath id="clip382">
    <rect x="156" y="47" width="2197" height="1440"/>
  </clipPath>
</defs>
<polyline clip-path="url(#clip382)" style="stroke:#000000; stroke-linecap:round; stroke-linejoin:round; stroke-width:2; stroke-opacity:0.1; fill:none" points="412.189,1486.45 412.189,47.2441 "/>
<polyline clip-path="url(#clip382)" style="stroke:#000000; stroke-linecap:round; stroke-linejoin:round; stroke-width:2; stroke-opacity:0.1; fill:none" points="749.184,1486.45 749.184,47.2441 "/>
<polyline clip-path="url(#clip382)" style="stroke:#000000; stroke-linecap:round; stroke-linejoin:round; stroke-width:2; stroke-opacity:0.1; fill:none" points="1086.18,1486.45 1086.18,47.2441 "/>
<polyline clip-path="url(#clip382)" style="stroke:#000000; stroke-linecap:round; stroke-linejoin:round; stroke-width:2; stroke-opacity:0.1; fill:none" points="1423.17,1486.45 1423.17,47.2441 "/>
<polyline clip-path="url(#clip382)" style="stroke:#000000; stroke-linecap:round; stroke-linejoin:round; stroke-width:2; stroke-opacity:0.1; fill:none" points="1760.17,1486.45 1760.17,47.2441 "/>
<polyline clip-path="url(#clip382)" style="stroke:#000000; stroke-linecap:round; stroke-linejoin:round; stroke-width:2; stroke-opacity:0.1; fill:none" points="2097.17,1486.45 2097.17,47.2441 "/>
<polyline clip-path="url(#clip382)" style="stroke:#000000; stroke-linecap:round; stroke-linejoin:round; stroke-width:2; stroke-opacity:0.1; fill:none" points="156.598,1486.45 2352.76,1486.45 "/>
<polyline clip-path="url(#clip382)" style="stroke:#000000; stroke-linecap:round; stroke-linejoin:round; stroke-width:2; stroke-opacity:0.1; fill:none" points="156.598,1260.58 2352.76,1260.58 "/>
<polyline clip-path="url(#clip382)" style="stroke:#000000; stroke-linecap:round; stroke-linejoin:round; stroke-width:2; stroke-opacity:0.1; fill:none" points="156.598,1034.71 2352.76,1034.71 "/>
<polyline clip-path="url(#clip382)" style="stroke:#000000; stroke-linecap:round; stroke-linejoin:round; stroke-width:2; stroke-opacity:0.1; fill:none" points="156.598,808.841 2352.76,808.841 "/>
<polyline clip-path="url(#clip382)" style="stroke:#000000; stroke-linecap:round; stroke-linejoin:round; stroke-width:2; stroke-opacity:0.1; fill:none" points="156.598,582.972 2352.76,582.972 "/>
<polyline clip-path="url(#clip382)" style="stroke:#000000; stroke-linecap:round; stroke-linejoin:round; stroke-width:2; stroke-opacity:0.1; fill:none" points="156.598,357.103 2352.76,357.103 "/>
<polyline clip-path="url(#clip382)" style="stroke:#000000; stroke-linecap:round; stroke-linejoin:round; stroke-width:2; stroke-opacity:0.1; fill:none" points="156.598,131.234 2352.76,131.234 "/>
<polyline clip-path="url(#clip380)" style="stroke:#000000; stroke-linecap:round; stroke-linejoin:round; stroke-width:4; stroke-opacity:1; fill:none" points="156.598,1486.45 2352.76,1486.45 "/>
<polyline clip-path="url(#clip380)" style="stroke:#000000; stroke-linecap:round; stroke-linejoin:round; stroke-width:4; stroke-opacity:1; fill:none" points="412.189,1486.45 412.189,1467.55 "/>
<polyline clip-path="url(#clip380)" style="stroke:#000000; stroke-linecap:round; stroke-linejoin:round; stroke-width:4; stroke-opacity:1; fill:none" points="749.184,1486.45 749.184,1467.55 "/>
<polyline clip-path="url(#clip380)" style="stroke:#000000; stroke-linecap:round; stroke-linejoin:round; stroke-width:4; stroke-opacity:1; fill:none" points="1086.18,1486.45 1086.18,1467.55 "/>
<polyline clip-path="url(#clip380)" style="stroke:#000000; stroke-linecap:round; stroke-linejoin:round; stroke-width:4; stroke-opacity:1; fill:none" points="1423.17,1486.45 1423.17,1467.55 "/>
<polyline clip-path="url(#clip380)" style="stroke:#000000; stroke-linecap:round; stroke-linejoin:round; stroke-width:4; stroke-opacity:1; fill:none" points="1760.17,1486.45 1760.17,1467.55 "/>
<polyline clip-path="url(#clip380)" style="stroke:#000000; stroke-linecap:round; stroke-linejoin:round; stroke-width:4; stroke-opacity:1; fill:none" points="2097.17,1486.45 2097.17,1467.55 "/>
<path clip-path="url(#clip380)" d="M415.198 1518.36 L403.393 1536.81 L415.198 1536.81 L415.198 1518.36 M413.971 1514.29 L419.851 1514.29 L419.851 1536.81 L424.781 1536.81 L424.781 1540.7 L419.851 1540.7 L419.851 1548.85 L415.198 1548.85 L415.198 1540.7 L399.596 1540.7 L399.596 1536.19 L413.971 1514.29 Z" fill="#000000" fill-rule="nonzero" fill-opacity="1" /><path clip-path="url(#clip380)" d="M753.432 1530.21 Q756.788 1530.93 758.663 1533.2 Q760.561 1535.47 760.561 1538.8 Q760.561 1543.92 757.043 1546.72 Q753.524 1549.52 747.043 1549.52 Q744.867 1549.52 742.552 1549.08 Q740.261 1548.66 737.807 1547.81 L737.807 1543.29 Q739.751 1544.43 742.066 1545.01 Q744.381 1545.58 746.904 1545.58 Q751.302 1545.58 753.594 1543.85 Q755.909 1542.11 755.909 1538.8 Q755.909 1535.75 753.756 1534.03 Q751.626 1532.3 747.807 1532.3 L743.779 1532.3 L743.779 1528.45 L747.992 1528.45 Q751.441 1528.45 753.27 1527.09 Q755.098 1525.7 755.098 1523.11 Q755.098 1520.45 753.2 1519.03 Q751.325 1517.6 747.807 1517.6 Q745.886 1517.6 743.687 1518.01 Q741.487 1518.43 738.849 1519.31 L738.849 1515.14 Q741.511 1514.4 743.825 1514.03 Q746.163 1513.66 748.224 1513.66 Q753.548 1513.66 756.649 1516.09 Q759.751 1518.5 759.751 1522.62 Q759.751 1525.49 758.108 1527.48 Q756.464 1529.45 753.432 1530.21 Z" fill="#000000" fill-rule="nonzero" fill-opacity="1" /><path clip-path="url(#clip380)" d="M1076.46 1514.29 L1094.81 1514.29 L1094.81 1518.22 L1080.74 1518.22 L1080.74 1526.7 Q1081.76 1526.35 1082.78 1526.19 Q1083.8 1526 1084.81 1526 Q1090.6 1526 1093.98 1529.17 Q1097.36 1532.34 1097.36 1537.76 Q1097.36 1543.34 1093.89 1546.44 Q1090.42 1549.52 1084.1 1549.52 Q1081.92 1549.52 1079.65 1549.15 Q1077.41 1548.78 1075 1548.04 L1075 1543.34 Q1077.08 1544.47 1079.3 1545.03 Q1081.53 1545.58 1084 1545.58 Q1088.01 1545.58 1090.35 1543.48 Q1092.68 1541.37 1092.68 1537.76 Q1092.68 1534.15 1090.35 1532.04 Q1088.01 1529.94 1084 1529.94 Q1082.13 1529.94 1080.25 1530.35 Q1078.4 1530.77 1076.46 1531.65 L1076.46 1514.29 Z" fill="#000000" fill-rule="nonzero" fill-opacity="1" /><path clip-path="url(#clip380)" d="M1417.83 1544.91 L1434.15 1544.91 L1434.15 1548.85 L1412.2 1548.85 L1412.2 1544.91 Q1414.86 1542.16 1419.45 1537.53 Q1424.05 1532.88 1425.23 1531.53 Q1427.48 1529.01 1428.36 1527.27 Q1429.26 1525.51 1429.26 1523.82 Q1429.26 1521.07 1427.32 1519.33 Q1425.4 1517.6 1422.3 1517.6 Q1420.1 1517.6 1417.64 1518.36 Q1415.21 1519.13 1412.43 1520.68 L1412.43 1515.95 Q1415.26 1514.82 1417.71 1514.24 Q1420.17 1513.66 1422.2 1513.66 Q1427.57 1513.66 1430.77 1516.35 Q1433.96 1519.03 1433.96 1523.52 Q1433.96 1525.65 1433.15 1527.57 Q1432.36 1529.47 1430.26 1532.07 Q1429.68 1532.74 1426.58 1535.95 Q1423.48 1539.15 1417.83 1544.91 Z" fill="#000000" fill-rule="nonzero" fill-opacity="1" /><path clip-path="url(#clip380)" d="M1760.58 1529.7 Q1757.43 1529.7 1755.58 1531.86 Q1753.75 1534.01 1753.75 1537.76 Q1753.75 1541.49 1755.58 1543.66 Q1757.43 1545.82 1760.58 1545.82 Q1763.72 1545.82 1765.55 1543.66 Q1767.4 1541.49 1767.4 1537.76 Q1767.4 1534.01 1765.55 1531.86 Q1763.72 1529.7 1760.58 1529.7 M1769.86 1515.05 L1769.86 1519.31 Q1768.1 1518.48 1766.29 1518.04 Q1764.51 1517.6 1762.75 1517.6 Q1758.12 1517.6 1755.67 1520.72 Q1753.24 1523.85 1752.89 1530.17 Q1754.26 1528.15 1756.32 1527.09 Q1758.38 1526 1760.85 1526 Q1766.06 1526 1769.07 1529.17 Q1772.1 1532.32 1772.1 1537.76 Q1772.1 1543.08 1768.95 1546.3 Q1765.81 1549.52 1760.58 1549.52 Q1754.58 1549.52 1751.41 1544.94 Q1748.24 1540.33 1748.24 1531.6 Q1748.24 1523.41 1752.13 1518.55 Q1756.01 1513.66 1762.57 1513.66 Q1764.33 1513.66 1766.11 1514.01 Q1767.91 1514.36 1769.86 1515.05 Z" fill="#000000" fill-rule="nonzero" fill-opacity="1" /><path clip-path="url(#clip380)" d="M2087.55 1544.91 L2095.19 1544.91 L2095.19 1518.55 L2086.88 1520.21 L2086.88 1515.95 L2095.14 1514.29 L2099.82 1514.29 L2099.82 1544.91 L2107.45 1544.91 L2107.45 1548.85 L2087.55 1548.85 L2087.55 1544.91 Z" fill="#000000" fill-rule="nonzero" fill-opacity="1" /><polyline clip-path="url(#clip380)" style="stroke:#000000; stroke-linecap:round; stroke-linejoin:round; stroke-width:4; stroke-opacity:1; fill:none" points="156.598,1486.45 156.598,47.2441 "/>
<polyline clip-path="url(#clip380)" style="stroke:#000000; stroke-linecap:round; stroke-linejoin:round; stroke-width:4; stroke-opacity:1; fill:none" points="156.598,1486.45 175.496,1486.45 "/>
<polyline clip-path="url(#clip380)" style="stroke:#000000; stroke-linecap:round; stroke-linejoin:round; stroke-width:4; stroke-opacity:1; fill:none" points="156.598,1260.58 175.496,1260.58 "/>
<polyline clip-path="url(#clip380)" style="stroke:#000000; stroke-linecap:round; stroke-linejoin:round; stroke-width:4; stroke-opacity:1; fill:none" points="156.598,1034.71 175.496,1034.71 "/>
<polyline clip-path="url(#clip380)" style="stroke:#000000; stroke-linecap:round; stroke-linejoin:round; stroke-width:4; stroke-opacity:1; fill:none" points="156.598,808.841 175.496,808.841 "/>
<polyline clip-path="url(#clip380)" style="stroke:#000000; stroke-linecap:round; stroke-linejoin:round; stroke-width:4; stroke-opacity:1; fill:none" points="156.598,582.972 175.496,582.972 "/>
<polyline clip-path="url(#clip380)" style="stroke:#000000; stroke-linecap:round; stroke-linejoin:round; stroke-width:4; stroke-opacity:1; fill:none" points="156.598,357.103 175.496,357.103 "/>
<polyline clip-path="url(#clip380)" style="stroke:#000000; stroke-linecap:round; stroke-linejoin:round; stroke-width:4; stroke-opacity:1; fill:none" points="156.598,131.234 175.496,131.234 "/>
<path clip-path="url(#clip380)" d="M63.4226 1472.25 Q59.8115 1472.25 57.9828 1475.81 Q56.1773 1479.35 56.1773 1486.48 Q56.1773 1493.59 57.9828 1497.15 Q59.8115 1500.7 63.4226 1500.7 Q67.0569 1500.7 68.8624 1497.15 Q70.6911 1493.59 70.6911 1486.48 Q70.6911 1479.35 68.8624 1475.81 Q67.0569 1472.25 63.4226 1472.25 M63.4226 1468.54 Q69.2328 1468.54 72.2883 1473.15 Q75.367 1477.73 75.367 1486.48 Q75.367 1495.21 72.2883 1499.82 Q69.2328 1504.4 63.4226 1504.4 Q57.6125 1504.4 54.5338 1499.82 Q51.4782 1495.21 51.4782 1486.48 Q51.4782 1477.73 54.5338 1473.15 Q57.6125 1468.54 63.4226 1468.54 Z" fill="#000000" fill-rule="nonzero" fill-opacity="1" /><path clip-path="url(#clip380)" d="M83.5845 1497.85 L88.4688 1497.85 L88.4688 1503.73 L83.5845 1503.73 L83.5845 1497.85 Z" fill="#000000" fill-rule="nonzero" fill-opacity="1" /><path clip-path="url(#clip380)" d="M108.654 1472.25 Q105.043 1472.25 103.214 1475.81 Q101.409 1479.35 101.409 1486.48 Q101.409 1493.59 103.214 1497.15 Q105.043 1500.7 108.654 1500.7 Q112.288 1500.7 114.094 1497.15 Q115.922 1493.59 115.922 1486.48 Q115.922 1479.35 114.094 1475.81 Q112.288 1472.25 108.654 1472.25 M108.654 1468.54 Q114.464 1468.54 117.52 1473.15 Q120.598 1477.73 120.598 1486.48 Q120.598 1495.21 117.52 1499.82 Q114.464 1504.4 108.654 1504.4 Q102.844 1504.4 99.765 1499.82 Q96.7095 1495.21 96.7095 1486.48 Q96.7095 1477.73 99.765 1473.15 Q102.844 1468.54 108.654 1468.54 Z" fill="#000000" fill-rule="nonzero" fill-opacity="1" /><path clip-path="url(#clip380)" d="M65.0198 1246.38 Q61.4087 1246.38 59.58 1249.94 Q57.7745 1253.48 57.7745 1260.61 Q57.7745 1267.72 59.58 1271.28 Q61.4087 1274.83 65.0198 1274.83 Q68.6541 1274.83 70.4596 1271.28 Q72.2883 1267.72 72.2883 1260.61 Q72.2883 1253.48 70.4596 1249.94 Q68.6541 1246.38 65.0198 1246.38 M65.0198 1242.67 Q70.83 1242.67 73.8855 1247.28 Q76.9642 1251.86 76.9642 1260.61 Q76.9642 1269.34 73.8855 1273.95 Q70.83 1278.53 65.0198 1278.53 Q59.2097 1278.53 56.131 1273.95 Q53.0754 1269.34 53.0754 1260.61 Q53.0754 1251.86 56.131 1247.28 Q59.2097 1242.67 65.0198 1242.67 Z" fill="#000000" fill-rule="nonzero" fill-opacity="1" /><path clip-path="url(#clip380)" d="M85.1818 1271.98 L90.066 1271.98 L90.066 1277.86 L85.1818 1277.86 L85.1818 1271.98 Z" fill="#000000" fill-rule="nonzero" fill-opacity="1" /><path clip-path="url(#clip380)" d="M104.279 1273.92 L120.598 1273.92 L120.598 1277.86 L98.6539 1277.86 L98.6539 1273.92 Q101.316 1271.17 105.899 1266.54 Q110.506 1261.89 111.686 1260.54 Q113.932 1258.02 114.811 1256.28 Q115.714 1254.53 115.714 1252.84 Q115.714 1250.08 113.77 1248.35 Q111.848 1246.61 108.746 1246.61 Q106.547 1246.61 104.094 1247.37 Q101.663 1248.14 98.8854 1249.69 L98.8854 1244.97 Q101.709 1243.83 104.163 1243.25 Q106.617 1242.67 108.654 1242.67 Q114.024 1242.67 117.219 1245.36 Q120.413 1248.04 120.413 1252.53 Q120.413 1254.66 119.603 1256.59 Q118.816 1258.48 116.709 1261.08 Q116.131 1261.75 113.029 1264.97 Q109.927 1268.16 104.279 1273.92 Z" fill="#000000" fill-rule="nonzero" fill-opacity="1" /><path clip-path="url(#clip380)" d="M62.9365 1020.51 Q59.3254 1020.51 57.4967 1024.07 Q55.6912 1027.61 55.6912 1034.74 Q55.6912 1041.85 57.4967 1045.42 Q59.3254 1048.96 62.9365 1048.96 Q66.5707 1048.96 68.3763 1045.42 Q70.205 1041.85 70.205 1034.74 Q70.205 1027.61 68.3763 1024.07 Q66.5707 1020.51 62.9365 1020.51 M62.9365 1016.8 Q68.7467 1016.8 71.8022 1021.41 Q74.8809 1025.99 74.8809 1034.74 Q74.8809 1043.47 71.8022 1048.08 Q68.7467 1052.66 62.9365 1052.66 Q57.1264 1052.66 54.0477 1048.08 Q50.9921 1043.47 50.9921 1034.74 Q50.9921 1025.99 54.0477 1021.41 Q57.1264 1016.8 62.9365 1016.8 Z" fill="#000000" fill-rule="nonzero" fill-opacity="1" /><path clip-path="url(#clip380)" d="M83.0984 1046.11 L87.9827 1046.11 L87.9827 1051.99 L83.0984 1051.99 L83.0984 1046.11 Z" fill="#000000" fill-rule="nonzero" fill-opacity="1" /><path clip-path="url(#clip380)" d="M111.015 1021.5 L99.2095 1039.95 L111.015 1039.95 L111.015 1021.5 M109.788 1017.43 L115.668 1017.43 L115.668 1039.95 L120.598 1039.95 L120.598 1043.84 L115.668 1043.84 L115.668 1051.99 L111.015 1051.99 L111.015 1043.84 L95.4132 1043.84 L95.4132 1039.33 L109.788 1017.43 Z" fill="#000000" fill-rule="nonzero" fill-opacity="1" /><path clip-path="url(#clip380)" d="M63.2606 794.639 Q59.6495 794.639 57.8208 798.204 Q56.0152 801.746 56.0152 808.875 Q56.0152 815.982 57.8208 819.547 Q59.6495 823.088 63.2606 823.088 Q66.8948 823.088 68.7004 819.547 Q70.5291 815.982 70.5291 808.875 Q70.5291 801.746 68.7004 798.204 Q66.8948 794.639 63.2606 794.639 M63.2606 790.936 Q69.0707 790.936 72.1263 795.542 Q75.205 800.125 75.205 808.875 Q75.205 817.602 72.1263 822.209 Q69.0707 826.792 63.2606 826.792 Q57.4504 826.792 54.3717 822.209 Q51.3162 817.602 51.3162 808.875 Q51.3162 800.125 54.3717 795.542 Q57.4504 790.936 63.2606 790.936 Z" fill="#000000" fill-rule="nonzero" fill-opacity="1" /><path clip-path="url(#clip380)" d="M83.4225 820.241 L88.3067 820.241 L88.3067 826.121 L83.4225 826.121 L83.4225 820.241 Z" fill="#000000" fill-rule="nonzero" fill-opacity="1" /><path clip-path="url(#clip380)" d="M109.071 806.977 Q105.922 806.977 104.071 809.13 Q102.242 811.283 102.242 815.033 Q102.242 818.76 104.071 820.936 Q105.922 823.088 109.071 823.088 Q112.219 823.088 114.047 820.936 Q115.899 818.76 115.899 815.033 Q115.899 811.283 114.047 809.13 Q112.219 806.977 109.071 806.977 M118.353 792.325 L118.353 796.584 Q116.594 795.75 114.788 795.311 Q113.006 794.871 111.246 794.871 Q106.617 794.871 104.163 797.996 Q101.733 801.121 101.385 807.44 Q102.751 805.426 104.811 804.362 Q106.871 803.274 109.348 803.274 Q114.557 803.274 117.566 806.445 Q120.598 809.593 120.598 815.033 Q120.598 820.357 117.45 823.574 Q114.302 826.792 109.071 826.792 Q103.075 826.792 99.9039 822.209 Q96.7326 817.602 96.7326 808.875 Q96.7326 800.681 100.621 795.82 Q104.51 790.936 111.061 790.936 Q112.82 790.936 114.603 791.283 Q116.408 791.63 118.353 792.325 Z" fill="#000000" fill-rule="nonzero" fill-opacity="1" /><path clip-path="url(#clip380)" d="M63.5152 568.77 Q59.9041 568.77 58.0754 572.335 Q56.2699 575.877 56.2699 583.006 Q56.2699 590.113 58.0754 593.678 Q59.9041 597.219 63.5152 597.219 Q67.1494 597.219 68.955 593.678 Q70.7837 590.113 70.7837 583.006 Q70.7837 575.877 68.955 572.335 Q67.1494 568.77 63.5152 568.77 M63.5152 565.067 Q69.3254 565.067 72.3809 569.673 Q75.4596 574.256 75.4596 583.006 Q75.4596 591.733 72.3809 596.34 Q69.3254 600.923 63.5152 600.923 Q57.7051 600.923 54.6264 596.34 Q51.5708 591.733 51.5708 583.006 Q51.5708 574.256 54.6264 569.673 Q57.7051 565.067 63.5152 565.067 Z" fill="#000000" fill-rule="nonzero" fill-opacity="1" /><path clip-path="url(#clip380)" d="M83.6771 594.372 L88.5614 594.372 L88.5614 600.252 L83.6771 600.252 L83.6771 594.372 Z" fill="#000000" fill-rule="nonzero" fill-opacity="1" /><path clip-path="url(#clip380)" d="M108.746 583.84 Q105.413 583.84 103.492 585.622 Q101.594 587.404 101.594 590.529 Q101.594 593.654 103.492 595.437 Q105.413 597.219 108.746 597.219 Q112.08 597.219 114.001 595.437 Q115.922 593.631 115.922 590.529 Q115.922 587.404 114.001 585.622 Q112.103 583.84 108.746 583.84 M104.071 581.849 Q101.061 581.108 99.3715 579.048 Q97.7048 576.988 97.7048 574.025 Q97.7048 569.881 100.645 567.474 Q103.608 565.067 108.746 565.067 Q113.908 565.067 116.848 567.474 Q119.788 569.881 119.788 574.025 Q119.788 576.988 118.098 579.048 Q116.432 581.108 113.445 581.849 Q116.825 582.636 118.7 584.928 Q120.598 587.219 120.598 590.529 Q120.598 595.553 117.52 598.238 Q114.464 600.923 108.746 600.923 Q103.029 600.923 99.9502 598.238 Q96.8947 595.553 96.8947 590.529 Q96.8947 587.219 98.7928 584.928 Q100.691 582.636 104.071 581.849 M102.358 574.465 Q102.358 577.15 104.024 578.655 Q105.714 580.159 108.746 580.159 Q111.756 580.159 113.445 578.655 Q115.158 577.15 115.158 574.465 Q115.158 571.78 113.445 570.275 Q111.756 568.77 108.746 568.77 Q105.714 568.77 104.024 570.275 Q102.358 571.78 102.358 574.465 Z" fill="#000000" fill-rule="nonzero" fill-opacity="1" /><path clip-path="url(#clip380)" d="M54.2328 370.447 L61.8717 370.447 L61.8717 344.082 L53.5616 345.748 L53.5616 341.489 L61.8254 339.823 L66.5013 339.823 L66.5013 370.447 L74.1402 370.447 L74.1402 374.383 L54.2328 374.383 L54.2328 370.447 Z" fill="#000000" fill-rule="nonzero" fill-opacity="1" /><path clip-path="url(#clip380)" d="M83.5845 368.503 L88.4688 368.503 L88.4688 374.383 L83.5845 374.383 L83.5845 368.503 Z" fill="#000000" fill-rule="nonzero" fill-opacity="1" /><path clip-path="url(#clip380)" d="M108.654 342.901 Q105.043 342.901 103.214 346.466 Q101.409 350.008 101.409 357.137 Q101.409 364.244 103.214 367.809 Q105.043 371.35 108.654 371.35 Q112.288 371.35 114.094 367.809 Q115.922 364.244 115.922 357.137 Q115.922 350.008 114.094 346.466 Q112.288 342.901 108.654 342.901 M108.654 339.198 Q114.464 339.198 117.52 343.804 Q120.598 348.387 120.598 357.137 Q120.598 365.864 117.52 370.471 Q114.464 375.054 108.654 375.054 Q102.844 375.054 99.765 370.471 Q96.7095 365.864 96.7095 357.137 Q96.7095 348.387 99.765 343.804 Q102.844 339.198 108.654 339.198 Z" fill="#000000" fill-rule="nonzero" fill-opacity="1" /><path clip-path="url(#clip380)" d="M55.8301 144.578 L63.4689 144.578 L63.4689 118.213 L55.1588 119.879 L55.1588 115.62 L63.4226 113.954 L68.0985 113.954 L68.0985 144.578 L75.7374 144.578 L75.7374 148.514 L55.8301 148.514 L55.8301 144.578 Z" fill="#000000" fill-rule="nonzero" fill-opacity="1" /><path clip-path="url(#clip380)" d="M85.1818 142.634 L90.066 142.634 L90.066 148.514 L85.1818 148.514 L85.1818 142.634 Z" fill="#000000" fill-rule="nonzero" fill-opacity="1" /><path clip-path="url(#clip380)" d="M104.279 144.578 L120.598 144.578 L120.598 148.514 L98.6539 148.514 L98.6539 144.578 Q101.316 141.824 105.899 137.194 Q110.506 132.541 111.686 131.199 Q113.932 128.676 114.811 126.94 Q115.714 125.18 115.714 123.491 Q115.714 120.736 113.77 119 Q111.848 117.264 108.746 117.264 Q106.547 117.264 104.094 118.028 Q101.663 118.791 98.8854 120.342 L98.8854 115.62 Q101.709 114.486 104.163 113.907 Q106.617 113.329 108.654 113.329 Q114.024 113.329 117.219 116.014 Q120.413 118.699 120.413 123.19 Q120.413 125.319 119.603 127.241 Q118.816 129.139 116.709 131.731 Q116.131 132.403 113.029 135.62 Q109.927 138.815 104.279 144.578 Z" fill="#000000" fill-rule="nonzero" fill-opacity="1" /><path clip-path="url(#clip382)" d="M277.391 1290.59 L277.391 1486.45 L546.987 1486.45 L546.987 1290.59 L277.391 1290.59 L277.391 1290.59  Z" fill="#009af9" fill-rule="evenodd" fill-opacity="1"/>
<polyline clip-path="url(#clip382)" style="stroke:#000000; stroke-linecap:round; stroke-linejoin:round; stroke-width:4; stroke-opacity:1; fill:none" points="277.391,1290.59 277.391,1486.45 546.987,1486.45 546.987,1290.59 277.391,1290.59 "/>
<path clip-path="url(#clip382)" d="M614.386 1282.57 L614.386 1486.45 L883.982 1486.45 L883.982 1282.57 L614.386 1282.57 L614.386 1282.57  Z" fill="#009af9" fill-rule="evenodd" fill-opacity="1"/>
<polyline clip-path="url(#clip382)" style="stroke:#000000; stroke-linecap:round; stroke-linejoin:round; stroke-width:4; stroke-opacity:1; fill:none" points="614.386,1282.57 614.386,1486.45 883.982,1486.45 883.982,1282.57 614.386,1282.57 "/>
<path clip-path="url(#clip382)" d="M951.381 1279.04 L951.381 1486.45 L1220.98 1486.45 L1220.98 1279.04 L951.381 1279.04 L951.381 1279.04  Z" fill="#009af9" fill-rule="evenodd" fill-opacity="1"/>
<polyline clip-path="url(#clip382)" style="stroke:#000000; stroke-linecap:round; stroke-linejoin:round; stroke-width:4; stroke-opacity:1; fill:none" points="951.381,1279.04 951.381,1486.45 1220.98,1486.45 1220.98,1279.04 951.381,1279.04 "/>
<path clip-path="url(#clip382)" d="M1288.38 1240.12 L1288.38 1486.45 L1557.97 1486.45 L1557.97 1240.12 L1288.38 1240.12 L1288.38 1240.12  Z" fill="#009af9" fill-rule="evenodd" fill-opacity="1"/>
<polyline clip-path="url(#clip382)" style="stroke:#000000; stroke-linecap:round; stroke-linejoin:round; stroke-width:4; stroke-opacity:1; fill:none" points="1288.38,1240.12 1288.38,1486.45 1557.97,1486.45 1557.97,1240.12 1288.38,1240.12 "/>
<path clip-path="url(#clip382)" d="M1625.37 1137.02 L1625.37 1486.45 L1894.97 1486.45 L1894.97 1137.02 L1625.37 1137.02 L1625.37 1137.02  Z" fill="#009af9" fill-rule="evenodd" fill-opacity="1"/>
<polyline clip-path="url(#clip382)" style="stroke:#000000; stroke-linecap:round; stroke-linejoin:round; stroke-width:4; stroke-opacity:1; fill:none" points="1625.37,1137.02 1625.37,1486.45 1894.97,1486.45 1894.97,1137.02 1625.37,1137.02 "/>
<path clip-path="url(#clip382)" d="M1962.37 66.0571 L1962.37 1486.45 L2231.96 1486.45 L2231.96 66.0571 L1962.37 66.0571 L1962.37 66.0571  Z" fill="#009af9" fill-rule="evenodd" fill-opacity="1"/>
<polyline clip-path="url(#clip382)" style="stroke:#000000; stroke-linecap:round; stroke-linejoin:round; stroke-width:4; stroke-opacity:1; fill:none" points="1962.37,66.0571 1962.37,1486.45 2231.96,1486.45 2231.96,66.0571 1962.37,66.0571 "/>
<circle clip-path="url(#clip382)" style="fill:#009af9; stroke:none; fill-opacity:0" cx="412.189" cy="1290.59" r="2"/>
<circle clip-path="url(#clip382)" style="fill:#009af9; stroke:none; fill-opacity:0" cx="749.184" cy="1282.57" r="2"/>
<circle clip-path="url(#clip382)" style="fill:#009af9; stroke:none; fill-opacity:0" cx="1086.18" cy="1279.04" r="2"/>
<circle clip-path="url(#clip382)" style="fill:#009af9; stroke:none; fill-opacity:0" cx="1423.17" cy="1240.12" r="2"/>
<circle clip-path="url(#clip382)" style="fill:#009af9; stroke:none; fill-opacity:0" cx="1760.17" cy="1137.02" r="2"/>
<circle clip-path="url(#clip382)" style="fill:#009af9; stroke:none; fill-opacity:0" cx="2097.17" cy="66.0571" r="2"/>
<polyline clip-path="url(#clip382)" style="stroke:#000000; stroke-linecap:round; stroke-linejoin:round; stroke-width:4; stroke-opacity:1; fill:none" points="412.189,1306.84 412.189,1274.33 "/>
<polyline clip-path="url(#clip382)" style="stroke:#000000; stroke-linecap:round; stroke-linejoin:round; stroke-width:4; stroke-opacity:1; fill:none" points="749.184,1295.62 749.184,1269.52 "/>
<polyline clip-path="url(#clip382)" style="stroke:#000000; stroke-linecap:round; stroke-linejoin:round; stroke-width:4; stroke-opacity:1; fill:none" points="1086.18,1302.67 1086.18,1255.41 "/>
<polyline clip-path="url(#clip382)" style="stroke:#000000; stroke-linecap:round; stroke-linejoin:round; stroke-width:4; stroke-opacity:1; fill:none" points="1423.17,1251.19 1423.17,1229.05 "/>
<polyline clip-path="url(#clip382)" style="stroke:#000000; stroke-linecap:round; stroke-linejoin:round; stroke-width:4; stroke-opacity:1; fill:none" points="1760.17,1164.77 1760.17,1109.27 "/>
<polyline clip-path="url(#clip382)" style="stroke:#000000; stroke-linecap:round; stroke-linejoin:round; stroke-width:4; stroke-opacity:1; fill:none" points="2097.17,84.8701 2097.17,47.2441 "/>
<line clip-path="url(#clip382)" x1="428.189" y1="1306.84" x2="396.189" y2="1306.84" style="stroke:#000000; stroke-width:4; stroke-opacity:1"/>
<line clip-path="url(#clip382)" x1="428.189" y1="1274.33" x2="396.189" y2="1274.33" style="stroke:#000000; stroke-width:4; stroke-opacity:1"/>
<line clip-path="url(#clip382)" x1="765.184" y1="1295.62" x2="733.184" y2="1295.62" style="stroke:#000000; stroke-width:4; stroke-opacity:1"/>
<line clip-path="url(#clip382)" x1="765.184" y1="1269.52" x2="733.184" y2="1269.52" style="stroke:#000000; stroke-width:4; stroke-opacity:1"/>
<line clip-path="url(#clip382)" x1="1102.18" y1="1302.67" x2="1070.18" y2="1302.67" style="stroke:#000000; stroke-width:4; stroke-opacity:1"/>
<line clip-path="url(#clip382)" x1="1102.18" y1="1255.41" x2="1070.18" y2="1255.41" style="stroke:#000000; stroke-width:4; stroke-opacity:1"/>
<line clip-path="url(#clip382)" x1="1439.17" y1="1251.19" x2="1407.17" y2="1251.19" style="stroke:#000000; stroke-width:4; stroke-opacity:1"/>
<line clip-path="url(#clip382)" x1="1439.17" y1="1229.05" x2="1407.17" y2="1229.05" style="stroke:#000000; stroke-width:4; stroke-opacity:1"/>
<line clip-path="url(#clip382)" x1="1776.17" y1="1164.77" x2="1744.17" y2="1164.77" style="stroke:#000000; stroke-width:4; stroke-opacity:1"/>
<line clip-path="url(#clip382)" x1="1776.17" y1="1109.27" x2="1744.17" y2="1109.27" style="stroke:#000000; stroke-width:4; stroke-opacity:1"/>
<line clip-path="url(#clip382)" x1="2113.17" y1="84.8701" x2="2081.17" y2="84.8701" style="stroke:#000000; stroke-width:4; stroke-opacity:1"/>
<line clip-path="url(#clip382)" x1="2113.17" y1="47.2441" x2="2081.17" y2="47.2441" style="stroke:#000000; stroke-width:4; stroke-opacity:1"/>
<path clip-path="url(#clip380)" d="M229.803 198.898 L700.83 198.898 L700.83 95.2176 L229.803 95.2176  Z" fill="#ffffff" fill-rule="evenodd" fill-opacity="1"/>
<polyline clip-path="url(#clip380)" style="stroke:#000000; stroke-linecap:round; stroke-linejoin:round; stroke-width:4; stroke-opacity:1; fill:none" points="229.803,198.898 700.83,198.898 700.83,95.2176 229.803,95.2176 229.803,198.898 "/>
<path clip-path="url(#clip380)" d="M254.205 167.794 L400.616 167.794 L400.616 126.322 L254.205 126.322 L254.205 167.794  Z" fill="#009af9" fill-rule="evenodd" fill-opacity="1"/>
<polyline clip-path="url(#clip380)" style="stroke:#000000; stroke-linecap:round; stroke-linejoin:round; stroke-width:4; stroke-opacity:1; fill:none" points="254.205,167.794 400.616,167.794 400.616,126.322 254.205,126.322 254.205,167.794 "/>
<path clip-path="url(#clip380)" d="M425.018 129.778 L429.693 129.778 L429.693 160.402 L446.522 160.402 L446.522 164.338 L425.018 164.338 L425.018 129.778 Z" fill="#000000" fill-rule="nonzero" fill-opacity="1" /><path clip-path="url(#clip380)" d="M460.457 141.398 Q457.031 141.398 455.04 144.083 Q453.05 146.745 453.05 151.398 Q453.05 156.051 455.017 158.736 Q457.008 161.398 460.457 161.398 Q463.86 161.398 465.851 158.713 Q467.841 156.027 467.841 151.398 Q467.841 146.791 465.851 144.106 Q463.86 141.398 460.457 141.398 M460.457 137.787 Q466.013 137.787 469.184 141.398 Q472.355 145.009 472.355 151.398 Q472.355 157.764 469.184 161.398 Q466.013 165.009 460.457 165.009 Q454.878 165.009 451.707 161.398 Q448.559 157.764 448.559 151.398 Q448.559 145.009 451.707 141.398 Q454.878 137.787 460.457 137.787 Z" fill="#000000" fill-rule="nonzero" fill-opacity="1" /><path clip-path="url(#clip380)" d="M495.943 139.176 L495.943 143.203 Q494.138 142.277 492.193 141.815 Q490.249 141.352 488.165 141.352 Q484.994 141.352 483.397 142.324 Q481.823 143.296 481.823 145.24 Q481.823 146.722 482.957 147.578 Q484.091 148.412 487.517 149.176 L488.975 149.5 Q493.513 150.472 495.411 152.254 Q497.332 154.014 497.332 157.185 Q497.332 160.796 494.462 162.902 Q491.614 165.009 486.614 165.009 Q484.531 165.009 482.263 164.592 Q480.017 164.199 477.517 163.388 L477.517 158.99 Q479.878 160.217 482.17 160.842 Q484.462 161.444 486.707 161.444 Q489.716 161.444 491.337 160.426 Q492.957 159.384 492.957 157.509 Q492.957 155.773 491.776 154.847 Q490.619 153.921 486.661 153.064 L485.179 152.717 Q481.221 151.884 479.462 150.171 Q477.702 148.435 477.702 145.426 Q477.702 141.768 480.295 139.778 Q482.888 137.787 487.656 137.787 Q490.017 137.787 492.1 138.134 Q494.184 138.481 495.943 139.176 Z" fill="#000000" fill-rule="nonzero" fill-opacity="1" /><path clip-path="url(#clip380)" d="M520.642 139.176 L520.642 143.203 Q518.836 142.277 516.892 141.815 Q514.948 141.352 512.864 141.352 Q509.693 141.352 508.096 142.324 Q506.522 143.296 506.522 145.24 Q506.522 146.722 507.656 147.578 Q508.79 148.412 512.216 149.176 L513.674 149.5 Q518.211 150.472 520.11 152.254 Q522.031 154.014 522.031 157.185 Q522.031 160.796 519.161 162.902 Q516.313 165.009 511.313 165.009 Q509.23 165.009 506.962 164.592 Q504.716 164.199 502.216 163.388 L502.216 158.99 Q504.577 160.217 506.869 160.842 Q509.161 161.444 511.406 161.444 Q514.415 161.444 516.036 160.426 Q517.656 159.384 517.656 157.509 Q517.656 155.773 516.475 154.847 Q515.318 153.921 511.36 153.064 L509.878 152.717 Q505.92 151.884 504.161 150.171 Q502.401 148.435 502.401 145.426 Q502.401 141.768 504.994 139.778 Q507.587 137.787 512.355 137.787 Q514.716 137.787 516.799 138.134 Q518.883 138.481 520.642 139.176 Z" fill="#000000" fill-rule="nonzero" fill-opacity="1" /><path clip-path="url(#clip380)" d="M562.494 151.398 Q562.494 146.699 560.549 144.037 Q558.628 141.352 555.248 141.352 Q551.869 141.352 549.924 144.037 Q548.003 146.699 548.003 151.398 Q548.003 156.097 549.924 158.782 Q551.869 161.444 555.248 161.444 Q558.628 161.444 560.549 158.782 Q562.494 156.097 562.494 151.398 M548.003 142.347 Q549.346 140.032 551.383 138.921 Q553.443 137.787 556.29 137.787 Q561.012 137.787 563.952 141.537 Q566.915 145.287 566.915 151.398 Q566.915 157.509 563.952 161.259 Q561.012 165.009 556.29 165.009 Q553.443 165.009 551.383 163.898 Q549.346 162.763 548.003 160.449 L548.003 164.338 L543.721 164.338 L543.721 128.319 L548.003 128.319 L548.003 142.347 Z" fill="#000000" fill-rule="nonzero" fill-opacity="1" /><path clip-path="url(#clip380)" d="M584.762 166.745 Q582.956 171.375 581.244 172.787 Q579.531 174.199 576.66 174.199 L573.257 174.199 L573.257 170.634 L575.757 170.634 Q577.517 170.634 578.489 169.8 Q579.461 168.967 580.642 165.865 L581.406 163.921 L570.92 138.412 L575.433 138.412 L583.535 158.689 L591.637 138.412 L596.151 138.412 L584.762 166.745 Z" fill="#000000" fill-rule="nonzero" fill-opacity="1" /><path clip-path="url(#clip380)" d="M635.757 139.407 L635.757 143.389 Q633.952 142.393 632.123 141.907 Q630.317 141.398 628.465 141.398 Q624.322 141.398 622.03 144.037 Q619.739 146.652 619.739 151.398 Q619.739 156.143 622.03 158.782 Q624.322 161.398 628.465 161.398 Q630.317 161.398 632.123 160.912 Q633.952 160.402 635.757 159.407 L635.757 163.342 Q633.975 164.176 632.053 164.592 Q630.155 165.009 628.003 165.009 Q622.146 165.009 618.697 161.328 Q615.248 157.648 615.248 151.398 Q615.248 145.055 618.72 141.421 Q622.216 137.787 628.28 137.787 Q630.248 137.787 632.123 138.203 Q633.998 138.597 635.757 139.407 Z" fill="#000000" fill-rule="nonzero" fill-opacity="1" /><path clip-path="url(#clip380)" d="M653.211 141.398 Q649.785 141.398 647.794 144.083 Q645.803 146.745 645.803 151.398 Q645.803 156.051 647.771 158.736 Q649.762 161.398 653.211 161.398 Q656.613 161.398 658.604 158.713 Q660.595 156.027 660.595 151.398 Q660.595 146.791 658.604 144.106 Q656.613 141.398 653.211 141.398 M653.211 137.787 Q658.766 137.787 661.938 141.398 Q665.109 145.009 665.109 151.398 Q665.109 157.764 661.938 161.398 Q658.766 165.009 653.211 165.009 Q647.632 165.009 644.461 161.398 Q641.313 157.764 641.313 151.398 Q641.313 145.009 644.461 141.398 Q647.632 137.787 653.211 137.787 Z" fill="#000000" fill-rule="nonzero" fill-opacity="1" /><path clip-path="url(#clip380)" d="M672.169 128.319 L676.428 128.319 L676.428 164.338 L672.169 164.338 L672.169 128.319 Z" fill="#000000" fill-rule="nonzero" fill-opacity="1" /></svg>
