<svg xmlns="http://www.w3.org/2000/svg" xmlns:xlink="http://www.w3.org/1999/xlink" width="600" height="400" viewBox="0 0 2400 1600">
<defs>
  <clipPath id="clip270">
    <rect x="0" y="0" width="2400" height="1600"></rect>
  </clipPath>
</defs>
<path clip-path="url(#clip270)" d="
M0 1600 L2400 1600 L2400 0 L0 0  Z
  " fill="#ffffff" fill-rule="evenodd" fill-opacity="1"></path>
<defs>
  <clipPath id="clip271">
    <rect x="480" y="0" width="1681" height="1600"></rect>
  </clipPath>
</defs>
<path clip-path="url(#clip270)" d="
M149.191 1486.45 L2352.76 1486.45 L2352.76 47.2441 L149.191 47.2441  Z
  " fill="#ffffff" fill-rule="evenodd" fill-opacity="1"></path>
<defs>
  <clipPath id="clip272">
    <rect x="149" y="47" width="2205" height="1440"></rect>
  </clipPath>
</defs>
<polyline clip-path="url(#clip272)" style="stroke:#c0c0c0; stroke-linecap:round; stroke-linejoin:round; stroke-width:4; stroke-opacity:1; fill:none" points="
  1413.38,229.83 1402.18,238.914 1390.98,247.998 1379.78,257.082 1368.58,266.166 1357.38,275.251 1346.18,284.335 1334.98,293.419 1323.78,302.503 1312.58,311.588 
  1301.38,320.672 1290.18,329.756 1278.97,338.84 1267.77,347.924 1256.57,357.009 1245.37,366.093 1234.17,375.177 1222.97,384.261 1211.77,393.345 1200.57,402.43 
  1189.37,411.514 1178.17,420.598 1166.97,429.682 1155.77,438.766 1144.57,447.851 1133.37,456.935 1122.17,466.019 1110.97,475.103 1099.77,484.187 1088.56,493.272 
  
  "></polyline>
<polyline clip-path="url(#clip272)" style="stroke:#c0c0c0; stroke-linecap:round; stroke-linejoin:round; stroke-width:4; stroke-opacity:1; fill:none" points="
  1413.38,229.83 1424.58,238.914 1435.78,247.998 1446.98,257.082 1458.18,266.166 1469.39,275.251 1480.59,284.335 1491.79,293.419 1502.99,302.503 1514.19,311.588 
  1525.39,320.672 1536.59,329.756 1547.79,338.84 1558.99,347.924 1570.19,357.009 1581.39,366.093 1592.59,375.177 1603.79,384.261 1614.99,393.345 1626.19,402.43 
  1637.39,411.514 1648.6,420.598 1659.8,429.682 1671,438.766 1682.2,447.851 1693.4,456.935 1704.6,466.019 1715.8,475.103 1727,484.187 1738.2,493.272 
  
  "></polyline>
<polyline clip-path="url(#clip272)" style="stroke:#c0c0c0; stroke-linecap:round; stroke-linejoin:round; stroke-width:4; stroke-opacity:1; fill:none" points="
  1088.56,635.125 1066.16,644.209 1043.76,653.293 1021.36,662.378 998.959,671.462 976.558,680.546 954.157,689.63 931.756,698.714 909.354,707.799 886.953,716.883 
  864.552,725.967 842.151,735.051 819.75,744.135 797.348,753.22 774.947,762.304 752.546,771.388 730.145,780.472 707.743,789.556 685.342,798.641 662.941,807.725 
  640.54,816.809 618.138,825.893 595.737,834.978 573.336,844.062 550.935,853.146 528.533,862.23 506.132,871.314 483.731,880.399 461.33,889.483 438.928,898.567 
  
  "></polyline>
<polyline clip-path="url(#clip272)" style="stroke:#c0c0c0; stroke-linecap:round; stroke-linejoin:round; stroke-width:4; stroke-opacity:1; fill:none" points="
  1088.56,635.125 1110.97,644.209 1133.37,653.293 1155.77,662.378 1178.17,671.462 1200.57,680.546 1222.97,689.63 1245.37,698.714 1267.77,707.799 1290.18,716.883 
  1312.58,725.967 1334.98,735.051 1357.38,744.135 1379.78,753.22 1402.18,762.304 1424.58,771.388 1446.98,780.472 1469.39,789.556 1491.79,798.641 1514.19,807.725 
  1536.59,816.809 1558.99,825.893 1581.39,834.978 1603.79,844.062 1626.19,853.146 1648.6,862.23 1671,871.314 1693.4,880.399 1715.8,889.483 1738.2,898.567 
  
  "></polyline>
<polyline clip-path="url(#clip272)" style="stroke:#c0c0c0; stroke-linecap:round; stroke-linejoin:round; stroke-width:4; stroke-opacity:1; fill:none" points="
  1738.2,1040.42 1727,1049.5 1715.8,1058.59 1704.6,1067.67 1693.4,1076.76 1682.2,1085.84 1671,1094.93 1659.8,1104.01 1648.6,1113.09 1637.39,1122.18 
  1626.19,1131.26 1614.99,1140.35 1603.79,1149.43 1592.59,1158.52 1581.39,1167.6 1570.19,1176.68 1558.99,1185.77 1547.79,1194.85 1536.59,1203.94 1525.39,1213.02 
  1514.19,1222.1 1502.99,1231.19 1491.79,1240.27 1480.59,1249.36 1469.39,1258.44 1458.18,1267.53 1446.98,1276.61 1435.78,1285.69 1424.58,1294.78 1413.38,1303.86 
  
  "></polyline>
<polyline clip-path="url(#clip272)" style="stroke:#c0c0c0; stroke-linecap:round; stroke-linejoin:round; stroke-width:4; stroke-opacity:1; fill:none" points="
  1738.2,1040.42 1749.4,1049.5 1760.6,1058.59 1771.8,1067.67 1783,1076.76 1794.2,1085.84 1805.4,1094.93 1816.6,1104.01 1827.81,1113.09 1839.01,1122.18 
  1850.21,1131.26 1861.41,1140.35 1872.61,1149.43 1883.81,1158.52 1895.01,1167.6 1906.21,1176.68 1917.41,1185.77 1928.61,1194.85 1939.81,1203.94 1951.01,1213.02 
  1962.21,1222.1 1973.41,1231.19 1984.61,1240.27 1995.81,1249.36 2007.02,1258.44 2018.22,1267.53 2029.42,1276.61 2040.62,1285.69 2051.82,1294.78 2063.02,1303.86 
  
  "></polyline>
<path clip-path="url(#clip272)" d="
M1186.01 87.9763 L1640.75 87.9763 L1640.75 229.83 L1186.01 229.83 L1186.01 87.9763 L1186.01 87.9763  Z
  " fill="#009acd" fill-rule="evenodd" fill-opacity="0.15"></path>
<polyline clip-path="url(#clip272)" style="stroke:#000000; stroke-linecap:round; stroke-linejoin:round; stroke-width:4; stroke-opacity:0.15; fill:none" points="
  1186.01,87.9763 1640.75,87.9763 1640.75,229.83 1186.01,229.83 1186.01,87.9763 
  "></polyline>
<path clip-path="url(#clip272)" d="
M861.192 493.272 L1315.94 493.272 L1315.94 635.125 L861.192 635.125 L861.192 493.272 L861.192 493.272  Z
  " fill="#009acd" fill-rule="evenodd" fill-opacity="0.15"></path>
<polyline clip-path="url(#clip272)" style="stroke:#000000; stroke-linecap:round; stroke-linejoin:round; stroke-width:4; stroke-opacity:0.15; fill:none" points="
  861.192,493.272 1315.94,493.272 1315.94,635.125 861.192,635.125 861.192,493.272 
  "></polyline>
<path clip-path="url(#clip272)" d="
M1510.83 493.272 L1965.57 493.272 L1965.57 635.125 L1510.83 635.125 L1510.83 493.272 L1510.83 493.272  Z
  " fill="#009acd" fill-rule="evenodd" fill-opacity="0.4"></path>
<polyline clip-path="url(#clip272)" style="stroke:#000000; stroke-linecap:round; stroke-linejoin:round; stroke-width:4; stroke-opacity:0.4; fill:none" points="
  1510.83,493.272 1965.57,493.272 1965.57,635.125 1510.83,635.125 1510.83,493.272 
  "></polyline>
<path clip-path="url(#clip272)" d="
M211.556 898.567 L666.301 898.567 L666.301 1040.42 L211.556 1040.42 L211.556 898.567 L211.556 898.567  Z
  " fill="#009acd" fill-rule="evenodd" fill-opacity="0.4"></path>
<polyline clip-path="url(#clip272)" style="stroke:#000000; stroke-linecap:round; stroke-linejoin:round; stroke-width:4; stroke-opacity:0.4; fill:none" points="
  211.556,898.567 666.301,898.567 666.301,1040.42 211.556,1040.42 211.556,898.567 
  "></polyline>
<path clip-path="url(#clip272)" d="
M1510.83 898.567 L1965.57 898.567 L1965.57 1040.42 L1510.83 1040.42 L1510.83 898.567 L1510.83 898.567  Z
  " fill="#009acd" fill-rule="evenodd" fill-opacity="0.15"></path>
<polyline clip-path="url(#clip272)" style="stroke:#000000; stroke-linecap:round; stroke-linejoin:round; stroke-width:4; stroke-opacity:0.15; fill:none" points="
  1510.83,898.567 1965.57,898.567 1965.57,1040.42 1510.83,1040.42 1510.83,898.567 
  "></polyline>
<path clip-path="url(#clip272)" d="
M1186.01 1303.86 L1640.75 1303.86 L1640.75 1445.72 L1186.01 1445.72 L1186.01 1303.86 L1186.01 1303.86  Z
  " fill="#009acd" fill-rule="evenodd" fill-opacity="0.4"></path>
<polyline clip-path="url(#clip272)" style="stroke:#000000; stroke-linecap:round; stroke-linejoin:round; stroke-width:4; stroke-opacity:0.4; fill:none" points="
  1186.01,1303.86 1640.75,1303.86 1640.75,1445.72 1186.01,1445.72 1186.01,1303.86 
  "></polyline>
<path clip-path="url(#clip272)" d="
M1835.65 1303.86 L2290.39 1303.86 L2290.39 1445.72 L1835.65 1445.72 L1835.65 1303.86 L1835.65 1303.86  Z
  " fill="#009acd" fill-rule="evenodd" fill-opacity="0.4"></path>
<polyline clip-path="url(#clip272)" style="stroke:#000000; stroke-linecap:round; stroke-linejoin:round; stroke-width:4; stroke-opacity:0.4; fill:none" points="
  1835.65,1303.86 2290.39,1303.86 2290.39,1445.72 1835.65,1445.72 1835.65,1303.86 
  "></polyline>
<path clip-path="url(#clip270)" d="M1235.79 144.775 L1235.79 148.766 Q1233.46 147.652 1231.4 147.105 Q1229.33 146.558 1227.41 146.558 Q1224.06 146.558 1222.24 147.854 Q1220.44 149.15 1220.44 151.54 Q1220.44 153.546 1221.63 154.579 Q1222.85 155.591 1226.21 156.219 L1228.68 156.726 Q1233.26 157.597 1235.43 159.804 Q1237.61 161.992 1237.61 165.678 Q1237.61 170.073 1234.66 172.342 Q1231.72 174.61 1226.03 174.61 Q1223.88 174.61 1221.45 174.124 Q1219.04 173.638 1216.45 172.686 L1216.45 168.473 Q1218.94 169.871 1221.33 170.58 Q1223.72 171.289 1226.03 171.289 Q1229.53 171.289 1231.44 169.911 Q1233.34 168.534 1233.34 165.982 Q1233.34 163.754 1231.96 162.498 Q1230.61 161.242 1227.49 160.614 L1225 160.128 Q1220.42 159.217 1218.37 157.272 Q1216.33 155.328 1216.33 151.865 Q1216.33 147.854 1219.14 145.545 Q1221.98 143.236 1226.94 143.236 Q1229.07 143.236 1231.27 143.621 Q1233.48 144.006 1235.79 144.775 Z" fill="#8b2323" fill-rule="evenodd" fill-opacity="1"></path><path clip-path="url(#clip270)" d="M1252.62 153.951 Q1249.62 153.951 1247.88 156.3 Q1246.14 158.63 1246.14 162.701 Q1246.14 166.772 1247.86 169.121 Q1249.6 171.451 1252.62 171.451 Q1255.6 171.451 1257.34 169.101 Q1259.08 166.752 1259.08 162.701 Q1259.08 158.67 1257.34 156.321 Q1255.6 153.951 1252.62 153.951 M1252.62 150.791 Q1257.48 150.791 1260.26 153.951 Q1263.03 157.11 1263.03 162.701 Q1263.03 168.271 1260.26 171.451 Q1257.48 174.61 1252.62 174.61 Q1247.74 174.61 1244.97 171.451 Q1242.21 168.271 1242.21 162.701 Q1242.21 157.11 1244.97 153.951 Q1247.74 150.791 1252.62 150.791 Z" fill="#8b2323" fill-rule="evenodd" fill-opacity="1"></path><path clip-path="url(#clip270)" d="M1286.87 155.693 Q1288.27 153.181 1290.21 151.986 Q1292.16 150.791 1294.79 150.791 Q1298.34 150.791 1300.26 153.282 Q1302.19 155.753 1302.19 160.331 L1302.19 174.023 L1298.44 174.023 L1298.44 160.452 Q1298.44 157.191 1297.28 155.612 Q1296.13 154.032 1293.76 154.032 Q1290.86 154.032 1289.18 155.956 Q1287.5 157.88 1287.5 161.202 L1287.5 174.023 L1283.75 174.023 L1283.75 160.452 Q1283.75 157.171 1282.6 155.612 Q1281.44 154.032 1279.03 154.032 Q1276.18 154.032 1274.5 155.976 Q1272.82 157.9 1272.82 161.202 L1272.82 174.023 L1269.07 174.023 L1269.07 151.338 L1272.82 151.338 L1272.82 154.862 Q1274.09 152.776 1275.87 151.783 Q1277.66 150.791 1280.11 150.791 Q1282.58 150.791 1284.3 152.047 Q1286.04 153.303 1286.87 155.693 Z" fill="#8b2323" fill-rule="evenodd" fill-opacity="1"></path><path clip-path="url(#clip270)" d="M1342.21 161.749 L1342.21 163.572 L1325.07 163.572 Q1325.32 167.42 1327.38 169.445 Q1329.47 171.451 1333.17 171.451 Q1335.32 171.451 1337.33 170.924 Q1339.35 170.397 1341.34 169.344 L1341.34 172.868 Q1339.33 173.719 1337.23 174.165 Q1335.12 174.61 1332.95 174.61 Q1327.52 174.61 1324.34 171.451 Q1321.18 168.291 1321.18 162.903 Q1321.18 157.333 1324.18 154.072 Q1327.2 150.791 1332.3 150.791 Q1336.88 150.791 1339.53 153.748 Q1342.21 156.685 1342.21 161.749 M1338.48 160.655 Q1338.44 157.597 1336.76 155.774 Q1335.1 153.951 1332.34 153.951 Q1329.22 153.951 1327.34 155.713 Q1325.48 157.475 1325.19 160.675 L1338.48 160.655 Z" fill="#8b2323" fill-rule="evenodd" fill-opacity="1"></path><path clip-path="url(#clip270)" d="M1348.32 142.507 L1352.05 142.507 L1352.05 174.023 L1348.32 174.023 L1348.32 142.507 Z" fill="#8b2323" fill-rule="evenodd" fill-opacity="1"></path><path clip-path="url(#clip270)" d="M1374.31 152.006 L1374.31 155.531 Q1372.73 154.72 1371.03 154.315 Q1369.33 153.91 1367.51 153.91 Q1364.73 153.91 1363.33 154.761 Q1361.96 155.612 1361.96 157.313 Q1361.96 158.609 1362.95 159.359 Q1363.94 160.088 1366.94 160.756 L1368.21 161.04 Q1372.18 161.891 1373.85 163.45 Q1375.53 164.989 1375.53 167.764 Q1375.53 170.924 1373.02 172.767 Q1370.52 174.61 1366.15 174.61 Q1364.33 174.61 1362.34 174.246 Q1360.38 173.901 1358.19 173.193 L1358.19 169.344 Q1360.25 170.418 1362.26 170.965 Q1364.27 171.491 1366.23 171.491 Q1368.86 171.491 1370.28 170.6 Q1371.7 169.688 1371.7 168.048 Q1371.7 166.529 1370.67 165.719 Q1369.65 164.908 1366.19 164.159 L1364.89 163.855 Q1361.43 163.126 1359.89 161.627 Q1358.35 160.108 1358.35 157.475 Q1358.35 154.275 1360.62 152.533 Q1362.89 150.791 1367.06 150.791 Q1369.13 150.791 1370.95 151.095 Q1372.77 151.399 1374.31 152.006 Z" fill="#8b2323" fill-rule="evenodd" fill-opacity="1"></path><path clip-path="url(#clip270)" d="M1400.87 161.749 L1400.87 163.572 L1383.73 163.572 Q1383.97 167.42 1386.04 169.445 Q1388.12 171.451 1391.83 171.451 Q1393.98 171.451 1395.98 170.924 Q1398.01 170.397 1399.99 169.344 L1399.99 172.868 Q1397.99 173.719 1395.88 174.165 Q1393.78 174.61 1391.61 174.61 Q1386.18 174.61 1383 171.451 Q1379.84 168.291 1379.84 162.903 Q1379.84 157.333 1382.84 154.072 Q1385.86 150.791 1390.96 150.791 Q1395.54 150.791 1398.19 153.748 Q1400.87 156.685 1400.87 161.749 M1397.14 160.655 Q1397.1 157.597 1395.42 155.774 Q1393.76 153.951 1391 153.951 Q1387.88 153.951 1386 155.713 Q1384.13 157.475 1383.85 160.675 L1397.14 160.655 Z" fill="#8b2323" fill-rule="evenodd" fill-opacity="1"></path><path clip-path="url(#clip270)" d="M1420.65 153.606 L1420.65 149.92 L1446.62 159.338 L1446.62 162.701 L1420.65 172.119 L1420.65 168.433 L1441.52 161.04 L1420.65 153.606 Z" fill="#8b2323" fill-rule="evenodd" fill-opacity="1"></path><path clip-path="url(#clip270)" d="M1455.41 155.186 L1481.38 155.186 L1481.38 158.589 L1455.41 158.589 L1455.41 155.186 M1455.41 163.45 L1481.38 163.45 L1481.38 166.893 L1455.41 166.893 L1455.41 163.45 Z" fill="#8b2323" fill-rule="evenodd" fill-opacity="1"></path><path clip-path="url(#clip270)" d="M1504.1 170.58 L1510.79 170.58 L1510.79 147.51 L1503.51 148.968 L1503.51 145.241 L1510.75 143.783 L1514.84 143.783 L1514.84 170.58 L1521.52 170.58 L1521.52 174.023 L1504.1 174.023 L1504.1 170.58 Z" fill="#8b2323" fill-rule="evenodd" fill-opacity="1"></path><path clip-path="url(#clip270)" d="M1538.54 159.663 Q1535.62 159.663 1533.94 161.222 Q1532.28 162.782 1532.28 165.516 Q1532.28 168.25 1533.94 169.81 Q1535.62 171.37 1538.54 171.37 Q1541.45 171.37 1543.13 169.81 Q1544.81 168.23 1544.81 165.516 Q1544.81 162.782 1543.13 161.222 Q1541.47 159.663 1538.54 159.663 M1534.44 157.921 Q1531.81 157.272 1530.33 155.47 Q1528.87 153.667 1528.87 151.075 Q1528.87 147.449 1531.45 145.343 Q1534.04 143.236 1538.54 143.236 Q1543.05 143.236 1545.62 145.343 Q1548.2 147.449 1548.2 151.075 Q1548.2 153.667 1546.72 155.47 Q1545.26 157.272 1542.65 157.921 Q1545.6 158.609 1547.24 160.614 Q1548.91 162.62 1548.91 165.516 Q1548.91 169.911 1546.21 172.261 Q1543.54 174.61 1538.54 174.61 Q1533.53 174.61 1530.84 172.261 Q1528.16 169.911 1528.16 165.516 Q1528.16 162.62 1529.83 160.614 Q1531.49 158.609 1534.44 157.921 M1532.94 151.459 Q1532.94 153.809 1534.4 155.125 Q1535.88 156.442 1538.54 156.442 Q1541.17 156.442 1542.65 155.125 Q1544.15 153.809 1544.15 151.459 Q1544.15 149.11 1542.65 147.793 Q1541.17 146.477 1538.54 146.477 Q1535.88 146.477 1534.4 147.793 Q1532.94 149.11 1532.94 151.459 Z" fill="#8b2323" fill-rule="evenodd" fill-opacity="1"></path><path clip-path="url(#clip270)" d="M1556.18 168.878 L1560.45 168.878 L1560.45 174.023 L1556.18 174.023 L1556.18 168.878 Z" fill="#8b2323" fill-rule="evenodd" fill-opacity="1"></path><path clip-path="url(#clip270)" d="M1578.11 146.477 Q1574.95 146.477 1573.35 149.596 Q1571.77 152.695 1571.77 158.933 Q1571.77 165.151 1573.35 168.271 Q1574.95 171.37 1578.11 171.37 Q1581.29 171.37 1582.87 168.271 Q1584.47 165.151 1584.47 158.933 Q1584.47 152.695 1582.87 149.596 Q1581.29 146.477 1578.11 146.477 M1578.11 143.236 Q1583.2 143.236 1585.87 147.267 Q1588.56 151.277 1588.56 158.933 Q1588.56 166.569 1585.87 170.6 Q1583.2 174.61 1578.11 174.61 Q1573.03 174.61 1570.33 170.6 Q1567.66 166.569 1567.66 158.933 Q1567.66 151.277 1570.33 147.267 Q1573.03 143.236 1578.11 143.236 Z" fill="#8b2323" fill-rule="evenodd" fill-opacity="1"></path><path clip-path="url(#clip270)" d="M1599.24 168.878 L1603.35 168.878 L1603.35 174.023 L1599.24 174.023 L1599.24 168.878 M1603.23 165.901 L1599.36 165.901 L1599.36 162.782 Q1599.36 160.736 1599.93 159.419 Q1600.49 158.103 1602.32 156.361 L1604.14 154.558 Q1605.29 153.485 1605.8 152.533 Q1606.33 151.581 1606.33 150.588 Q1606.33 148.786 1604.99 147.672 Q1603.67 146.558 1601.49 146.558 Q1599.89 146.558 1598.06 147.267 Q1596.26 147.976 1594.3 149.333 L1594.3 145.525 Q1596.2 144.37 1598.14 143.803 Q1600.11 143.236 1602.2 143.236 Q1605.92 143.236 1608.17 145.201 Q1610.44 147.165 1610.44 150.386 Q1610.44 151.925 1609.71 153.323 Q1608.98 154.7 1607.16 156.442 L1605.37 158.184 Q1604.42 159.136 1604.02 159.683 Q1603.63 160.209 1603.47 160.716 Q1603.35 161.141 1603.29 161.749 Q1603.23 162.356 1603.23 163.41 L1603.23 165.901 Z" fill="#8b2323" fill-rule="evenodd" fill-opacity="1"></path><path clip-path="url(#clip270)" d="M910.973 550.071 L910.973 554.061 Q908.643 552.947 906.578 552.4 Q904.512 551.853 902.587 551.853 Q899.245 551.853 897.422 553.149 Q895.62 554.446 895.62 556.836 Q895.62 558.841 896.815 559.874 Q898.03 560.887 901.392 561.515 L903.863 562.021 Q908.441 562.892 910.608 565.1 Q912.796 567.287 912.796 570.973 Q912.796 575.369 909.839 577.637 Q906.902 579.906 901.21 579.906 Q899.063 579.906 896.633 579.42 Q894.222 578.933 891.63 577.982 L891.63 573.769 Q894.121 575.166 896.511 575.875 Q898.901 576.584 901.21 576.584 Q904.714 576.584 906.618 575.207 Q908.522 573.829 908.522 571.277 Q908.522 569.049 907.145 567.793 Q905.788 566.538 902.668 565.91 L900.177 565.424 Q895.6 564.512 893.554 562.568 Q891.508 560.623 891.508 557.16 Q891.508 553.149 894.324 550.84 Q897.159 548.531 902.122 548.531 Q904.248 548.531 906.456 548.916 Q908.664 549.301 910.973 550.071 Z" fill="#8b2323" fill-rule="evenodd" fill-opacity="1"></path><path clip-path="url(#clip270)" d="M927.804 559.246 Q924.807 559.246 923.065 561.596 Q921.323 563.925 921.323 567.996 Q921.323 572.067 923.044 574.417 Q924.786 576.746 927.804 576.746 Q930.782 576.746 932.524 574.396 Q934.265 572.047 934.265 567.996 Q934.265 563.965 932.524 561.616 Q930.782 559.246 927.804 559.246 M927.804 556.086 Q932.665 556.086 935.44 559.246 Q938.215 562.406 938.215 567.996 Q938.215 573.566 935.44 576.746 Q932.665 579.906 927.804 579.906 Q922.923 579.906 920.148 576.746 Q917.393 573.566 917.393 567.996 Q917.393 562.406 920.148 559.246 Q922.923 556.086 927.804 556.086 Z" fill="#8b2323" fill-rule="evenodd" fill-opacity="1"></path><path clip-path="url(#clip270)" d="M962.055 560.988 Q963.452 558.476 965.397 557.281 Q967.341 556.086 969.974 556.086 Q973.519 556.086 975.443 558.578 Q977.367 561.049 977.367 565.626 L977.367 579.318 L973.62 579.318 L973.62 565.748 Q973.62 562.487 972.465 560.907 Q971.311 559.327 968.941 559.327 Q966.045 559.327 964.364 561.251 Q962.683 563.175 962.683 566.497 L962.683 579.318 L958.935 579.318 L958.935 565.748 Q958.935 562.467 957.781 560.907 Q956.626 559.327 954.216 559.327 Q951.36 559.327 949.679 561.272 Q947.998 563.196 947.998 566.497 L947.998 579.318 L944.251 579.318 L944.251 556.633 L947.998 556.633 L947.998 560.158 Q949.274 558.071 951.056 557.079 Q952.839 556.086 955.29 556.086 Q957.761 556.086 959.482 557.342 Q961.224 558.598 962.055 560.988 Z" fill="#8b2323" fill-rule="evenodd" fill-opacity="1"></path><path clip-path="url(#clip270)" d="M1017.39 567.044 L1017.39 568.867 L1000.25 568.867 Q1000.5 572.715 1002.56 574.741 Q1004.65 576.746 1008.36 576.746 Q1010.5 576.746 1012.51 576.219 Q1014.53 575.693 1016.52 574.64 L1016.52 578.164 Q1014.51 579.014 1012.41 579.46 Q1010.3 579.906 1008.13 579.906 Q1002.71 579.906 999.526 576.746 Q996.366 573.586 996.366 568.199 Q996.366 562.629 999.363 559.368 Q1002.38 556.086 1007.49 556.086 Q1012.06 556.086 1014.72 559.044 Q1017.39 561.98 1017.39 567.044 M1013.66 565.95 Q1013.62 562.892 1011.94 561.069 Q1010.28 559.246 1007.53 559.246 Q1004.41 559.246 1002.52 561.008 Q1000.66 562.77 1000.38 565.971 L1013.66 565.95 Z" fill="#8b2323" fill-rule="evenodd" fill-opacity="1"></path><path clip-path="url(#clip270)" d="M1023.51 547.802 L1027.23 547.802 L1027.23 579.318 L1023.51 579.318 L1023.51 547.802 Z" fill="#8b2323" fill-rule="evenodd" fill-opacity="1"></path><path clip-path="url(#clip270)" d="M1049.49 557.302 L1049.49 560.826 Q1047.91 560.016 1046.21 559.611 Q1044.51 559.206 1042.69 559.206 Q1039.91 559.206 1038.52 560.056 Q1037.14 560.907 1037.14 562.608 Q1037.14 563.905 1038.13 564.654 Q1039.12 565.383 1042.12 566.052 L1043.4 566.335 Q1047.37 567.186 1049.03 568.745 Q1050.71 570.285 1050.71 573.06 Q1050.71 576.219 1048.2 578.063 Q1045.71 579.906 1041.33 579.906 Q1039.51 579.906 1037.52 579.541 Q1035.56 579.197 1033.37 578.488 L1033.37 574.64 Q1035.44 575.713 1037.44 576.26 Q1039.45 576.786 1041.41 576.786 Q1044.04 576.786 1045.46 575.895 Q1046.88 574.984 1046.88 573.343 Q1046.88 571.824 1045.85 571.014 Q1044.83 570.204 1041.37 569.454 L1040.08 569.151 Q1036.61 568.421 1035.07 566.923 Q1033.53 565.403 1033.53 562.77 Q1033.53 559.57 1035.8 557.828 Q1038.07 556.086 1042.24 556.086 Q1044.31 556.086 1046.13 556.39 Q1047.95 556.694 1049.49 557.302 Z" fill="#8b2323" fill-rule="evenodd" fill-opacity="1"></path><path clip-path="url(#clip270)" d="M1076.05 567.044 L1076.05 568.867 L1058.91 568.867 Q1059.15 572.715 1061.22 574.741 Q1063.31 576.746 1067.01 576.746 Q1069.16 576.746 1071.17 576.219 Q1073.19 575.693 1075.18 574.64 L1075.18 578.164 Q1073.17 579.014 1071.06 579.46 Q1068.96 579.906 1066.79 579.906 Q1061.36 579.906 1058.18 576.746 Q1055.02 573.586 1055.02 568.199 Q1055.02 562.629 1058.02 559.368 Q1061.04 556.086 1066.14 556.086 Q1070.72 556.086 1073.37 559.044 Q1076.05 561.98 1076.05 567.044 M1072.32 565.95 Q1072.28 562.892 1070.6 561.069 Q1068.94 559.246 1066.18 559.246 Q1063.06 559.246 1061.18 561.008 Q1059.32 562.77 1059.03 565.971 L1072.32 565.95 Z" fill="#8b2323" fill-rule="evenodd" fill-opacity="1"></path><path clip-path="url(#clip270)" d="M1095.84 558.902 L1095.84 555.215 L1121.8 564.634 L1121.8 567.996 L1095.84 577.414 L1095.84 573.728 L1116.7 566.335 L1095.84 558.902 Z" fill="#8b2323" fill-rule="evenodd" fill-opacity="1"></path><path clip-path="url(#clip270)" d="M1130.59 560.482 L1156.56 560.482 L1156.56 563.884 L1130.59 563.884 L1130.59 560.482 M1130.59 568.745 L1156.56 568.745 L1156.56 572.189 L1130.59 572.189 L1130.59 568.745 Z" fill="#8b2323" fill-rule="evenodd" fill-opacity="1"></path><path clip-path="url(#clip270)" d="M1190.97 563.013 Q1193.91 563.641 1195.55 565.626 Q1197.21 567.611 1197.21 570.528 Q1197.21 575.004 1194.13 577.455 Q1191.05 579.906 1185.38 579.906 Q1183.48 579.906 1181.45 579.521 Q1179.45 579.156 1177.3 578.407 L1177.3 574.457 Q1179 575.45 1181.03 575.956 Q1183.05 576.462 1185.26 576.462 Q1189.11 576.462 1191.11 574.943 Q1193.14 573.424 1193.14 570.528 Q1193.14 567.854 1191.25 566.355 Q1189.39 564.836 1186.05 564.836 L1182.53 564.836 L1182.53 561.474 L1186.21 561.474 Q1189.23 561.474 1190.83 560.279 Q1192.43 559.064 1192.43 556.795 Q1192.43 554.466 1190.77 553.23 Q1189.13 551.975 1186.05 551.975 Q1184.37 551.975 1182.44 552.339 Q1180.52 552.704 1178.21 553.474 L1178.21 549.828 Q1180.54 549.18 1182.57 548.856 Q1184.61 548.531 1186.41 548.531 Q1191.07 548.531 1193.79 550.658 Q1196.5 552.765 1196.5 556.37 Q1196.5 558.881 1195.06 560.623 Q1193.62 562.345 1190.97 563.013 Z" fill="#8b2323" fill-rule="evenodd" fill-opacity="1"></path><path clip-path="url(#clip270)" d="M1205.68 575.875 L1212.36 575.875 L1212.36 552.805 L1205.09 554.263 L1205.09 550.537 L1212.32 549.078 L1216.41 549.078 L1216.41 575.875 L1223.09 575.875 L1223.09 579.318 L1205.68 579.318 L1205.68 575.875 Z" fill="#8b2323" fill-rule="evenodd" fill-opacity="1"></path><path clip-path="url(#clip270)" d="M1231.36 574.174 L1235.63 574.174 L1235.63 579.318 L1231.36 579.318 L1231.36 574.174 Z" fill="#8b2323" fill-rule="evenodd" fill-opacity="1"></path><path clip-path="url(#clip270)" d="M1253.29 551.772 Q1250.13 551.772 1248.53 554.891 Q1246.95 557.99 1246.95 564.229 Q1246.95 570.447 1248.53 573.566 Q1250.13 576.665 1253.29 576.665 Q1256.47 576.665 1258.05 573.566 Q1259.65 570.447 1259.65 564.229 Q1259.65 557.99 1258.05 554.891 Q1256.47 551.772 1253.29 551.772 M1253.29 548.531 Q1258.38 548.531 1261.05 552.562 Q1263.75 556.572 1263.75 564.229 Q1263.75 571.865 1261.05 575.895 Q1258.38 579.906 1253.29 579.906 Q1248.21 579.906 1245.52 575.895 Q1242.84 571.865 1242.84 564.229 Q1242.84 556.572 1245.52 552.562 Q1248.21 548.531 1253.29 548.531 Z" fill="#8b2323" fill-rule="evenodd" fill-opacity="1"></path><path clip-path="url(#clip270)" d="M1274.42 574.174 L1278.53 574.174 L1278.53 579.318 L1274.42 579.318 L1274.42 574.174 M1278.41 571.196 L1274.54 571.196 L1274.54 568.077 Q1274.54 566.031 1275.11 564.715 Q1275.68 563.398 1277.5 561.656 L1279.32 559.854 Q1280.48 558.78 1280.98 557.828 Q1281.51 556.876 1281.51 555.884 Q1281.51 554.081 1280.17 552.967 Q1278.86 551.853 1276.67 551.853 Q1275.07 551.853 1273.25 552.562 Q1271.44 553.271 1269.48 554.628 L1269.48 550.82 Q1271.38 549.666 1273.33 549.099 Q1275.29 548.531 1277.38 548.531 Q1281.1 548.531 1283.35 550.496 Q1285.62 552.461 1285.62 555.681 Q1285.62 557.221 1284.89 558.618 Q1284.16 559.995 1282.34 561.737 L1280.56 563.479 Q1279.61 564.431 1279.2 564.978 Q1278.82 565.505 1278.65 566.011 Q1278.53 566.436 1278.47 567.044 Q1278.41 567.652 1278.41 568.705 L1278.41 571.196 Z" fill="#8b2323" fill-rule="evenodd" fill-opacity="1"></path><path clip-path="url(#clip270)" d="M1524.34 540.333 Q1527.28 540.961 1528.92 542.946 Q1530.58 544.931 1530.58 547.848 Q1530.58 552.324 1527.5 554.775 Q1524.42 557.226 1518.75 557.226 Q1516.85 557.226 1514.82 556.841 Q1512.82 556.476 1510.67 555.727 L1510.67 551.777 Q1512.37 552.77 1514.4 553.276 Q1516.42 553.782 1518.63 553.782 Q1522.48 553.782 1524.48 552.263 Q1526.51 550.744 1526.51 547.848 Q1526.51 545.174 1524.63 543.675 Q1522.76 542.156 1519.42 542.156 L1515.9 542.156 L1515.9 538.794 L1519.58 538.794 Q1522.6 538.794 1524.2 537.599 Q1525.8 536.384 1525.8 534.115 Q1525.8 531.786 1524.14 530.55 Q1522.5 529.295 1519.42 529.295 Q1517.74 529.295 1515.82 529.659 Q1513.89 530.024 1511.58 530.794 L1511.58 527.148 Q1513.91 526.5 1515.94 526.176 Q1517.98 525.851 1519.79 525.851 Q1524.44 525.851 1527.16 527.978 Q1529.87 530.085 1529.87 533.69 Q1529.87 536.201 1528.43 537.943 Q1527 539.665 1524.34 540.333 Z" fill="#8b2323" fill-rule="evenodd" fill-opacity="1"></path><path clip-path="url(#clip270)" d="M1538.34 551.494 L1542.61 551.494 L1542.61 556.638 L1538.34 556.638 L1538.34 551.494 Z" fill="#8b2323" fill-rule="evenodd" fill-opacity="1"></path><path clip-path="url(#clip270)" d="M1563.92 540.333 Q1566.86 540.961 1568.5 542.946 Q1570.16 544.931 1570.16 547.848 Q1570.16 552.324 1567.08 554.775 Q1564 557.226 1558.33 557.226 Q1556.43 557.226 1554.4 556.841 Q1552.4 556.476 1550.25 555.727 L1550.25 551.777 Q1551.95 552.77 1553.98 553.276 Q1556 553.782 1558.21 553.782 Q1562.06 553.782 1564.06 552.263 Q1566.09 550.744 1566.09 547.848 Q1566.09 545.174 1564.2 543.675 Q1562.34 542.156 1559 542.156 L1555.47 542.156 L1555.47 538.794 L1559.16 538.794 Q1562.18 538.794 1563.78 537.599 Q1565.38 536.384 1565.38 534.115 Q1565.38 531.786 1563.72 530.55 Q1562.08 529.295 1559 529.295 Q1557.32 529.295 1555.39 529.659 Q1553.47 530.024 1551.16 530.794 L1551.16 527.148 Q1553.49 526.5 1555.51 526.176 Q1557.56 525.851 1559.36 525.851 Q1564.02 525.851 1566.74 527.978 Q1569.45 530.085 1569.45 533.69 Q1569.45 536.201 1568.01 537.943 Q1566.57 539.665 1563.92 540.333 Z" fill="#8b2323" fill-rule="evenodd" fill-opacity="1"></path><path clip-path="url(#clip270)" d="M1578.04 556.01 L1578.04 552.284 Q1579.58 553.013 1581.16 553.398 Q1582.74 553.782 1584.26 553.782 Q1588.31 553.782 1590.43 551.068 Q1592.58 548.334 1592.88 542.784 Q1591.71 544.526 1589.91 545.458 Q1588.1 546.39 1585.92 546.39 Q1581.38 546.39 1578.73 543.655 Q1576.09 540.901 1576.09 536.141 Q1576.09 531.482 1578.85 528.667 Q1581.6 525.851 1586.18 525.851 Q1591.43 525.851 1594.18 529.882 Q1596.96 533.892 1596.96 541.549 Q1596.96 548.699 1593.55 552.972 Q1590.17 557.226 1584.44 557.226 Q1582.9 557.226 1581.32 556.922 Q1579.74 556.618 1578.04 556.01 M1586.18 543.189 Q1588.93 543.189 1590.53 541.306 Q1592.16 539.422 1592.16 536.141 Q1592.16 532.88 1590.53 530.996 Q1588.93 529.092 1586.18 529.092 Q1583.43 529.092 1581.81 530.996 Q1580.2 532.88 1580.2 536.141 Q1580.2 539.422 1581.81 541.306 Q1583.43 543.189 1586.18 543.189 Z" fill="#8b2323" fill-rule="evenodd" fill-opacity="1"></path><path clip-path="url(#clip270)" d="M1604.43 556.01 L1604.43 552.284 Q1605.97 553.013 1607.55 553.398 Q1609.13 553.782 1610.65 553.782 Q1614.7 553.782 1616.83 551.068 Q1618.97 548.334 1619.28 542.784 Q1618.1 544.526 1616.3 545.458 Q1614.5 546.39 1612.31 546.39 Q1607.77 546.39 1605.12 543.655 Q1602.48 540.901 1602.48 536.141 Q1602.48 531.482 1605.24 528.667 Q1607.99 525.851 1612.57 525.851 Q1617.82 525.851 1620.57 529.882 Q1623.35 533.892 1623.35 541.549 Q1623.35 548.699 1619.94 552.972 Q1616.56 557.226 1610.83 557.226 Q1609.29 557.226 1607.71 556.922 Q1606.13 556.618 1604.43 556.01 M1612.57 543.189 Q1615.33 543.189 1616.93 541.306 Q1618.55 539.422 1618.55 536.141 Q1618.55 532.88 1616.93 530.996 Q1615.33 529.092 1612.57 529.092 Q1609.82 529.092 1608.2 530.996 Q1606.6 532.88 1606.6 536.141 Q1606.6 539.422 1608.2 541.306 Q1609.82 543.189 1612.57 543.189 Z" fill="#8b2323" fill-rule="evenodd" fill-opacity="1"></path><path clip-path="url(#clip270)" d="M1630.82 556.01 L1630.82 552.284 Q1632.36 553.013 1633.94 553.398 Q1635.52 553.782 1637.04 553.782 Q1641.09 553.782 1643.22 551.068 Q1645.36 548.334 1645.67 542.784 Q1644.49 544.526 1642.69 545.458 Q1640.89 546.39 1638.7 546.39 Q1634.16 546.39 1631.51 543.655 Q1628.88 540.901 1628.88 536.141 Q1628.88 531.482 1631.63 528.667 Q1634.39 525.851 1638.96 525.851 Q1644.21 525.851 1646.96 529.882 Q1649.74 533.892 1649.74 541.549 Q1649.74 548.699 1646.34 552.972 Q1642.95 557.226 1637.22 557.226 Q1635.68 557.226 1634.1 556.922 Q1632.52 556.618 1630.82 556.01 M1638.96 543.189 Q1641.72 543.189 1643.32 541.306 Q1644.94 539.422 1644.94 536.141 Q1644.94 532.88 1643.32 530.996 Q1641.72 529.092 1638.96 529.092 Q1636.21 529.092 1634.59 530.996 Q1632.99 532.88 1632.99 536.141 Q1632.99 539.422 1634.59 541.306 Q1636.21 543.189 1638.96 543.189 Z" fill="#8b2323" fill-rule="evenodd" fill-opacity="1"></path><path clip-path="url(#clip270)" d="M1657.21 556.01 L1657.21 552.284 Q1658.75 553.013 1660.33 553.398 Q1661.91 553.782 1663.43 553.782 Q1667.48 553.782 1669.61 551.068 Q1671.76 548.334 1672.06 542.784 Q1670.88 544.526 1669.08 545.458 Q1667.28 546.39 1665.09 546.39 Q1660.55 546.39 1657.9 543.655 Q1655.27 540.901 1655.27 536.141 Q1655.27 531.482 1658.02 528.667 Q1660.78 525.851 1665.35 525.851 Q1670.6 525.851 1673.36 529.882 Q1676.13 533.892 1676.13 541.549 Q1676.13 548.699 1672.73 552.972 Q1669.35 557.226 1663.61 557.226 Q1662.07 557.226 1660.49 556.922 Q1658.91 556.618 1657.21 556.01 M1665.35 543.189 Q1668.11 543.189 1669.71 541.306 Q1671.33 539.422 1671.33 536.141 Q1671.33 532.88 1669.71 530.996 Q1668.11 529.092 1665.35 529.092 Q1662.6 529.092 1660.98 530.996 Q1659.38 532.88 1659.38 536.141 Q1659.38 539.422 1660.98 541.306 Q1662.6 543.189 1665.35 543.189 Z" fill="#8b2323" fill-rule="evenodd" fill-opacity="1"></path><path clip-path="url(#clip270)" d="M1683.6 556.01 L1683.6 552.284 Q1685.14 553.013 1686.72 553.398 Q1688.3 553.782 1689.82 553.782 Q1693.87 553.782 1696 551.068 Q1698.15 548.334 1698.45 542.784 Q1697.28 544.526 1695.47 545.458 Q1693.67 546.39 1691.48 546.39 Q1686.95 546.39 1684.29 543.655 Q1681.66 540.901 1681.66 536.141 Q1681.66 531.482 1684.41 528.667 Q1687.17 525.851 1691.75 525.851 Q1696.99 525.851 1699.75 529.882 Q1702.52 533.892 1702.52 541.549 Q1702.52 548.699 1699.12 552.972 Q1695.74 557.226 1690 557.226 Q1688.47 557.226 1686.89 556.922 Q1685.31 556.618 1683.6 556.01 M1691.75 543.189 Q1694.5 543.189 1696.1 541.306 Q1697.72 539.422 1697.72 536.141 Q1697.72 532.88 1696.1 530.996 Q1694.5 529.092 1691.75 529.092 Q1688.99 529.092 1687.37 530.996 Q1685.77 532.88 1685.77 536.141 Q1685.77 539.422 1687.37 541.306 Q1688.99 543.189 1691.75 543.189 Z" fill="#8b2323" fill-rule="evenodd" fill-opacity="1"></path><path clip-path="url(#clip270)" d="M1710 556.01 L1710 552.284 Q1711.54 553.013 1713.12 553.398 Q1714.69 553.782 1716.21 553.782 Q1720.26 553.782 1722.39 551.068 Q1724.54 548.334 1724.84 542.784 Q1723.67 544.526 1721.87 545.458 Q1720.06 546.39 1717.87 546.39 Q1713.34 546.39 1710.68 543.655 Q1708.05 540.901 1708.05 536.141 Q1708.05 531.482 1710.81 528.667 Q1713.56 525.851 1718.14 525.851 Q1723.38 525.851 1726.14 529.882 Q1728.91 533.892 1728.91 541.549 Q1728.91 548.699 1725.51 552.972 Q1722.13 557.226 1716.4 557.226 Q1714.86 557.226 1713.28 556.922 Q1711.7 556.618 1710 556.01 M1718.14 543.189 Q1720.89 543.189 1722.49 541.306 Q1724.11 539.422 1724.11 536.141 Q1724.11 532.88 1722.49 530.996 Q1720.89 529.092 1718.14 529.092 Q1715.38 529.092 1713.76 530.996 Q1712.16 532.88 1712.16 536.141 Q1712.16 539.422 1713.76 541.306 Q1715.38 543.189 1718.14 543.189 Z" fill="#8b2323" fill-rule="evenodd" fill-opacity="1"></path><path clip-path="url(#clip270)" d="M1736.39 556.01 L1736.39 552.284 Q1737.93 553.013 1739.51 553.398 Q1741.09 553.782 1742.61 553.782 Q1746.66 553.782 1748.78 551.068 Q1750.93 548.334 1751.23 542.784 Q1750.06 544.526 1748.26 545.458 Q1746.45 546.39 1744.27 546.39 Q1739.73 546.39 1737.08 543.655 Q1734.44 540.901 1734.44 536.141 Q1734.44 531.482 1737.2 528.667 Q1739.95 525.851 1744.53 525.851 Q1749.78 525.851 1752.53 529.882 Q1755.31 533.892 1755.31 541.549 Q1755.31 548.699 1751.9 552.972 Q1748.52 557.226 1742.79 557.226 Q1741.25 557.226 1739.67 556.922 Q1738.09 556.618 1736.39 556.01 M1744.53 543.189 Q1747.28 543.189 1748.88 541.306 Q1750.5 539.422 1750.5 536.141 Q1750.5 532.88 1748.88 530.996 Q1747.28 529.092 1744.53 529.092 Q1741.78 529.092 1740.15 530.996 Q1738.55 532.88 1738.55 536.141 Q1738.55 539.422 1740.15 541.306 Q1741.78 543.189 1744.53 543.189 Z" fill="#8b2323" fill-rule="evenodd" fill-opacity="1"></path><path clip-path="url(#clip270)" d="M1762.78 556.01 L1762.78 552.284 Q1764.32 553.013 1765.9 553.398 Q1767.48 553.782 1769 553.782 Q1773.05 553.782 1775.17 551.068 Q1777.32 548.334 1777.63 542.784 Q1776.45 544.526 1774.65 545.458 Q1772.85 546.39 1770.66 546.39 Q1766.12 546.39 1763.47 543.655 Q1760.83 540.901 1760.83 536.141 Q1760.83 531.482 1763.59 528.667 Q1766.34 525.851 1770.92 525.851 Q1776.17 525.851 1778.92 529.882 Q1781.7 533.892 1781.7 541.549 Q1781.7 548.699 1778.29 552.972 Q1774.91 557.226 1769.18 557.226 Q1767.64 557.226 1766.06 556.922 Q1764.48 556.618 1762.78 556.01 M1770.92 543.189 Q1773.68 543.189 1775.28 541.306 Q1776.9 539.422 1776.9 536.141 Q1776.9 532.88 1775.28 530.996 Q1773.68 529.092 1770.92 529.092 Q1768.17 529.092 1766.55 530.996 Q1764.95 532.88 1764.95 536.141 Q1764.95 539.422 1766.55 541.306 Q1768.17 543.189 1770.92 543.189 Z" fill="#8b2323" fill-rule="evenodd" fill-opacity="1"></path><path clip-path="url(#clip270)" d="M1789.17 556.01 L1789.17 552.284 Q1790.71 553.013 1792.29 553.398 Q1793.87 553.782 1795.39 553.782 Q1799.44 553.782 1801.57 551.068 Q1803.71 548.334 1804.02 542.784 Q1802.84 544.526 1801.04 545.458 Q1799.24 546.39 1797.05 546.39 Q1792.51 546.39 1789.86 543.655 Q1787.23 540.901 1787.23 536.141 Q1787.23 531.482 1789.98 528.667 Q1792.74 525.851 1797.31 525.851 Q1802.56 525.851 1805.31 529.882 Q1808.09 533.892 1808.09 541.549 Q1808.09 548.699 1804.69 552.972 Q1801.3 557.226 1795.57 557.226 Q1794.03 557.226 1792.45 556.922 Q1790.87 556.618 1789.17 556.01 M1797.31 543.189 Q1800.07 543.189 1801.67 541.306 Q1803.29 539.422 1803.29 536.141 Q1803.29 532.88 1801.67 530.996 Q1800.07 529.092 1797.31 529.092 Q1794.56 529.092 1792.94 530.996 Q1791.34 532.88 1791.34 536.141 Q1791.34 539.422 1792.94 541.306 Q1794.56 543.189 1797.31 543.189 Z" fill="#8b2323" fill-rule="evenodd" fill-opacity="1"></path><path clip-path="url(#clip270)" d="M1815.56 556.01 L1815.56 552.284 Q1817.1 553.013 1818.68 553.398 Q1820.26 553.782 1821.78 553.782 Q1825.83 553.782 1827.96 551.068 Q1830.11 548.334 1830.41 542.784 Q1829.23 544.526 1827.43 545.458 Q1825.63 546.39 1823.44 546.39 Q1818.9 546.39 1816.25 543.655 Q1813.62 540.901 1813.62 536.141 Q1813.62 531.482 1816.37 528.667 Q1819.13 525.851 1823.7 525.851 Q1828.95 525.851 1831.71 529.882 Q1834.48 533.892 1834.48 541.549 Q1834.48 548.699 1831.08 552.972 Q1827.69 557.226 1821.96 557.226 Q1820.42 557.226 1818.84 556.922 Q1817.26 556.618 1815.56 556.01 M1823.7 543.189 Q1826.46 543.189 1828.06 541.306 Q1829.68 539.422 1829.68 536.141 Q1829.68 532.88 1828.06 530.996 Q1826.46 529.092 1823.7 529.092 Q1820.95 529.092 1819.33 530.996 Q1817.73 532.88 1817.73 536.141 Q1817.73 539.422 1819.33 541.306 Q1820.95 543.189 1823.7 543.189 Z" fill="#8b2323" fill-rule="evenodd" fill-opacity="1"></path><path clip-path="url(#clip270)" d="M1841.95 556.01 L1841.95 552.284 Q1843.49 553.013 1845.07 553.398 Q1846.65 553.782 1848.17 553.782 Q1852.22 553.782 1854.35 551.068 Q1856.5 548.334 1856.8 542.784 Q1855.63 544.526 1853.82 545.458 Q1852.02 546.39 1849.83 546.39 Q1845.3 546.39 1842.64 543.655 Q1840.01 540.901 1840.01 536.141 Q1840.01 531.482 1842.76 528.667 Q1845.52 525.851 1850.1 525.851 Q1855.34 525.851 1858.1 529.882 Q1860.87 533.892 1860.87 541.549 Q1860.87 548.699 1857.47 552.972 Q1854.09 557.226 1848.35 557.226 Q1846.82 557.226 1845.24 556.922 Q1843.66 556.618 1841.95 556.01 M1850.1 543.189 Q1852.85 543.189 1854.45 541.306 Q1856.07 539.422 1856.07 536.141 Q1856.07 532.88 1854.45 530.996 Q1852.85 529.092 1850.1 529.092 Q1847.34 529.092 1845.72 530.996 Q1844.12 532.88 1844.12 536.141 Q1844.12 539.422 1845.72 541.306 Q1847.34 543.189 1850.1 543.189 Z" fill="#8b2323" fill-rule="evenodd" fill-opacity="1"></path><path clip-path="url(#clip270)" d="M1868.35 556.01 L1868.35 552.284 Q1869.89 553.013 1871.46 553.398 Q1873.04 553.782 1874.56 553.782 Q1878.61 553.782 1880.74 551.068 Q1882.89 548.334 1883.19 542.784 Q1882.02 544.526 1880.21 545.458 Q1878.41 546.39 1876.22 546.39 Q1871.69 546.39 1869.03 543.655 Q1866.4 540.901 1866.4 536.141 Q1866.4 531.482 1869.16 528.667 Q1871.91 525.851 1876.49 525.851 Q1881.73 525.851 1884.49 529.882 Q1887.26 533.892 1887.26 541.549 Q1887.26 548.699 1883.86 552.972 Q1880.48 557.226 1874.75 557.226 Q1873.21 557.226 1871.63 556.922 Q1870.05 556.618 1868.35 556.01 M1876.49 543.189 Q1879.24 543.189 1880.84 541.306 Q1882.46 539.422 1882.46 536.141 Q1882.46 532.88 1880.84 530.996 Q1879.24 529.092 1876.49 529.092 Q1873.73 529.092 1872.11 530.996 Q1870.51 532.88 1870.51 536.141 Q1870.51 539.422 1872.11 541.306 Q1873.73 543.189 1876.49 543.189 Z" fill="#8b2323" fill-rule="evenodd" fill-opacity="1"></path><path clip-path="url(#clip270)" d="M1894.74 556.01 L1894.74 552.284 Q1896.28 553.013 1897.86 553.398 Q1899.44 553.782 1900.96 553.782 Q1905.01 553.782 1907.13 551.068 Q1909.28 548.334 1909.58 542.784 Q1908.41 544.526 1906.61 545.458 Q1904.8 546.39 1902.62 546.39 Q1898.08 546.39 1895.43 543.655 Q1892.79 540.901 1892.79 536.141 Q1892.79 531.482 1895.55 528.667 Q1898.3 525.851 1902.88 525.851 Q1908.13 525.851 1910.88 529.882 Q1913.66 533.892 1913.66 541.549 Q1913.66 548.699 1910.25 552.972 Q1906.87 557.226 1901.14 557.226 Q1899.6 557.226 1898.02 556.922 Q1896.44 556.618 1894.74 556.01 M1902.88 543.189 Q1905.63 543.189 1907.23 541.306 Q1908.85 539.422 1908.85 536.141 Q1908.85 532.88 1907.23 530.996 Q1905.63 529.092 1902.88 529.092 Q1900.13 529.092 1898.5 530.996 Q1896.9 532.88 1896.9 536.141 Q1896.9 539.422 1898.5 541.306 Q1900.13 543.189 1902.88 543.189 Z" fill="#8b2323" fill-rule="evenodd" fill-opacity="1"></path><path clip-path="url(#clip270)" d="M1921.13 556.01 L1921.13 552.284 Q1922.67 553.013 1924.25 553.398 Q1925.83 553.782 1927.35 553.782 Q1931.4 553.782 1933.52 551.068 Q1935.67 548.334 1935.98 542.784 Q1934.8 544.526 1933 545.458 Q1931.2 546.39 1929.01 546.39 Q1924.47 546.39 1921.82 543.655 Q1919.18 540.901 1919.18 536.141 Q1919.18 531.482 1921.94 528.667 Q1924.69 525.851 1929.27 525.851 Q1934.52 525.851 1937.27 529.882 Q1940.05 533.892 1940.05 541.549 Q1940.05 548.699 1936.64 552.972 Q1933.26 557.226 1927.53 557.226 Q1925.99 557.226 1924.41 556.922 Q1922.83 556.618 1921.13 556.01 M1929.27 543.189 Q1932.03 543.189 1933.63 541.306 Q1935.25 539.422 1935.25 536.141 Q1935.25 532.88 1933.63 530.996 Q1932.03 529.092 1929.27 529.092 Q1926.52 529.092 1924.9 530.996 Q1923.3 532.88 1923.3 536.141 Q1923.3 539.422 1924.9 541.306 Q1926.52 543.189 1929.27 543.189 Z" fill="#8b2323" fill-rule="evenodd" fill-opacity="1"></path><path clip-path="url(#clip270)" d="M1947.44 526.398 L1963.5 526.398 L1963.5 529.842 L1951.19 529.842 L1951.19 537.255 Q1952.08 536.951 1952.97 536.809 Q1953.86 536.647 1954.75 536.647 Q1959.82 536.647 1962.77 539.422 Q1965.73 542.197 1965.73 546.936 Q1965.73 551.818 1962.69 554.532 Q1959.65 557.226 1954.12 557.226 Q1952.22 557.226 1950.23 556.902 Q1948.27 556.578 1946.16 555.929 L1946.16 551.818 Q1947.99 552.81 1949.93 553.296 Q1951.88 553.782 1954.04 553.782 Q1957.55 553.782 1959.59 551.939 Q1961.64 550.096 1961.64 546.936 Q1961.64 543.777 1959.59 541.934 Q1957.55 540.09 1954.04 540.09 Q1952.4 540.09 1950.76 540.455 Q1949.14 540.82 1947.44 541.589 L1947.44 526.398 Z" fill="#8b2323" fill-rule="evenodd" fill-opacity="1"></path><path clip-path="url(#clip270)" d="M388.353 948.91 L399.27 948.91 L399.27 952.232 L388.353 952.232 L388.353 948.91 Z" fill="#8b2323" fill-rule="evenodd" fill-opacity="1"></path><path clip-path="url(#clip270)" d="M409.256 958.49 L423.535 958.49 L423.535 961.934 L404.334 961.934 L404.334 958.49 Q406.663 956.08 410.673 952.029 Q414.704 947.958 415.737 946.783 Q417.702 944.576 418.471 943.056 Q419.261 941.517 419.261 940.039 Q419.261 937.628 417.56 936.109 Q415.879 934.59 413.165 934.59 Q411.241 934.59 409.094 935.258 Q406.967 935.927 404.536 937.284 L404.536 933.152 Q407.007 932.16 409.154 931.653 Q411.301 931.147 413.084 931.147 Q417.783 931.147 420.578 933.496 Q423.373 935.846 423.373 939.775 Q423.373 941.639 422.664 943.32 Q421.975 944.981 420.132 947.249 Q419.626 947.837 416.912 950.652 Q414.198 953.447 409.256 958.49 Z" fill="#8b2323" fill-rule="evenodd" fill-opacity="1"></path><path clip-path="url(#clip270)" d="M431.09 931.694 L450.534 931.694 L450.534 933.436 L439.556 961.934 L435.283 961.934 L445.612 935.137 L431.09 935.137 L431.09 931.694 Z" fill="#8b2323" fill-rule="evenodd" fill-opacity="1"></path><path clip-path="url(#clip270)" d="M458.515 956.789 L462.788 956.789 L462.788 961.934 L458.515 961.934 L458.515 956.789 Z" fill="#8b2323" fill-rule="evenodd" fill-opacity="1"></path><path clip-path="url(#clip270)" d="M475.225 958.49 L489.504 958.49 L489.504 961.934 L470.303 961.934 L470.303 958.49 Q472.632 956.08 476.642 952.029 Q480.673 947.958 481.706 946.783 Q483.671 944.576 484.44 943.056 Q485.23 941.517 485.23 940.039 Q485.23 937.628 483.529 936.109 Q481.848 934.59 479.134 934.59 Q477.21 934.59 475.063 935.258 Q472.936 935.927 470.505 937.284 L470.505 933.152 Q472.976 932.16 475.123 931.653 Q477.27 931.147 479.053 931.147 Q483.752 931.147 486.547 933.496 Q489.342 935.846 489.342 939.775 Q489.342 941.639 488.633 943.32 Q487.944 944.981 486.101 947.249 Q485.595 947.837 482.881 950.652 Q480.167 953.447 475.225 958.49 Z" fill="#8b2323" fill-rule="evenodd" fill-opacity="1"></path><path clip-path="url(#clip270)" d="M1560.61 955.366 L1560.61 959.356 Q1558.28 958.242 1556.21 957.695 Q1554.15 957.149 1552.22 957.149 Q1548.88 957.149 1547.06 958.445 Q1545.26 959.741 1545.26 962.131 Q1545.26 964.136 1546.45 965.169 Q1547.67 966.182 1551.03 966.81 L1553.5 967.316 Q1558.08 968.187 1560.24 970.395 Q1562.43 972.582 1562.43 976.269 Q1562.43 980.664 1559.47 982.933 Q1556.54 985.201 1550.85 985.201 Q1548.7 985.201 1546.27 984.715 Q1543.86 984.229 1541.27 983.277 L1541.27 979.064 Q1543.76 980.461 1546.15 981.17 Q1548.54 981.879 1550.85 981.879 Q1554.35 981.879 1556.25 980.502 Q1558.16 979.125 1558.16 976.573 Q1558.16 974.345 1556.78 973.089 Q1555.42 971.833 1552.3 971.205 L1549.81 970.719 Q1545.24 969.808 1543.19 967.863 Q1541.14 965.919 1541.14 962.455 Q1541.14 958.445 1543.96 956.136 Q1546.8 953.827 1551.76 953.827 Q1553.88 953.827 1556.09 954.212 Q1558.3 954.596 1560.61 955.366 Z" fill="#8b2323" fill-rule="evenodd" fill-opacity="1"></path><path clip-path="url(#clip270)" d="M1577.44 964.541 Q1574.44 964.541 1572.7 966.891 Q1570.96 969.22 1570.96 973.291 Q1570.96 977.363 1572.68 979.712 Q1574.42 982.041 1577.44 982.041 Q1580.42 982.041 1582.16 979.692 Q1583.9 977.342 1583.9 973.291 Q1583.9 969.261 1582.16 966.911 Q1580.42 964.541 1577.44 964.541 M1577.44 961.382 Q1582.3 961.382 1585.08 964.541 Q1587.85 967.701 1587.85 973.291 Q1587.85 978.861 1585.08 982.041 Q1582.3 985.201 1577.44 985.201 Q1572.56 985.201 1569.78 982.041 Q1567.03 978.861 1567.03 973.291 Q1567.03 967.701 1569.78 964.541 Q1572.56 961.382 1577.44 961.382 Z" fill="#8b2323" fill-rule="evenodd" fill-opacity="1"></path><path clip-path="url(#clip270)" d="M1611.69 966.283 Q1613.09 963.772 1615.03 962.577 Q1616.98 961.382 1619.61 961.382 Q1623.15 961.382 1625.08 963.873 Q1627 966.344 1627 970.922 L1627 984.614 L1623.26 984.614 L1623.26 971.043 Q1623.26 967.782 1622.1 966.202 Q1620.95 964.622 1618.58 964.622 Q1615.68 964.622 1614 966.547 Q1612.32 968.471 1612.32 971.793 L1612.32 984.614 L1608.57 984.614 L1608.57 971.043 Q1608.57 967.762 1607.42 966.202 Q1606.26 964.622 1603.85 964.622 Q1601 964.622 1599.32 966.567 Q1597.63 968.491 1597.63 971.793 L1597.63 984.614 L1593.89 984.614 L1593.89 961.929 L1597.63 961.929 L1597.63 965.453 Q1598.91 963.367 1600.69 962.374 Q1602.47 961.382 1604.93 961.382 Q1607.4 961.382 1609.12 962.638 Q1610.86 963.893 1611.69 966.283 Z" fill="#8b2323" fill-rule="evenodd" fill-opacity="1"></path><path clip-path="url(#clip270)" d="M1667.03 972.339 L1667.03 974.162 L1649.89 974.162 Q1650.13 978.011 1652.2 980.036 Q1654.29 982.041 1657.99 982.041 Q1660.14 982.041 1662.14 981.515 Q1664.17 980.988 1666.15 979.935 L1666.15 983.459 Q1664.15 984.31 1662.04 984.755 Q1659.94 985.201 1657.77 985.201 Q1652.34 985.201 1649.16 982.041 Q1646 978.882 1646 973.494 Q1646 967.924 1649 964.663 Q1652.02 961.382 1657.12 961.382 Q1661.7 961.382 1664.35 964.339 Q1667.03 967.276 1667.03 972.339 M1663.3 971.246 Q1663.26 968.187 1661.58 966.364 Q1659.92 964.541 1657.16 964.541 Q1654.04 964.541 1652.16 966.304 Q1650.3 968.066 1650.01 971.266 L1663.3 971.246 Z" fill="#8b2323" fill-rule="evenodd" fill-opacity="1"></path><path clip-path="url(#clip270)" d="M1673.14 953.098 L1676.87 953.098 L1676.87 984.614 L1673.14 984.614 L1673.14 953.098 Z" fill="#8b2323" fill-rule="evenodd" fill-opacity="1"></path><path clip-path="url(#clip270)" d="M1699.13 962.597 L1699.13 966.121 Q1697.55 965.311 1695.85 964.906 Q1694.15 964.501 1692.32 964.501 Q1689.55 964.501 1688.15 965.352 Q1686.77 966.202 1686.77 967.904 Q1686.77 969.2 1687.77 969.949 Q1688.76 970.679 1691.76 971.347 L1693.03 971.631 Q1697 972.481 1698.66 974.041 Q1700.34 975.58 1700.34 978.355 Q1700.34 981.515 1697.83 983.358 Q1695.34 985.201 1690.97 985.201 Q1689.14 985.201 1687.16 984.836 Q1685.19 984.492 1683.01 983.783 L1683.01 979.935 Q1685.07 981.008 1687.08 981.555 Q1689.08 982.082 1691.05 982.082 Q1693.68 982.082 1695.1 981.191 Q1696.52 980.279 1696.52 978.639 Q1696.52 977.119 1695.48 976.309 Q1694.47 975.499 1691.01 974.75 L1689.71 974.446 Q1686.25 973.717 1684.71 972.218 Q1683.17 970.699 1683.17 968.066 Q1683.17 964.866 1685.44 963.124 Q1687.71 961.382 1691.88 961.382 Q1693.94 961.382 1695.77 961.686 Q1697.59 961.989 1699.13 962.597 Z" fill="#8b2323" fill-rule="evenodd" fill-opacity="1"></path><path clip-path="url(#clip270)" d="M1725.68 972.339 L1725.68 974.162 L1708.55 974.162 Q1708.79 978.011 1710.86 980.036 Q1712.94 982.041 1716.65 982.041 Q1718.8 982.041 1720.8 981.515 Q1722.83 980.988 1724.81 979.935 L1724.81 983.459 Q1722.81 984.31 1720.7 984.755 Q1718.59 985.201 1716.43 985.201 Q1711 985.201 1707.82 982.041 Q1704.66 978.882 1704.66 973.494 Q1704.66 967.924 1707.66 964.663 Q1710.67 961.382 1715.78 961.382 Q1720.36 961.382 1723.01 964.339 Q1725.68 967.276 1725.68 972.339 M1721.96 971.246 Q1721.92 968.187 1720.23 966.364 Q1718.57 964.541 1715.82 964.541 Q1712.7 964.541 1710.82 966.304 Q1708.95 968.066 1708.67 971.266 L1721.96 971.246 Z" fill="#8b2323" fill-rule="evenodd" fill-opacity="1"></path><path clip-path="url(#clip270)" d="M1745.47 964.197 L1745.47 960.511 L1771.44 969.929 L1771.44 973.291 L1745.47 982.71 L1745.47 979.023 L1766.33 971.631 L1745.47 964.197 Z" fill="#8b2323" fill-rule="evenodd" fill-opacity="1"></path><path clip-path="url(#clip270)" d="M1780.23 965.777 L1806.19 965.777 L1806.19 969.18 L1780.23 969.18 L1780.23 965.777 M1780.23 974.041 L1806.19 974.041 L1806.19 977.484 L1780.23 977.484 L1780.23 974.041 Z" fill="#8b2323" fill-rule="evenodd" fill-opacity="1"></path><path clip-path="url(#clip270)" d="M1831.74 981.17 L1846.02 981.17 L1846.02 984.614 L1826.81 984.614 L1826.81 981.17 Q1829.14 978.76 1833.15 974.709 Q1837.18 970.638 1838.22 969.463 Q1840.18 967.256 1840.95 965.736 Q1841.74 964.197 1841.74 962.719 Q1841.74 960.308 1840.04 958.789 Q1838.36 957.27 1835.64 957.27 Q1833.72 957.27 1831.57 957.938 Q1829.45 958.607 1827.02 959.964 L1827.02 955.832 Q1829.49 954.84 1831.63 954.333 Q1833.78 953.827 1835.56 953.827 Q1840.26 953.827 1843.06 956.176 Q1845.85 958.526 1845.85 962.455 Q1845.85 964.319 1845.14 966 Q1844.46 967.661 1842.61 969.929 Q1842.11 970.517 1839.39 973.332 Q1836.68 976.127 1831.74 981.17 Z" fill="#8b2323" fill-rule="evenodd" fill-opacity="1"></path><path clip-path="url(#clip270)" d="M1863.35 957.068 Q1860.19 957.068 1858.59 960.187 Q1857.01 963.286 1857.01 969.524 Q1857.01 975.742 1858.59 978.861 Q1860.19 981.96 1863.35 981.96 Q1866.53 981.96 1868.11 978.861 Q1869.71 975.742 1869.71 969.524 Q1869.71 963.286 1868.11 960.187 Q1866.53 957.068 1863.35 957.068 M1863.35 953.827 Q1868.44 953.827 1871.11 957.857 Q1873.8 961.868 1873.8 969.524 Q1873.8 977.16 1871.11 981.191 Q1868.44 985.201 1863.35 985.201 Q1858.27 985.201 1855.58 981.191 Q1852.9 977.16 1852.9 969.524 Q1852.9 961.868 1855.58 957.857 Q1858.27 953.827 1863.35 953.827 Z" fill="#8b2323" fill-rule="evenodd" fill-opacity="1"></path><path clip-path="url(#clip270)" d="M1880.99 979.469 L1885.27 979.469 L1885.27 984.614 L1880.99 984.614 L1880.99 979.469 Z" fill="#8b2323" fill-rule="evenodd" fill-opacity="1"></path><path clip-path="url(#clip270)" d="M1894.22 954.374 L1910.28 954.374 L1910.28 957.817 L1897.97 957.817 L1897.97 965.23 Q1898.86 964.926 1899.75 964.784 Q1900.64 964.622 1901.53 964.622 Q1906.6 964.622 1909.55 967.397 Q1912.51 970.172 1912.51 974.912 Q1912.51 979.793 1909.47 982.507 Q1906.43 985.201 1900.9 985.201 Q1899 985.201 1897.02 984.877 Q1895.05 984.553 1892.94 983.905 L1892.94 979.793 Q1894.77 980.786 1896.71 981.272 Q1898.66 981.758 1900.82 981.758 Q1904.33 981.758 1906.37 979.915 Q1908.42 978.071 1908.42 974.912 Q1908.42 971.752 1906.37 969.909 Q1904.33 968.066 1900.82 968.066 Q1899.18 968.066 1897.54 968.43 Q1895.92 968.795 1894.22 969.565 L1894.22 954.374 Z" fill="#8b2323" fill-rule="evenodd" fill-opacity="1"></path><path clip-path="url(#clip270)" d="M1924.06 979.469 L1928.17 979.469 L1928.17 984.614 L1924.06 984.614 L1924.06 979.469 M1928.05 976.492 L1924.18 976.492 L1924.18 973.372 Q1924.18 971.327 1924.74 970.01 Q1925.31 968.694 1927.13 966.952 L1928.96 965.149 Q1930.11 964.076 1930.62 963.124 Q1931.14 962.172 1931.14 961.179 Q1931.14 959.377 1929.81 958.263 Q1928.49 957.149 1926.3 957.149 Q1924.7 957.149 1922.88 957.857 Q1921.08 958.566 1919.11 959.923 L1919.11 956.116 Q1921.02 954.961 1922.96 954.394 Q1924.93 953.827 1927.01 953.827 Q1930.74 953.827 1932.99 955.791 Q1935.26 957.756 1935.26 960.977 Q1935.26 962.516 1934.53 963.914 Q1933.8 965.291 1931.98 967.033 L1930.19 968.775 Q1929.24 969.727 1928.84 970.273 Q1928.45 970.8 1928.29 971.306 Q1928.17 971.732 1928.11 972.339 Q1928.05 972.947 1928.05 974 L1928.05 976.492 Z" fill="#8b2323" fill-rule="evenodd" fill-opacity="1"></path><path clip-path="url(#clip270)" d="M1177.65 1354.21 L1188.57 1354.21 L1188.57 1357.53 L1177.65 1357.53 L1177.65 1354.21 Z" fill="#8b2323" fill-rule="evenodd" fill-opacity="1"></path><path clip-path="url(#clip270)" d="M1195.74 1363.79 L1202.42 1363.79 L1202.42 1340.72 L1195.15 1342.17 L1195.15 1338.45 L1202.38 1336.99 L1206.47 1336.99 L1206.47 1363.79 L1213.16 1363.79 L1213.16 1367.23 L1195.74 1367.23 L1195.74 1363.79 Z" fill="#8b2323" fill-rule="evenodd" fill-opacity="1"></path><path clip-path="url(#clip270)" d="M1220.39 1336.99 L1239.83 1336.99 L1239.83 1338.73 L1228.85 1367.23 L1224.58 1367.23 L1234.91 1340.43 L1220.39 1340.43 L1220.39 1336.99 Z" fill="#8b2323" fill-rule="evenodd" fill-opacity="1"></path><path clip-path="url(#clip270)" d="M1247.81 1362.08 L1252.09 1362.08 L1252.09 1367.23 L1247.81 1367.23 L1247.81 1362.08 Z" fill="#8b2323" fill-rule="evenodd" fill-opacity="1"></path><path clip-path="url(#clip270)" d="M1272.24 1340.55 L1261.91 1356.7 L1272.24 1356.7 L1272.24 1340.55 M1271.17 1336.99 L1276.31 1336.99 L1276.31 1356.7 L1280.62 1356.7 L1280.62 1360.1 L1276.31 1360.1 L1276.31 1367.23 L1272.24 1367.23 L1272.24 1360.1 L1258.59 1360.1 L1258.59 1356.15 L1271.17 1336.99 Z" fill="#8b2323" fill-rule="evenodd" fill-opacity="1"></path><path clip-path="url(#clip270)" d="M1287.43 1336.99 L1303.49 1336.99 L1303.49 1340.43 L1291.18 1340.43 L1291.18 1347.85 Q1292.07 1347.54 1292.96 1347.4 Q1293.85 1347.24 1294.74 1347.24 Q1299.81 1347.24 1302.76 1350.01 Q1305.72 1352.79 1305.72 1357.53 Q1305.72 1362.41 1302.68 1365.12 Q1299.64 1367.82 1294.11 1367.82 Q1292.21 1367.82 1290.22 1367.49 Q1288.26 1367.17 1286.15 1366.52 L1286.15 1362.41 Q1287.98 1363.4 1289.92 1363.89 Q1291.87 1364.37 1294.03 1364.37 Q1297.54 1364.37 1299.58 1362.53 Q1301.63 1360.69 1301.63 1357.53 Q1301.63 1354.37 1299.58 1352.52 Q1297.54 1350.68 1294.03 1350.68 Q1292.39 1350.68 1290.75 1351.05 Q1289.13 1351.41 1287.43 1352.18 L1287.43 1336.99 Z" fill="#8b2323" fill-rule="evenodd" fill-opacity="1"></path><path clip-path="url(#clip270)" d="M1322.53 1339.68 Q1319.37 1339.68 1317.77 1342.8 Q1316.19 1345.9 1316.19 1352.14 Q1316.19 1358.36 1317.77 1361.48 Q1319.37 1364.58 1322.53 1364.58 Q1325.71 1364.58 1327.29 1361.48 Q1328.89 1358.36 1328.89 1352.14 Q1328.89 1345.9 1327.29 1342.8 Q1325.71 1339.68 1322.53 1339.68 M1322.53 1336.44 Q1327.61 1336.44 1330.29 1340.47 Q1332.98 1344.48 1332.98 1352.14 Q1332.98 1359.78 1330.29 1363.81 Q1327.61 1367.82 1322.53 1367.82 Q1317.45 1367.82 1314.75 1363.81 Q1312.08 1359.78 1312.08 1352.14 Q1312.08 1344.48 1314.75 1340.47 Q1317.45 1336.44 1322.53 1336.44 Z" fill="#8b2323" fill-rule="evenodd" fill-opacity="1"></path><path clip-path="url(#clip270)" d="M1348.92 1339.68 Q1345.76 1339.68 1344.16 1342.8 Q1342.58 1345.9 1342.58 1352.14 Q1342.58 1358.36 1344.16 1361.48 Q1345.76 1364.58 1348.92 1364.58 Q1352.1 1364.58 1353.68 1361.48 Q1355.28 1358.36 1355.28 1352.14 Q1355.28 1345.9 1353.68 1342.8 Q1352.1 1339.68 1348.92 1339.68 M1348.92 1336.44 Q1354.01 1336.44 1356.68 1340.47 Q1359.37 1344.48 1359.37 1352.14 Q1359.37 1359.78 1356.68 1363.81 Q1354.01 1367.82 1348.92 1367.82 Q1343.84 1367.82 1341.14 1363.81 Q1338.47 1359.78 1338.47 1352.14 Q1338.47 1344.48 1341.14 1340.47 Q1343.84 1336.44 1348.92 1336.44 Z" fill="#8b2323" fill-rule="evenodd" fill-opacity="1"></path><path clip-path="url(#clip270)" d="M1375.31 1339.68 Q1372.15 1339.68 1370.55 1342.8 Q1368.97 1345.9 1368.97 1352.14 Q1368.97 1358.36 1370.55 1361.48 Q1372.15 1364.58 1375.31 1364.58 Q1378.49 1364.58 1380.07 1361.48 Q1381.67 1358.36 1381.67 1352.14 Q1381.67 1345.9 1380.07 1342.8 Q1378.49 1339.68 1375.31 1339.68 M1375.31 1336.44 Q1380.4 1336.44 1383.07 1340.47 Q1385.77 1344.48 1385.77 1352.14 Q1385.77 1359.78 1383.07 1363.81 Q1380.4 1367.82 1375.31 1367.82 Q1370.23 1367.82 1367.54 1363.81 Q1364.86 1359.78 1364.86 1352.14 Q1364.86 1344.48 1367.54 1340.47 Q1370.23 1336.44 1375.31 1336.44 Z" fill="#8b2323" fill-rule="evenodd" fill-opacity="1"></path><path clip-path="url(#clip270)" d="M1401.71 1339.68 Q1398.55 1339.68 1396.95 1342.8 Q1395.37 1345.9 1395.37 1352.14 Q1395.37 1358.36 1396.95 1361.48 Q1398.55 1364.58 1401.71 1364.58 Q1404.89 1364.58 1406.47 1361.48 Q1408.07 1358.36 1408.07 1352.14 Q1408.07 1345.9 1406.47 1342.8 Q1404.89 1339.68 1401.71 1339.68 M1401.71 1336.44 Q1406.79 1336.44 1409.46 1340.47 Q1412.16 1344.48 1412.16 1352.14 Q1412.16 1359.78 1409.46 1363.81 Q1406.79 1367.82 1401.71 1367.82 Q1396.62 1367.82 1393.93 1363.81 Q1391.25 1359.78 1391.25 1352.14 Q1391.25 1344.48 1393.93 1340.47 Q1396.62 1336.44 1401.71 1336.44 Z" fill="#8b2323" fill-rule="evenodd" fill-opacity="1"></path><path clip-path="url(#clip270)" d="M1428.1 1339.68 Q1424.94 1339.68 1423.34 1342.8 Q1421.76 1345.9 1421.76 1352.14 Q1421.76 1358.36 1423.34 1361.48 Q1424.94 1364.58 1428.1 1364.58 Q1431.28 1364.58 1432.86 1361.48 Q1434.46 1358.36 1434.46 1352.14 Q1434.46 1345.9 1432.86 1342.8 Q1431.28 1339.68 1428.1 1339.68 M1428.1 1336.44 Q1433.18 1336.44 1435.85 1340.47 Q1438.55 1344.48 1438.55 1352.14 Q1438.55 1359.78 1435.85 1363.81 Q1433.18 1367.82 1428.1 1367.82 Q1423.01 1367.82 1420.32 1363.81 Q1417.65 1359.78 1417.65 1352.14 Q1417.65 1344.48 1420.32 1340.47 Q1423.01 1336.44 1428.1 1336.44 Z" fill="#8b2323" fill-rule="evenodd" fill-opacity="1"></path><path clip-path="url(#clip270)" d="M1454.49 1339.68 Q1451.33 1339.68 1449.73 1342.8 Q1448.15 1345.9 1448.15 1352.14 Q1448.15 1358.36 1449.73 1361.48 Q1451.33 1364.58 1454.49 1364.58 Q1457.67 1364.58 1459.25 1361.48 Q1460.85 1358.36 1460.85 1352.14 Q1460.85 1345.9 1459.25 1342.8 Q1457.67 1339.68 1454.49 1339.68 M1454.49 1336.44 Q1459.57 1336.44 1462.25 1340.47 Q1464.94 1344.48 1464.94 1352.14 Q1464.94 1359.78 1462.25 1363.81 Q1459.57 1367.82 1454.49 1367.82 Q1449.41 1367.82 1446.71 1363.81 Q1444.04 1359.78 1444.04 1352.14 Q1444.04 1344.48 1446.71 1340.47 Q1449.41 1336.44 1454.49 1336.44 Z" fill="#8b2323" fill-rule="evenodd" fill-opacity="1"></path><path clip-path="url(#clip270)" d="M1480.88 1339.68 Q1477.72 1339.68 1476.12 1342.8 Q1474.54 1345.9 1474.54 1352.14 Q1474.54 1358.36 1476.12 1361.48 Q1477.72 1364.58 1480.88 1364.58 Q1484.06 1364.58 1485.64 1361.48 Q1487.24 1358.36 1487.24 1352.14 Q1487.24 1345.9 1485.64 1342.8 Q1484.06 1339.68 1480.88 1339.68 M1480.88 1336.44 Q1485.96 1336.44 1488.64 1340.47 Q1491.33 1344.48 1491.33 1352.14 Q1491.33 1359.78 1488.64 1363.81 Q1485.96 1367.82 1480.88 1367.82 Q1475.8 1367.82 1473.1 1363.81 Q1470.43 1359.78 1470.43 1352.14 Q1470.43 1344.48 1473.1 1340.47 Q1475.8 1336.44 1480.88 1336.44 Z" fill="#8b2323" fill-rule="evenodd" fill-opacity="1"></path><path clip-path="url(#clip270)" d="M1507.27 1339.68 Q1504.11 1339.68 1502.51 1342.8 Q1500.93 1345.9 1500.93 1352.14 Q1500.93 1358.36 1502.51 1361.48 Q1504.11 1364.58 1507.27 1364.58 Q1510.45 1364.58 1512.03 1361.48 Q1513.63 1358.36 1513.63 1352.14 Q1513.63 1345.9 1512.03 1342.8 Q1510.45 1339.68 1507.27 1339.68 M1507.27 1336.44 Q1512.36 1336.44 1515.03 1340.47 Q1517.72 1344.48 1517.72 1352.14 Q1517.72 1359.78 1515.03 1363.81 Q1512.36 1367.82 1507.27 1367.82 Q1502.19 1367.82 1499.49 1363.81 Q1496.82 1359.78 1496.82 1352.14 Q1496.82 1344.48 1499.49 1340.47 Q1502.19 1336.44 1507.27 1336.44 Z" fill="#8b2323" fill-rule="evenodd" fill-opacity="1"></path><path clip-path="url(#clip270)" d="M1533.66 1339.68 Q1530.5 1339.68 1528.9 1342.8 Q1527.32 1345.9 1527.32 1352.14 Q1527.32 1358.36 1528.9 1361.48 Q1530.5 1364.58 1533.66 1364.58 Q1536.84 1364.58 1538.42 1361.48 Q1540.02 1358.36 1540.02 1352.14 Q1540.02 1345.9 1538.42 1342.8 Q1536.84 1339.68 1533.66 1339.68 M1533.66 1336.44 Q1538.75 1336.44 1541.42 1340.47 Q1544.12 1344.48 1544.12 1352.14 Q1544.12 1359.78 1541.42 1363.81 Q1538.75 1367.82 1533.66 1367.82 Q1528.58 1367.82 1525.89 1363.81 Q1523.21 1359.78 1523.21 1352.14 Q1523.21 1344.48 1525.89 1340.47 Q1528.58 1336.44 1533.66 1336.44 Z" fill="#8b2323" fill-rule="evenodd" fill-opacity="1"></path><path clip-path="url(#clip270)" d="M1560.06 1339.68 Q1556.9 1339.68 1555.3 1342.8 Q1553.72 1345.9 1553.72 1352.14 Q1553.72 1358.36 1555.3 1361.48 Q1556.9 1364.58 1560.06 1364.58 Q1563.24 1364.58 1564.82 1361.48 Q1566.42 1358.36 1566.42 1352.14 Q1566.42 1345.9 1564.82 1342.8 Q1563.24 1339.68 1560.06 1339.68 M1560.06 1336.44 Q1565.14 1336.44 1567.81 1340.47 Q1570.51 1344.48 1570.51 1352.14 Q1570.51 1359.78 1567.81 1363.81 Q1565.14 1367.82 1560.06 1367.82 Q1554.97 1367.82 1552.28 1363.81 Q1549.6 1359.78 1549.6 1352.14 Q1549.6 1344.48 1552.28 1340.47 Q1554.97 1336.44 1560.06 1336.44 Z" fill="#8b2323" fill-rule="evenodd" fill-opacity="1"></path><path clip-path="url(#clip270)" d="M1586.45 1339.68 Q1583.29 1339.68 1581.69 1342.8 Q1580.11 1345.9 1580.11 1352.14 Q1580.11 1358.36 1581.69 1361.48 Q1583.29 1364.58 1586.45 1364.58 Q1589.63 1364.58 1591.21 1361.48 Q1592.81 1358.36 1592.81 1352.14 Q1592.81 1345.9 1591.21 1342.8 Q1589.63 1339.68 1586.45 1339.68 M1586.45 1336.44 Q1591.53 1336.44 1594.2 1340.47 Q1596.9 1344.48 1596.9 1352.14 Q1596.9 1359.78 1594.2 1363.81 Q1591.53 1367.82 1586.45 1367.82 Q1581.36 1367.82 1578.67 1363.81 Q1576 1359.78 1576 1352.14 Q1576 1344.48 1578.67 1340.47 Q1581.36 1336.44 1586.45 1336.44 Z" fill="#8b2323" fill-rule="evenodd" fill-opacity="1"></path><path clip-path="url(#clip270)" d="M1612.84 1339.68 Q1609.68 1339.68 1608.08 1342.8 Q1606.5 1345.9 1606.5 1352.14 Q1606.5 1358.36 1608.08 1361.48 Q1609.68 1364.58 1612.84 1364.58 Q1616.02 1364.58 1617.6 1361.48 Q1619.2 1358.36 1619.2 1352.14 Q1619.2 1345.9 1617.6 1342.8 Q1616.02 1339.68 1612.84 1339.68 M1612.84 1336.44 Q1617.92 1336.44 1620.6 1340.47 Q1623.29 1344.48 1623.29 1352.14 Q1623.29 1359.78 1620.6 1363.81 Q1617.92 1367.82 1612.84 1367.82 Q1607.75 1367.82 1605.06 1363.81 Q1602.39 1359.78 1602.39 1352.14 Q1602.39 1344.48 1605.06 1340.47 Q1607.75 1336.44 1612.84 1336.44 Z" fill="#8b2323" fill-rule="evenodd" fill-opacity="1"></path><path clip-path="url(#clip270)" d="M1642.88 1350.92 Q1645.81 1351.55 1647.45 1353.54 Q1649.11 1355.52 1649.11 1358.44 Q1649.11 1362.91 1646.04 1365.37 Q1642.96 1367.82 1637.29 1367.82 Q1635.38 1367.82 1633.36 1367.43 Q1631.35 1367.07 1629.2 1366.32 L1629.2 1362.37 Q1630.91 1363.36 1632.93 1363.87 Q1634.96 1364.37 1637.16 1364.37 Q1641.01 1364.37 1643.02 1362.85 Q1645.04 1361.33 1645.04 1358.44 Q1645.04 1355.76 1643.16 1354.27 Q1641.3 1352.75 1637.95 1352.75 L1634.43 1352.75 L1634.43 1349.38 L1638.12 1349.38 Q1641.13 1349.38 1642.73 1348.19 Q1644.33 1346.97 1644.33 1344.71 Q1644.33 1342.38 1642.67 1341.14 Q1641.03 1339.89 1637.95 1339.89 Q1636.27 1339.89 1634.35 1340.25 Q1632.42 1340.61 1630.12 1341.38 L1630.12 1337.74 Q1632.45 1337.09 1634.47 1336.77 Q1636.52 1336.44 1638.32 1336.44 Q1642.98 1336.44 1645.69 1338.57 Q1648.41 1340.68 1648.41 1344.28 Q1648.41 1346.79 1646.97 1348.53 Q1645.53 1350.26 1642.88 1350.92 Z" fill="#8b2323" fill-rule="evenodd" fill-opacity="1"></path><path clip-path="url(#clip270)" d="M2011.78 1354.21 L2022.7 1354.21 L2022.7 1357.53 L2011.78 1357.53 L2011.78 1354.21 Z" fill="#8b2323" fill-rule="evenodd" fill-opacity="1"></path><path clip-path="url(#clip270)" d="M2029.87 1363.79 L2036.56 1363.79 L2036.56 1340.72 L2029.28 1342.17 L2029.28 1338.45 L2036.52 1336.99 L2040.61 1336.99 L2040.61 1363.79 L2047.29 1363.79 L2047.29 1367.23 L2029.87 1367.23 L2029.87 1363.79 Z" fill="#8b2323" fill-rule="evenodd" fill-opacity="1"></path><path clip-path="url(#clip270)" d="M2067.95 1350.92 Q2070.89 1351.55 2072.53 1353.54 Q2074.19 1355.52 2074.19 1358.44 Q2074.19 1362.91 2071.11 1365.37 Q2068.03 1367.82 2062.36 1367.82 Q2060.46 1367.82 2058.43 1367.43 Q2056.43 1367.07 2054.28 1366.32 L2054.28 1362.37 Q2055.98 1363.36 2058.01 1363.87 Q2060.03 1364.37 2062.24 1364.37 Q2066.09 1364.37 2068.09 1362.85 Q2070.12 1361.33 2070.12 1358.44 Q2070.12 1355.76 2068.23 1354.27 Q2066.37 1352.75 2063.03 1352.75 L2059.5 1352.75 L2059.5 1349.38 L2063.19 1349.38 Q2066.21 1349.38 2067.81 1348.19 Q2069.41 1346.97 2069.41 1344.71 Q2069.41 1342.38 2067.75 1341.14 Q2066.11 1339.89 2063.03 1339.89 Q2061.35 1339.89 2059.42 1340.25 Q2057.5 1340.61 2055.19 1341.38 L2055.19 1337.74 Q2057.52 1337.09 2059.54 1336.77 Q2061.59 1336.44 2063.39 1336.44 Q2068.05 1336.44 2070.77 1338.57 Q2073.48 1340.68 2073.48 1344.28 Q2073.48 1346.79 2072.04 1348.53 Q2070.6 1350.26 2067.95 1350.92 Z" fill="#8b2323" fill-rule="evenodd" fill-opacity="1"></path><path clip-path="url(#clip270)" d="M2081.95 1362.08 L2086.22 1362.08 L2086.22 1367.23 L2081.95 1367.23 L2081.95 1362.08 Z" fill="#8b2323" fill-rule="evenodd" fill-opacity="1"></path><path clip-path="url(#clip270)" d="M2103.88 1352.87 Q2100.97 1352.87 2099.28 1354.43 Q2097.62 1355.99 2097.62 1358.72 Q2097.62 1361.46 2099.28 1363.02 Q2100.97 1364.58 2103.88 1364.58 Q2106.8 1364.58 2108.48 1363.02 Q2110.16 1361.44 2110.16 1358.72 Q2110.16 1355.99 2108.48 1354.43 Q2106.82 1352.87 2103.88 1352.87 M2099.79 1351.13 Q2097.16 1350.48 2095.68 1348.68 Q2094.22 1346.87 2094.22 1344.28 Q2094.22 1340.66 2096.79 1338.55 Q2099.39 1336.44 2103.88 1336.44 Q2108.4 1336.44 2110.97 1338.55 Q2113.54 1340.66 2113.54 1344.28 Q2113.54 1346.87 2112.06 1348.68 Q2110.61 1350.48 2107.99 1351.13 Q2110.95 1351.82 2112.59 1353.82 Q2114.25 1355.83 2114.25 1358.72 Q2114.25 1363.12 2111.56 1365.47 Q2108.88 1367.82 2103.88 1367.82 Q2098.88 1367.82 2096.19 1365.47 Q2093.51 1363.12 2093.51 1358.72 Q2093.51 1355.83 2095.17 1353.82 Q2096.83 1351.82 2099.79 1351.13 M2098.29 1344.67 Q2098.29 1347.01 2099.75 1348.33 Q2101.23 1349.65 2103.88 1349.65 Q2106.51 1349.65 2107.99 1348.33 Q2109.49 1347.01 2109.49 1344.67 Q2109.49 1342.32 2107.99 1341 Q2106.51 1339.68 2103.88 1339.68 Q2101.23 1339.68 2099.75 1341 Q2098.29 1342.32 2098.29 1344.67 Z" fill="#8b2323" fill-rule="evenodd" fill-opacity="1"></path></svg>