<?xml version="1.0" encoding="utf-8"?>
<svg xmlns="http://www.w3.org/2000/svg" xmlns:xlink="http://www.w3.org/1999/xlink" width="600" height="400" viewBox="0 0 2400 1600">
<defs>
  <clipPath id="clip770">
    <rect x="0" y="0" width="2400" height="1600"/>
  </clipPath>
</defs>
<path clip-path="url(#clip770)" d="M0 1600 L2400 1600 L2400 0 L0 0  Z" fill="#ffffff" fill-rule="evenodd" fill-opacity="1"/>
<defs>
  <clipPath id="clip771">
    <rect x="480" y="0" width="1681" height="1600"/>
  </clipPath>
</defs>
<path clip-path="url(#clip770)" d="M265.445 1423.18 L2352.76 1423.18 L2352.76 123.472 L265.445 123.472  Z" fill="#ffffff" fill-rule="evenodd" fill-opacity="1"/>
<defs>
  <clipPath id="clip772">
    <rect x="265" y="123" width="2088" height="1301"/>
  </clipPath>
</defs>
<polyline clip-path="url(#clip772)" style="stroke:#000000; stroke-linecap:round; stroke-linejoin:round; stroke-width:2; stroke-opacity:0.1; fill:none" points="319.535,1423.18 319.535,123.472 "/>
<polyline clip-path="url(#clip772)" style="stroke:#000000; stroke-linecap:round; stroke-linejoin:round; stroke-width:2; stroke-opacity:0.1; fill:none" points="772.633,1423.18 772.633,123.472 "/>
<polyline clip-path="url(#clip772)" style="stroke:#000000; stroke-linecap:round; stroke-linejoin:round; stroke-width:2; stroke-opacity:0.1; fill:none" points="1225.73,1423.18 1225.73,123.472 "/>
<polyline clip-path="url(#clip772)" style="stroke:#000000; stroke-linecap:round; stroke-linejoin:round; stroke-width:2; stroke-opacity:0.1; fill:none" points="1678.83,1423.18 1678.83,123.472 "/>
<polyline clip-path="url(#clip772)" style="stroke:#000000; stroke-linecap:round; stroke-linejoin:round; stroke-width:2; stroke-opacity:0.1; fill:none" points="2131.93,1423.18 2131.93,123.472 "/>
<polyline clip-path="url(#clip772)" style="stroke:#000000; stroke-linecap:round; stroke-linejoin:round; stroke-width:2; stroke-opacity:0.1; fill:none" points="265.445,1413.88 2352.76,1413.88 "/>
<polyline clip-path="url(#clip772)" style="stroke:#000000; stroke-linecap:round; stroke-linejoin:round; stroke-width:2; stroke-opacity:0.1; fill:none" points="265.445,1090.15 2352.76,1090.15 "/>
<polyline clip-path="url(#clip772)" style="stroke:#000000; stroke-linecap:round; stroke-linejoin:round; stroke-width:2; stroke-opacity:0.1; fill:none" points="265.445,766.411 2352.76,766.411 "/>
<polyline clip-path="url(#clip772)" style="stroke:#000000; stroke-linecap:round; stroke-linejoin:round; stroke-width:2; stroke-opacity:0.1; fill:none" points="265.445,442.676 2352.76,442.676 "/>
<polyline clip-path="url(#clip770)" style="stroke:#000000; stroke-linecap:round; stroke-linejoin:round; stroke-width:4; stroke-opacity:1; fill:none" points="265.445,1423.18 2352.76,1423.18 "/>
<polyline clip-path="url(#clip770)" style="stroke:#000000; stroke-linecap:round; stroke-linejoin:round; stroke-width:4; stroke-opacity:1; fill:none" points="319.535,1423.18 319.535,1404.28 "/>
<polyline clip-path="url(#clip770)" style="stroke:#000000; stroke-linecap:round; stroke-linejoin:round; stroke-width:4; stroke-opacity:1; fill:none" points="772.633,1423.18 772.633,1404.28 "/>
<polyline clip-path="url(#clip770)" style="stroke:#000000; stroke-linecap:round; stroke-linejoin:round; stroke-width:4; stroke-opacity:1; fill:none" points="1225.73,1423.18 1225.73,1404.28 "/>
<polyline clip-path="url(#clip770)" style="stroke:#000000; stroke-linecap:round; stroke-linejoin:round; stroke-width:4; stroke-opacity:1; fill:none" points="1678.83,1423.18 1678.83,1404.28 "/>
<polyline clip-path="url(#clip770)" style="stroke:#000000; stroke-linecap:round; stroke-linejoin:round; stroke-width:4; stroke-opacity:1; fill:none" points="2131.93,1423.18 2131.93,1404.28 "/>
<path clip-path="url(#clip770)" d="M319.535 1454.1 Q315.924 1454.1 314.096 1457.66 Q312.29 1461.2 312.29 1468.33 Q312.29 1475.44 314.096 1479.01 Q315.924 1482.55 319.535 1482.55 Q323.17 1482.55 324.975 1479.01 Q326.804 1475.44 326.804 1468.33 Q326.804 1461.2 324.975 1457.66 Q323.17 1454.1 319.535 1454.1 M319.535 1450.39 Q325.346 1450.39 328.401 1455 Q331.48 1459.58 331.48 1468.33 Q331.48 1477.06 328.401 1481.67 Q325.346 1486.25 319.535 1486.25 Q313.725 1486.25 310.647 1481.67 Q307.591 1477.06 307.591 1468.33 Q307.591 1459.58 310.647 1455 Q313.725 1450.39 319.535 1450.39 Z" fill="#000000" fill-rule="nonzero" fill-opacity="1" /><path clip-path="url(#clip770)" d="M721.244 1481.64 L737.564 1481.64 L737.564 1485.58 L715.619 1485.58 L715.619 1481.64 Q718.281 1478.89 722.865 1474.26 Q727.471 1469.61 728.652 1468.27 Q730.897 1465.74 731.777 1464.01 Q732.679 1462.25 732.679 1460.56 Q732.679 1457.8 730.735 1456.07 Q728.814 1454.33 725.712 1454.33 Q723.513 1454.33 721.059 1455.09 Q718.629 1455.86 715.851 1457.41 L715.851 1452.69 Q718.675 1451.55 721.129 1450.97 Q723.582 1450.39 725.619 1450.39 Q730.99 1450.39 734.184 1453.08 Q737.379 1455.77 737.379 1460.26 Q737.379 1462.39 736.568 1464.31 Q735.781 1466.2 733.675 1468.8 Q733.096 1469.47 729.994 1472.69 Q726.892 1475.88 721.244 1481.64 Z" fill="#000000" fill-rule="nonzero" fill-opacity="1" /><path clip-path="url(#clip770)" d="M757.378 1454.1 Q753.767 1454.1 751.939 1457.66 Q750.133 1461.2 750.133 1468.33 Q750.133 1475.44 751.939 1479.01 Q753.767 1482.55 757.378 1482.55 Q761.013 1482.55 762.818 1479.01 Q764.647 1475.44 764.647 1468.33 Q764.647 1461.2 762.818 1457.66 Q761.013 1454.1 757.378 1454.1 M757.378 1450.39 Q763.189 1450.39 766.244 1455 Q769.323 1459.58 769.323 1468.33 Q769.323 1477.06 766.244 1481.67 Q763.189 1486.25 757.378 1486.25 Q751.568 1486.25 748.49 1481.67 Q745.434 1477.06 745.434 1468.33 Q745.434 1459.58 748.49 1455 Q751.568 1450.39 757.378 1450.39 Z" fill="#000000" fill-rule="nonzero" fill-opacity="1" /><path clip-path="url(#clip770)" d="M787.54 1454.1 Q783.929 1454.1 782.1 1457.66 Q780.295 1461.2 780.295 1468.33 Q780.295 1475.44 782.1 1479.01 Q783.929 1482.55 787.54 1482.55 Q791.175 1482.55 792.98 1479.01 Q794.809 1475.44 794.809 1468.33 Q794.809 1461.2 792.98 1457.66 Q791.175 1454.1 787.54 1454.1 M787.54 1450.39 Q793.35 1450.39 796.406 1455 Q799.485 1459.58 799.485 1468.33 Q799.485 1477.06 796.406 1481.67 Q793.35 1486.25 787.54 1486.25 Q781.73 1486.25 778.651 1481.67 Q775.596 1477.06 775.596 1468.33 Q775.596 1459.58 778.651 1455 Q781.73 1450.39 787.54 1450.39 Z" fill="#000000" fill-rule="nonzero" fill-opacity="1" /><path clip-path="url(#clip770)" d="M817.702 1454.1 Q814.091 1454.1 812.262 1457.66 Q810.457 1461.2 810.457 1468.33 Q810.457 1475.44 812.262 1479.01 Q814.091 1482.55 817.702 1482.55 Q821.336 1482.55 823.142 1479.01 Q824.971 1475.44 824.971 1468.33 Q824.971 1461.2 823.142 1457.66 Q821.336 1454.1 817.702 1454.1 M817.702 1450.39 Q823.512 1450.39 826.568 1455 Q829.647 1459.58 829.647 1468.33 Q829.647 1477.06 826.568 1481.67 Q823.512 1486.25 817.702 1486.25 Q811.892 1486.25 808.813 1481.67 Q805.758 1477.06 805.758 1468.33 Q805.758 1459.58 808.813 1455 Q811.892 1450.39 817.702 1450.39 Z" fill="#000000" fill-rule="nonzero" fill-opacity="1" /><path clip-path="url(#clip770)" d="M1183.74 1455.09 L1171.93 1473.54 L1183.74 1473.54 L1183.74 1455.09 M1182.51 1451.02 L1188.39 1451.02 L1188.39 1473.54 L1193.32 1473.54 L1193.32 1477.43 L1188.39 1477.43 L1188.39 1485.58 L1183.74 1485.58 L1183.74 1477.43 L1168.14 1477.43 L1168.14 1472.92 L1182.51 1451.02 Z" fill="#000000" fill-rule="nonzero" fill-opacity="1" /><path clip-path="url(#clip770)" d="M1211.05 1454.1 Q1207.44 1454.1 1205.61 1457.66 Q1203.81 1461.2 1203.81 1468.33 Q1203.81 1475.44 1205.61 1479.01 Q1207.44 1482.55 1211.05 1482.55 Q1214.69 1482.55 1216.49 1479.01 Q1218.32 1475.44 1218.32 1468.33 Q1218.32 1461.2 1216.49 1457.66 Q1214.69 1454.1 1211.05 1454.1 M1211.05 1450.39 Q1216.86 1450.39 1219.92 1455 Q1223 1459.58 1223 1468.33 Q1223 1477.06 1219.92 1481.67 Q1216.86 1486.25 1211.05 1486.25 Q1205.24 1486.25 1202.17 1481.67 Q1199.11 1477.06 1199.11 1468.33 Q1199.11 1459.58 1202.17 1455 Q1205.24 1450.39 1211.05 1450.39 Z" fill="#000000" fill-rule="nonzero" fill-opacity="1" /><path clip-path="url(#clip770)" d="M1241.22 1454.1 Q1237.61 1454.1 1235.78 1457.66 Q1233.97 1461.2 1233.97 1468.33 Q1233.97 1475.44 1235.78 1479.01 Q1237.61 1482.55 1241.22 1482.55 Q1244.85 1482.55 1246.66 1479.01 Q1248.48 1475.44 1248.48 1468.33 Q1248.48 1461.2 1246.66 1457.66 Q1244.85 1454.1 1241.22 1454.1 M1241.22 1450.39 Q1247.03 1450.39 1250.08 1455 Q1253.16 1459.58 1253.16 1468.33 Q1253.16 1477.06 1250.08 1481.67 Q1247.03 1486.25 1241.22 1486.25 Q1235.41 1486.25 1232.33 1481.67 Q1229.27 1477.06 1229.27 1468.33 Q1229.27 1459.58 1232.33 1455 Q1235.41 1450.39 1241.22 1450.39 Z" fill="#000000" fill-rule="nonzero" fill-opacity="1" /><path clip-path="url(#clip770)" d="M1271.38 1454.1 Q1267.77 1454.1 1265.94 1457.66 Q1264.13 1461.2 1264.13 1468.33 Q1264.13 1475.44 1265.94 1479.01 Q1267.77 1482.55 1271.38 1482.55 Q1275.01 1482.55 1276.82 1479.01 Q1278.65 1475.44 1278.65 1468.33 Q1278.65 1461.2 1276.82 1457.66 Q1275.01 1454.1 1271.38 1454.1 M1271.38 1450.39 Q1277.19 1450.39 1280.24 1455 Q1283.32 1459.58 1283.32 1468.33 Q1283.32 1477.06 1280.24 1481.67 Q1277.19 1486.25 1271.38 1486.25 Q1265.57 1486.25 1262.49 1481.67 Q1259.43 1477.06 1259.43 1468.33 Q1259.43 1459.58 1262.49 1455 Q1265.57 1450.39 1271.38 1450.39 Z" fill="#000000" fill-rule="nonzero" fill-opacity="1" /><path clip-path="url(#clip770)" d="M1634.07 1466.44 Q1630.92 1466.44 1629.07 1468.59 Q1627.24 1470.74 1627.24 1474.49 Q1627.24 1478.22 1629.07 1480.39 Q1630.92 1482.55 1634.07 1482.55 Q1637.22 1482.55 1639.05 1480.39 Q1640.9 1478.22 1640.9 1474.49 Q1640.9 1470.74 1639.05 1468.59 Q1637.22 1466.44 1634.07 1466.44 M1643.35 1451.78 L1643.35 1456.04 Q1641.59 1455.21 1639.79 1454.77 Q1638.01 1454.33 1636.25 1454.33 Q1631.62 1454.33 1629.16 1457.45 Q1626.73 1460.58 1626.39 1466.9 Q1627.75 1464.89 1629.81 1463.82 Q1631.87 1462.73 1634.35 1462.73 Q1639.56 1462.73 1642.57 1465.9 Q1645.6 1469.05 1645.6 1474.49 Q1645.6 1479.82 1642.45 1483.03 Q1639.3 1486.25 1634.07 1486.25 Q1628.08 1486.25 1624.9 1481.67 Q1621.73 1477.06 1621.73 1468.33 Q1621.73 1460.14 1625.62 1455.28 Q1629.51 1450.39 1636.06 1450.39 Q1637.82 1450.39 1639.6 1450.74 Q1641.41 1451.09 1643.35 1451.78 Z" fill="#000000" fill-rule="nonzero" fill-opacity="1" /><path clip-path="url(#clip770)" d="M1663.65 1454.1 Q1660.04 1454.1 1658.21 1457.66 Q1656.41 1461.2 1656.41 1468.33 Q1656.41 1475.44 1658.21 1479.01 Q1660.04 1482.55 1663.65 1482.55 Q1667.29 1482.55 1669.09 1479.01 Q1670.92 1475.44 1670.92 1468.33 Q1670.92 1461.2 1669.09 1457.66 Q1667.29 1454.1 1663.65 1454.1 M1663.65 1450.39 Q1669.46 1450.39 1672.52 1455 Q1675.6 1459.58 1675.6 1468.33 Q1675.6 1477.06 1672.52 1481.67 Q1669.46 1486.25 1663.65 1486.25 Q1657.84 1486.25 1654.77 1481.67 Q1651.71 1477.06 1651.71 1468.33 Q1651.71 1459.58 1654.77 1455 Q1657.84 1450.39 1663.65 1450.39 Z" fill="#000000" fill-rule="nonzero" fill-opacity="1" /><path clip-path="url(#clip770)" d="M1693.82 1454.1 Q1690.21 1454.1 1688.38 1457.66 Q1686.57 1461.2 1686.57 1468.33 Q1686.57 1475.44 1688.38 1479.01 Q1690.21 1482.55 1693.82 1482.55 Q1697.45 1482.55 1699.26 1479.01 Q1701.08 1475.44 1701.08 1468.33 Q1701.08 1461.2 1699.26 1457.66 Q1697.45 1454.1 1693.82 1454.1 M1693.82 1450.39 Q1699.63 1450.39 1702.68 1455 Q1705.76 1459.58 1705.76 1468.33 Q1705.76 1477.06 1702.68 1481.67 Q1699.63 1486.25 1693.82 1486.25 Q1688.01 1486.25 1684.93 1481.67 Q1681.87 1477.06 1681.87 1468.33 Q1681.87 1459.58 1684.93 1455 Q1688.01 1450.39 1693.82 1450.39 Z" fill="#000000" fill-rule="nonzero" fill-opacity="1" /><path clip-path="url(#clip770)" d="M1723.98 1454.1 Q1720.37 1454.1 1718.54 1457.66 Q1716.73 1461.2 1716.73 1468.33 Q1716.73 1475.44 1718.54 1479.01 Q1720.37 1482.55 1723.98 1482.55 Q1727.61 1482.55 1729.42 1479.01 Q1731.25 1475.44 1731.25 1468.33 Q1731.25 1461.2 1729.42 1457.66 Q1727.61 1454.1 1723.98 1454.1 M1723.98 1450.39 Q1729.79 1450.39 1732.84 1455 Q1735.92 1459.58 1735.92 1468.33 Q1735.92 1477.06 1732.84 1481.67 Q1729.79 1486.25 1723.98 1486.25 Q1718.17 1486.25 1715.09 1481.67 Q1712.03 1477.06 1712.03 1468.33 Q1712.03 1459.58 1715.09 1455 Q1718.17 1450.39 1723.98 1450.39 Z" fill="#000000" fill-rule="nonzero" fill-opacity="1" /><path clip-path="url(#clip770)" d="M2086.64 1469.17 Q2083.3 1469.17 2081.38 1470.95 Q2079.48 1472.73 2079.48 1475.86 Q2079.48 1478.98 2081.38 1480.77 Q2083.3 1482.55 2086.64 1482.55 Q2089.97 1482.55 2091.89 1480.77 Q2093.81 1478.96 2093.81 1475.86 Q2093.81 1472.73 2091.89 1470.95 Q2089.99 1469.17 2086.64 1469.17 M2081.96 1467.18 Q2078.95 1466.44 2077.26 1464.38 Q2075.59 1462.32 2075.59 1459.35 Q2075.59 1455.21 2078.53 1452.8 Q2081.5 1450.39 2086.64 1450.39 Q2091.8 1450.39 2094.74 1452.8 Q2097.68 1455.21 2097.68 1459.35 Q2097.68 1462.32 2095.99 1464.38 Q2094.32 1466.44 2091.34 1467.18 Q2094.71 1467.96 2096.59 1470.26 Q2098.49 1472.55 2098.49 1475.86 Q2098.49 1480.88 2095.41 1483.57 Q2092.35 1486.25 2086.64 1486.25 Q2080.92 1486.25 2077.84 1483.57 Q2074.78 1480.88 2074.78 1475.86 Q2074.78 1472.55 2076.68 1470.26 Q2078.58 1467.96 2081.96 1467.18 M2080.25 1459.79 Q2080.25 1462.48 2081.91 1463.98 Q2083.6 1465.49 2086.64 1465.49 Q2089.65 1465.49 2091.34 1463.98 Q2093.05 1462.48 2093.05 1459.79 Q2093.05 1457.11 2091.34 1455.6 Q2089.65 1454.1 2086.64 1454.1 Q2083.6 1454.1 2081.91 1455.6 Q2080.25 1457.11 2080.25 1459.79 Z" fill="#000000" fill-rule="nonzero" fill-opacity="1" /><path clip-path="url(#clip770)" d="M2116.8 1454.1 Q2113.19 1454.1 2111.36 1457.66 Q2109.55 1461.2 2109.55 1468.33 Q2109.55 1475.44 2111.36 1479.01 Q2113.19 1482.55 2116.8 1482.55 Q2120.43 1482.55 2122.24 1479.01 Q2124.07 1475.44 2124.07 1468.33 Q2124.07 1461.2 2122.24 1457.66 Q2120.43 1454.1 2116.8 1454.1 M2116.8 1450.39 Q2122.61 1450.39 2125.66 1455 Q2128.74 1459.58 2128.74 1468.33 Q2128.74 1477.06 2125.66 1481.67 Q2122.61 1486.25 2116.8 1486.25 Q2110.99 1486.25 2107.91 1481.67 Q2104.85 1477.06 2104.85 1468.33 Q2104.85 1459.58 2107.91 1455 Q2110.99 1450.39 2116.8 1450.39 Z" fill="#000000" fill-rule="nonzero" fill-opacity="1" /><path clip-path="url(#clip770)" d="M2146.96 1454.1 Q2143.35 1454.1 2141.52 1457.66 Q2139.71 1461.2 2139.71 1468.33 Q2139.71 1475.44 2141.52 1479.01 Q2143.35 1482.55 2146.96 1482.55 Q2150.59 1482.55 2152.4 1479.01 Q2154.23 1475.44 2154.23 1468.33 Q2154.23 1461.2 2152.4 1457.66 Q2150.59 1454.1 2146.96 1454.1 M2146.96 1450.39 Q2152.77 1450.39 2155.83 1455 Q2158.9 1459.58 2158.9 1468.33 Q2158.9 1477.06 2155.83 1481.67 Q2152.77 1486.25 2146.96 1486.25 Q2141.15 1486.25 2138.07 1481.67 Q2135.02 1477.06 2135.02 1468.33 Q2135.02 1459.58 2138.07 1455 Q2141.15 1450.39 2146.96 1450.39 Z" fill="#000000" fill-rule="nonzero" fill-opacity="1" /><path clip-path="url(#clip770)" d="M2177.12 1454.1 Q2173.51 1454.1 2171.68 1457.66 Q2169.88 1461.2 2169.88 1468.33 Q2169.88 1475.44 2171.68 1479.01 Q2173.51 1482.55 2177.12 1482.55 Q2180.76 1482.55 2182.56 1479.01 Q2184.39 1475.44 2184.39 1468.33 Q2184.39 1461.2 2182.56 1457.66 Q2180.76 1454.1 2177.12 1454.1 M2177.12 1450.39 Q2182.93 1450.39 2185.99 1455 Q2189.07 1459.58 2189.07 1468.33 Q2189.07 1477.06 2185.99 1481.67 Q2182.93 1486.25 2177.12 1486.25 Q2171.31 1486.25 2168.23 1481.67 Q2165.18 1477.06 2165.18 1468.33 Q2165.18 1459.58 2168.23 1455 Q2171.31 1450.39 2177.12 1450.39 Z" fill="#000000" fill-rule="nonzero" fill-opacity="1" /><path clip-path="url(#clip770)" d="M1169.9 1537.81 L1169.9 1518.52 L1175.75 1518.52 L1175.75 1568.04 L1169.9 1568.04 L1169.9 1562.7 Q1168.05 1565.88 1165.22 1567.44 Q1162.42 1568.97 1158.47 1568.97 Q1152.01 1568.97 1147.94 1563.81 Q1143.89 1558.65 1143.89 1550.25 Q1143.89 1541.85 1147.94 1536.69 Q1152.01 1531.54 1158.47 1531.54 Q1162.42 1531.54 1165.22 1533.1 Q1168.05 1534.62 1169.9 1537.81 M1149.94 1550.25 Q1149.94 1556.71 1152.58 1560.4 Q1155.26 1564.07 1159.9 1564.07 Q1164.55 1564.07 1167.22 1560.4 Q1169.9 1556.71 1169.9 1550.25 Q1169.9 1543.79 1167.22 1540.13 Q1164.55 1536.44 1159.9 1536.44 Q1155.26 1536.44 1152.58 1540.13 Q1149.94 1543.79 1149.94 1550.25 Z" fill="#000000" fill-rule="nonzero" fill-opacity="1" /><path clip-path="url(#clip770)" d="M1204.02 1550.12 Q1196.92 1550.12 1194.18 1551.75 Q1191.45 1553.37 1191.45 1557.29 Q1191.45 1560.4 1193.48 1562.25 Q1195.55 1564.07 1199.08 1564.07 Q1203.95 1564.07 1206.88 1560.63 Q1209.84 1557.16 1209.84 1551.43 L1209.84 1550.12 L1204.02 1550.12 M1215.7 1547.71 L1215.7 1568.04 L1209.84 1568.04 L1209.84 1562.63 Q1207.84 1565.88 1204.85 1567.44 Q1201.85 1568.97 1197.53 1568.97 Q1192.05 1568.97 1188.8 1565.91 Q1185.59 1562.82 1185.59 1557.67 Q1185.59 1551.65 1189.6 1548.6 Q1193.64 1545.54 1201.63 1545.54 L1209.84 1545.54 L1209.84 1544.97 Q1209.84 1540.93 1207.17 1538.73 Q1204.53 1536.5 1199.72 1536.5 Q1196.67 1536.5 1193.77 1537.23 Q1190.87 1537.97 1188.2 1539.43 L1188.2 1534.02 Q1191.41 1532.78 1194.44 1532.17 Q1197.46 1531.54 1200.33 1531.54 Q1208.06 1531.54 1211.88 1535.55 Q1215.7 1539.56 1215.7 1547.71 Z" fill="#000000" fill-rule="nonzero" fill-opacity="1" /><path clip-path="url(#clip770)" d="M1227.76 1532.4 L1233.62 1532.4 L1233.62 1568.04 L1227.76 1568.04 L1227.76 1532.4 M1227.76 1518.52 L1233.62 1518.52 L1233.62 1525.93 L1227.76 1525.93 L1227.76 1518.52 Z" fill="#000000" fill-rule="nonzero" fill-opacity="1" /><path clip-path="url(#clip770)" d="M1245.87 1518.52 L1251.73 1518.52 L1251.73 1568.04 L1245.87 1568.04 L1245.87 1518.52 Z" fill="#000000" fill-rule="nonzero" fill-opacity="1" /><path clip-path="url(#clip770)" d="M1278.82 1571.35 Q1276.33 1577.72 1273.98 1579.66 Q1271.62 1581.6 1267.68 1581.6 L1263 1581.6 L1263 1576.7 L1266.43 1576.7 Q1268.85 1576.7 1270.19 1575.56 Q1271.53 1574.41 1273.15 1570.14 L1274.2 1567.47 L1259.78 1532.4 L1265.99 1532.4 L1277.13 1560.28 L1288.27 1532.4 L1294.48 1532.4 L1278.82 1571.35 Z" fill="#000000" fill-rule="nonzero" fill-opacity="1" /><path clip-path="url(#clip770)" d="M1343.94 1537.87 Q1342.95 1537.3 1341.77 1537.04 Q1340.63 1536.76 1339.23 1536.76 Q1334.26 1536.76 1331.59 1540 Q1328.95 1543.22 1328.95 1549.27 L1328.95 1568.04 L1323.06 1568.04 L1323.06 1532.4 L1328.95 1532.4 L1328.95 1537.93 Q1330.79 1534.69 1333.75 1533.13 Q1336.71 1531.54 1340.94 1531.54 Q1341.55 1531.54 1342.28 1531.63 Q1343.01 1531.7 1343.9 1531.85 L1343.94 1537.87 Z" fill="#000000" fill-rule="nonzero" fill-opacity="1" /><path clip-path="url(#clip770)" d="M1350.08 1532.4 L1355.94 1532.4 L1355.94 1568.04 L1350.08 1568.04 L1350.08 1532.4 M1350.08 1518.52 L1355.94 1518.52 L1355.94 1525.93 L1350.08 1525.93 L1350.08 1518.52 Z" fill="#000000" fill-rule="nonzero" fill-opacity="1" /><path clip-path="url(#clip770)" d="M1391.65 1537.81 L1391.65 1518.52 L1397.5 1518.52 L1397.5 1568.04 L1391.65 1568.04 L1391.65 1562.7 Q1389.8 1565.88 1386.97 1567.44 Q1384.17 1568.97 1380.22 1568.97 Q1373.76 1568.97 1369.69 1563.81 Q1365.64 1558.65 1365.64 1550.25 Q1365.64 1541.85 1369.69 1536.69 Q1373.76 1531.54 1380.22 1531.54 Q1384.17 1531.54 1386.97 1533.1 Q1389.8 1534.62 1391.65 1537.81 M1371.69 1550.25 Q1371.69 1556.71 1374.33 1560.4 Q1377.01 1564.07 1381.65 1564.07 Q1386.3 1564.07 1388.97 1560.4 Q1391.65 1556.71 1391.65 1550.25 Q1391.65 1543.79 1388.97 1540.13 Q1386.3 1536.44 1381.65 1536.44 Q1377.01 1536.44 1374.33 1540.13 Q1371.69 1543.79 1371.69 1550.25 Z" fill="#000000" fill-rule="nonzero" fill-opacity="1" /><path clip-path="url(#clip770)" d="M1440.06 1548.76 L1440.06 1551.62 L1413.13 1551.62 Q1413.51 1557.67 1416.76 1560.85 Q1420.04 1564 1425.86 1564 Q1429.24 1564 1432.39 1563.17 Q1435.57 1562.35 1438.69 1560.69 L1438.69 1566.23 Q1435.54 1567.57 1432.23 1568.27 Q1428.92 1568.97 1425.51 1568.97 Q1416.98 1568.97 1411.99 1564 Q1407.02 1559.04 1407.02 1550.57 Q1407.02 1541.82 1411.73 1536.69 Q1416.47 1531.54 1424.49 1531.54 Q1431.69 1531.54 1435.86 1536.18 Q1440.06 1540.8 1440.06 1548.76 M1434.2 1547.04 Q1434.14 1542.23 1431.5 1539.37 Q1428.89 1536.5 1424.56 1536.5 Q1419.66 1536.5 1416.7 1539.27 Q1413.77 1542.04 1413.32 1547.07 L1434.2 1547.04 Z" fill="#000000" fill-rule="nonzero" fill-opacity="1" /><path clip-path="url(#clip770)" d="M1472.4 1533.45 L1472.4 1538.98 Q1469.91 1537.71 1467.24 1537.07 Q1464.57 1536.44 1461.7 1536.44 Q1457.34 1536.44 1455.15 1537.77 Q1452.98 1539.11 1452.98 1541.79 Q1452.98 1543.82 1454.54 1545 Q1456.1 1546.15 1460.81 1547.2 L1462.82 1547.64 Q1469.05 1548.98 1471.66 1551.43 Q1474.31 1553.85 1474.31 1558.21 Q1474.31 1563.17 1470.36 1566.07 Q1466.44 1568.97 1459.57 1568.97 Q1456.71 1568.97 1453.59 1568.39 Q1450.5 1567.85 1447.06 1566.74 L1447.06 1560.69 Q1450.31 1562.38 1453.46 1563.24 Q1456.61 1564.07 1459.7 1564.07 Q1463.83 1564.07 1466.06 1562.66 Q1468.29 1561.23 1468.29 1558.65 Q1468.29 1556.27 1466.67 1554.99 Q1465.08 1553.72 1459.63 1552.54 L1457.6 1552.07 Q1452.15 1550.92 1449.73 1548.56 Q1447.32 1546.18 1447.32 1542.04 Q1447.32 1537.01 1450.88 1534.27 Q1454.45 1531.54 1461 1531.54 Q1464.25 1531.54 1467.11 1532.01 Q1469.98 1532.49 1472.4 1533.45 Z" fill="#000000" fill-rule="nonzero" fill-opacity="1" /><polyline clip-path="url(#clip770)" style="stroke:#000000; stroke-linecap:round; stroke-linejoin:round; stroke-width:4; stroke-opacity:1; fill:none" points="265.445,1423.18 265.445,123.472 "/>
<polyline clip-path="url(#clip770)" style="stroke:#000000; stroke-linecap:round; stroke-linejoin:round; stroke-width:4; stroke-opacity:1; fill:none" points="265.445,1413.88 284.342,1413.88 "/>
<polyline clip-path="url(#clip770)" style="stroke:#000000; stroke-linecap:round; stroke-linejoin:round; stroke-width:4; stroke-opacity:1; fill:none" points="265.445,1090.15 284.342,1090.15 "/>
<polyline clip-path="url(#clip770)" style="stroke:#000000; stroke-linecap:round; stroke-linejoin:round; stroke-width:4; stroke-opacity:1; fill:none" points="265.445,766.411 284.342,766.411 "/>
<polyline clip-path="url(#clip770)" style="stroke:#000000; stroke-linecap:round; stroke-linejoin:round; stroke-width:4; stroke-opacity:1; fill:none" points="265.445,442.676 284.342,442.676 "/>
<path clip-path="url(#clip770)" d="M131.181 1412.53 Q134.538 1413.24 136.413 1415.51 Q138.311 1417.78 138.311 1421.11 Q138.311 1426.23 134.792 1429.03 Q131.274 1431.83 124.793 1431.83 Q122.617 1431.83 120.302 1431.39 Q118.01 1430.97 115.556 1430.12 L115.556 1425.6 Q117.501 1426.74 119.816 1427.32 Q122.13 1427.9 124.654 1427.9 Q129.052 1427.9 131.343 1426.16 Q133.658 1424.42 133.658 1421.11 Q133.658 1418.06 131.505 1416.35 Q129.376 1414.61 125.556 1414.61 L121.529 1414.61 L121.529 1410.77 L125.742 1410.77 Q129.191 1410.77 131.019 1409.4 Q132.848 1408.01 132.848 1405.42 Q132.848 1402.76 130.95 1401.35 Q129.075 1399.91 125.556 1399.91 Q123.635 1399.91 121.436 1400.33 Q119.237 1400.74 116.598 1401.62 L116.598 1397.46 Q119.26 1396.72 121.575 1396.35 Q123.913 1395.97 125.973 1395.97 Q131.297 1395.97 134.399 1398.41 Q137.501 1400.81 137.501 1404.93 Q137.501 1407.8 135.857 1409.79 Q134.214 1411.76 131.181 1412.53 Z" fill="#000000" fill-rule="nonzero" fill-opacity="1" /><path clip-path="url(#clip770)" d="M157.177 1399.68 Q153.566 1399.68 151.737 1403.24 Q149.931 1406.78 149.931 1413.91 Q149.931 1421.02 151.737 1424.59 Q153.566 1428.13 157.177 1428.13 Q160.811 1428.13 162.616 1424.59 Q164.445 1421.02 164.445 1413.91 Q164.445 1406.78 162.616 1403.24 Q160.811 1399.68 157.177 1399.68 M157.177 1395.97 Q162.987 1395.97 166.042 1400.58 Q169.121 1405.16 169.121 1413.91 Q169.121 1422.64 166.042 1427.25 Q162.987 1431.83 157.177 1431.83 Q151.366 1431.83 148.288 1427.25 Q145.232 1422.64 145.232 1413.91 Q145.232 1405.16 148.288 1400.58 Q151.366 1395.97 157.177 1395.97 Z" fill="#000000" fill-rule="nonzero" fill-opacity="1" /><path clip-path="url(#clip770)" d="M187.338 1399.68 Q183.727 1399.68 181.899 1403.24 Q180.093 1406.78 180.093 1413.91 Q180.093 1421.02 181.899 1424.59 Q183.727 1428.13 187.338 1428.13 Q190.973 1428.13 192.778 1424.59 Q194.607 1421.02 194.607 1413.91 Q194.607 1406.78 192.778 1403.24 Q190.973 1399.68 187.338 1399.68 M187.338 1395.97 Q193.149 1395.97 196.204 1400.58 Q199.283 1405.16 199.283 1413.91 Q199.283 1422.64 196.204 1427.25 Q193.149 1431.83 187.338 1431.83 Q181.528 1431.83 178.45 1427.25 Q175.394 1422.64 175.394 1413.91 Q175.394 1405.16 178.45 1400.58 Q181.528 1395.97 187.338 1395.97 Z" fill="#000000" fill-rule="nonzero" fill-opacity="1" /><path clip-path="url(#clip770)" d="M217.5 1399.68 Q213.889 1399.68 212.061 1403.24 Q210.255 1406.78 210.255 1413.91 Q210.255 1421.02 212.061 1424.59 Q213.889 1428.13 217.5 1428.13 Q221.135 1428.13 222.94 1424.59 Q224.769 1421.02 224.769 1413.91 Q224.769 1406.78 222.94 1403.24 Q221.135 1399.68 217.5 1399.68 M217.5 1395.97 Q223.31 1395.97 226.366 1400.58 Q229.445 1405.16 229.445 1413.91 Q229.445 1422.64 226.366 1427.25 Q223.31 1431.83 217.5 1431.83 Q211.69 1431.83 208.612 1427.25 Q205.556 1422.64 205.556 1413.91 Q205.556 1405.16 208.612 1400.58 Q211.69 1395.97 217.5 1395.97 Z" fill="#000000" fill-rule="nonzero" fill-opacity="1" /><path clip-path="url(#clip770)" d="M129.862 1076.94 L118.056 1095.39 L129.862 1095.39 L129.862 1076.94 M128.635 1072.87 L134.515 1072.87 L134.515 1095.39 L139.445 1095.39 L139.445 1099.28 L134.515 1099.28 L134.515 1107.43 L129.862 1107.43 L129.862 1099.28 L114.26 1099.28 L114.26 1094.76 L128.635 1072.87 Z" fill="#000000" fill-rule="nonzero" fill-opacity="1" /><path clip-path="url(#clip770)" d="M157.177 1075.94 Q153.566 1075.94 151.737 1079.51 Q149.931 1083.05 149.931 1090.18 Q149.931 1097.29 151.737 1100.85 Q153.566 1104.39 157.177 1104.39 Q160.811 1104.39 162.616 1100.85 Q164.445 1097.29 164.445 1090.18 Q164.445 1083.05 162.616 1079.51 Q160.811 1075.94 157.177 1075.94 M157.177 1072.24 Q162.987 1072.24 166.042 1076.85 Q169.121 1081.43 169.121 1090.18 Q169.121 1098.91 166.042 1103.51 Q162.987 1108.1 157.177 1108.1 Q151.366 1108.1 148.288 1103.51 Q145.232 1098.91 145.232 1090.18 Q145.232 1081.43 148.288 1076.85 Q151.366 1072.24 157.177 1072.24 Z" fill="#000000" fill-rule="nonzero" fill-opacity="1" /><path clip-path="url(#clip770)" d="M187.338 1075.94 Q183.727 1075.94 181.899 1079.51 Q180.093 1083.05 180.093 1090.18 Q180.093 1097.29 181.899 1100.85 Q183.727 1104.39 187.338 1104.39 Q190.973 1104.39 192.778 1100.85 Q194.607 1097.29 194.607 1090.18 Q194.607 1083.05 192.778 1079.51 Q190.973 1075.94 187.338 1075.94 M187.338 1072.24 Q193.149 1072.24 196.204 1076.85 Q199.283 1081.43 199.283 1090.18 Q199.283 1098.91 196.204 1103.51 Q193.149 1108.1 187.338 1108.1 Q181.528 1108.1 178.45 1103.51 Q175.394 1098.91 175.394 1090.18 Q175.394 1081.43 178.45 1076.85 Q181.528 1072.24 187.338 1072.24 Z" fill="#000000" fill-rule="nonzero" fill-opacity="1" /><path clip-path="url(#clip770)" d="M217.5 1075.94 Q213.889 1075.94 212.061 1079.51 Q210.255 1083.05 210.255 1090.18 Q210.255 1097.29 212.061 1100.85 Q213.889 1104.39 217.5 1104.39 Q221.135 1104.39 222.94 1100.85 Q224.769 1097.29 224.769 1090.18 Q224.769 1083.05 222.94 1079.51 Q221.135 1075.94 217.5 1075.94 M217.5 1072.24 Q223.31 1072.24 226.366 1076.85 Q229.445 1081.43 229.445 1090.18 Q229.445 1098.91 226.366 1103.51 Q223.31 1108.1 217.5 1108.1 Q211.69 1108.1 208.612 1103.51 Q205.556 1098.91 205.556 1090.18 Q205.556 1081.43 208.612 1076.85 Q211.69 1072.24 217.5 1072.24 Z" fill="#000000" fill-rule="nonzero" fill-opacity="1" /><path clip-path="url(#clip770)" d="M117.061 749.131 L135.417 749.131 L135.417 753.066 L121.343 753.066 L121.343 761.538 Q122.362 761.191 123.38 761.029 Q124.399 760.844 125.418 760.844 Q131.205 760.844 134.584 764.015 Q137.964 767.186 137.964 772.603 Q137.964 778.181 134.492 781.283 Q131.019 784.362 124.7 784.362 Q122.524 784.362 120.255 783.992 Q118.01 783.621 115.603 782.88 L115.603 778.181 Q117.686 779.316 119.908 779.871 Q122.13 780.427 124.607 780.427 Q128.612 780.427 130.95 778.32 Q133.288 776.214 133.288 772.603 Q133.288 768.992 130.95 766.885 Q128.612 764.779 124.607 764.779 Q122.732 764.779 120.857 765.195 Q119.006 765.612 117.061 766.492 L117.061 749.131 Z" fill="#000000" fill-rule="nonzero" fill-opacity="1" /><path clip-path="url(#clip770)" d="M157.177 752.209 Q153.566 752.209 151.737 755.774 Q149.931 759.316 149.931 766.445 Q149.931 773.552 151.737 777.117 Q153.566 780.658 157.177 780.658 Q160.811 780.658 162.616 777.117 Q164.445 773.552 164.445 766.445 Q164.445 759.316 162.616 755.774 Q160.811 752.209 157.177 752.209 M157.177 748.506 Q162.987 748.506 166.042 753.112 Q169.121 757.695 169.121 766.445 Q169.121 775.172 166.042 779.779 Q162.987 784.362 157.177 784.362 Q151.366 784.362 148.288 779.779 Q145.232 775.172 145.232 766.445 Q145.232 757.695 148.288 753.112 Q151.366 748.506 157.177 748.506 Z" fill="#000000" fill-rule="nonzero" fill-opacity="1" /><path clip-path="url(#clip770)" d="M187.338 752.209 Q183.727 752.209 181.899 755.774 Q180.093 759.316 180.093 766.445 Q180.093 773.552 181.899 777.117 Q183.727 780.658 187.338 780.658 Q190.973 780.658 192.778 777.117 Q194.607 773.552 194.607 766.445 Q194.607 759.316 192.778 755.774 Q190.973 752.209 187.338 752.209 M187.338 748.506 Q193.149 748.506 196.204 753.112 Q199.283 757.695 199.283 766.445 Q199.283 775.172 196.204 779.779 Q193.149 784.362 187.338 784.362 Q181.528 784.362 178.45 779.779 Q175.394 775.172 175.394 766.445 Q175.394 757.695 178.45 753.112 Q181.528 748.506 187.338 748.506 Z" fill="#000000" fill-rule="nonzero" fill-opacity="1" /><path clip-path="url(#clip770)" d="M217.5 752.209 Q213.889 752.209 212.061 755.774 Q210.255 759.316 210.255 766.445 Q210.255 773.552 212.061 777.117 Q213.889 780.658 217.5 780.658 Q221.135 780.658 222.94 777.117 Q224.769 773.552 224.769 766.445 Q224.769 759.316 222.94 755.774 Q221.135 752.209 217.5 752.209 M217.5 748.506 Q223.31 748.506 226.366 753.112 Q229.445 757.695 229.445 766.445 Q229.445 775.172 226.366 779.779 Q223.31 784.362 217.5 784.362 Q211.69 784.362 208.612 779.779 Q205.556 775.172 205.556 766.445 Q205.556 757.695 208.612 753.112 Q211.69 748.506 217.5 748.506 Z" fill="#000000" fill-rule="nonzero" fill-opacity="1" /><path clip-path="url(#clip770)" d="M127.593 440.813 Q124.445 440.813 122.593 442.965 Q120.765 445.118 120.765 448.868 Q120.765 452.595 122.593 454.771 Q124.445 456.924 127.593 456.924 Q130.742 456.924 132.57 454.771 Q134.422 452.595 134.422 448.868 Q134.422 445.118 132.57 442.965 Q130.742 440.813 127.593 440.813 M136.876 426.16 L136.876 430.419 Q135.117 429.586 133.311 429.146 Q131.529 428.706 129.769 428.706 Q125.14 428.706 122.686 431.831 Q120.255 434.956 119.908 441.276 Q121.274 439.262 123.334 438.197 Q125.394 437.109 127.871 437.109 Q133.08 437.109 136.089 440.28 Q139.121 443.428 139.121 448.868 Q139.121 454.192 135.973 457.41 Q132.825 460.627 127.593 460.627 Q121.598 460.627 118.427 456.044 Q115.256 451.438 115.256 442.711 Q115.256 434.516 119.144 429.655 Q123.033 424.771 129.584 424.771 Q131.343 424.771 133.126 425.118 Q134.931 425.465 136.876 426.16 Z" fill="#000000" fill-rule="nonzero" fill-opacity="1" /><path clip-path="url(#clip770)" d="M157.177 428.475 Q153.566 428.475 151.737 432.039 Q149.931 435.581 149.931 442.711 Q149.931 449.817 151.737 453.382 Q153.566 456.924 157.177 456.924 Q160.811 456.924 162.616 453.382 Q164.445 449.817 164.445 442.711 Q164.445 435.581 162.616 432.039 Q160.811 428.475 157.177 428.475 M157.177 424.771 Q162.987 424.771 166.042 429.377 Q169.121 433.961 169.121 442.711 Q169.121 451.438 166.042 456.044 Q162.987 460.627 157.177 460.627 Q151.366 460.627 148.288 456.044 Q145.232 451.438 145.232 442.711 Q145.232 433.961 148.288 429.377 Q151.366 424.771 157.177 424.771 Z" fill="#000000" fill-rule="nonzero" fill-opacity="1" /><path clip-path="url(#clip770)" d="M187.338 428.475 Q183.727 428.475 181.899 432.039 Q180.093 435.581 180.093 442.711 Q180.093 449.817 181.899 453.382 Q183.727 456.924 187.338 456.924 Q190.973 456.924 192.778 453.382 Q194.607 449.817 194.607 442.711 Q194.607 435.581 192.778 432.039 Q190.973 428.475 187.338 428.475 M187.338 424.771 Q193.149 424.771 196.204 429.377 Q199.283 433.961 199.283 442.711 Q199.283 451.438 196.204 456.044 Q193.149 460.627 187.338 460.627 Q181.528 460.627 178.45 456.044 Q175.394 451.438 175.394 442.711 Q175.394 433.961 178.45 429.377 Q181.528 424.771 187.338 424.771 Z" fill="#000000" fill-rule="nonzero" fill-opacity="1" /><path clip-path="url(#clip770)" d="M217.5 428.475 Q213.889 428.475 212.061 432.039 Q210.255 435.581 210.255 442.711 Q210.255 449.817 212.061 453.382 Q213.889 456.924 217.5 456.924 Q221.135 456.924 222.94 453.382 Q224.769 449.817 224.769 442.711 Q224.769 435.581 222.94 432.039 Q221.135 428.475 217.5 428.475 M217.5 424.771 Q223.31 424.771 226.366 429.377 Q229.445 433.961 229.445 442.711 Q229.445 451.438 226.366 456.044 Q223.31 460.627 217.5 460.627 Q211.69 460.627 208.612 456.044 Q205.556 451.438 205.556 442.711 Q205.556 433.961 208.612 429.377 Q211.69 424.771 217.5 424.771 Z" fill="#000000" fill-rule="nonzero" fill-opacity="1" /><path clip-path="url(#clip770)" d="M44.7161 976.026 L47.5806 976.026 L47.5806 1002.95 Q53.6281 1002.57 56.8109 999.324 Q59.9619 996.046 59.9619 990.222 Q59.9619 986.848 59.1344 983.697 Q58.3069 980.514 56.6518 977.395 L62.1899 977.395 Q63.5267 980.546 64.227 983.856 Q64.9272 987.166 64.9272 990.572 Q64.9272 999.102 59.9619 1004.1 Q54.9967 1009.06 46.5303 1009.06 Q37.7774 1009.06 32.6531 1004.35 Q27.4968 999.611 27.4968 991.59 Q27.4968 984.397 32.1438 980.227 Q36.7589 976.026 44.7161 976.026 M42.9973 981.882 Q38.1912 981.946 35.3266 984.588 Q32.4621 987.198 32.4621 991.526 Q32.4621 996.428 35.2312 999.388 Q38.0002 1002.32 43.0292 1002.76 L42.9973 981.882 Z" fill="#000000" fill-rule="nonzero" fill-opacity="1" /><path clip-path="url(#clip770)" d="M29.4065 943.688 L34.9447 943.688 Q33.6716 946.171 33.035 948.844 Q32.3984 951.518 32.3984 954.383 Q32.3984 958.743 33.7352 960.939 Q35.072 963.104 37.7456 963.104 Q39.7826 963.104 40.9603 961.544 Q42.1061 959.984 43.1565 955.274 L43.6021 953.269 Q44.9389 947.03 47.3897 944.42 Q49.8086 941.778 54.1691 941.778 Q59.1344 941.778 62.0308 945.725 Q64.9272 949.64 64.9272 956.515 Q64.9272 959.38 64.3543 962.499 Q63.8132 965.586 62.6992 969.024 L56.6518 969.024 Q58.3387 965.777 59.198 962.626 Q60.0256 959.475 60.0256 956.388 Q60.0256 952.25 58.6251 950.022 Q57.1929 947.794 54.6147 947.794 Q52.2276 947.794 50.9545 949.417 Q49.6813 951.009 48.5037 956.451 L48.0262 958.488 Q46.8804 963.931 44.5251 966.35 Q42.138 968.769 38.0002 968.769 Q32.9713 968.769 30.2341 965.204 Q27.4968 961.64 27.4968 955.083 Q27.4968 951.836 27.9743 948.972 Q28.4517 946.107 29.4065 943.688 Z" fill="#000000" fill-rule="nonzero" fill-opacity="1" /><path clip-path="url(#clip770)" d="M18.2347 926.66 L28.3562 926.66 L28.3562 914.597 L32.9077 914.597 L32.9077 926.66 L52.2594 926.66 Q56.6199 926.66 57.8613 925.482 Q59.1026 924.273 59.1026 920.613 L59.1026 914.597 L64.0042 914.597 L64.0042 920.613 Q64.0042 927.392 61.4897 929.97 Q58.9434 932.548 52.2594 932.548 L32.9077 932.548 L32.9077 936.845 L28.3562 936.845 L28.3562 932.548 L18.2347 932.548 L18.2347 926.66 Z" fill="#000000" fill-rule="nonzero" fill-opacity="1" /><path clip-path="url(#clip770)" d="M55.9197 906.067 L55.9197 899.351 L64.0042 899.351 L64.0042 906.067 L55.9197 906.067 Z" fill="#000000" fill-rule="nonzero" fill-opacity="1" /><path clip-path="url(#clip770)" d="M33.7671 841.996 L14.479 841.996 L14.479 836.14 L64.0042 836.14 L64.0042 841.996 L58.657 841.996 Q61.8398 843.842 63.3994 846.675 Q64.9272 849.476 64.9272 853.422 Q64.9272 859.884 59.771 863.958 Q54.6147 868 46.212 868 Q37.8093 868 32.6531 863.958 Q27.4968 859.884 27.4968 853.422 Q27.4968 849.476 29.0564 846.675 Q30.5842 843.842 33.7671 841.996 M46.212 861.953 Q52.6732 861.953 56.3653 859.311 Q60.0256 856.637 60.0256 851.99 Q60.0256 847.343 56.3653 844.67 Q52.6732 841.996 46.212 841.996 Q39.7508 841.996 36.0905 844.67 Q32.3984 847.343 32.3984 851.99 Q32.3984 856.637 36.0905 859.311 Q39.7508 861.953 46.212 861.953 Z" fill="#000000" fill-rule="nonzero" fill-opacity="1" /><path clip-path="url(#clip770)" d="M46.0847 807.876 Q46.0847 814.974 47.7079 817.711 Q49.3312 820.448 53.2461 820.448 Q56.3653 820.448 58.2114 818.411 Q60.0256 816.342 60.0256 812.809 Q60.0256 807.94 56.5881 805.011 Q53.1188 802.051 47.3897 802.051 L46.0847 802.051 L46.0847 807.876 M43.6657 796.195 L64.0042 796.195 L64.0042 802.051 L58.5933 802.051 Q61.8398 804.056 63.3994 807.048 Q64.9272 810.04 64.9272 814.369 Q64.9272 819.843 61.8716 823.09 Q58.7843 826.305 53.6281 826.305 Q47.6125 826.305 44.5569 822.294 Q41.5014 818.252 41.5014 810.263 L41.5014 802.051 L40.9285 802.051 Q36.8862 802.051 34.6901 804.725 Q32.4621 807.367 32.4621 812.173 Q32.4621 815.228 33.1941 818.125 Q33.9262 821.021 35.3903 823.695 L29.9795 823.695 Q28.7381 820.48 28.1334 817.456 Q27.4968 814.433 27.4968 811.568 Q27.4968 803.834 31.5072 800.014 Q35.5176 796.195 43.6657 796.195 Z" fill="#000000" fill-rule="nonzero" fill-opacity="1" /><path clip-path="url(#clip770)" d="M28.3562 784.132 L28.3562 778.275 L64.0042 778.275 L64.0042 784.132 L28.3562 784.132 M14.479 784.132 L14.479 778.275 L21.895 778.275 L21.895 784.132 L14.479 784.132 Z" fill="#000000" fill-rule="nonzero" fill-opacity="1" /><path clip-path="url(#clip770)" d="M14.479 766.021 L14.479 760.165 L64.0042 760.165 L64.0042 766.021 L14.479 766.021 Z" fill="#000000" fill-rule="nonzero" fill-opacity="1" /><path clip-path="url(#clip770)" d="M67.3143 733.079 Q73.68 735.561 75.6216 737.917 Q77.5631 740.272 77.5631 744.219 L77.5631 748.898 L72.6615 748.898 L72.6615 745.46 Q72.6615 743.041 71.5157 741.704 Q70.3699 740.368 66.1048 738.744 L63.4312 737.694 L28.3562 752.112 L28.3562 745.906 L56.238 734.766 L28.3562 723.626 L28.3562 717.419 L67.3143 733.079 Z" fill="#000000" fill-rule="nonzero" fill-opacity="1" /><path clip-path="url(#clip770)" d="M33.8307 667.958 Q33.2578 668.944 33.0032 670.122 Q32.7167 671.268 32.7167 672.668 Q32.7167 677.633 35.9632 680.307 Q39.1779 682.949 45.2253 682.949 L64.0042 682.949 L64.0042 688.837 L28.3562 688.837 L28.3562 682.949 L33.8944 682.949 Q30.6479 681.103 29.0883 678.143 Q27.4968 675.183 27.4968 670.95 Q27.4968 670.345 27.5923 669.613 Q27.656 668.881 27.8151 667.989 L33.8307 667.958 Z" fill="#000000" fill-rule="nonzero" fill-opacity="1" /><path clip-path="url(#clip770)" d="M28.3562 661.815 L28.3562 655.958 L64.0042 655.958 L64.0042 661.815 L28.3562 661.815 M14.479 661.815 L14.479 655.958 L21.895 655.958 L21.895 661.815 L14.479 661.815 Z" fill="#000000" fill-rule="nonzero" fill-opacity="1" /><path clip-path="url(#clip770)" d="M33.7671 620.247 L14.479 620.247 L14.479 614.39 L64.0042 614.39 L64.0042 620.247 L58.657 620.247 Q61.8398 622.093 63.3994 624.925 Q64.9272 627.726 64.9272 631.673 Q64.9272 638.134 59.771 642.208 Q54.6147 646.251 46.212 646.251 Q37.8093 646.251 32.6531 642.208 Q27.4968 638.134 27.4968 631.673 Q27.4968 627.726 29.0564 624.925 Q30.5842 622.093 33.7671 620.247 M46.212 640.203 Q52.6732 640.203 56.3653 637.561 Q60.0256 634.888 60.0256 630.241 Q60.0256 625.594 56.3653 622.92 Q52.6732 620.247 46.212 620.247 Q39.7508 620.247 36.0905 622.92 Q32.3984 625.594 32.3984 630.241 Q32.3984 634.888 36.0905 637.561 Q39.7508 640.203 46.212 640.203 Z" fill="#000000" fill-rule="nonzero" fill-opacity="1" /><path clip-path="url(#clip770)" d="M44.7161 571.835 L47.5806 571.835 L47.5806 598.762 Q53.6281 598.38 56.8109 595.134 Q59.9619 591.856 59.9619 586.031 Q59.9619 582.657 59.1344 579.506 Q58.3069 576.323 56.6518 573.204 L62.1899 573.204 Q63.5267 576.355 64.227 579.665 Q64.9272 582.975 64.9272 586.381 Q64.9272 594.911 59.9619 599.908 Q54.9967 604.873 46.5303 604.873 Q37.7774 604.873 32.6531 600.163 Q27.4968 595.42 27.4968 587.4 Q27.4968 580.206 32.1438 576.037 Q36.7589 571.835 44.7161 571.835 M42.9973 577.692 Q38.1912 577.756 35.3266 580.397 Q32.4621 583.007 32.4621 587.336 Q32.4621 592.238 35.2312 595.198 Q38.0002 598.126 43.0292 598.571 L42.9973 577.692 Z" fill="#000000" fill-rule="nonzero" fill-opacity="1" /><path clip-path="url(#clip770)" d="M29.4065 539.498 L34.9447 539.498 Q33.6716 541.98 33.035 544.654 Q32.3984 547.327 32.3984 550.192 Q32.3984 554.553 33.7352 556.749 Q35.072 558.913 37.7456 558.913 Q39.7826 558.913 40.9603 557.353 Q42.1061 555.794 43.1565 551.083 L43.6021 549.078 Q44.9389 542.84 47.3897 540.23 Q49.8086 537.588 54.1691 537.588 Q59.1344 537.588 62.0308 541.535 Q64.9272 545.45 64.9272 552.325 Q64.9272 555.189 64.3543 558.308 Q63.8132 561.396 62.6992 564.833 L56.6518 564.833 Q58.3387 561.587 59.198 558.436 Q60.0256 555.285 60.0256 552.197 Q60.0256 548.06 58.6251 545.832 Q57.1929 543.604 54.6147 543.604 Q52.2276 543.604 50.9545 545.227 Q49.6813 546.818 48.5037 552.261 L48.0262 554.298 Q46.8804 559.741 44.5251 562.16 Q42.138 564.579 38.0002 564.579 Q32.9713 564.579 30.2341 561.014 Q27.4968 557.449 27.4968 550.892 Q27.4968 547.646 27.9743 544.781 Q28.4517 541.917 29.4065 539.498 Z" fill="#000000" fill-rule="nonzero" fill-opacity="1" /><path clip-path="url(#clip770)" d="M642.058 12.096 L680.299 12.096 L680.299 18.9825 L650.241 18.9825 L650.241 36.8875 L679.043 36.8875 L679.043 43.7741 L650.241 43.7741 L650.241 65.6895 L681.028 65.6895 L681.028 72.576 L642.058 72.576 L642.058 12.096 Z" fill="#000000" fill-rule="nonzero" fill-opacity="1" /><path clip-path="url(#clip770)" d="M723.076 28.5427 L723.076 35.5912 Q719.917 33.9709 716.514 33.1607 Q713.111 32.3505 709.465 32.3505 Q703.915 32.3505 701.12 34.0519 Q698.366 35.7533 698.366 39.156 Q698.366 41.7486 700.351 43.2475 Q702.336 44.7058 708.331 46.0426 L710.883 46.6097 Q718.823 48.3111 722.145 51.4303 Q725.507 54.509 725.507 60.0587 Q725.507 66.3781 720.484 70.0644 Q715.501 73.7508 706.751 73.7508 Q703.105 73.7508 699.135 73.0216 Q695.206 72.3329 690.831 70.9151 L690.831 63.2184 Q694.963 65.3654 698.973 66.4591 Q702.984 67.5124 706.913 67.5124 Q712.179 67.5124 715.015 65.73 Q717.851 63.9071 717.851 60.6258 Q717.851 57.5877 715.785 55.9673 Q713.759 54.3469 706.832 52.8481 L704.24 52.2405 Q697.313 50.7821 694.234 47.7845 Q691.155 44.7463 691.155 39.4801 Q691.155 33.0797 695.692 29.5959 Q700.229 26.1121 708.574 26.1121 Q712.706 26.1121 716.352 26.7198 Q719.998 27.3274 723.076 28.5427 Z" fill="#000000" fill-rule="nonzero" fill-opacity="1" /><path clip-path="url(#clip770)" d="M744.749 14.324 L744.749 27.2059 L760.102 27.2059 L760.102 32.9987 L744.749 32.9987 L744.749 57.6282 Q744.749 63.1779 746.247 64.7578 Q747.787 66.3376 752.445 66.3376 L760.102 66.3376 L760.102 72.576 L752.445 72.576 Q743.817 72.576 740.536 69.3758 Q737.254 66.1351 737.254 57.6282 L737.254 32.9987 L731.786 32.9987 L731.786 27.2059 L737.254 27.2059 L737.254 14.324 L744.749 14.324 Z" fill="#000000" fill-rule="nonzero" fill-opacity="1" /><path clip-path="url(#clip770)" d="M790.929 27.2059 L798.828 27.2059 L813.006 65.2844 L827.184 27.2059 L835.084 27.2059 L818.07 72.576 L807.943 72.576 L790.929 27.2059 Z" fill="#000000" fill-rule="nonzero" fill-opacity="1" /><path clip-path="url(#clip770)" d="M874.297 28.5427 L874.297 35.5912 Q871.137 33.9709 867.734 33.1607 Q864.331 32.3505 860.685 32.3505 Q855.136 32.3505 852.341 34.0519 Q849.586 35.7533 849.586 39.156 Q849.586 41.7486 851.571 43.2475 Q853.556 44.7058 859.551 46.0426 L862.103 46.6097 Q870.043 48.3111 873.365 51.4303 Q876.727 54.509 876.727 60.0587 Q876.727 66.3781 871.704 70.0644 Q866.721 73.7508 857.971 73.7508 Q854.326 73.7508 850.356 73.0216 Q846.426 72.3329 842.051 70.9151 L842.051 63.2184 Q846.183 65.3654 850.194 66.4591 Q854.204 67.5124 858.133 67.5124 Q863.4 67.5124 866.235 65.73 Q869.071 63.9071 869.071 60.6258 Q869.071 57.5877 867.005 55.9673 Q864.979 54.3469 858.052 52.8481 L855.46 52.2405 Q848.533 50.7821 845.454 47.7845 Q842.375 44.7463 842.375 39.4801 Q842.375 33.0797 846.912 29.5959 Q851.449 26.1121 859.794 26.1121 Q863.926 26.1121 867.572 26.7198 Q871.218 27.3274 874.297 28.5427 Z" fill="#000000" fill-rule="nonzero" fill-opacity="1" /><path clip-path="url(#clip770)" d="M889.649 62.2867 L898.197 62.2867 L898.197 72.576 L889.649 72.576 L889.649 62.2867 Z" fill="#000000" fill-rule="nonzero" fill-opacity="1" /><path clip-path="url(#clip770)" d="M958.92 32.4315 Q952.925 32.4315 949.441 37.1306 Q945.957 41.7891 945.957 49.9314 Q945.957 58.0738 949.4 62.7728 Q952.884 67.4314 958.92 67.4314 Q964.875 67.4314 968.359 62.7323 Q971.842 58.0333 971.842 49.9314 Q971.842 41.8701 968.359 37.1711 Q964.875 32.4315 958.92 32.4315 M958.92 26.1121 Q968.642 26.1121 974.192 32.4315 Q979.742 38.7509 979.742 49.9314 Q979.742 61.0714 974.192 67.4314 Q968.642 73.7508 958.92 73.7508 Q949.157 73.7508 943.607 67.4314 Q938.098 61.0714 938.098 49.9314 Q938.098 38.7509 943.607 32.4315 Q949.157 26.1121 958.92 26.1121 Z" fill="#000000" fill-rule="nonzero" fill-opacity="1" /><path clip-path="url(#clip770)" d="M1024.67 49.9314 Q1024.67 41.7081 1021.26 37.0496 Q1017.9 32.3505 1011.99 32.3505 Q1006.07 32.3505 1002.67 37.0496 Q999.307 41.7081 999.307 49.9314 Q999.307 58.1548 1002.67 62.8538 Q1006.07 67.5124 1011.99 67.5124 Q1017.9 67.5124 1021.26 62.8538 Q1024.67 58.1548 1024.67 49.9314 M999.307 34.0924 Q1001.66 30.0415 1005.22 28.0971 Q1008.83 26.1121 1013.81 26.1121 Q1022.07 26.1121 1027.22 32.6746 Q1032.4 39.2371 1032.4 49.9314 Q1032.4 60.6258 1027.22 67.1883 Q1022.07 73.7508 1013.81 73.7508 Q1008.83 73.7508 1005.22 71.8063 Q1001.66 69.8214 999.307 65.7705 L999.307 72.576 L991.813 72.576 L991.813 9.54393 L999.307 9.54393 L999.307 34.0924 Z" fill="#000000" fill-rule="nonzero" fill-opacity="1" /><path clip-path="url(#clip770)" d="M1073.68 28.5427 L1073.68 35.5912 Q1070.52 33.9709 1067.12 33.1607 Q1063.72 32.3505 1060.07 32.3505 Q1054.52 32.3505 1051.73 34.0519 Q1048.97 35.7533 1048.97 39.156 Q1048.97 41.7486 1050.96 43.2475 Q1052.94 44.7058 1058.94 46.0426 L1061.49 46.6097 Q1069.43 48.3111 1072.75 51.4303 Q1076.11 54.509 1076.11 60.0587 Q1076.11 66.3781 1071.09 70.0644 Q1066.11 73.7508 1057.36 73.7508 Q1053.71 73.7508 1049.74 73.0216 Q1045.81 72.3329 1041.44 70.9151 L1041.44 63.2184 Q1045.57 65.3654 1049.58 66.4591 Q1053.59 67.5124 1057.52 67.5124 Q1062.79 67.5124 1065.62 65.73 Q1068.46 63.9071 1068.46 60.6258 Q1068.46 57.5877 1066.39 55.9673 Q1064.36 54.3469 1057.44 52.8481 L1054.85 52.2405 Q1047.92 50.7821 1044.84 47.7845 Q1041.76 44.7463 1041.76 39.4801 Q1041.76 33.0797 1046.3 29.5959 Q1050.83 26.1121 1059.18 26.1121 Q1063.31 26.1121 1066.96 26.7198 Q1070.6 27.3274 1073.68 28.5427 Z" fill="#000000" fill-rule="nonzero" fill-opacity="1" /><path clip-path="url(#clip770)" d="M1114.35 27.2059 L1121.81 27.2059 L1121.81 72.576 L1114.35 72.576 L1114.35 27.2059 M1114.35 9.54393 L1121.81 9.54393 L1121.81 18.9825 L1114.35 18.9825 L1114.35 9.54393 Z" fill="#000000" fill-rule="nonzero" fill-opacity="1" /><path clip-path="url(#clip770)" d="M1175.12 45.1919 L1175.12 72.576 L1167.66 72.576 L1167.66 45.4349 Q1167.66 38.994 1165.15 35.7938 Q1162.64 32.5936 1157.62 32.5936 Q1151.58 32.5936 1148.1 36.4419 Q1144.61 40.2903 1144.61 46.9338 L1144.61 72.576 L1137.12 72.576 L1137.12 27.2059 L1144.61 27.2059 L1144.61 34.2544 Q1147.29 30.163 1150.89 28.1376 Q1154.54 26.1121 1159.28 26.1121 Q1167.1 26.1121 1171.11 30.9732 Q1175.12 35.7938 1175.12 45.1919 Z" fill="#000000" fill-rule="nonzero" fill-opacity="1" /><path clip-path="url(#clip770)" d="M1223.73 14.324 L1223.73 27.2059 L1239.08 27.2059 L1239.08 32.9987 L1223.73 32.9987 L1223.73 57.6282 Q1223.73 63.1779 1225.23 64.7578 Q1226.77 66.3376 1231.42 66.3376 L1239.08 66.3376 L1239.08 72.576 L1231.42 72.576 Q1222.8 72.576 1219.51 69.3758 Q1216.23 66.1351 1216.23 57.6282 L1216.23 32.9987 L1210.76 32.9987 L1210.76 27.2059 L1216.23 27.2059 L1216.23 14.324 L1223.73 14.324 Z" fill="#000000" fill-rule="nonzero" fill-opacity="1" /><path clip-path="url(#clip770)" d="M1287.69 48.0275 L1287.69 51.6733 L1253.42 51.6733 Q1253.91 59.3701 1258.04 63.421 Q1262.21 67.4314 1269.62 67.4314 Q1273.92 67.4314 1277.93 66.3781 Q1281.98 65.3249 1285.95 63.2184 L1285.95 70.267 Q1281.94 71.9684 1277.73 72.8596 Q1273.51 73.7508 1269.18 73.7508 Q1258.32 73.7508 1251.96 67.4314 Q1245.64 61.1119 1245.64 50.3365 Q1245.64 39.1965 1251.64 32.6746 Q1257.67 26.1121 1267.88 26.1121 Q1277.04 26.1121 1282.34 32.0264 Q1287.69 37.9003 1287.69 48.0275 M1280.24 45.84 Q1280.16 39.7232 1276.79 36.0774 Q1273.47 32.4315 1267.96 32.4315 Q1261.72 32.4315 1257.96 35.9558 Q1254.23 39.4801 1253.66 45.8805 L1280.24 45.84 Z" fill="#000000" fill-rule="nonzero" fill-opacity="1" /><path clip-path="url(#clip770)" d="M1328.85 28.5427 L1328.85 35.5912 Q1325.69 33.9709 1322.29 33.1607 Q1318.88 32.3505 1315.24 32.3505 Q1309.69 32.3505 1306.89 34.0519 Q1304.14 35.7533 1304.14 39.156 Q1304.14 41.7486 1306.12 43.2475 Q1308.11 44.7058 1314.1 46.0426 L1316.66 46.6097 Q1324.6 48.3111 1327.92 51.4303 Q1331.28 54.509 1331.28 60.0587 Q1331.28 66.3781 1326.26 70.0644 Q1321.27 73.7508 1312.52 73.7508 Q1308.88 73.7508 1304.91 73.0216 Q1300.98 72.3329 1296.6 70.9151 L1296.6 63.2184 Q1300.74 65.3654 1304.75 66.4591 Q1308.76 67.5124 1312.69 67.5124 Q1317.95 67.5124 1320.79 65.73 Q1323.62 63.9071 1323.62 60.6258 Q1323.62 57.5877 1321.56 55.9673 Q1319.53 54.3469 1312.6 52.8481 L1310.01 52.2405 Q1303.08 50.7821 1300.01 47.7845 Q1296.93 44.7463 1296.93 39.4801 Q1296.93 33.0797 1301.46 29.5959 Q1306 26.1121 1314.35 26.1121 Q1318.48 26.1121 1322.12 26.7198 Q1325.77 27.3274 1328.85 28.5427 Z" fill="#000000" fill-rule="nonzero" fill-opacity="1" /><path clip-path="url(#clip770)" d="M1350.52 14.324 L1350.52 27.2059 L1365.87 27.2059 L1365.87 32.9987 L1350.52 32.9987 L1350.52 57.6282 Q1350.52 63.1779 1352.02 64.7578 Q1353.56 66.3376 1358.22 66.3376 L1365.87 66.3376 L1365.87 72.576 L1358.22 72.576 Q1349.59 72.576 1346.31 69.3758 Q1343.03 66.1351 1343.03 57.6282 L1343.03 32.9987 L1337.56 32.9987 L1337.56 27.2059 L1343.03 27.2059 L1343.03 14.324 L1350.52 14.324 Z" fill="#000000" fill-rule="nonzero" fill-opacity="1" /><path clip-path="url(#clip770)" d="M1375.68 27.2059 L1383.13 27.2059 L1383.13 72.576 L1375.68 72.576 L1375.68 27.2059 M1375.68 9.54393 L1383.13 9.54393 L1383.13 18.9825 L1375.68 18.9825 L1375.68 9.54393 Z" fill="#000000" fill-rule="nonzero" fill-opacity="1" /><path clip-path="url(#clip770)" d="M1436.44 45.1919 L1436.44 72.576 L1428.99 72.576 L1428.99 45.4349 Q1428.99 38.994 1426.48 35.7938 Q1423.96 32.5936 1418.94 32.5936 Q1412.9 32.5936 1409.42 36.4419 Q1405.94 40.2903 1405.94 46.9338 L1405.94 72.576 L1398.44 72.576 L1398.44 27.2059 L1405.94 27.2059 L1405.94 34.2544 Q1408.61 30.163 1412.22 28.1376 Q1415.86 26.1121 1420.6 26.1121 Q1428.42 26.1121 1432.43 30.9732 Q1436.44 35.7938 1436.44 45.1919 Z" fill="#000000" fill-rule="nonzero" fill-opacity="1" /><path clip-path="url(#clip770)" d="M1481.16 49.3643 Q1481.16 41.2625 1477.8 36.8065 Q1474.48 32.3505 1468.44 32.3505 Q1462.45 32.3505 1459.09 36.8065 Q1455.76 41.2625 1455.76 49.3643 Q1455.76 57.4256 1459.09 61.8816 Q1462.45 66.3376 1468.44 66.3376 Q1474.48 66.3376 1477.8 61.8816 Q1481.16 57.4256 1481.16 49.3643 M1488.62 66.9452 Q1488.62 78.5308 1483.47 84.1616 Q1478.33 89.8329 1467.71 89.8329 Q1463.78 89.8329 1460.3 89.2252 Q1456.82 88.6581 1453.54 87.4428 L1453.54 80.1917 Q1456.82 81.9741 1460.02 82.8248 Q1463.22 83.6755 1466.54 83.6755 Q1473.87 83.6755 1477.52 79.8271 Q1481.16 76.0193 1481.16 68.282 L1481.16 64.5957 Q1478.85 68.6061 1475.25 70.5911 Q1471.64 72.576 1466.62 72.576 Q1458.27 72.576 1453.17 66.2161 Q1448.07 59.8562 1448.07 49.3643 Q1448.07 38.832 1453.17 32.472 Q1458.27 26.1121 1466.62 26.1121 Q1471.64 26.1121 1475.25 28.0971 Q1478.85 30.082 1481.16 34.0924 L1481.16 27.2059 L1488.62 27.2059 L1488.62 66.9452 Z" fill="#000000" fill-rule="nonzero" fill-opacity="1" /><path clip-path="url(#clip770)" d="M1537.55 65.7705 L1537.55 89.8329 L1530.06 89.8329 L1530.06 27.2059 L1537.55 27.2059 L1537.55 34.0924 Q1539.9 30.0415 1543.47 28.0971 Q1547.07 26.1121 1552.05 26.1121 Q1560.32 26.1121 1565.46 32.6746 Q1570.65 39.2371 1570.65 49.9314 Q1570.65 60.6258 1565.46 67.1883 Q1560.32 73.7508 1552.05 73.7508 Q1547.07 73.7508 1543.47 71.8063 Q1539.9 69.8214 1537.55 65.7705 M1562.91 49.9314 Q1562.91 41.7081 1559.51 37.0496 Q1556.14 32.3505 1550.23 32.3505 Q1544.32 32.3505 1540.91 37.0496 Q1537.55 41.7081 1537.55 49.9314 Q1537.55 58.1548 1540.91 62.8538 Q1544.32 67.5124 1550.23 67.5124 Q1556.14 67.5124 1559.51 62.8538 Q1562.91 58.1548 1562.91 49.9314 Z" fill="#000000" fill-rule="nonzero" fill-opacity="1" /><path clip-path="url(#clip770)" d="M1621.81 48.0275 L1621.81 51.6733 L1587.54 51.6733 Q1588.03 59.3701 1592.16 63.421 Q1596.33 67.4314 1603.74 67.4314 Q1608.04 67.4314 1612.05 66.3781 Q1616.1 65.3249 1620.07 63.2184 L1620.07 70.267 Q1616.06 71.9684 1611.84 72.8596 Q1607.63 73.7508 1603.3 73.7508 Q1592.44 73.7508 1586.08 67.4314 Q1579.76 61.1119 1579.76 50.3365 Q1579.76 39.1965 1585.76 32.6746 Q1591.79 26.1121 1602 26.1121 Q1611.16 26.1121 1616.46 32.0264 Q1621.81 37.9003 1621.81 48.0275 M1614.36 45.84 Q1614.28 39.7232 1610.91 36.0774 Q1607.59 32.4315 1602.08 32.4315 Q1595.84 32.4315 1592.08 35.9558 Q1588.35 39.4801 1587.78 45.8805 L1614.36 45.84 Z" fill="#000000" fill-rule="nonzero" fill-opacity="1" /><path clip-path="url(#clip770)" d="M1660.33 34.1734 Q1659.08 33.4443 1657.58 33.1202 Q1656.12 32.7556 1654.34 32.7556 Q1648.02 32.7556 1644.62 36.8875 Q1641.25 40.9789 1641.25 48.6757 L1641.25 72.576 L1633.76 72.576 L1633.76 27.2059 L1641.25 27.2059 L1641.25 34.2544 Q1643.6 30.1225 1647.37 28.1376 Q1651.14 26.1121 1656.53 26.1121 Q1657.3 26.1121 1658.23 26.2337 Q1659.16 26.3147 1660.29 26.5172 L1660.33 34.1734 Z" fill="#000000" fill-rule="nonzero" fill-opacity="1" /><path clip-path="url(#clip770)" d="M1668.15 27.2059 L1675.61 27.2059 L1675.61 72.576 L1668.15 72.576 L1668.15 27.2059 M1668.15 9.54393 L1675.61 9.54393 L1675.61 18.9825 L1668.15 18.9825 L1668.15 9.54393 Z" fill="#000000" fill-rule="nonzero" fill-opacity="1" /><path clip-path="url(#clip770)" d="M1708.78 32.4315 Q1702.79 32.4315 1699.3 37.1306 Q1695.82 41.7891 1695.82 49.9314 Q1695.82 58.0738 1699.26 62.7728 Q1702.75 67.4314 1708.78 67.4314 Q1714.74 67.4314 1718.22 62.7323 Q1721.71 58.0333 1721.71 49.9314 Q1721.71 41.8701 1718.22 37.1711 Q1714.74 32.4315 1708.78 32.4315 M1708.78 26.1121 Q1718.5 26.1121 1724.05 32.4315 Q1729.6 38.7509 1729.6 49.9314 Q1729.6 61.0714 1724.05 67.4314 Q1718.5 73.7508 1708.78 73.7508 Q1699.02 73.7508 1693.47 67.4314 Q1687.96 61.0714 1687.96 49.9314 Q1687.96 38.7509 1693.47 32.4315 Q1699.02 26.1121 1708.78 26.1121 Z" fill="#000000" fill-rule="nonzero" fill-opacity="1" /><path clip-path="url(#clip770)" d="M1771.81 34.0924 L1771.81 9.54393 L1779.27 9.54393 L1779.27 72.576 L1771.81 72.576 L1771.81 65.7705 Q1769.47 69.8214 1765.86 71.8063 Q1762.3 73.7508 1757.27 73.7508 Q1749.05 73.7508 1743.86 67.1883 Q1738.72 60.6258 1738.72 49.9314 Q1738.72 39.2371 1743.86 32.6746 Q1749.05 26.1121 1757.27 26.1121 Q1762.3 26.1121 1765.86 28.0971 Q1769.47 30.0415 1771.81 34.0924 M1746.42 49.9314 Q1746.42 58.1548 1749.78 62.8538 Q1753.18 67.5124 1759.1 67.5124 Q1765.01 67.5124 1768.41 62.8538 Q1771.81 58.1548 1771.81 49.9314 Q1771.81 41.7081 1768.41 37.0496 Q1765.01 32.3505 1759.1 32.3505 Q1753.18 32.3505 1749.78 37.0496 Q1746.42 41.7081 1746.42 49.9314 Z" fill="#000000" fill-rule="nonzero" fill-opacity="1" /><path clip-path="url(#clip770)" d="M1838.9 9.62495 Q1833.47 18.942 1830.84 28.0566 Q1828.2 37.1711 1828.2 46.5287 Q1828.2 55.8863 1830.84 65.0818 Q1833.51 74.2369 1838.9 83.5134 L1832.42 83.5134 Q1826.34 73.9938 1823.3 64.7983 Q1820.3 55.6027 1820.3 46.5287 Q1820.3 37.4952 1823.3 28.3401 Q1826.3 19.1851 1832.42 9.62495 L1838.9 9.62495 Z" fill="#000000" fill-rule="nonzero" fill-opacity="1" /><path clip-path="url(#clip770)" d="M1882.36 44.2197 Q1885 45.1109 1887.47 48.0275 Q1889.98 50.9442 1892.49 56.0483 L1900.8 72.576 L1892.01 72.576 L1884.27 57.061 Q1881.27 50.9847 1878.43 48.9997 Q1875.64 47.0148 1870.78 47.0148 L1861.87 47.0148 L1861.87 72.576 L1853.68 72.576 L1853.68 12.096 L1872.16 12.096 Q1882.53 12.096 1887.63 16.4305 Q1892.73 20.7649 1892.73 29.5149 Q1892.73 35.2267 1890.06 38.994 Q1887.43 42.7613 1882.36 44.2197 M1861.87 18.8205 L1861.87 40.2903 L1872.16 40.2903 Q1878.07 40.2903 1881.07 37.5762 Q1884.11 34.8216 1884.11 29.5149 Q1884.11 24.2082 1881.07 21.5346 Q1878.07 18.8205 1872.16 18.8205 L1861.87 18.8205 Z" fill="#000000" fill-rule="nonzero" fill-opacity="1" /><path clip-path="url(#clip770)" d="M1911.33 12.096 L1946.08 12.096 L1946.08 18.9825 L1919.51 18.9825 L1919.51 36.8065 L1943.49 36.8065 L1943.49 43.6931 L1919.51 43.6931 L1919.51 72.576 L1911.33 72.576 L1911.33 12.096 Z" fill="#000000" fill-rule="nonzero" fill-opacity="1" /><path clip-path="url(#clip770)" d="M1957.55 9.62495 L1964.03 9.62495 Q1970.11 19.1851 1973.1 28.3401 Q1976.14 37.4952 1976.14 46.5287 Q1976.14 55.6027 1973.1 64.7983 Q1970.11 73.9938 1964.03 83.5134 L1957.55 83.5134 Q1962.94 74.2369 1965.57 65.0818 Q1968.24 55.8863 1968.24 46.5287 Q1968.24 37.1711 1965.57 28.0566 Q1962.94 18.942 1957.55 9.62495 Z" fill="#000000" fill-rule="nonzero" fill-opacity="1" /><circle clip-path="url(#clip772)" cx="1730.25" cy="433.626" r="14.4" fill="#009af9" fill-rule="evenodd" fill-opacity="1" stroke="#000000" stroke-opacity="1" stroke-width="3.2"/>
<circle clip-path="url(#clip772)" cx="1828.35" cy="414.79" r="14.4" fill="#009af9" fill-rule="evenodd" fill-opacity="1" stroke="#000000" stroke-opacity="1" stroke-width="3.2"/>
<circle clip-path="url(#clip772)" cx="1996.68" cy="458.604" r="14.4" fill="#009af9" fill-rule="evenodd" fill-opacity="1" stroke="#000000" stroke-opacity="1" stroke-width="3.2"/>
<circle clip-path="url(#clip772)" cx="1733.43" cy="513.985" r="14.4" fill="#009af9" fill-rule="evenodd" fill-opacity="1" stroke="#000000" stroke-opacity="1" stroke-width="3.2"/>
<circle clip-path="url(#clip772)" cx="1725.72" cy="469.304" r="14.4" fill="#009af9" fill-rule="evenodd" fill-opacity="1" stroke="#000000" stroke-opacity="1" stroke-width="3.2"/>
<circle clip-path="url(#clip772)" cx="1416.03" cy="518.556" r="14.4" fill="#009af9" fill-rule="evenodd" fill-opacity="1" stroke="#000000" stroke-opacity="1" stroke-width="3.2"/>
<circle clip-path="url(#clip772)" cx="1377.97" cy="563.173" r="14.4" fill="#009af9" fill-rule="evenodd" fill-opacity="1" stroke="#000000" stroke-opacity="1" stroke-width="3.2"/>
<circle clip-path="url(#clip772)" cx="1807.73" cy="356.223" r="14.4" fill="#009af9" fill-rule="evenodd" fill-opacity="1" stroke="#000000" stroke-opacity="1" stroke-width="3.2"/>
<circle clip-path="url(#clip772)" cx="1744.53" cy="352.687" r="14.4" fill="#009af9" fill-rule="evenodd" fill-opacity="1" stroke="#000000" stroke-opacity="1" stroke-width="3.2"/>
<circle clip-path="url(#clip772)" cx="1965.19" cy="270.452" r="14.4" fill="#009af9" fill-rule="evenodd" fill-opacity="1" stroke="#000000" stroke-opacity="1" stroke-width="3.2"/>
<circle clip-path="url(#clip772)" cx="2006.42" cy="214.517" r="14.4" fill="#009af9" fill-rule="evenodd" fill-opacity="1" stroke="#000000" stroke-opacity="1" stroke-width="3.2"/>
<circle clip-path="url(#clip772)" cx="2018.42" cy="265.778" r="14.4" fill="#009af9" fill-rule="evenodd" fill-opacity="1" stroke="#000000" stroke-opacity="1" stroke-width="3.2"/>
<circle clip-path="url(#clip772)" cx="1898.35" cy="304.613" r="14.4" fill="#009af9" fill-rule="evenodd" fill-opacity="1" stroke="#000000" stroke-opacity="1" stroke-width="3.2"/>
<circle clip-path="url(#clip772)" cx="1685.85" cy="457.413" r="14.4" fill="#009af9" fill-rule="evenodd" fill-opacity="1" stroke="#000000" stroke-opacity="1" stroke-width="3.2"/>
<circle clip-path="url(#clip772)" cx="1866.86" cy="459.52" r="14.4" fill="#009af9" fill-rule="evenodd" fill-opacity="1" stroke="#000000" stroke-opacity="1" stroke-width="3.2"/>
<circle clip-path="url(#clip772)" cx="1856.9" cy="516.156" r="14.4" fill="#009af9" fill-rule="evenodd" fill-opacity="1" stroke="#000000" stroke-opacity="1" stroke-width="3.2"/>
<circle clip-path="url(#clip772)" cx="1613.81" cy="478.826" r="14.4" fill="#009af9" fill-rule="evenodd" fill-opacity="1" stroke="#000000" stroke-opacity="1" stroke-width="3.2"/>
<circle clip-path="url(#clip772)" cx="1812.72" cy="462.998" r="14.4" fill="#009af9" fill-rule="evenodd" fill-opacity="1" stroke="#000000" stroke-opacity="1" stroke-width="3.2"/>
<circle clip-path="url(#clip772)" cx="1649.38" cy="811.056" r="14.4" fill="#009af9" fill-rule="evenodd" fill-opacity="1" stroke="#000000" stroke-opacity="1" stroke-width="3.2"/>
<circle clip-path="url(#clip772)" cx="1329.72" cy="962.878" r="14.4" fill="#009af9" fill-rule="evenodd" fill-opacity="1" stroke="#000000" stroke-opacity="1" stroke-width="3.2"/>
<circle clip-path="url(#clip772)" cx="1998.26" cy="493.202" r="14.4" fill="#009af9" fill-rule="evenodd" fill-opacity="1" stroke="#000000" stroke-opacity="1" stroke-width="3.2"/>
<circle clip-path="url(#clip772)" cx="1897.67" cy="431.937" r="14.4" fill="#009af9" fill-rule="evenodd" fill-opacity="1" stroke="#000000" stroke-opacity="1" stroke-width="3.2"/>
<circle clip-path="url(#clip772)" cx="2039.49" cy="458.122" r="14.4" fill="#009af9" fill-rule="evenodd" fill-opacity="1" stroke="#000000" stroke-opacity="1" stroke-width="3.2"/>
<circle clip-path="url(#clip772)" cx="2171.12" cy="258.101" r="14.4" fill="#009af9" fill-rule="evenodd" fill-opacity="1" stroke="#000000" stroke-opacity="1" stroke-width="3.2"/>
<circle clip-path="url(#clip772)" cx="1873.89" cy="486.048" r="14.4" fill="#009af9" fill-rule="evenodd" fill-opacity="1" stroke="#000000" stroke-opacity="1" stroke-width="3.2"/>
<circle clip-path="url(#clip772)" cx="1883.63" cy="483.101" r="14.4" fill="#009af9" fill-rule="evenodd" fill-opacity="1" stroke="#000000" stroke-opacity="1" stroke-width="3.2"/>
<circle clip-path="url(#clip772)" cx="1834.01" cy="438.168" r="14.4" fill="#009af9" fill-rule="evenodd" fill-opacity="1" stroke="#000000" stroke-opacity="1" stroke-width="3.2"/>
<circle clip-path="url(#clip772)" cx="1814.08" cy="325.106" r="14.4" fill="#009af9" fill-rule="evenodd" fill-opacity="1" stroke="#000000" stroke-opacity="1" stroke-width="3.2"/>
<circle clip-path="url(#clip772)" cx="1929.16" cy="406.181" r="14.4" fill="#009af9" fill-rule="evenodd" fill-opacity="1" stroke="#000000" stroke-opacity="1" stroke-width="3.2"/>
<circle clip-path="url(#clip772)" cx="1954.31" cy="317.602" r="14.4" fill="#009af9" fill-rule="evenodd" fill-opacity="1" stroke="#000000" stroke-opacity="1" stroke-width="3.2"/>
<circle clip-path="url(#clip772)" cx="2036.77" cy="270.17" r="14.4" fill="#009af9" fill-rule="evenodd" fill-opacity="1" stroke="#000000" stroke-opacity="1" stroke-width="3.2"/>
<circle clip-path="url(#clip772)" cx="1964.51" cy="396.211" r="14.4" fill="#009af9" fill-rule="evenodd" fill-opacity="1" stroke="#000000" stroke-opacity="1" stroke-width="3.2"/>
<circle clip-path="url(#clip772)" cx="1945.02" cy="554.009" r="14.4" fill="#009af9" fill-rule="evenodd" fill-opacity="1" stroke="#000000" stroke-opacity="1" stroke-width="3.2"/>
<circle clip-path="url(#clip772)" cx="1865.5" cy="537.43" r="14.4" fill="#009af9" fill-rule="evenodd" fill-opacity="1" stroke="#000000" stroke-opacity="1" stroke-width="3.2"/>
<circle clip-path="url(#clip772)" cx="1557.4" cy="488.107" r="14.4" fill="#009af9" fill-rule="evenodd" fill-opacity="1" stroke="#000000" stroke-opacity="1" stroke-width="3.2"/>
<circle clip-path="url(#clip772)" cx="1908.32" cy="409.271" r="14.4" fill="#009af9" fill-rule="evenodd" fill-opacity="1" stroke="#000000" stroke-opacity="1" stroke-width="3.2"/>
<circle clip-path="url(#clip772)" cx="1967.22" cy="413.6" r="14.4" fill="#009af9" fill-rule="evenodd" fill-opacity="1" stroke="#000000" stroke-opacity="1" stroke-width="3.2"/>
<circle clip-path="url(#clip772)" cx="2026.35" cy="392.92" r="14.4" fill="#009af9" fill-rule="evenodd" fill-opacity="1" stroke="#000000" stroke-opacity="1" stroke-width="3.2"/>
<circle clip-path="url(#clip772)" cx="1970.17" cy="400.557" r="14.4" fill="#009af9" fill-rule="evenodd" fill-opacity="1" stroke="#000000" stroke-opacity="1" stroke-width="3.2"/>
<circle clip-path="url(#clip772)" cx="1630.35" cy="546.434" r="14.4" fill="#009af9" fill-rule="evenodd" fill-opacity="1" stroke="#000000" stroke-opacity="1" stroke-width="3.2"/>
<circle clip-path="url(#clip772)" cx="1746.57" cy="326.105" r="14.4" fill="#009af9" fill-rule="evenodd" fill-opacity="1" stroke="#000000" stroke-opacity="1" stroke-width="3.2"/>
<circle clip-path="url(#clip772)" cx="1802.07" cy="257.209" r="14.4" fill="#009af9" fill-rule="evenodd" fill-opacity="1" stroke="#000000" stroke-opacity="1" stroke-width="3.2"/>
<circle clip-path="url(#clip772)" cx="1878.87" cy="302.178" r="14.4" fill="#009af9" fill-rule="evenodd" fill-opacity="1" stroke="#000000" stroke-opacity="1" stroke-width="3.2"/>
<circle clip-path="url(#clip772)" cx="1856.44" cy="354.882" r="14.4" fill="#009af9" fill-rule="evenodd" fill-opacity="1" stroke="#000000" stroke-opacity="1" stroke-width="3.2"/>
<circle clip-path="url(#clip772)" cx="1983.99" cy="232.57" r="14.4" fill="#009af9" fill-rule="evenodd" fill-opacity="1" stroke="#000000" stroke-opacity="1" stroke-width="3.2"/>
<circle clip-path="url(#clip772)" cx="2042.44" cy="209.273" r="14.4" fill="#009af9" fill-rule="evenodd" fill-opacity="1" stroke="#000000" stroke-opacity="1" stroke-width="3.2"/>
<circle clip-path="url(#clip772)" cx="1938.91" cy="513.393" r="14.4" fill="#009af9" fill-rule="evenodd" fill-opacity="1" stroke="#000000" stroke-opacity="1" stroke-width="3.2"/>
<circle clip-path="url(#clip772)" cx="2101.34" cy="253.717" r="14.4" fill="#009af9" fill-rule="evenodd" fill-opacity="1" stroke="#000000" stroke-opacity="1" stroke-width="3.2"/>
<circle clip-path="url(#clip772)" cx="1350.11" cy="338.468" r="14.4" fill="#009af9" fill-rule="evenodd" fill-opacity="1" stroke="#000000" stroke-opacity="1" stroke-width="3.2"/>
<circle clip-path="url(#clip772)" cx="1798.9" cy="409.071" r="14.4" fill="#009af9" fill-rule="evenodd" fill-opacity="1" stroke="#000000" stroke-opacity="1" stroke-width="3.2"/>
<circle clip-path="url(#clip772)" cx="1906.74" cy="298.969" r="14.4" fill="#009af9" fill-rule="evenodd" fill-opacity="1" stroke="#000000" stroke-opacity="1" stroke-width="3.2"/>
<circle clip-path="url(#clip772)" cx="1990.33" cy="256.585" r="14.4" fill="#009af9" fill-rule="evenodd" fill-opacity="1" stroke="#000000" stroke-opacity="1" stroke-width="3.2"/>
<circle clip-path="url(#clip772)" cx="2078.69" cy="265.617" r="14.4" fill="#009af9" fill-rule="evenodd" fill-opacity="1" stroke="#000000" stroke-opacity="1" stroke-width="3.2"/>
<circle clip-path="url(#clip772)" cx="2037.23" cy="340.838" r="14.4" fill="#009af9" fill-rule="evenodd" fill-opacity="1" stroke="#000000" stroke-opacity="1" stroke-width="3.2"/>
<circle clip-path="url(#clip772)" cx="1690.83" cy="468.715" r="14.4" fill="#009af9" fill-rule="evenodd" fill-opacity="1" stroke="#000000" stroke-opacity="1" stroke-width="3.2"/>
<circle clip-path="url(#clip772)" cx="1510.05" cy="740.389" r="14.4" fill="#009af9" fill-rule="evenodd" fill-opacity="1" stroke="#000000" stroke-opacity="1" stroke-width="3.2"/>
<circle clip-path="url(#clip772)" cx="1886.57" cy="313.014" r="14.4" fill="#009af9" fill-rule="evenodd" fill-opacity="1" stroke="#000000" stroke-opacity="1" stroke-width="3.2"/>
<circle clip-path="url(#clip772)" cx="1914.44" cy="344.945" r="14.4" fill="#009af9" fill-rule="evenodd" fill-opacity="1" stroke="#000000" stroke-opacity="1" stroke-width="3.2"/>
<circle clip-path="url(#clip772)" cx="2063.28" cy="294.971" r="14.4" fill="#009af9" fill-rule="evenodd" fill-opacity="1" stroke="#000000" stroke-opacity="1" stroke-width="3.2"/>
<circle clip-path="url(#clip772)" cx="2066.91" cy="244.945" r="14.4" fill="#009af9" fill-rule="evenodd" fill-opacity="1" stroke="#000000" stroke-opacity="1" stroke-width="3.2"/>
<circle clip-path="url(#clip772)" cx="1984.67" cy="421.816" r="14.4" fill="#009af9" fill-rule="evenodd" fill-opacity="1" stroke="#000000" stroke-opacity="1" stroke-width="3.2"/>
<circle clip-path="url(#clip772)" cx="1710.54" cy="361.062" r="14.4" fill="#009af9" fill-rule="evenodd" fill-opacity="1" stroke="#000000" stroke-opacity="1" stroke-width="3.2"/>
<circle clip-path="url(#clip772)" cx="1635.78" cy="526.869" r="14.4" fill="#009af9" fill-rule="evenodd" fill-opacity="1" stroke="#000000" stroke-opacity="1" stroke-width="3.2"/>
<circle clip-path="url(#clip772)" cx="1686.53" cy="490.909" r="14.4" fill="#009af9" fill-rule="evenodd" fill-opacity="1" stroke="#000000" stroke-opacity="1" stroke-width="3.2"/>
<circle clip-path="url(#clip772)" cx="1874.57" cy="449.466" r="14.4" fill="#009af9" fill-rule="evenodd" fill-opacity="1" stroke="#000000" stroke-opacity="1" stroke-width="3.2"/>
<circle clip-path="url(#clip772)" cx="1930.75" cy="412.278" r="14.4" fill="#009af9" fill-rule="evenodd" fill-opacity="1" stroke="#000000" stroke-opacity="1" stroke-width="3.2"/>
<circle clip-path="url(#clip772)" cx="1724.82" cy="623.241" r="14.4" fill="#009af9" fill-rule="evenodd" fill-opacity="1" stroke="#000000" stroke-opacity="1" stroke-width="3.2"/>
<circle clip-path="url(#clip772)" cx="2019.56" cy="329.281" r="14.4" fill="#009af9" fill-rule="evenodd" fill-opacity="1" stroke="#000000" stroke-opacity="1" stroke-width="3.2"/>
<circle clip-path="url(#clip772)" cx="1673.39" cy="733.849" r="14.4" fill="#009af9" fill-rule="evenodd" fill-opacity="1" stroke="#000000" stroke-opacity="1" stroke-width="3.2"/>
<circle clip-path="url(#clip772)" cx="2183.35" cy="276.685" r="14.4" fill="#009af9" fill-rule="evenodd" fill-opacity="1" stroke="#000000" stroke-opacity="1" stroke-width="3.2"/>
<circle clip-path="url(#clip772)" cx="2024.31" cy="385.12" r="14.4" fill="#009af9" fill-rule="evenodd" fill-opacity="1" stroke="#000000" stroke-opacity="1" stroke-width="3.2"/>
<circle clip-path="url(#clip772)" cx="2079.14" cy="361.513" r="14.4" fill="#009af9" fill-rule="evenodd" fill-opacity="1" stroke="#000000" stroke-opacity="1" stroke-width="3.2"/>
<circle clip-path="url(#clip772)" cx="2102.47" cy="264.971" r="14.4" fill="#009af9" fill-rule="evenodd" fill-opacity="1" stroke="#000000" stroke-opacity="1" stroke-width="3.2"/>
<circle clip-path="url(#clip772)" cx="2087.52" cy="246.572" r="14.4" fill="#009af9" fill-rule="evenodd" fill-opacity="1" stroke="#000000" stroke-opacity="1" stroke-width="3.2"/>
<circle clip-path="url(#clip772)" cx="2133.96" cy="287.916" r="14.4" fill="#009af9" fill-rule="evenodd" fill-opacity="1" stroke="#000000" stroke-opacity="1" stroke-width="3.2"/>
<circle clip-path="url(#clip772)" cx="2293.68" cy="160.256" r="14.4" fill="#009af9" fill-rule="evenodd" fill-opacity="1" stroke="#000000" stroke-opacity="1" stroke-width="3.2"/>
<circle clip-path="url(#clip772)" cx="1980.82" cy="376.276" r="14.4" fill="#009af9" fill-rule="evenodd" fill-opacity="1" stroke="#000000" stroke-opacity="1" stroke-width="3.2"/>
<circle clip-path="url(#clip772)" cx="1875.7" cy="513.316" r="14.4" fill="#009af9" fill-rule="evenodd" fill-opacity="1" stroke="#000000" stroke-opacity="1" stroke-width="3.2"/>
<circle clip-path="url(#clip772)" cx="1242.27" cy="946.452" r="14.4" fill="#009af9" fill-rule="evenodd" fill-opacity="1" stroke="#000000" stroke-opacity="1" stroke-width="3.2"/>
<circle clip-path="url(#clip772)" cx="2039.27" cy="275.504" r="14.4" fill="#009af9" fill-rule="evenodd" fill-opacity="1" stroke="#000000" stroke-opacity="1" stroke-width="3.2"/>
<circle clip-path="url(#clip772)" cx="2068.49" cy="290.964" r="14.4" fill="#009af9" fill-rule="evenodd" fill-opacity="1" stroke="#000000" stroke-opacity="1" stroke-width="3.2"/>
<circle clip-path="url(#clip772)" cx="2169.76" cy="299.319" r="14.4" fill="#009af9" fill-rule="evenodd" fill-opacity="1" stroke="#000000" stroke-opacity="1" stroke-width="3.2"/>
<circle clip-path="url(#clip772)" cx="2221.41" cy="273.549" r="14.4" fill="#009af9" fill-rule="evenodd" fill-opacity="1" stroke="#000000" stroke-opacity="1" stroke-width="3.2"/>
<circle clip-path="url(#clip772)" cx="2110.86" cy="353.398" r="14.4" fill="#009af9" fill-rule="evenodd" fill-opacity="1" stroke="#000000" stroke-opacity="1" stroke-width="3.2"/>
<circle clip-path="url(#clip772)" cx="2004.15" cy="307.759" r="14.4" fill="#009af9" fill-rule="evenodd" fill-opacity="1" stroke="#000000" stroke-opacity="1" stroke-width="3.2"/>
<circle clip-path="url(#clip772)" cx="2027.26" cy="353.871" r="14.4" fill="#009af9" fill-rule="evenodd" fill-opacity="1" stroke="#000000" stroke-opacity="1" stroke-width="3.2"/>
<circle clip-path="url(#clip772)" cx="2071.44" cy="294.391" r="14.4" fill="#009af9" fill-rule="evenodd" fill-opacity="1" stroke="#000000" stroke-opacity="1" stroke-width="3.2"/>
<circle clip-path="url(#clip772)" cx="1994.41" cy="426.409" r="14.4" fill="#009af9" fill-rule="evenodd" fill-opacity="1" stroke="#000000" stroke-opacity="1" stroke-width="3.2"/>
<circle clip-path="url(#clip772)" cx="1999.39" cy="443.938" r="14.4" fill="#009af9" fill-rule="evenodd" fill-opacity="1" stroke="#000000" stroke-opacity="1" stroke-width="3.2"/>
<circle clip-path="url(#clip772)" cx="2257.66" cy="220.271" r="14.4" fill="#009af9" fill-rule="evenodd" fill-opacity="1" stroke="#000000" stroke-opacity="1" stroke-width="3.2"/>
<circle clip-path="url(#clip772)" cx="1880.23" cy="319.988" r="14.4" fill="#009af9" fill-rule="evenodd" fill-opacity="1" stroke="#000000" stroke-opacity="1" stroke-width="3.2"/>
<circle clip-path="url(#clip772)" cx="1855.08" cy="403.468" r="14.4" fill="#009af9" fill-rule="evenodd" fill-opacity="1" stroke="#000000" stroke-opacity="1" stroke-width="3.2"/>
<circle clip-path="url(#clip772)" cx="1370.5" cy="917.921" r="14.4" fill="#009af9" fill-rule="evenodd" fill-opacity="1" stroke="#000000" stroke-opacity="1" stroke-width="3.2"/>
<circle clip-path="url(#clip772)" cx="2034.96" cy="601.979" r="14.4" fill="#009af9" fill-rule="evenodd" fill-opacity="1" stroke="#000000" stroke-opacity="1" stroke-width="3.2"/>
<circle clip-path="url(#clip772)" cx="1979.68" cy="425.446" r="14.4" fill="#009af9" fill-rule="evenodd" fill-opacity="1" stroke="#000000" stroke-opacity="1" stroke-width="3.2"/>
<circle clip-path="url(#clip772)" cx="2167.27" cy="289.04" r="14.4" fill="#009af9" fill-rule="evenodd" fill-opacity="1" stroke="#000000" stroke-opacity="1" stroke-width="3.2"/>
<circle clip-path="url(#clip772)" cx="2124" cy="241.181" r="14.4" fill="#009af9" fill-rule="evenodd" fill-opacity="1" stroke="#000000" stroke-opacity="1" stroke-width="3.2"/>
<circle clip-path="url(#clip772)" cx="1114.72" cy="740.526" r="14.4" fill="#009af9" fill-rule="evenodd" fill-opacity="1" stroke="#000000" stroke-opacity="1" stroke-width="3.2"/>
<circle clip-path="url(#clip772)" cx="1560.57" cy="996.338" r="14.4" fill="#009af9" fill-rule="evenodd" fill-opacity="1" stroke="#000000" stroke-opacity="1" stroke-width="3.2"/>
<circle clip-path="url(#clip772)" cx="1767.63" cy="736.922" r="14.4" fill="#009af9" fill-rule="evenodd" fill-opacity="1" stroke="#000000" stroke-opacity="1" stroke-width="3.2"/>
<circle clip-path="url(#clip772)" cx="2061.92" cy="331.416" r="14.4" fill="#009af9" fill-rule="evenodd" fill-opacity="1" stroke="#000000" stroke-opacity="1" stroke-width="3.2"/>
<circle clip-path="url(#clip772)" cx="2034.51" cy="464.856" r="14.4" fill="#009af9" fill-rule="evenodd" fill-opacity="1" stroke="#000000" stroke-opacity="1" stroke-width="3.2"/>
<circle clip-path="url(#clip772)" cx="1969.26" cy="521.898" r="14.4" fill="#009af9" fill-rule="evenodd" fill-opacity="1" stroke="#000000" stroke-opacity="1" stroke-width="3.2"/>
<circle clip-path="url(#clip772)" cx="1930.07" cy="881.361" r="14.4" fill="#009af9" fill-rule="evenodd" fill-opacity="1" stroke="#000000" stroke-opacity="1" stroke-width="3.2"/>
<circle clip-path="url(#clip772)" cx="1823.59" cy="339.836" r="14.4" fill="#009af9" fill-rule="evenodd" fill-opacity="1" stroke="#000000" stroke-opacity="1" stroke-width="3.2"/>
<circle clip-path="url(#clip772)" cx="1650.51" cy="511.442" r="14.4" fill="#009af9" fill-rule="evenodd" fill-opacity="1" stroke="#000000" stroke-opacity="1" stroke-width="3.2"/>
<circle clip-path="url(#clip772)" cx="2026.35" cy="417.489" r="14.4" fill="#009af9" fill-rule="evenodd" fill-opacity="1" stroke="#000000" stroke-opacity="1" stroke-width="3.2"/>
<circle clip-path="url(#clip772)" cx="2009.82" cy="549.764" r="14.4" fill="#009af9" fill-rule="evenodd" fill-opacity="1" stroke="#000000" stroke-opacity="1" stroke-width="3.2"/>
<circle clip-path="url(#clip772)" cx="2020.69" cy="486.641" r="14.4" fill="#009af9" fill-rule="evenodd" fill-opacity="1" stroke="#000000" stroke-opacity="1" stroke-width="3.2"/>
<circle clip-path="url(#clip772)" cx="1548.34" cy="681.798" r="14.4" fill="#009af9" fill-rule="evenodd" fill-opacity="1" stroke="#000000" stroke-opacity="1" stroke-width="3.2"/>
<circle clip-path="url(#clip772)" cx="2152.31" cy="276.166" r="14.4" fill="#009af9" fill-rule="evenodd" fill-opacity="1" stroke="#000000" stroke-opacity="1" stroke-width="3.2"/>
<circle clip-path="url(#clip772)" cx="1865.5" cy="406.457" r="14.4" fill="#009af9" fill-rule="evenodd" fill-opacity="1" stroke="#000000" stroke-opacity="1" stroke-width="3.2"/>
<circle clip-path="url(#clip772)" cx="1918.52" cy="386.251" r="14.4" fill="#009af9" fill-rule="evenodd" fill-opacity="1" stroke="#000000" stroke-opacity="1" stroke-width="3.2"/>
<circle clip-path="url(#clip772)" cx="2010.95" cy="366.423" r="14.4" fill="#009af9" fill-rule="evenodd" fill-opacity="1" stroke="#000000" stroke-opacity="1" stroke-width="3.2"/>
<circle clip-path="url(#clip772)" cx="2062.37" cy="395.981" r="14.4" fill="#009af9" fill-rule="evenodd" fill-opacity="1" stroke="#000000" stroke-opacity="1" stroke-width="3.2"/>
<circle clip-path="url(#clip772)" cx="1986.71" cy="632.235" r="14.4" fill="#009af9" fill-rule="evenodd" fill-opacity="1" stroke="#000000" stroke-opacity="1" stroke-width="3.2"/>
<circle clip-path="url(#clip772)" cx="2005.96" cy="616.242" r="14.4" fill="#009af9" fill-rule="evenodd" fill-opacity="1" stroke="#000000" stroke-opacity="1" stroke-width="3.2"/>
<circle clip-path="url(#clip772)" cx="2098.4" cy="375.122" r="14.4" fill="#009af9" fill-rule="evenodd" fill-opacity="1" stroke="#000000" stroke-opacity="1" stroke-width="3.2"/>
<circle clip-path="url(#clip772)" cx="1329.72" cy="565.56" r="14.4" fill="#009af9" fill-rule="evenodd" fill-opacity="1" stroke="#000000" stroke-opacity="1" stroke-width="3.2"/>
<circle clip-path="url(#clip772)" cx="324.52" cy="1137.28" r="14.4" fill="#009af9" fill-rule="evenodd" fill-opacity="1" stroke="#000000" stroke-opacity="1" stroke-width="3.2"/>
<circle clip-path="url(#clip772)" cx="567.833" cy="1143.85" r="14.4" fill="#009af9" fill-rule="evenodd" fill-opacity="1" stroke="#000000" stroke-opacity="1" stroke-width="3.2"/>
<circle clip-path="url(#clip772)" cx="1580.51" cy="984.304" r="14.4" fill="#009af9" fill-rule="evenodd" fill-opacity="1" stroke="#000000" stroke-opacity="1" stroke-width="3.2"/>
<circle clip-path="url(#clip772)" cx="1675.66" cy="1000.34" r="14.4" fill="#009af9" fill-rule="evenodd" fill-opacity="1" stroke="#000000" stroke-opacity="1" stroke-width="3.2"/>
<circle clip-path="url(#clip772)" cx="1644.17" cy="902.819" r="14.4" fill="#009af9" fill-rule="evenodd" fill-opacity="1" stroke="#000000" stroke-opacity="1" stroke-width="3.2"/>
<circle clip-path="url(#clip772)" cx="1483.54" cy="1105.2" r="14.4" fill="#009af9" fill-rule="evenodd" fill-opacity="1" stroke="#000000" stroke-opacity="1" stroke-width="3.2"/>
<circle clip-path="url(#clip772)" cx="1476.52" cy="989.229" r="14.4" fill="#009af9" fill-rule="evenodd" fill-opacity="1" stroke="#000000" stroke-opacity="1" stroke-width="3.2"/>
<circle clip-path="url(#clip772)" cx="1510.96" cy="1009.88" r="14.4" fill="#009af9" fill-rule="evenodd" fill-opacity="1" stroke="#000000" stroke-opacity="1" stroke-width="3.2"/>
<circle clip-path="url(#clip772)" cx="1607.69" cy="1001.3" r="14.4" fill="#009af9" fill-rule="evenodd" fill-opacity="1" stroke="#000000" stroke-opacity="1" stroke-width="3.2"/>
<circle clip-path="url(#clip772)" cx="1460.21" cy="1144.09" r="14.4" fill="#009af9" fill-rule="evenodd" fill-opacity="1" stroke="#000000" stroke-opacity="1" stroke-width="3.2"/>
<circle clip-path="url(#clip772)" cx="1523.64" cy="887.778" r="14.4" fill="#009af9" fill-rule="evenodd" fill-opacity="1" stroke="#000000" stroke-opacity="1" stroke-width="3.2"/>
<circle clip-path="url(#clip772)" cx="1677.02" cy="903.843" r="14.4" fill="#009af9" fill-rule="evenodd" fill-opacity="1" stroke="#000000" stroke-opacity="1" stroke-width="3.2"/>
<circle clip-path="url(#clip772)" cx="1800.26" cy="910.821" r="14.4" fill="#009af9" fill-rule="evenodd" fill-opacity="1" stroke="#000000" stroke-opacity="1" stroke-width="3.2"/>
<circle clip-path="url(#clip772)" cx="1871.85" cy="688.124" r="14.4" fill="#009af9" fill-rule="evenodd" fill-opacity="1" stroke="#000000" stroke-opacity="1" stroke-width="3.2"/>
<circle clip-path="url(#clip772)" cx="1739.77" cy="462.406" r="14.4" fill="#009af9" fill-rule="evenodd" fill-opacity="1" stroke="#000000" stroke-opacity="1" stroke-width="3.2"/>
<circle clip-path="url(#clip772)" cx="1247.03" cy="1106.45" r="14.4" fill="#009af9" fill-rule="evenodd" fill-opacity="1" stroke="#000000" stroke-opacity="1" stroke-width="3.2"/>
<circle clip-path="url(#clip772)" cx="1564.42" cy="1009.58" r="14.4" fill="#009af9" fill-rule="evenodd" fill-opacity="1" stroke="#000000" stroke-opacity="1" stroke-width="3.2"/>
<circle clip-path="url(#clip772)" cx="1553.09" cy="1050.95" r="14.4" fill="#009af9" fill-rule="evenodd" fill-opacity="1" stroke="#000000" stroke-opacity="1" stroke-width="3.2"/>
<circle clip-path="url(#clip772)" cx="1610.41" cy="940.569" r="14.4" fill="#009af9" fill-rule="evenodd" fill-opacity="1" stroke="#000000" stroke-opacity="1" stroke-width="3.2"/>
<circle clip-path="url(#clip772)" cx="1594.78" cy="953.362" r="14.4" fill="#009af9" fill-rule="evenodd" fill-opacity="1" stroke="#000000" stroke-opacity="1" stroke-width="3.2"/>
<circle clip-path="url(#clip772)" cx="1377.29" cy="1032.84" r="14.4" fill="#009af9" fill-rule="evenodd" fill-opacity="1" stroke="#000000" stroke-opacity="1" stroke-width="3.2"/>
<circle clip-path="url(#clip772)" cx="1565.33" cy="1020.57" r="14.4" fill="#009af9" fill-rule="evenodd" fill-opacity="1" stroke="#000000" stroke-opacity="1" stroke-width="3.2"/>
<circle clip-path="url(#clip772)" cx="1595.91" cy="885.987" r="14.4" fill="#009af9" fill-rule="evenodd" fill-opacity="1" stroke="#000000" stroke-opacity="1" stroke-width="3.2"/>
<circle clip-path="url(#clip772)" cx="1485.36" cy="880.499" r="14.4" fill="#009af9" fill-rule="evenodd" fill-opacity="1" stroke="#000000" stroke-opacity="1" stroke-width="3.2"/>
<circle clip-path="url(#clip772)" cx="868.916" cy="928.385" r="14.4" fill="#009af9" fill-rule="evenodd" fill-opacity="1" stroke="#000000" stroke-opacity="1" stroke-width="3.2"/>
<circle clip-path="url(#clip772)" cx="1205.34" cy="884.916" r="14.4" fill="#009af9" fill-rule="evenodd" fill-opacity="1" stroke="#000000" stroke-opacity="1" stroke-width="3.2"/>
<circle clip-path="url(#clip772)" cx="835.387" cy="1123.32" r="14.4" fill="#009af9" fill-rule="evenodd" fill-opacity="1" stroke="#000000" stroke-opacity="1" stroke-width="3.2"/>
<circle clip-path="url(#clip772)" cx="868.69" cy="1067.05" r="14.4" fill="#009af9" fill-rule="evenodd" fill-opacity="1" stroke="#000000" stroke-opacity="1" stroke-width="3.2"/>
<circle clip-path="url(#clip772)" cx="1471.99" cy="920.478" r="14.4" fill="#009af9" fill-rule="evenodd" fill-opacity="1" stroke="#000000" stroke-opacity="1" stroke-width="3.2"/>
<circle clip-path="url(#clip772)" cx="1216.44" cy="1163.47" r="14.4" fill="#009af9" fill-rule="evenodd" fill-opacity="1" stroke="#000000" stroke-opacity="1" stroke-width="3.2"/>
<circle clip-path="url(#clip772)" cx="1511.18" cy="1004.42" r="14.4" fill="#009af9" fill-rule="evenodd" fill-opacity="1" stroke="#000000" stroke-opacity="1" stroke-width="3.2"/>
<circle clip-path="url(#clip772)" cx="1525.45" cy="1014.27" r="14.4" fill="#009af9" fill-rule="evenodd" fill-opacity="1" stroke="#000000" stroke-opacity="1" stroke-width="3.2"/>
<circle clip-path="url(#clip772)" cx="1603.61" cy="928.294" r="14.4" fill="#009af9" fill-rule="evenodd" fill-opacity="1" stroke="#000000" stroke-opacity="1" stroke-width="3.2"/>
<circle clip-path="url(#clip772)" cx="1495.55" cy="1111.36" r="14.4" fill="#009af9" fill-rule="evenodd" fill-opacity="1" stroke="#000000" stroke-opacity="1" stroke-width="3.2"/>
<circle clip-path="url(#clip772)" cx="1372.76" cy="1172.14" r="14.4" fill="#009af9" fill-rule="evenodd" fill-opacity="1" stroke="#000000" stroke-opacity="1" stroke-width="3.2"/>
<circle clip-path="url(#clip772)" cx="1731.84" cy="700.496" r="14.4" fill="#009af9" fill-rule="evenodd" fill-opacity="1" stroke="#000000" stroke-opacity="1" stroke-width="3.2"/>
<circle clip-path="url(#clip772)" cx="1816.12" cy="503.177" r="14.4" fill="#009af9" fill-rule="evenodd" fill-opacity="1" stroke="#000000" stroke-opacity="1" stroke-width="3.2"/>
<circle clip-path="url(#clip772)" cx="1617.43" cy="585.957" r="14.4" fill="#009af9" fill-rule="evenodd" fill-opacity="1" stroke="#000000" stroke-opacity="1" stroke-width="3.2"/>
<circle clip-path="url(#clip772)" cx="1537.23" cy="1056.24" r="14.4" fill="#009af9" fill-rule="evenodd" fill-opacity="1" stroke="#000000" stroke-opacity="1" stroke-width="3.2"/>
<circle clip-path="url(#clip772)" cx="1454.09" cy="1102.24" r="14.4" fill="#009af9" fill-rule="evenodd" fill-opacity="1" stroke="#000000" stroke-opacity="1" stroke-width="3.2"/>
<circle clip-path="url(#clip772)" cx="1584.13" cy="1262.06" r="14.4" fill="#009af9" fill-rule="evenodd" fill-opacity="1" stroke="#000000" stroke-opacity="1" stroke-width="3.2"/>
<circle clip-path="url(#clip772)" cx="1050.83" cy="1216.4" r="14.4" fill="#009af9" fill-rule="evenodd" fill-opacity="1" stroke="#000000" stroke-opacity="1" stroke-width="3.2"/>
<circle clip-path="url(#clip772)" cx="1490.79" cy="994.112" r="14.4" fill="#009af9" fill-rule="evenodd" fill-opacity="1" stroke="#000000" stroke-opacity="1" stroke-width="3.2"/>
<circle clip-path="url(#clip772)" cx="1565.78" cy="1000.96" r="14.4" fill="#009af9" fill-rule="evenodd" fill-opacity="1" stroke="#000000" stroke-opacity="1" stroke-width="3.2"/>
<circle clip-path="url(#clip772)" cx="1524.55" cy="1081.84" r="14.4" fill="#009af9" fill-rule="evenodd" fill-opacity="1" stroke="#000000" stroke-opacity="1" stroke-width="3.2"/>
<circle clip-path="url(#clip772)" cx="1572.8" cy="1018.96" r="14.4" fill="#009af9" fill-rule="evenodd" fill-opacity="1" stroke="#000000" stroke-opacity="1" stroke-width="3.2"/>
<circle clip-path="url(#clip772)" cx="1590.7" cy="978.332" r="14.4" fill="#009af9" fill-rule="evenodd" fill-opacity="1" stroke="#000000" stroke-opacity="1" stroke-width="3.2"/>
<circle clip-path="url(#clip772)" cx="1462.93" cy="941.542" r="14.4" fill="#009af9" fill-rule="evenodd" fill-opacity="1" stroke="#000000" stroke-opacity="1" stroke-width="3.2"/>
<circle clip-path="url(#clip772)" cx="1177.25" cy="1197.29" r="14.4" fill="#009af9" fill-rule="evenodd" fill-opacity="1" stroke="#000000" stroke-opacity="1" stroke-width="3.2"/>
<circle clip-path="url(#clip772)" cx="1358.26" cy="1170.56" r="14.4" fill="#009af9" fill-rule="evenodd" fill-opacity="1" stroke="#000000" stroke-opacity="1" stroke-width="3.2"/>
<circle clip-path="url(#clip772)" cx="1578.47" cy="816.034" r="14.4" fill="#009af9" fill-rule="evenodd" fill-opacity="1" stroke="#000000" stroke-opacity="1" stroke-width="3.2"/>
<circle clip-path="url(#clip772)" cx="1512.77" cy="940.057" r="14.4" fill="#009af9" fill-rule="evenodd" fill-opacity="1" stroke="#000000" stroke-opacity="1" stroke-width="3.2"/>
<circle clip-path="url(#clip772)" cx="1254.73" cy="1009.65" r="14.4" fill="#009af9" fill-rule="evenodd" fill-opacity="1" stroke="#000000" stroke-opacity="1" stroke-width="3.2"/>
<circle clip-path="url(#clip772)" cx="1140.32" cy="1121.63" r="14.4" fill="#009af9" fill-rule="evenodd" fill-opacity="1" stroke="#000000" stroke-opacity="1" stroke-width="3.2"/>
<circle clip-path="url(#clip772)" cx="715.769" cy="1247.94" r="14.4" fill="#009af9" fill-rule="evenodd" fill-opacity="1" stroke="#000000" stroke-opacity="1" stroke-width="3.2"/>
<circle clip-path="url(#clip772)" cx="724.378" cy="1203.05" r="14.4" fill="#009af9" fill-rule="evenodd" fill-opacity="1" stroke="#000000" stroke-opacity="1" stroke-width="3.2"/>
<circle clip-path="url(#clip772)" cx="527.96" cy="1238.03" r="14.4" fill="#009af9" fill-rule="evenodd" fill-opacity="1" stroke="#000000" stroke-opacity="1" stroke-width="3.2"/>
<circle clip-path="url(#clip772)" cx="549.029" cy="1189.77" r="14.4" fill="#009af9" fill-rule="evenodd" fill-opacity="1" stroke="#000000" stroke-opacity="1" stroke-width="3.2"/>
<circle clip-path="url(#clip772)" cx="419.443" cy="1386.4" r="14.4" fill="#009af9" fill-rule="evenodd" fill-opacity="1" stroke="#000000" stroke-opacity="1" stroke-width="3.2"/>
<circle clip-path="url(#clip772)" cx="798.459" cy="1277.79" r="14.4" fill="#009af9" fill-rule="evenodd" fill-opacity="1" stroke="#000000" stroke-opacity="1" stroke-width="3.2"/>
<circle clip-path="url(#clip772)" cx="1020.7" cy="1153.51" r="14.4" fill="#009af9" fill-rule="evenodd" fill-opacity="1" stroke="#000000" stroke-opacity="1" stroke-width="3.2"/>
<circle clip-path="url(#clip772)" cx="623.337" cy="1289.58" r="14.4" fill="#009af9" fill-rule="evenodd" fill-opacity="1" stroke="#000000" stroke-opacity="1" stroke-width="3.2"/>
<circle clip-path="url(#clip772)" cx="726.417" cy="1281.51" r="14.4" fill="#009af9" fill-rule="evenodd" fill-opacity="1" stroke="#000000" stroke-opacity="1" stroke-width="3.2"/>
<circle clip-path="url(#clip772)" cx="937.787" cy="1259.46" r="14.4" fill="#009af9" fill-rule="evenodd" fill-opacity="1" stroke="#000000" stroke-opacity="1" stroke-width="3.2"/>
</svg>
