<?xml version="1.0" encoding="utf-8"?>
<svg xmlns="http://www.w3.org/2000/svg" xmlns:xlink="http://www.w3.org/1999/xlink" width="600" height="400" viewBox="0 0 2400 1600">
<defs>
  <clipPath id="clip530">
    <rect x="0" y="0" width="2400" height="1600"/>
  </clipPath>
</defs>
<path clip-path="url(#clip530)" d="M0 1600 L2400 1600 L2400 0 L0 0  Z" fill="#ffffff" fill-rule="evenodd" fill-opacity="1"/>
<defs>
  <clipPath id="clip531">
    <rect x="480" y="0" width="1681" height="1600"/>
  </clipPath>
</defs>
<path clip-path="url(#clip530)" d="M186.274 1486.45 L2352.76 1486.45 L2352.76 47.2441 L186.274 47.2441  Z" fill="#ffffff" fill-rule="evenodd" fill-opacity="1"/>
<defs>
  <clipPath id="clip532">
    <rect x="186" y="47" width="2167" height="1440"/>
  </clipPath>
</defs>
<polyline clip-path="url(#clip532)" style="stroke:#000000; stroke-linecap:round; stroke-linejoin:round; stroke-width:2; stroke-opacity:0.1; fill:none" points="438.411,1486.45 438.411,47.2441 "/>
<polyline clip-path="url(#clip532)" style="stroke:#000000; stroke-linecap:round; stroke-linejoin:round; stroke-width:2; stroke-opacity:0.1; fill:none" points="770.853,1486.45 770.853,47.2441 "/>
<polyline clip-path="url(#clip532)" style="stroke:#000000; stroke-linecap:round; stroke-linejoin:round; stroke-width:2; stroke-opacity:0.1; fill:none" points="1103.29,1486.45 1103.29,47.2441 "/>
<polyline clip-path="url(#clip532)" style="stroke:#000000; stroke-linecap:round; stroke-linejoin:round; stroke-width:2; stroke-opacity:0.1; fill:none" points="1435.74,1486.45 1435.74,47.2441 "/>
<polyline clip-path="url(#clip532)" style="stroke:#000000; stroke-linecap:round; stroke-linejoin:round; stroke-width:2; stroke-opacity:0.1; fill:none" points="1768.18,1486.45 1768.18,47.2441 "/>
<polyline clip-path="url(#clip532)" style="stroke:#000000; stroke-linecap:round; stroke-linejoin:round; stroke-width:2; stroke-opacity:0.1; fill:none" points="2100.62,1486.45 2100.62,47.2441 "/>
<polyline clip-path="url(#clip532)" style="stroke:#000000; stroke-linecap:round; stroke-linejoin:round; stroke-width:2; stroke-opacity:0.1; fill:none" points="186.274,1486.45 2352.76,1486.45 "/>
<polyline clip-path="url(#clip532)" style="stroke:#000000; stroke-linecap:round; stroke-linejoin:round; stroke-width:2; stroke-opacity:0.1; fill:none" points="186.274,1198.57 2352.76,1198.57 "/>
<polyline clip-path="url(#clip532)" style="stroke:#000000; stroke-linecap:round; stroke-linejoin:round; stroke-width:2; stroke-opacity:0.1; fill:none" points="186.274,910.697 2352.76,910.697 "/>
<polyline clip-path="url(#clip532)" style="stroke:#000000; stroke-linecap:round; stroke-linejoin:round; stroke-width:2; stroke-opacity:0.1; fill:none" points="186.274,622.821 2352.76,622.821 "/>
<polyline clip-path="url(#clip532)" style="stroke:#000000; stroke-linecap:round; stroke-linejoin:round; stroke-width:2; stroke-opacity:0.1; fill:none" points="186.274,334.946 2352.76,334.946 "/>
<polyline clip-path="url(#clip530)" style="stroke:#000000; stroke-linecap:round; stroke-linejoin:round; stroke-width:4; stroke-opacity:1; fill:none" points="186.274,1486.45 2352.76,1486.45 "/>
<polyline clip-path="url(#clip530)" style="stroke:#000000; stroke-linecap:round; stroke-linejoin:round; stroke-width:4; stroke-opacity:1; fill:none" points="438.411,1486.45 438.411,1467.55 "/>
<polyline clip-path="url(#clip530)" style="stroke:#000000; stroke-linecap:round; stroke-linejoin:round; stroke-width:4; stroke-opacity:1; fill:none" points="770.853,1486.45 770.853,1467.55 "/>
<polyline clip-path="url(#clip530)" style="stroke:#000000; stroke-linecap:round; stroke-linejoin:round; stroke-width:4; stroke-opacity:1; fill:none" points="1103.29,1486.45 1103.29,1467.55 "/>
<polyline clip-path="url(#clip530)" style="stroke:#000000; stroke-linecap:round; stroke-linejoin:round; stroke-width:4; stroke-opacity:1; fill:none" points="1435.74,1486.45 1435.74,1467.55 "/>
<polyline clip-path="url(#clip530)" style="stroke:#000000; stroke-linecap:round; stroke-linejoin:round; stroke-width:4; stroke-opacity:1; fill:none" points="1768.18,1486.45 1768.18,1467.55 "/>
<polyline clip-path="url(#clip530)" style="stroke:#000000; stroke-linecap:round; stroke-linejoin:round; stroke-width:4; stroke-opacity:1; fill:none" points="2100.62,1486.45 2100.62,1467.55 "/>
<path clip-path="url(#clip530)" d="M428.689 1514.29 L447.045 1514.29 L447.045 1518.22 L432.971 1518.22 L432.971 1526.7 Q433.99 1526.35 435.008 1526.19 Q436.027 1526 437.045 1526 Q442.832 1526 446.212 1529.17 Q449.591 1532.34 449.591 1537.76 Q449.591 1543.34 446.119 1546.44 Q442.647 1549.52 436.328 1549.52 Q434.152 1549.52 431.883 1549.15 Q429.638 1548.78 427.231 1548.04 L427.231 1543.34 Q429.314 1544.47 431.536 1545.03 Q433.758 1545.58 436.235 1545.58 Q440.24 1545.58 442.578 1543.48 Q444.916 1541.37 444.916 1537.76 Q444.916 1534.15 442.578 1532.04 Q440.24 1529.94 436.235 1529.94 Q434.36 1529.94 432.485 1530.35 Q430.633 1530.77 428.689 1531.65 L428.689 1514.29 Z" fill="#000000" fill-rule="nonzero" fill-opacity="1" /><path clip-path="url(#clip530)" d="M773.862 1518.36 L762.056 1536.81 L773.862 1536.81 L773.862 1518.36 M772.635 1514.29 L778.515 1514.29 L778.515 1536.81 L783.445 1536.81 L783.445 1540.7 L778.515 1540.7 L778.515 1548.85 L773.862 1548.85 L773.862 1540.7 L758.26 1540.7 L758.26 1536.19 L772.635 1514.29 Z" fill="#000000" fill-rule="nonzero" fill-opacity="1" /><path clip-path="url(#clip530)" d="M1107.54 1530.21 Q1110.9 1530.93 1112.77 1533.2 Q1114.67 1535.47 1114.67 1538.8 Q1114.67 1543.92 1111.15 1546.72 Q1107.63 1549.52 1101.15 1549.52 Q1098.98 1549.52 1096.66 1549.08 Q1094.37 1548.66 1091.92 1547.81 L1091.92 1543.29 Q1093.86 1544.43 1096.18 1545.01 Q1098.49 1545.58 1101.01 1545.58 Q1105.41 1545.58 1107.7 1543.85 Q1110.02 1542.11 1110.02 1538.8 Q1110.02 1535.75 1107.87 1534.03 Q1105.74 1532.3 1101.92 1532.3 L1097.89 1532.3 L1097.89 1528.45 L1102.1 1528.45 Q1105.55 1528.45 1107.38 1527.09 Q1109.21 1525.7 1109.21 1523.11 Q1109.21 1520.45 1107.31 1519.03 Q1105.44 1517.6 1101.92 1517.6 Q1100 1517.6 1097.8 1518.01 Q1095.6 1518.43 1092.96 1519.31 L1092.96 1515.14 Q1095.62 1514.4 1097.94 1514.03 Q1100.27 1513.66 1102.33 1513.66 Q1107.66 1513.66 1110.76 1516.09 Q1113.86 1518.5 1113.86 1522.62 Q1113.86 1525.49 1112.22 1527.48 Q1110.57 1529.45 1107.54 1530.21 Z" fill="#000000" fill-rule="nonzero" fill-opacity="1" /><path clip-path="url(#clip530)" d="M1430.39 1544.91 L1446.71 1544.91 L1446.71 1548.85 L1424.76 1548.85 L1424.76 1544.91 Q1427.43 1542.16 1432.01 1537.53 Q1436.62 1532.88 1437.8 1531.53 Q1440.04 1529.01 1440.92 1527.27 Q1441.82 1525.51 1441.82 1523.82 Q1441.82 1521.07 1439.88 1519.33 Q1437.96 1517.6 1434.86 1517.6 Q1432.66 1517.6 1430.2 1518.36 Q1427.77 1519.13 1425 1520.68 L1425 1515.95 Q1427.82 1514.82 1430.27 1514.24 Q1432.73 1513.66 1434.76 1513.66 Q1440.13 1513.66 1443.33 1516.35 Q1446.52 1519.03 1446.52 1523.52 Q1446.52 1525.65 1445.71 1527.57 Q1444.93 1529.47 1442.82 1532.07 Q1442.24 1532.74 1439.14 1535.95 Q1436.04 1539.15 1430.39 1544.91 Z" fill="#000000" fill-rule="nonzero" fill-opacity="1" /><path clip-path="url(#clip530)" d="M1768.58 1529.7 Q1765.43 1529.7 1763.58 1531.86 Q1761.75 1534.01 1761.75 1537.76 Q1761.75 1541.49 1763.58 1543.66 Q1765.43 1545.82 1768.58 1545.82 Q1771.73 1545.82 1773.56 1543.66 Q1775.41 1541.49 1775.41 1537.76 Q1775.41 1534.01 1773.56 1531.86 Q1771.73 1529.7 1768.58 1529.7 M1777.86 1515.05 L1777.86 1519.31 Q1776.11 1518.48 1774.3 1518.04 Q1772.52 1517.6 1770.76 1517.6 Q1766.13 1517.6 1763.68 1520.72 Q1761.24 1523.85 1760.9 1530.17 Q1762.26 1528.15 1764.32 1527.09 Q1766.38 1526 1768.86 1526 Q1774.07 1526 1777.08 1529.17 Q1780.11 1532.32 1780.11 1537.76 Q1780.11 1543.08 1776.96 1546.3 Q1773.81 1549.52 1768.58 1549.52 Q1762.59 1549.52 1759.42 1544.94 Q1756.24 1540.33 1756.24 1531.6 Q1756.24 1523.41 1760.13 1518.55 Q1764.02 1513.66 1770.57 1513.66 Q1772.33 1513.66 1774.11 1514.01 Q1775.92 1514.36 1777.86 1515.05 Z" fill="#000000" fill-rule="nonzero" fill-opacity="1" /><path clip-path="url(#clip530)" d="M2091 1544.91 L2098.64 1544.91 L2098.64 1518.55 L2090.33 1520.21 L2090.33 1515.95 L2098.59 1514.29 L2103.27 1514.29 L2103.27 1544.91 L2110.91 1544.91 L2110.91 1548.85 L2091 1548.85 L2091 1544.91 Z" fill="#000000" fill-rule="nonzero" fill-opacity="1" /><polyline clip-path="url(#clip530)" style="stroke:#000000; stroke-linecap:round; stroke-linejoin:round; stroke-width:4; stroke-opacity:1; fill:none" points="186.274,1486.45 186.274,47.2441 "/>
<polyline clip-path="url(#clip530)" style="stroke:#000000; stroke-linecap:round; stroke-linejoin:round; stroke-width:4; stroke-opacity:1; fill:none" points="186.274,1486.45 205.172,1486.45 "/>
<polyline clip-path="url(#clip530)" style="stroke:#000000; stroke-linecap:round; stroke-linejoin:round; stroke-width:4; stroke-opacity:1; fill:none" points="186.274,1198.57 205.172,1198.57 "/>
<polyline clip-path="url(#clip530)" style="stroke:#000000; stroke-linecap:round; stroke-linejoin:round; stroke-width:4; stroke-opacity:1; fill:none" points="186.274,910.697 205.172,910.697 "/>
<polyline clip-path="url(#clip530)" style="stroke:#000000; stroke-linecap:round; stroke-linejoin:round; stroke-width:4; stroke-opacity:1; fill:none" points="186.274,622.821 205.172,622.821 "/>
<polyline clip-path="url(#clip530)" style="stroke:#000000; stroke-linecap:round; stroke-linejoin:round; stroke-width:4; stroke-opacity:1; fill:none" points="186.274,334.946 205.172,334.946 "/>
<path clip-path="url(#clip530)" d="M62.9365 1472.25 Q59.3254 1472.25 57.4967 1475.81 Q55.6912 1479.35 55.6912 1486.48 Q55.6912 1493.59 57.4967 1497.15 Q59.3254 1500.7 62.9365 1500.7 Q66.5707 1500.7 68.3763 1497.15 Q70.205 1493.59 70.205 1486.48 Q70.205 1479.35 68.3763 1475.81 Q66.5707 1472.25 62.9365 1472.25 M62.9365 1468.54 Q68.7467 1468.54 71.8022 1473.15 Q74.8809 1477.73 74.8809 1486.48 Q74.8809 1495.21 71.8022 1499.82 Q68.7467 1504.4 62.9365 1504.4 Q57.1264 1504.4 54.0477 1499.82 Q50.9921 1495.21 50.9921 1486.48 Q50.9921 1477.73 54.0477 1473.15 Q57.1264 1468.54 62.9365 1468.54 Z" fill="#000000" fill-rule="nonzero" fill-opacity="1" /><path clip-path="url(#clip530)" d="M83.0984 1497.85 L87.9827 1497.85 L87.9827 1503.73 L83.0984 1503.73 L83.0984 1497.85 Z" fill="#000000" fill-rule="nonzero" fill-opacity="1" /><path clip-path="url(#clip530)" d="M108.168 1472.25 Q104.557 1472.25 102.728 1475.81 Q100.922 1479.35 100.922 1486.48 Q100.922 1493.59 102.728 1497.15 Q104.557 1500.7 108.168 1500.7 Q111.802 1500.7 113.608 1497.15 Q115.436 1493.59 115.436 1486.48 Q115.436 1479.35 113.608 1475.81 Q111.802 1472.25 108.168 1472.25 M108.168 1468.54 Q113.978 1468.54 117.033 1473.15 Q120.112 1477.73 120.112 1486.48 Q120.112 1495.21 117.033 1499.82 Q113.978 1504.4 108.168 1504.4 Q102.358 1504.4 99.2789 1499.82 Q96.2234 1495.21 96.2234 1486.48 Q96.2234 1477.73 99.2789 1473.15 Q102.358 1468.54 108.168 1468.54 Z" fill="#000000" fill-rule="nonzero" fill-opacity="1" /><path clip-path="url(#clip530)" d="M138.33 1472.25 Q134.719 1472.25 132.89 1475.81 Q131.084 1479.35 131.084 1486.48 Q131.084 1493.59 132.89 1497.15 Q134.719 1500.7 138.33 1500.7 Q141.964 1500.7 143.769 1497.15 Q145.598 1493.59 145.598 1486.48 Q145.598 1479.35 143.769 1475.81 Q141.964 1472.25 138.33 1472.25 M138.33 1468.54 Q144.14 1468.54 147.195 1473.15 Q150.274 1477.73 150.274 1486.48 Q150.274 1495.21 147.195 1499.82 Q144.14 1504.4 138.33 1504.4 Q132.519 1504.4 129.441 1499.82 Q126.385 1495.21 126.385 1486.48 Q126.385 1477.73 129.441 1473.15 Q132.519 1468.54 138.33 1468.54 Z" fill="#000000" fill-rule="nonzero" fill-opacity="1" /><path clip-path="url(#clip530)" d="M63.9319 1184.37 Q60.3208 1184.37 58.4921 1187.94 Q56.6865 1191.48 56.6865 1198.61 Q56.6865 1205.71 58.4921 1209.28 Q60.3208 1212.82 63.9319 1212.82 Q67.5661 1212.82 69.3717 1209.28 Q71.2004 1205.71 71.2004 1198.61 Q71.2004 1191.48 69.3717 1187.94 Q67.5661 1184.37 63.9319 1184.37 M63.9319 1180.67 Q69.742 1180.67 72.7976 1185.27 Q75.8763 1189.86 75.8763 1198.61 Q75.8763 1207.33 72.7976 1211.94 Q69.742 1216.52 63.9319 1216.52 Q58.1217 1216.52 55.043 1211.94 Q51.9875 1207.33 51.9875 1198.61 Q51.9875 1189.86 55.043 1185.27 Q58.1217 1180.67 63.9319 1180.67 Z" fill="#000000" fill-rule="nonzero" fill-opacity="1" /><path clip-path="url(#clip530)" d="M84.0938 1209.97 L88.978 1209.97 L88.978 1215.85 L84.0938 1215.85 L84.0938 1209.97 Z" fill="#000000" fill-rule="nonzero" fill-opacity="1" /><path clip-path="url(#clip530)" d="M103.191 1211.92 L119.51 1211.92 L119.51 1215.85 L97.566 1215.85 L97.566 1211.92 Q100.228 1209.16 104.811 1204.53 Q109.418 1199.88 110.598 1198.54 Q112.844 1196.01 113.723 1194.28 Q114.626 1192.52 114.626 1190.83 Q114.626 1188.07 112.682 1186.34 Q110.76 1184.6 107.658 1184.6 Q105.459 1184.6 103.006 1185.37 Q100.575 1186.13 97.7974 1187.68 L97.7974 1182.96 Q100.621 1181.82 103.075 1181.25 Q105.529 1180.67 107.566 1180.67 Q112.936 1180.67 116.131 1183.35 Q119.325 1186.04 119.325 1190.53 Q119.325 1192.66 118.515 1194.58 Q117.728 1196.48 115.621 1199.07 Q115.043 1199.74 111.941 1202.96 Q108.839 1206.15 103.191 1211.92 Z" fill="#000000" fill-rule="nonzero" fill-opacity="1" /><path clip-path="url(#clip530)" d="M129.371 1181.29 L147.728 1181.29 L147.728 1185.23 L133.654 1185.23 L133.654 1193.7 Q134.672 1193.35 135.691 1193.19 Q136.709 1193.01 137.728 1193.01 Q143.515 1193.01 146.894 1196.18 Q150.274 1199.35 150.274 1204.76 Q150.274 1210.34 146.802 1213.44 Q143.33 1216.52 137.01 1216.52 Q134.834 1216.52 132.566 1216.15 Q130.32 1215.78 127.913 1215.04 L127.913 1210.34 Q129.996 1211.48 132.219 1212.03 Q134.441 1212.59 136.918 1212.59 Q140.922 1212.59 143.26 1210.48 Q145.598 1208.38 145.598 1204.76 Q145.598 1201.15 143.26 1199.05 Q140.922 1196.94 136.918 1196.94 Q135.043 1196.94 133.168 1197.36 Q131.316 1197.77 129.371 1198.65 L129.371 1181.29 Z" fill="#000000" fill-rule="nonzero" fill-opacity="1" /><path clip-path="url(#clip530)" d="M62.9365 896.495 Q59.3254 896.495 57.4967 900.06 Q55.6912 903.602 55.6912 910.731 Q55.6912 917.838 57.4967 921.403 Q59.3254 924.944 62.9365 924.944 Q66.5707 924.944 68.3763 921.403 Q70.205 917.838 70.205 910.731 Q70.205 903.602 68.3763 900.06 Q66.5707 896.495 62.9365 896.495 M62.9365 892.792 Q68.7467 892.792 71.8022 897.398 Q74.8809 901.981 74.8809 910.731 Q74.8809 919.458 71.8022 924.065 Q68.7467 928.648 62.9365 928.648 Q57.1264 928.648 54.0477 924.065 Q50.9921 919.458 50.9921 910.731 Q50.9921 901.981 54.0477 897.398 Q57.1264 892.792 62.9365 892.792 Z" fill="#000000" fill-rule="nonzero" fill-opacity="1" /><path clip-path="url(#clip530)" d="M83.0984 922.097 L87.9827 922.097 L87.9827 927.977 L83.0984 927.977 L83.0984 922.097 Z" fill="#000000" fill-rule="nonzero" fill-opacity="1" /><path clip-path="url(#clip530)" d="M98.2141 893.417 L116.57 893.417 L116.57 897.352 L102.496 897.352 L102.496 905.824 Q103.515 905.477 104.534 905.315 Q105.552 905.13 106.571 905.13 Q112.358 905.13 115.737 908.301 Q119.117 911.472 119.117 916.889 Q119.117 922.467 115.645 925.569 Q112.172 928.648 105.853 928.648 Q103.677 928.648 101.409 928.278 Q99.1632 927.907 96.7558 927.167 L96.7558 922.467 Q98.8391 923.602 101.061 924.157 Q103.284 924.713 105.76 924.713 Q109.765 924.713 112.103 922.606 Q114.441 920.5 114.441 916.889 Q114.441 913.278 112.103 911.171 Q109.765 909.065 105.76 909.065 Q103.885 909.065 102.01 909.481 Q100.159 909.898 98.2141 910.778 L98.2141 893.417 Z" fill="#000000" fill-rule="nonzero" fill-opacity="1" /><path clip-path="url(#clip530)" d="M138.33 896.495 Q134.719 896.495 132.89 900.06 Q131.084 903.602 131.084 910.731 Q131.084 917.838 132.89 921.403 Q134.719 924.944 138.33 924.944 Q141.964 924.944 143.769 921.403 Q145.598 917.838 145.598 910.731 Q145.598 903.602 143.769 900.06 Q141.964 896.495 138.33 896.495 M138.33 892.792 Q144.14 892.792 147.195 897.398 Q150.274 901.981 150.274 910.731 Q150.274 919.458 147.195 924.065 Q144.14 928.648 138.33 928.648 Q132.519 928.648 129.441 924.065 Q126.385 919.458 126.385 910.731 Q126.385 901.981 129.441 897.398 Q132.519 892.792 138.33 892.792 Z" fill="#000000" fill-rule="nonzero" fill-opacity="1" /><path clip-path="url(#clip530)" d="M63.9319 608.62 Q60.3208 608.62 58.4921 612.185 Q56.6865 615.726 56.6865 622.856 Q56.6865 629.962 58.4921 633.527 Q60.3208 637.069 63.9319 637.069 Q67.5661 637.069 69.3717 633.527 Q71.2004 629.962 71.2004 622.856 Q71.2004 615.726 69.3717 612.185 Q67.5661 608.62 63.9319 608.62 M63.9319 604.916 Q69.742 604.916 72.7976 609.523 Q75.8763 614.106 75.8763 622.856 Q75.8763 631.583 72.7976 636.189 Q69.742 640.772 63.9319 640.772 Q58.1217 640.772 55.043 636.189 Q51.9875 631.583 51.9875 622.856 Q51.9875 614.106 55.043 609.523 Q58.1217 604.916 63.9319 604.916 Z" fill="#000000" fill-rule="nonzero" fill-opacity="1" /><path clip-path="url(#clip530)" d="M84.0938 634.222 L88.978 634.222 L88.978 640.101 L84.0938 640.101 L84.0938 634.222 Z" fill="#000000" fill-rule="nonzero" fill-opacity="1" /><path clip-path="url(#clip530)" d="M97.9826 605.541 L120.205 605.541 L120.205 607.532 L107.658 640.101 L102.774 640.101 L114.58 609.476 L97.9826 609.476 L97.9826 605.541 Z" fill="#000000" fill-rule="nonzero" fill-opacity="1" /><path clip-path="url(#clip530)" d="M129.371 605.541 L147.728 605.541 L147.728 609.476 L133.654 609.476 L133.654 617.948 Q134.672 617.601 135.691 617.439 Q136.709 617.254 137.728 617.254 Q143.515 617.254 146.894 620.425 Q150.274 623.597 150.274 629.013 Q150.274 634.592 146.802 637.694 Q143.33 640.772 137.01 640.772 Q134.834 640.772 132.566 640.402 Q130.32 640.032 127.913 639.291 L127.913 634.592 Q129.996 635.726 132.219 636.282 Q134.441 636.837 136.918 636.837 Q140.922 636.837 143.26 634.731 Q145.598 632.624 145.598 629.013 Q145.598 625.402 143.26 623.296 Q140.922 621.189 136.918 621.189 Q135.043 621.189 133.168 621.606 Q131.316 622.023 129.371 622.902 L129.371 605.541 Z" fill="#000000" fill-rule="nonzero" fill-opacity="1" /><path clip-path="url(#clip530)" d="M53.7467 348.29 L61.3856 348.29 L61.3856 321.925 L53.0754 323.591 L53.0754 319.332 L61.3393 317.666 L66.0152 317.666 L66.0152 348.29 L73.654 348.29 L73.654 352.226 L53.7467 352.226 L53.7467 348.29 Z" fill="#000000" fill-rule="nonzero" fill-opacity="1" /><path clip-path="url(#clip530)" d="M83.0984 346.346 L87.9827 346.346 L87.9827 352.226 L83.0984 352.226 L83.0984 346.346 Z" fill="#000000" fill-rule="nonzero" fill-opacity="1" /><path clip-path="url(#clip530)" d="M108.168 320.744 Q104.557 320.744 102.728 324.309 Q100.922 327.851 100.922 334.98 Q100.922 342.087 102.728 345.652 Q104.557 349.193 108.168 349.193 Q111.802 349.193 113.608 345.652 Q115.436 342.087 115.436 334.98 Q115.436 327.851 113.608 324.309 Q111.802 320.744 108.168 320.744 M108.168 317.041 Q113.978 317.041 117.033 321.647 Q120.112 326.23 120.112 334.98 Q120.112 343.707 117.033 348.314 Q113.978 352.897 108.168 352.897 Q102.358 352.897 99.2789 348.314 Q96.2234 343.707 96.2234 334.98 Q96.2234 326.23 99.2789 321.647 Q102.358 317.041 108.168 317.041 Z" fill="#000000" fill-rule="nonzero" fill-opacity="1" /><path clip-path="url(#clip530)" d="M138.33 320.744 Q134.719 320.744 132.89 324.309 Q131.084 327.851 131.084 334.98 Q131.084 342.087 132.89 345.652 Q134.719 349.193 138.33 349.193 Q141.964 349.193 143.769 345.652 Q145.598 342.087 145.598 334.98 Q145.598 327.851 143.769 324.309 Q141.964 320.744 138.33 320.744 M138.33 317.041 Q144.14 317.041 147.195 321.647 Q150.274 326.23 150.274 334.98 Q150.274 343.707 147.195 348.314 Q144.14 352.897 138.33 352.897 Q132.519 352.897 129.441 348.314 Q126.385 343.707 126.385 334.98 Q126.385 326.23 129.441 321.647 Q132.519 317.041 138.33 317.041 Z" fill="#000000" fill-rule="nonzero" fill-opacity="1" /><path clip-path="url(#clip532)" d="M305.434 1263.92 L305.434 1486.45 L571.388 1486.45 L571.388 1263.92 L305.434 1263.92 L305.434 1263.92  Z" fill="#009af9" fill-rule="evenodd" fill-opacity="1"/>
<polyline clip-path="url(#clip532)" style="stroke:#000000; stroke-linecap:round; stroke-linejoin:round; stroke-width:4; stroke-opacity:1; fill:none" points="305.434,1263.92 305.434,1486.45 571.388,1486.45 571.388,1263.92 305.434,1263.92 "/>
<path clip-path="url(#clip532)" d="M637.876 1263.76 L637.876 1486.45 L903.829 1486.45 L903.829 1263.76 L637.876 1263.76 L637.876 1263.76  Z" fill="#009af9" fill-rule="evenodd" fill-opacity="1"/>
<polyline clip-path="url(#clip532)" style="stroke:#000000; stroke-linecap:round; stroke-linejoin:round; stroke-width:4; stroke-opacity:1; fill:none" points="637.876,1263.76 637.876,1486.45 903.829,1486.45 903.829,1263.76 637.876,1263.76 "/>
<path clip-path="url(#clip532)" d="M970.318 1263.11 L970.318 1486.45 L1236.27 1486.45 L1236.27 1263.11 L970.318 1263.11 L970.318 1263.11  Z" fill="#009af9" fill-rule="evenodd" fill-opacity="1"/>
<polyline clip-path="url(#clip532)" style="stroke:#000000; stroke-linecap:round; stroke-linejoin:round; stroke-width:4; stroke-opacity:1; fill:none" points="970.318,1263.11 970.318,1486.45 1236.27,1486.45 1236.27,1263.11 970.318,1263.11 "/>
<path clip-path="url(#clip532)" d="M1302.76 1233.34 L1302.76 1486.45 L1568.71 1486.45 L1568.71 1233.34 L1302.76 1233.34 L1302.76 1233.34  Z" fill="#009af9" fill-rule="evenodd" fill-opacity="1"/>
<polyline clip-path="url(#clip532)" style="stroke:#000000; stroke-linecap:round; stroke-linejoin:round; stroke-width:4; stroke-opacity:1; fill:none" points="1302.76,1233.34 1302.76,1486.45 1568.71,1486.45 1568.71,1233.34 1302.76,1233.34 "/>
<path clip-path="url(#clip532)" d="M1635.2 1097.87 L1635.2 1486.45 L1901.15 1486.45 L1901.15 1097.87 L1635.2 1097.87 L1635.2 1097.87  Z" fill="#009af9" fill-rule="evenodd" fill-opacity="1"/>
<polyline clip-path="url(#clip532)" style="stroke:#000000; stroke-linecap:round; stroke-linejoin:round; stroke-width:4; stroke-opacity:1; fill:none" points="1635.2,1097.87 1635.2,1486.45 1901.15,1486.45 1901.15,1097.87 1635.2,1097.87 "/>
<path clip-path="url(#clip532)" d="M1967.64 64.692 L1967.64 1486.45 L2233.6 1486.45 L2233.6 64.692 L1967.64 64.692 L1967.64 64.692  Z" fill="#009af9" fill-rule="evenodd" fill-opacity="1"/>
<polyline clip-path="url(#clip532)" style="stroke:#000000; stroke-linecap:round; stroke-linejoin:round; stroke-width:4; stroke-opacity:1; fill:none" points="1967.64,64.692 1967.64,1486.45 2233.6,1486.45 2233.6,64.692 1967.64,64.692 "/>
<circle clip-path="url(#clip532)" style="fill:#009af9; stroke:none; fill-opacity:0" cx="438.411" cy="1263.92" r="2"/>
<circle clip-path="url(#clip532)" style="fill:#009af9; stroke:none; fill-opacity:0" cx="770.853" cy="1263.76" r="2"/>
<circle clip-path="url(#clip532)" style="fill:#009af9; stroke:none; fill-opacity:0" cx="1103.29" cy="1263.11" r="2"/>
<circle clip-path="url(#clip532)" style="fill:#009af9; stroke:none; fill-opacity:0" cx="1435.74" cy="1233.34" r="2"/>
<circle clip-path="url(#clip532)" style="fill:#009af9; stroke:none; fill-opacity:0" cx="1768.18" cy="1097.87" r="2"/>
<circle clip-path="url(#clip532)" style="fill:#009af9; stroke:none; fill-opacity:0" cx="2100.62" cy="64.692" r="2"/>
<polyline clip-path="url(#clip532)" style="stroke:#000000; stroke-linecap:round; stroke-linejoin:round; stroke-width:4; stroke-opacity:1; fill:none" points="438.411,1267.2 438.411,1260.64 "/>
<polyline clip-path="url(#clip532)" style="stroke:#000000; stroke-linecap:round; stroke-linejoin:round; stroke-width:4; stroke-opacity:1; fill:none" points="770.853,1272.69 770.853,1254.84 "/>
<polyline clip-path="url(#clip532)" style="stroke:#000000; stroke-linecap:round; stroke-linejoin:round; stroke-width:4; stroke-opacity:1; fill:none" points="1103.29,1274.09 1103.29,1252.12 "/>
<polyline clip-path="url(#clip532)" style="stroke:#000000; stroke-linecap:round; stroke-linejoin:round; stroke-width:4; stroke-opacity:1; fill:none" points="1435.74,1239.7 1435.74,1226.98 "/>
<polyline clip-path="url(#clip532)" style="stroke:#000000; stroke-linecap:round; stroke-linejoin:round; stroke-width:4; stroke-opacity:1; fill:none" points="1768.18,1116.41 1768.18,1079.33 "/>
<polyline clip-path="url(#clip532)" style="stroke:#000000; stroke-linecap:round; stroke-linejoin:round; stroke-width:4; stroke-opacity:1; fill:none" points="2100.62,82.1399 2100.62,47.2441 "/>
<line clip-path="url(#clip532)" x1="454.411" y1="1267.2" x2="422.411" y2="1267.2" style="stroke:#000000; stroke-width:4; stroke-opacity:1"/>
<line clip-path="url(#clip532)" x1="454.411" y1="1260.64" x2="422.411" y2="1260.64" style="stroke:#000000; stroke-width:4; stroke-opacity:1"/>
<line clip-path="url(#clip532)" x1="786.853" y1="1272.69" x2="754.853" y2="1272.69" style="stroke:#000000; stroke-width:4; stroke-opacity:1"/>
<line clip-path="url(#clip532)" x1="786.853" y1="1254.84" x2="754.853" y2="1254.84" style="stroke:#000000; stroke-width:4; stroke-opacity:1"/>
<line clip-path="url(#clip532)" x1="1119.29" y1="1274.09" x2="1087.29" y2="1274.09" style="stroke:#000000; stroke-width:4; stroke-opacity:1"/>
<line clip-path="url(#clip532)" x1="1119.29" y1="1252.12" x2="1087.29" y2="1252.12" style="stroke:#000000; stroke-width:4; stroke-opacity:1"/>
<line clip-path="url(#clip532)" x1="1451.74" y1="1239.7" x2="1419.74" y2="1239.7" style="stroke:#000000; stroke-width:4; stroke-opacity:1"/>
<line clip-path="url(#clip532)" x1="1451.74" y1="1226.98" x2="1419.74" y2="1226.98" style="stroke:#000000; stroke-width:4; stroke-opacity:1"/>
<line clip-path="url(#clip532)" x1="1784.18" y1="1116.41" x2="1752.18" y2="1116.41" style="stroke:#000000; stroke-width:4; stroke-opacity:1"/>
<line clip-path="url(#clip532)" x1="1784.18" y1="1079.33" x2="1752.18" y2="1079.33" style="stroke:#000000; stroke-width:4; stroke-opacity:1"/>
<line clip-path="url(#clip532)" x1="2116.62" y1="82.1399" x2="2084.62" y2="82.1399" style="stroke:#000000; stroke-width:4; stroke-opacity:1"/>
<line clip-path="url(#clip532)" x1="2116.62" y1="47.2441" x2="2084.62" y2="47.2441" style="stroke:#000000; stroke-width:4; stroke-opacity:1"/>
<path clip-path="url(#clip530)" d="M258.49 198.898 L726.549 198.898 L726.549 95.2176 L258.49 95.2176  Z" fill="#ffffff" fill-rule="evenodd" fill-opacity="1"/>
<polyline clip-path="url(#clip530)" style="stroke:#000000; stroke-linecap:round; stroke-linejoin:round; stroke-width:4; stroke-opacity:1; fill:none" points="258.49,198.898 726.549,198.898 726.549,95.2176 258.49,95.2176 258.49,198.898 "/>
<path clip-path="url(#clip530)" d="M282.562 167.794 L426.994 167.794 L426.994 126.322 L282.562 126.322 L282.562 167.794  Z" fill="#009af9" fill-rule="evenodd" fill-opacity="1"/>
<polyline clip-path="url(#clip530)" style="stroke:#000000; stroke-linecap:round; stroke-linejoin:round; stroke-width:4; stroke-opacity:1; fill:none" points="282.562,167.794 426.994,167.794 426.994,126.322 282.562,126.322 282.562,167.794 "/>
<path clip-path="url(#clip530)" d="M451.066 129.778 L455.742 129.778 L455.742 160.402 L472.571 160.402 L472.571 164.338 L451.066 164.338 L451.066 129.778 Z" fill="#000000" fill-rule="nonzero" fill-opacity="1" /><path clip-path="url(#clip530)" d="M486.506 141.398 Q483.08 141.398 481.089 144.083 Q479.098 146.745 479.098 151.398 Q479.098 156.051 481.066 158.736 Q483.057 161.398 486.506 161.398 Q489.909 161.398 491.899 158.713 Q493.89 156.027 493.89 151.398 Q493.89 146.791 491.899 144.106 Q489.909 141.398 486.506 141.398 M486.506 137.787 Q492.061 137.787 495.233 141.398 Q498.404 145.009 498.404 151.398 Q498.404 157.764 495.233 161.398 Q492.061 165.009 486.506 165.009 Q480.927 165.009 477.756 161.398 Q474.608 157.764 474.608 151.398 Q474.608 145.009 477.756 141.398 Q480.927 137.787 486.506 137.787 Z" fill="#000000" fill-rule="nonzero" fill-opacity="1" /><path clip-path="url(#clip530)" d="M521.992 139.176 L521.992 143.203 Q520.186 142.277 518.242 141.815 Q516.297 141.352 514.214 141.352 Q511.043 141.352 509.446 142.324 Q507.871 143.296 507.871 145.24 Q507.871 146.722 509.006 147.578 Q510.14 148.412 513.566 149.176 L515.024 149.5 Q519.561 150.472 521.459 152.254 Q523.381 154.014 523.381 157.185 Q523.381 160.796 520.51 162.902 Q517.663 165.009 512.663 165.009 Q510.58 165.009 508.311 164.592 Q506.066 164.199 503.566 163.388 L503.566 158.99 Q505.927 160.217 508.219 160.842 Q510.51 161.444 512.756 161.444 Q515.765 161.444 517.385 160.426 Q519.006 159.384 519.006 157.509 Q519.006 155.773 517.825 154.847 Q516.668 153.921 512.709 153.064 L511.228 152.717 Q507.27 151.884 505.51 150.171 Q503.751 148.435 503.751 145.426 Q503.751 141.768 506.344 139.778 Q508.936 137.787 513.705 137.787 Q516.066 137.787 518.149 138.134 Q520.233 138.481 521.992 139.176 Z" fill="#000000" fill-rule="nonzero" fill-opacity="1" /><path clip-path="url(#clip530)" d="M546.691 139.176 L546.691 143.203 Q544.885 142.277 542.941 141.815 Q540.996 141.352 538.913 141.352 Q535.742 141.352 534.144 142.324 Q532.57 143.296 532.57 145.24 Q532.57 146.722 533.705 147.578 Q534.839 148.412 538.265 149.176 L539.723 149.5 Q544.26 150.472 546.158 152.254 Q548.08 154.014 548.08 157.185 Q548.08 160.796 545.209 162.902 Q542.362 165.009 537.362 165.009 Q535.279 165.009 533.01 164.592 Q530.765 164.199 528.265 163.388 L528.265 158.99 Q530.626 160.217 532.918 160.842 Q535.209 161.444 537.455 161.444 Q540.464 161.444 542.084 160.426 Q543.705 159.384 543.705 157.509 Q543.705 155.773 542.524 154.847 Q541.367 153.921 537.408 153.064 L535.927 152.717 Q531.969 151.884 530.209 150.171 Q528.45 148.435 528.45 145.426 Q528.45 141.768 531.043 139.778 Q533.635 137.787 538.404 137.787 Q540.765 137.787 542.848 138.134 Q544.931 138.481 546.691 139.176 Z" fill="#000000" fill-rule="nonzero" fill-opacity="1" /><path clip-path="url(#clip530)" d="M588.542 151.398 Q588.542 146.699 586.598 144.037 Q584.677 141.352 581.297 141.352 Q577.917 141.352 575.973 144.037 Q574.052 146.699 574.052 151.398 Q574.052 156.097 575.973 158.782 Q577.917 161.444 581.297 161.444 Q584.677 161.444 586.598 158.782 Q588.542 156.097 588.542 151.398 M574.052 142.347 Q575.394 140.032 577.431 138.921 Q579.491 137.787 582.339 137.787 Q587.061 137.787 590.001 141.537 Q592.964 145.287 592.964 151.398 Q592.964 157.509 590.001 161.259 Q587.061 165.009 582.339 165.009 Q579.491 165.009 577.431 163.898 Q575.394 162.763 574.052 160.449 L574.052 164.338 L569.769 164.338 L569.769 128.319 L574.052 128.319 L574.052 142.347 Z" fill="#000000" fill-rule="nonzero" fill-opacity="1" /><path clip-path="url(#clip530)" d="M610.811 166.745 Q609.005 171.375 607.292 172.787 Q605.579 174.199 602.709 174.199 L599.306 174.199 L599.306 170.634 L601.806 170.634 Q603.565 170.634 604.538 169.8 Q605.51 168.967 606.69 165.865 L607.454 163.921 L596.968 138.412 L601.482 138.412 L609.584 158.689 L617.686 138.412 L622.2 138.412 L610.811 166.745 Z" fill="#000000" fill-rule="nonzero" fill-opacity="1" /><path clip-path="url(#clip530)" d="M661.806 139.407 L661.806 143.389 Q660 142.393 658.172 141.907 Q656.366 141.398 654.514 141.398 Q650.371 141.398 648.079 144.037 Q645.787 146.652 645.787 151.398 Q645.787 156.143 648.079 158.782 Q650.371 161.398 654.514 161.398 Q656.366 161.398 658.172 160.912 Q660 160.402 661.806 159.407 L661.806 163.342 Q660.023 164.176 658.102 164.592 Q656.204 165.009 654.051 165.009 Q648.195 165.009 644.746 161.328 Q641.297 157.648 641.297 151.398 Q641.297 145.055 644.769 141.421 Q648.264 137.787 654.329 137.787 Q656.297 137.787 658.172 138.203 Q660.047 138.597 661.806 139.407 Z" fill="#000000" fill-rule="nonzero" fill-opacity="1" /><path clip-path="url(#clip530)" d="M679.259 141.398 Q675.834 141.398 673.843 144.083 Q671.852 146.745 671.852 151.398 Q671.852 156.051 673.82 158.736 Q675.81 161.398 679.259 161.398 Q682.662 161.398 684.653 158.713 Q686.644 156.027 686.644 151.398 Q686.644 146.791 684.653 144.106 Q682.662 141.398 679.259 141.398 M679.259 137.787 Q684.815 137.787 687.986 141.398 Q691.158 145.009 691.158 151.398 Q691.158 157.764 687.986 161.398 Q684.815 165.009 679.259 165.009 Q673.681 165.009 670.51 161.398 Q667.361 157.764 667.361 151.398 Q667.361 145.009 670.51 141.398 Q673.681 137.787 679.259 137.787 Z" fill="#000000" fill-rule="nonzero" fill-opacity="1" /><path clip-path="url(#clip530)" d="M698.218 128.319 L702.477 128.319 L702.477 164.338 L698.218 164.338 L698.218 128.319 Z" fill="#000000" fill-rule="nonzero" fill-opacity="1" /></svg>
