<?xml version="1.0" encoding="utf-8"?>
<svg xmlns="http://www.w3.org/2000/svg" xmlns:xlink="http://www.w3.org/1999/xlink" width="600" height="400" viewBox="0 0 2400 1600">
<defs>
  <clipPath id="clip580">
    <rect x="0" y="0" width="2400" height="1600"/>
  </clipPath>
</defs>
<path clip-path="url(#clip580)" d="M0 1600 L2400 1600 L2400 0 L0 0  Z" fill="#ffffff" fill-rule="evenodd" fill-opacity="1"/>
<defs>
  <clipPath id="clip581">
    <rect x="480" y="0" width="1681" height="1600"/>
  </clipPath>
</defs>
<path clip-path="url(#clip580)" d="M250.028 1423.18 L2352.76 1423.18 L2352.76 123.472 L250.028 123.472  Z" fill="#ffffff" fill-rule="evenodd" fill-opacity="1"/>
<defs>
  <clipPath id="clip582">
    <rect x="250" y="123" width="2104" height="1301"/>
  </clipPath>
</defs>
<polyline clip-path="url(#clip582)" style="stroke:#000000; stroke-linecap:round; stroke-linejoin:round; stroke-width:2; stroke-opacity:0.1; fill:none" points="289.502,1423.18 289.502,123.472 "/>
<polyline clip-path="url(#clip582)" style="stroke:#000000; stroke-linecap:round; stroke-linejoin:round; stroke-width:2; stroke-opacity:0.1; fill:none" points="790.438,1423.18 790.438,123.472 "/>
<polyline clip-path="url(#clip582)" style="stroke:#000000; stroke-linecap:round; stroke-linejoin:round; stroke-width:2; stroke-opacity:0.1; fill:none" points="1291.37,1423.18 1291.37,123.472 "/>
<polyline clip-path="url(#clip582)" style="stroke:#000000; stroke-linecap:round; stroke-linejoin:round; stroke-width:2; stroke-opacity:0.1; fill:none" points="1792.31,1423.18 1792.31,123.472 "/>
<polyline clip-path="url(#clip582)" style="stroke:#000000; stroke-linecap:round; stroke-linejoin:round; stroke-width:2; stroke-opacity:0.1; fill:none" points="2293.24,1423.18 2293.24,123.472 "/>
<polyline clip-path="url(#clip580)" style="stroke:#000000; stroke-linecap:round; stroke-linejoin:round; stroke-width:4; stroke-opacity:1; fill:none" points="250.028,1423.18 2352.76,1423.18 "/>
<polyline clip-path="url(#clip580)" style="stroke:#000000; stroke-linecap:round; stroke-linejoin:round; stroke-width:4; stroke-opacity:1; fill:none" points="289.502,1423.18 289.502,1404.28 "/>
<polyline clip-path="url(#clip580)" style="stroke:#000000; stroke-linecap:round; stroke-linejoin:round; stroke-width:4; stroke-opacity:1; fill:none" points="790.438,1423.18 790.438,1404.28 "/>
<polyline clip-path="url(#clip580)" style="stroke:#000000; stroke-linecap:round; stroke-linejoin:round; stroke-width:4; stroke-opacity:1; fill:none" points="1291.37,1423.18 1291.37,1404.28 "/>
<polyline clip-path="url(#clip580)" style="stroke:#000000; stroke-linecap:round; stroke-linejoin:round; stroke-width:4; stroke-opacity:1; fill:none" points="1792.31,1423.18 1792.31,1404.28 "/>
<polyline clip-path="url(#clip580)" style="stroke:#000000; stroke-linecap:round; stroke-linejoin:round; stroke-width:4; stroke-opacity:1; fill:none" points="2293.24,1423.18 2293.24,1404.28 "/>
<path clip-path="url(#clip580)" d="M289.502 1454.1 Q285.891 1454.1 284.062 1457.66 Q282.257 1461.2 282.257 1468.33 Q282.257 1475.44 284.062 1479.01 Q285.891 1482.55 289.502 1482.55 Q293.136 1482.55 294.942 1479.01 Q296.77 1475.44 296.77 1468.33 Q296.77 1461.2 294.942 1457.66 Q293.136 1454.1 289.502 1454.1 M289.502 1450.39 Q295.312 1450.39 298.368 1455 Q301.446 1459.58 301.446 1468.33 Q301.446 1477.06 298.368 1481.67 Q295.312 1486.25 289.502 1486.25 Q283.692 1486.25 280.613 1481.67 Q277.557 1477.06 277.557 1468.33 Q277.557 1459.58 280.613 1455 Q283.692 1450.39 289.502 1450.39 Z" fill="#000000" fill-rule="nonzero" fill-opacity="1" /><path clip-path="url(#clip580)" d="M769.709 1481.64 L786.028 1481.64 L786.028 1485.58 L764.084 1485.58 L764.084 1481.64 Q766.746 1478.89 771.329 1474.26 Q775.935 1469.61 777.116 1468.27 Q779.361 1465.74 780.241 1464.01 Q781.144 1462.25 781.144 1460.56 Q781.144 1457.8 779.199 1456.07 Q777.278 1454.33 774.176 1454.33 Q771.977 1454.33 769.523 1455.09 Q767.093 1455.86 764.315 1457.41 L764.315 1452.69 Q767.139 1451.55 769.593 1450.97 Q772.046 1450.39 774.084 1450.39 Q779.454 1450.39 782.648 1453.08 Q785.843 1455.77 785.843 1460.26 Q785.843 1462.39 785.033 1464.31 Q784.245 1466.2 782.139 1468.8 Q781.56 1469.47 778.458 1472.69 Q775.357 1475.88 769.709 1481.64 Z" fill="#000000" fill-rule="nonzero" fill-opacity="1" /><path clip-path="url(#clip580)" d="M795.889 1451.02 L814.245 1451.02 L814.245 1454.96 L800.171 1454.96 L800.171 1463.43 Q801.19 1463.08 802.208 1462.92 Q803.227 1462.73 804.245 1462.73 Q810.032 1462.73 813.412 1465.9 Q816.792 1469.08 816.792 1474.49 Q816.792 1480.07 813.319 1483.17 Q809.847 1486.25 803.528 1486.25 Q801.352 1486.25 799.083 1485.88 Q796.838 1485.51 794.431 1484.77 L794.431 1480.07 Q796.514 1481.2 798.736 1481.76 Q800.958 1482.32 803.435 1482.32 Q807.44 1482.32 809.778 1480.21 Q812.116 1478.1 812.116 1474.49 Q812.116 1470.88 809.778 1468.77 Q807.44 1466.67 803.435 1466.67 Q801.56 1466.67 799.685 1467.08 Q797.833 1467.5 795.889 1468.38 L795.889 1451.02 Z" fill="#000000" fill-rule="nonzero" fill-opacity="1" /><path clip-path="url(#clip580)" d="M1266.07 1451.02 L1284.43 1451.02 L1284.43 1454.96 L1270.35 1454.96 L1270.35 1463.43 Q1271.37 1463.08 1272.39 1462.92 Q1273.41 1462.73 1274.43 1462.73 Q1280.22 1462.73 1283.6 1465.9 Q1286.98 1469.08 1286.98 1474.49 Q1286.98 1480.07 1283.5 1483.17 Q1280.03 1486.25 1273.71 1486.25 Q1271.54 1486.25 1269.27 1485.88 Q1267.02 1485.51 1264.61 1484.77 L1264.61 1480.07 Q1266.7 1481.2 1268.92 1481.76 Q1271.14 1482.32 1273.62 1482.32 Q1277.62 1482.32 1279.96 1480.21 Q1282.3 1478.1 1282.3 1474.49 Q1282.3 1470.88 1279.96 1468.77 Q1277.62 1466.67 1273.62 1466.67 Q1271.74 1466.67 1269.87 1467.08 Q1268.02 1467.5 1266.07 1468.38 L1266.07 1451.02 Z" fill="#000000" fill-rule="nonzero" fill-opacity="1" /><path clip-path="url(#clip580)" d="M1306.19 1454.1 Q1302.58 1454.1 1300.75 1457.66 Q1298.94 1461.2 1298.94 1468.33 Q1298.94 1475.44 1300.75 1479.01 Q1302.58 1482.55 1306.19 1482.55 Q1309.82 1482.55 1311.63 1479.01 Q1313.46 1475.44 1313.46 1468.33 Q1313.46 1461.2 1311.63 1457.66 Q1309.82 1454.1 1306.19 1454.1 M1306.19 1450.39 Q1312 1450.39 1315.05 1455 Q1318.13 1459.58 1318.13 1468.33 Q1318.13 1477.06 1315.05 1481.67 Q1312 1486.25 1306.19 1486.25 Q1300.38 1486.25 1297.3 1481.67 Q1294.24 1477.06 1294.24 1468.33 Q1294.24 1459.58 1297.3 1455 Q1300.38 1450.39 1306.19 1450.39 Z" fill="#000000" fill-rule="nonzero" fill-opacity="1" /><path clip-path="url(#clip580)" d="M1766.16 1451.02 L1788.39 1451.02 L1788.39 1453.01 L1775.84 1485.58 L1770.95 1485.58 L1782.76 1454.96 L1766.16 1454.96 L1766.16 1451.02 Z" fill="#000000" fill-rule="nonzero" fill-opacity="1" /><path clip-path="url(#clip580)" d="M1797.55 1451.02 L1815.91 1451.02 L1815.91 1454.96 L1801.83 1454.96 L1801.83 1463.43 Q1802.85 1463.08 1803.87 1462.92 Q1804.89 1462.73 1805.91 1462.73 Q1811.7 1462.73 1815.08 1465.9 Q1818.45 1469.08 1818.45 1474.49 Q1818.45 1480.07 1814.98 1483.17 Q1811.51 1486.25 1805.19 1486.25 Q1803.01 1486.25 1800.75 1485.88 Q1798.5 1485.51 1796.09 1484.77 L1796.09 1480.07 Q1798.18 1481.2 1800.4 1481.76 Q1802.62 1482.32 1805.1 1482.32 Q1809.1 1482.32 1811.44 1480.21 Q1813.78 1478.1 1813.78 1474.49 Q1813.78 1470.88 1811.44 1468.77 Q1809.1 1466.67 1805.1 1466.67 Q1803.22 1466.67 1801.35 1467.08 Q1799.5 1467.5 1797.55 1468.38 L1797.55 1451.02 Z" fill="#000000" fill-rule="nonzero" fill-opacity="1" /><path clip-path="url(#clip580)" d="M2252.85 1481.64 L2260.49 1481.64 L2260.49 1455.28 L2252.18 1456.95 L2252.18 1452.69 L2260.44 1451.02 L2265.12 1451.02 L2265.12 1481.64 L2272.76 1481.64 L2272.76 1485.58 L2252.85 1485.58 L2252.85 1481.64 Z" fill="#000000" fill-rule="nonzero" fill-opacity="1" /><path clip-path="url(#clip580)" d="M2292.2 1454.1 Q2288.59 1454.1 2286.76 1457.66 Q2284.96 1461.2 2284.96 1468.33 Q2284.96 1475.44 2286.76 1479.01 Q2288.59 1482.55 2292.2 1482.55 Q2295.84 1482.55 2297.64 1479.01 Q2299.47 1475.44 2299.47 1468.33 Q2299.47 1461.2 2297.64 1457.66 Q2295.84 1454.1 2292.2 1454.1 M2292.2 1450.39 Q2298.01 1450.39 2301.07 1455 Q2304.15 1459.58 2304.15 1468.33 Q2304.15 1477.06 2301.07 1481.67 Q2298.01 1486.25 2292.2 1486.25 Q2286.39 1486.25 2283.31 1481.67 Q2280.26 1477.06 2280.26 1468.33 Q2280.26 1459.58 2283.31 1455 Q2286.39 1450.39 2292.2 1450.39 Z" fill="#000000" fill-rule="nonzero" fill-opacity="1" /><path clip-path="url(#clip580)" d="M2322.36 1454.1 Q2318.75 1454.1 2316.93 1457.66 Q2315.12 1461.2 2315.12 1468.33 Q2315.12 1475.44 2316.93 1479.01 Q2318.75 1482.55 2322.36 1482.55 Q2326 1482.55 2327.8 1479.01 Q2329.63 1475.44 2329.63 1468.33 Q2329.63 1461.2 2327.8 1457.66 Q2326 1454.1 2322.36 1454.1 M2322.36 1450.39 Q2328.18 1450.39 2331.23 1455 Q2334.31 1459.58 2334.31 1468.33 Q2334.31 1477.06 2331.23 1481.67 Q2328.18 1486.25 2322.36 1486.25 Q2316.55 1486.25 2313.48 1481.67 Q2310.42 1477.06 2310.42 1468.33 Q2310.42 1459.58 2313.48 1455 Q2316.55 1450.39 2322.36 1450.39 Z" fill="#000000" fill-rule="nonzero" fill-opacity="1" /><path clip-path="url(#clip580)" d="M1239.74 1548.76 L1239.74 1551.62 L1212.81 1551.62 Q1213.2 1557.67 1216.44 1560.85 Q1219.72 1564 1225.54 1564 Q1228.92 1564 1232.07 1563.17 Q1235.25 1562.35 1238.37 1560.69 L1238.37 1566.23 Q1235.22 1567.57 1231.91 1568.27 Q1228.6 1568.97 1225.19 1568.97 Q1216.66 1568.97 1211.67 1564 Q1206.7 1559.04 1206.7 1550.57 Q1206.7 1541.82 1211.41 1536.69 Q1216.16 1531.54 1224.18 1531.54 Q1231.37 1531.54 1235.54 1536.18 Q1239.74 1540.8 1239.74 1548.76 M1233.88 1547.04 Q1233.82 1542.23 1231.18 1539.37 Q1228.57 1536.5 1224.24 1536.5 Q1219.34 1536.5 1216.38 1539.27 Q1213.45 1542.04 1213 1547.07 L1233.88 1547.04 Z" fill="#000000" fill-rule="nonzero" fill-opacity="1" /><path clip-path="url(#clip580)" d="M1255.02 1562.7 L1255.02 1581.6 L1249.13 1581.6 L1249.13 1532.4 L1255.02 1532.4 L1255.02 1537.81 Q1256.86 1534.62 1259.66 1533.1 Q1262.5 1531.54 1266.41 1531.54 Q1272.91 1531.54 1276.95 1536.69 Q1281.02 1541.85 1281.02 1550.25 Q1281.02 1558.65 1276.95 1563.81 Q1272.91 1568.97 1266.41 1568.97 Q1262.5 1568.97 1259.66 1567.44 Q1256.86 1565.88 1255.02 1562.7 M1274.94 1550.25 Q1274.94 1543.79 1272.27 1540.13 Q1269.63 1536.44 1264.98 1536.44 Q1260.33 1536.44 1257.66 1540.13 Q1255.02 1543.79 1255.02 1550.25 Q1255.02 1556.71 1257.66 1560.4 Q1260.33 1564.07 1264.98 1564.07 Q1269.63 1564.07 1272.27 1560.4 Q1274.94 1556.71 1274.94 1550.25 Z" fill="#000000" fill-rule="nonzero" fill-opacity="1" /><path clip-path="url(#clip580)" d="M1304.54 1536.5 Q1299.83 1536.5 1297.1 1540.19 Q1294.36 1543.85 1294.36 1550.25 Q1294.36 1556.65 1297.06 1560.34 Q1299.8 1564 1304.54 1564 Q1309.22 1564 1311.96 1560.31 Q1314.7 1556.62 1314.7 1550.25 Q1314.7 1543.92 1311.96 1540.23 Q1309.22 1536.5 1304.54 1536.5 M1304.54 1531.54 Q1312.18 1531.54 1316.54 1536.5 Q1320.9 1541.47 1320.9 1550.25 Q1320.9 1559 1316.54 1564 Q1312.18 1568.97 1304.54 1568.97 Q1296.87 1568.97 1292.51 1564 Q1288.18 1559 1288.18 1550.25 Q1288.18 1541.47 1292.51 1536.5 Q1296.87 1531.54 1304.54 1531.54 Z" fill="#000000" fill-rule="nonzero" fill-opacity="1" /><path clip-path="url(#clip580)" d="M1356.26 1533.76 L1356.26 1539.24 Q1353.78 1537.87 1351.27 1537.2 Q1348.78 1536.5 1346.24 1536.5 Q1340.54 1536.5 1337.39 1540.13 Q1334.24 1543.73 1334.24 1550.25 Q1334.24 1556.78 1337.39 1560.4 Q1340.54 1564 1346.24 1564 Q1348.78 1564 1351.27 1563.33 Q1353.78 1562.63 1356.26 1561.26 L1356.26 1566.68 Q1353.81 1567.82 1351.17 1568.39 Q1348.56 1568.97 1345.6 1568.97 Q1337.55 1568.97 1332.81 1563.91 Q1328.06 1558.85 1328.06 1550.25 Q1328.06 1541.53 1332.84 1536.53 Q1337.64 1531.54 1345.98 1531.54 Q1348.69 1531.54 1351.27 1532.11 Q1353.85 1532.65 1356.26 1533.76 Z" fill="#000000" fill-rule="nonzero" fill-opacity="1" /><path clip-path="url(#clip580)" d="M1396.08 1546.53 L1396.08 1568.04 L1390.23 1568.04 L1390.23 1546.72 Q1390.23 1541.66 1388.25 1539.14 Q1386.28 1536.63 1382.33 1536.63 Q1377.59 1536.63 1374.85 1539.65 Q1372.12 1542.68 1372.12 1547.9 L1372.12 1568.04 L1366.23 1568.04 L1366.23 1518.52 L1372.12 1518.52 L1372.12 1537.93 Q1374.22 1534.72 1377.05 1533.13 Q1379.91 1531.54 1383.64 1531.54 Q1389.78 1531.54 1392.93 1535.36 Q1396.08 1539.14 1396.08 1546.53 Z" fill="#000000" fill-rule="nonzero" fill-opacity="1" /><polyline clip-path="url(#clip582)" style="stroke:#000000; stroke-linecap:round; stroke-linejoin:round; stroke-width:2; stroke-opacity:0.1; fill:none" points="250.028,1387.86 2352.76,1387.86 "/>
<polyline clip-path="url(#clip582)" style="stroke:#000000; stroke-linecap:round; stroke-linejoin:round; stroke-width:2; stroke-opacity:0.1; fill:none" points="250.028,1036.37 2352.76,1036.37 "/>
<polyline clip-path="url(#clip582)" style="stroke:#000000; stroke-linecap:round; stroke-linejoin:round; stroke-width:2; stroke-opacity:0.1; fill:none" points="250.028,684.879 2352.76,684.879 "/>
<polyline clip-path="url(#clip582)" style="stroke:#000000; stroke-linecap:round; stroke-linejoin:round; stroke-width:2; stroke-opacity:0.1; fill:none" points="250.028,333.388 2352.76,333.388 "/>
<polyline clip-path="url(#clip580)" style="stroke:#000000; stroke-linecap:round; stroke-linejoin:round; stroke-width:4; stroke-opacity:1; fill:none" points="250.028,1423.18 250.028,123.472 "/>
<polyline clip-path="url(#clip580)" style="stroke:#000000; stroke-linecap:round; stroke-linejoin:round; stroke-width:4; stroke-opacity:1; fill:none" points="250.028,1387.86 268.926,1387.86 "/>
<polyline clip-path="url(#clip580)" style="stroke:#000000; stroke-linecap:round; stroke-linejoin:round; stroke-width:4; stroke-opacity:1; fill:none" points="250.028,1036.37 268.926,1036.37 "/>
<polyline clip-path="url(#clip580)" style="stroke:#000000; stroke-linecap:round; stroke-linejoin:round; stroke-width:4; stroke-opacity:1; fill:none" points="250.028,684.879 268.926,684.879 "/>
<polyline clip-path="url(#clip580)" style="stroke:#000000; stroke-linecap:round; stroke-linejoin:round; stroke-width:4; stroke-opacity:1; fill:none" points="250.028,333.388 268.926,333.388 "/>
<path clip-path="url(#clip580)" d="M126.691 1373.66 Q123.08 1373.66 121.251 1377.23 Q119.445 1380.77 119.445 1387.9 Q119.445 1395 121.251 1398.57 Q123.08 1402.11 126.691 1402.11 Q130.325 1402.11 132.13 1398.57 Q133.959 1395 133.959 1387.9 Q133.959 1380.77 132.13 1377.23 Q130.325 1373.66 126.691 1373.66 M126.691 1369.96 Q132.501 1369.96 135.556 1374.56 Q138.635 1379.15 138.635 1387.9 Q138.635 1396.62 135.556 1401.23 Q132.501 1405.81 126.691 1405.81 Q120.88 1405.81 117.802 1401.23 Q114.746 1396.62 114.746 1387.9 Q114.746 1379.15 117.802 1374.56 Q120.88 1369.96 126.691 1369.96 Z" fill="#000000" fill-rule="nonzero" fill-opacity="1" /><path clip-path="url(#clip580)" d="M146.853 1399.26 L151.737 1399.26 L151.737 1405.14 L146.853 1405.14 L146.853 1399.26 Z" fill="#000000" fill-rule="nonzero" fill-opacity="1" /><path clip-path="url(#clip580)" d="M171.922 1373.66 Q168.311 1373.66 166.482 1377.23 Q164.677 1380.77 164.677 1387.9 Q164.677 1395 166.482 1398.57 Q168.311 1402.11 171.922 1402.11 Q175.556 1402.11 177.362 1398.57 Q179.19 1395 179.19 1387.9 Q179.19 1380.77 177.362 1377.23 Q175.556 1373.66 171.922 1373.66 M171.922 1369.96 Q177.732 1369.96 180.788 1374.56 Q183.866 1379.15 183.866 1387.9 Q183.866 1396.62 180.788 1401.23 Q177.732 1405.81 171.922 1405.81 Q166.112 1405.81 163.033 1401.23 Q159.978 1396.62 159.978 1387.9 Q159.978 1379.15 163.033 1374.56 Q166.112 1369.96 171.922 1369.96 Z" fill="#000000" fill-rule="nonzero" fill-opacity="1" /><path clip-path="url(#clip580)" d="M202.084 1373.66 Q198.473 1373.66 196.644 1377.23 Q194.838 1380.77 194.838 1387.9 Q194.838 1395 196.644 1398.57 Q198.473 1402.11 202.084 1402.11 Q205.718 1402.11 207.524 1398.57 Q209.352 1395 209.352 1387.9 Q209.352 1380.77 207.524 1377.23 Q205.718 1373.66 202.084 1373.66 M202.084 1369.96 Q207.894 1369.96 210.949 1374.56 Q214.028 1379.15 214.028 1387.9 Q214.028 1396.62 210.949 1401.23 Q207.894 1405.81 202.084 1405.81 Q196.274 1405.81 193.195 1401.23 Q190.139 1396.62 190.139 1387.9 Q190.139 1379.15 193.195 1374.56 Q196.274 1369.96 202.084 1369.96 Z" fill="#000000" fill-rule="nonzero" fill-opacity="1" /><path clip-path="url(#clip580)" d="M128.288 1022.17 Q124.677 1022.17 122.848 1025.73 Q121.043 1029.28 121.043 1036.41 Q121.043 1043.51 122.848 1047.08 Q124.677 1050.62 128.288 1050.62 Q131.922 1050.62 133.728 1047.08 Q135.556 1043.51 135.556 1036.41 Q135.556 1029.28 133.728 1025.73 Q131.922 1022.17 128.288 1022.17 M128.288 1018.47 Q134.098 1018.47 137.154 1023.07 Q140.232 1027.66 140.232 1036.41 Q140.232 1045.13 137.154 1049.74 Q134.098 1054.32 128.288 1054.32 Q122.478 1054.32 119.399 1049.74 Q116.343 1045.13 116.343 1036.41 Q116.343 1027.66 119.399 1023.07 Q122.478 1018.47 128.288 1018.47 Z" fill="#000000" fill-rule="nonzero" fill-opacity="1" /><path clip-path="url(#clip580)" d="M148.45 1047.77 L153.334 1047.77 L153.334 1053.65 L148.45 1053.65 L148.45 1047.77 Z" fill="#000000" fill-rule="nonzero" fill-opacity="1" /><path clip-path="url(#clip580)" d="M173.519 1022.17 Q169.908 1022.17 168.079 1025.73 Q166.274 1029.28 166.274 1036.41 Q166.274 1043.51 168.079 1047.08 Q169.908 1050.62 173.519 1050.62 Q177.153 1050.62 178.959 1047.08 Q180.788 1043.51 180.788 1036.41 Q180.788 1029.28 178.959 1025.73 Q177.153 1022.17 173.519 1022.17 M173.519 1018.47 Q179.329 1018.47 182.385 1023.07 Q185.463 1027.66 185.463 1036.41 Q185.463 1045.13 182.385 1049.74 Q179.329 1054.32 173.519 1054.32 Q167.709 1054.32 164.63 1049.74 Q161.575 1045.13 161.575 1036.41 Q161.575 1027.66 164.63 1023.07 Q167.709 1018.47 173.519 1018.47 Z" fill="#000000" fill-rule="nonzero" fill-opacity="1" /><path clip-path="url(#clip580)" d="M197.709 1049.72 L214.028 1049.72 L214.028 1053.65 L192.084 1053.65 L192.084 1049.72 Q194.746 1046.96 199.329 1042.33 Q203.936 1037.68 205.116 1036.34 Q207.362 1033.81 208.241 1032.08 Q209.144 1030.32 209.144 1028.63 Q209.144 1025.87 207.199 1024.14 Q205.278 1022.4 202.176 1022.4 Q199.977 1022.4 197.524 1023.17 Q195.093 1023.93 192.315 1025.48 L192.315 1020.76 Q195.139 1019.62 197.593 1019.04 Q200.047 1018.47 202.084 1018.47 Q207.454 1018.47 210.649 1021.15 Q213.843 1023.84 213.843 1028.33 Q213.843 1030.46 213.033 1032.38 Q212.246 1034.28 210.139 1036.87 Q209.561 1037.54 206.459 1040.76 Q203.357 1043.95 197.709 1049.72 Z" fill="#000000" fill-rule="nonzero" fill-opacity="1" /><path clip-path="url(#clip580)" d="M126.205 670.678 Q122.593 670.678 120.765 674.243 Q118.959 677.785 118.959 684.914 Q118.959 692.021 120.765 695.585 Q122.593 699.127 126.205 699.127 Q129.839 699.127 131.644 695.585 Q133.473 692.021 133.473 684.914 Q133.473 677.785 131.644 674.243 Q129.839 670.678 126.205 670.678 M126.205 666.974 Q132.015 666.974 135.07 671.581 Q138.149 676.164 138.149 684.914 Q138.149 693.641 135.07 698.247 Q132.015 702.831 126.205 702.831 Q120.394 702.831 117.316 698.247 Q114.26 693.641 114.26 684.914 Q114.26 676.164 117.316 671.581 Q120.394 666.974 126.205 666.974 Z" fill="#000000" fill-rule="nonzero" fill-opacity="1" /><path clip-path="url(#clip580)" d="M146.366 696.28 L151.251 696.28 L151.251 702.159 L146.366 702.159 L146.366 696.28 Z" fill="#000000" fill-rule="nonzero" fill-opacity="1" /><path clip-path="url(#clip580)" d="M171.436 670.678 Q167.825 670.678 165.996 674.243 Q164.19 677.785 164.19 684.914 Q164.19 692.021 165.996 695.585 Q167.825 699.127 171.436 699.127 Q175.07 699.127 176.876 695.585 Q178.704 692.021 178.704 684.914 Q178.704 677.785 176.876 674.243 Q175.07 670.678 171.436 670.678 M171.436 666.974 Q177.246 666.974 180.301 671.581 Q183.38 676.164 183.38 684.914 Q183.38 693.641 180.301 698.247 Q177.246 702.831 171.436 702.831 Q165.626 702.831 162.547 698.247 Q159.491 693.641 159.491 684.914 Q159.491 676.164 162.547 671.581 Q165.626 666.974 171.436 666.974 Z" fill="#000000" fill-rule="nonzero" fill-opacity="1" /><path clip-path="url(#clip580)" d="M204.445 671.674 L192.639 690.123 L204.445 690.123 L204.445 671.674 M203.218 667.599 L209.098 667.599 L209.098 690.123 L214.028 690.123 L214.028 694.011 L209.098 694.011 L209.098 702.159 L204.445 702.159 L204.445 694.011 L188.843 694.011 L188.843 689.498 L203.218 667.599 Z" fill="#000000" fill-rule="nonzero" fill-opacity="1" /><path clip-path="url(#clip580)" d="M126.529 319.187 Q122.918 319.187 121.089 322.751 Q119.283 326.293 119.283 333.423 Q119.283 340.529 121.089 344.094 Q122.918 347.636 126.529 347.636 Q130.163 347.636 131.968 344.094 Q133.797 340.529 133.797 333.423 Q133.797 326.293 131.968 322.751 Q130.163 319.187 126.529 319.187 M126.529 315.483 Q132.339 315.483 135.394 320.089 Q138.473 324.673 138.473 333.423 Q138.473 342.149 135.394 346.756 Q132.339 351.339 126.529 351.339 Q120.718 351.339 117.64 346.756 Q114.584 342.149 114.584 333.423 Q114.584 324.673 117.64 320.089 Q120.718 315.483 126.529 315.483 Z" fill="#000000" fill-rule="nonzero" fill-opacity="1" /><path clip-path="url(#clip580)" d="M146.691 344.788 L151.575 344.788 L151.575 350.668 L146.691 350.668 L146.691 344.788 Z" fill="#000000" fill-rule="nonzero" fill-opacity="1" /><path clip-path="url(#clip580)" d="M171.76 319.187 Q168.149 319.187 166.32 322.751 Q164.515 326.293 164.515 333.423 Q164.515 340.529 166.32 344.094 Q168.149 347.636 171.76 347.636 Q175.394 347.636 177.2 344.094 Q179.028 340.529 179.028 333.423 Q179.028 326.293 177.2 322.751 Q175.394 319.187 171.76 319.187 M171.76 315.483 Q177.57 315.483 180.626 320.089 Q183.704 324.673 183.704 333.423 Q183.704 342.149 180.626 346.756 Q177.57 351.339 171.76 351.339 Q165.95 351.339 162.871 346.756 Q159.815 342.149 159.815 333.423 Q159.815 324.673 162.871 320.089 Q165.95 315.483 171.76 315.483 Z" fill="#000000" fill-rule="nonzero" fill-opacity="1" /><path clip-path="url(#clip580)" d="M202.5 331.524 Q199.352 331.524 197.5 333.677 Q195.672 335.83 195.672 339.58 Q195.672 343.307 197.5 345.483 Q199.352 347.636 202.5 347.636 Q205.649 347.636 207.477 345.483 Q209.329 343.307 209.329 339.58 Q209.329 335.83 207.477 333.677 Q205.649 331.524 202.5 331.524 M211.783 316.872 L211.783 321.131 Q210.024 320.298 208.218 319.858 Q206.436 319.418 204.676 319.418 Q200.047 319.418 197.593 322.543 Q195.163 325.668 194.815 331.987 Q196.181 329.974 198.241 328.909 Q200.301 327.821 202.778 327.821 Q207.987 327.821 210.996 330.992 Q214.028 334.14 214.028 339.58 Q214.028 344.904 210.88 348.122 Q207.732 351.339 202.5 351.339 Q196.505 351.339 193.334 346.756 Q190.163 342.149 190.163 333.423 Q190.163 325.228 194.051 320.367 Q197.94 315.483 204.491 315.483 Q206.25 315.483 208.033 315.83 Q209.838 316.177 211.783 316.872 Z" fill="#000000" fill-rule="nonzero" fill-opacity="1" /><path clip-path="url(#clip580)" d="M14.479 1004.56 L14.479 998.704 L64.0042 998.704 L64.0042 1004.56 L14.479 1004.56 Z" fill="#000000" fill-rule="nonzero" fill-opacity="1" /><path clip-path="url(#clip580)" d="M32.4621 972.636 Q32.4621 977.347 36.1542 980.084 Q39.8145 982.821 46.212 982.821 Q52.6095 982.821 56.3017 980.116 Q59.9619 977.379 59.9619 972.636 Q59.9619 967.957 56.2698 965.22 Q52.5777 962.483 46.212 962.483 Q39.8781 962.483 36.186 965.22 Q32.4621 967.957 32.4621 972.636 M27.4968 972.636 Q27.4968 964.997 32.4621 960.637 Q37.4273 956.276 46.212 956.276 Q54.9649 956.276 59.9619 960.637 Q64.9272 964.997 64.9272 972.636 Q64.9272 980.307 59.9619 984.667 Q54.9649 988.996 46.212 988.996 Q37.4273 988.996 32.4621 984.667 Q27.4968 980.307 27.4968 972.636 Z" fill="#000000" fill-rule="nonzero" fill-opacity="1" /><path clip-path="url(#clip580)" d="M29.4065 923.843 L34.9447 923.843 Q33.6716 926.326 33.035 928.999 Q32.3984 931.673 32.3984 934.538 Q32.3984 938.898 33.7352 941.094 Q35.072 943.259 37.7456 943.259 Q39.7826 943.259 40.9603 941.699 Q42.1061 940.139 43.1565 935.429 L43.6021 933.424 Q44.9389 927.185 47.3897 924.575 Q49.8086 921.933 54.1691 921.933 Q59.1344 921.933 62.0308 925.88 Q64.9272 929.795 64.9272 936.67 Q64.9272 939.535 64.3543 942.654 Q63.8132 945.741 62.6992 949.179 L56.6518 949.179 Q58.3387 945.932 59.198 942.781 Q60.0256 939.63 60.0256 936.543 Q60.0256 932.405 58.6251 930.177 Q57.1929 927.949 54.6147 927.949 Q52.2276 927.949 50.9545 929.572 Q49.6813 931.164 48.5037 936.606 L48.0262 938.643 Q46.8804 944.086 44.5251 946.505 Q42.138 948.924 38.0002 948.924 Q32.9713 948.924 30.2341 945.359 Q27.4968 941.794 27.4968 935.238 Q27.4968 931.991 27.9743 929.127 Q28.4517 926.262 29.4065 923.843 Z" fill="#000000" fill-rule="nonzero" fill-opacity="1" /><path clip-path="url(#clip580)" d="M29.4065 889.882 L34.9447 889.882 Q33.6716 892.365 33.035 895.038 Q32.3984 897.712 32.3984 900.576 Q32.3984 904.937 33.7352 907.133 Q35.072 909.297 37.7456 909.297 Q39.7826 909.297 40.9603 907.738 Q42.1061 906.178 43.1565 901.468 L43.6021 899.462 Q44.9389 893.224 47.3897 890.614 Q49.8086 887.972 54.1691 887.972 Q59.1344 887.972 62.0308 891.919 Q64.9272 895.834 64.9272 902.709 Q64.9272 905.574 64.3543 908.693 Q63.8132 911.78 62.6992 915.218 L56.6518 915.218 Q58.3387 911.971 59.198 908.82 Q60.0256 905.669 60.0256 902.582 Q60.0256 898.444 58.6251 896.216 Q57.1929 893.988 54.6147 893.988 Q52.2276 893.988 50.9545 895.611 Q49.6813 897.203 48.5037 902.645 L48.0262 904.682 Q46.8804 910.125 44.5251 912.544 Q42.138 914.963 38.0002 914.963 Q32.9713 914.963 30.2341 911.398 Q27.4968 907.833 27.4968 901.277 Q27.4968 898.03 27.9743 895.166 Q28.4517 892.301 29.4065 889.882 Z" fill="#000000" fill-rule="nonzero" fill-opacity="1" /><path clip-path="url(#clip580)" d="M58.657 852.261 L77.5631 852.261 L77.5631 858.149 L28.3562 858.149 L28.3562 852.261 L33.7671 852.261 Q30.5842 850.415 29.0564 847.614 Q27.4968 844.781 27.4968 840.866 Q27.4968 834.373 32.6531 830.331 Q37.8093 826.257 46.212 826.257 Q54.6147 826.257 59.771 830.331 Q64.9272 834.373 64.9272 840.866 Q64.9272 844.781 63.3994 847.614 Q61.8398 850.415 58.657 852.261 M46.212 832.336 Q39.7508 832.336 36.0905 835.01 Q32.3984 837.651 32.3984 842.298 Q32.3984 846.945 36.0905 849.619 Q39.7508 852.261 46.212 852.261 Q52.6732 852.261 56.3653 849.619 Q60.0256 846.945 60.0256 842.298 Q60.0256 837.651 56.3653 835.01 Q52.6732 832.336 46.212 832.336 Z" fill="#000000" fill-rule="nonzero" fill-opacity="1" /><path clip-path="url(#clip580)" d="M44.7161 786.057 L47.5806 786.057 L47.5806 812.984 Q53.6281 812.602 56.8109 809.356 Q59.9619 806.078 59.9619 800.253 Q59.9619 796.879 59.1344 793.728 Q58.3069 790.545 56.6518 787.426 L62.1899 787.426 Q63.5267 790.577 64.227 793.887 Q64.9272 797.197 64.9272 800.603 Q64.9272 809.133 59.9619 814.13 Q54.9967 819.095 46.5303 819.095 Q37.7774 819.095 32.6531 814.385 Q27.4968 809.642 27.4968 801.622 Q27.4968 794.428 32.1438 790.259 Q36.7589 786.057 44.7161 786.057 M42.9973 791.914 Q38.1912 791.978 35.3266 794.619 Q32.4621 797.229 32.4621 801.558 Q32.4621 806.459 35.2312 809.42 Q38.0002 812.348 43.0292 812.793 L42.9973 791.914 Z" fill="#000000" fill-rule="nonzero" fill-opacity="1" /><path clip-path="url(#clip580)" d="M33.8307 755.788 Q33.2578 756.775 33.0032 757.953 Q32.7167 759.099 32.7167 760.499 Q32.7167 765.464 35.9632 768.138 Q39.1779 770.78 45.2253 770.78 L64.0042 770.78 L64.0042 776.668 L28.3562 776.668 L28.3562 770.78 L33.8944 770.78 Q30.6479 768.934 29.0883 765.974 Q27.4968 763.014 27.4968 758.78 Q27.4968 758.176 27.5923 757.444 Q27.656 756.711 27.8151 755.82 L33.8307 755.788 Z" fill="#000000" fill-rule="nonzero" fill-opacity="1" /><path clip-path="url(#clip580)" d="M44.7161 698.433 L47.5806 698.433 L47.5806 725.36 Q53.6281 724.978 56.8109 721.732 Q59.9619 718.454 59.9619 712.629 Q59.9619 709.255 59.1344 706.104 Q58.3069 702.921 56.6518 699.802 L62.1899 699.802 Q63.5267 702.953 64.227 706.263 Q64.9272 709.573 64.9272 712.979 Q64.9272 721.509 59.9619 726.506 Q54.9967 731.471 46.5303 731.471 Q37.7774 731.471 32.6531 726.761 Q27.4968 722.018 27.4968 713.998 Q27.4968 706.804 32.1438 702.635 Q36.7589 698.433 44.7161 698.433 M42.9973 704.29 Q38.1912 704.354 35.3266 706.995 Q32.4621 709.605 32.4621 713.934 Q32.4621 718.836 35.2312 721.796 Q38.0002 724.724 43.0292 725.169 L42.9973 704.29 Z" fill="#000000" fill-rule="nonzero" fill-opacity="1" /><path clip-path="url(#clip580)" d="M58.657 683.156 L77.5631 683.156 L77.5631 689.044 L28.3562 689.044 L28.3562 683.156 L33.7671 683.156 Q30.5842 681.31 29.0564 678.509 Q27.4968 675.676 27.4968 671.761 Q27.4968 665.268 32.6531 661.226 Q37.8093 657.152 46.212 657.152 Q54.6147 657.152 59.771 661.226 Q64.9272 665.268 64.9272 671.761 Q64.9272 675.676 63.3994 678.509 Q61.8398 681.31 58.657 683.156 M46.212 663.231 Q39.7508 663.231 36.0905 665.905 Q32.3984 668.546 32.3984 673.193 Q32.3984 677.84 36.0905 680.514 Q39.7508 683.156 46.212 683.156 Q52.6732 683.156 56.3653 680.514 Q60.0256 677.84 60.0256 673.193 Q60.0256 668.546 56.3653 665.905 Q52.6732 663.231 46.212 663.231 Z" fill="#000000" fill-rule="nonzero" fill-opacity="1" /><path clip-path="url(#clip580)" d="M32.4621 633.631 Q32.4621 638.341 36.1542 641.078 Q39.8145 643.816 46.212 643.816 Q52.6095 643.816 56.3017 641.11 Q59.9619 638.373 59.9619 633.631 Q59.9619 628.952 56.2698 626.215 Q52.5777 623.477 46.212 623.477 Q39.8781 623.477 36.186 626.215 Q32.4621 628.952 32.4621 633.631 M27.4968 633.631 Q27.4968 625.992 32.4621 621.631 Q37.4273 617.271 46.212 617.271 Q54.9649 617.271 59.9619 621.631 Q64.9272 625.992 64.9272 633.631 Q64.9272 641.301 59.9619 645.662 Q54.9649 649.99 46.212 649.99 Q37.4273 649.99 32.4621 645.662 Q27.4968 641.301 27.4968 633.631 Z" fill="#000000" fill-rule="nonzero" fill-opacity="1" /><path clip-path="url(#clip580)" d="M29.7248 581.909 L35.1993 581.909 Q33.8307 584.392 33.1623 586.906 Q32.4621 589.389 32.4621 591.935 Q32.4621 597.632 36.0905 600.784 Q39.6872 603.935 46.212 603.935 Q52.7369 603.935 56.3653 600.784 Q59.9619 597.632 59.9619 591.935 Q59.9619 589.389 59.2935 586.906 Q58.5933 584.392 57.2247 581.909 L62.6355 581.909 Q63.7814 584.36 64.3543 587.002 Q64.9272 589.612 64.9272 592.572 Q64.9272 600.624 59.8664 605.367 Q54.8057 610.109 46.212 610.109 Q37.491 610.109 32.4939 605.335 Q27.4968 600.529 27.4968 592.19 Q27.4968 589.484 28.0697 586.906 Q28.6108 584.328 29.7248 581.909 Z" fill="#000000" fill-rule="nonzero" fill-opacity="1" /><path clip-path="url(#clip580)" d="M42.4881 542.092 L64.0042 542.092 L64.0042 547.948 L42.679 547.948 Q37.6183 547.948 35.1038 549.922 Q32.5894 551.895 32.5894 555.842 Q32.5894 560.584 35.6131 563.321 Q38.6368 566.059 43.8567 566.059 L64.0042 566.059 L64.0042 571.947 L14.479 571.947 L14.479 566.059 L33.8944 566.059 Q30.6797 563.958 29.0883 561.125 Q27.4968 558.261 27.4968 554.537 Q27.4968 548.394 31.3163 545.243 Q35.1038 542.092 42.4881 542.092 Z" fill="#000000" fill-rule="nonzero" fill-opacity="1" /><path clip-path="url(#clip580)" d="M996.399 12.096 L1004.58 12.096 L1004.58 65.6895 L1034.03 65.6895 L1034.03 72.576 L996.399 72.576 L996.399 12.096 Z" fill="#000000" fill-rule="nonzero" fill-opacity="1" /><path clip-path="url(#clip580)" d="M1058.42 32.4315 Q1052.42 32.4315 1048.94 37.1306 Q1045.46 41.7891 1045.46 49.9314 Q1045.46 58.0738 1048.9 62.7728 Q1052.38 67.4314 1058.42 67.4314 Q1064.37 67.4314 1067.86 62.7323 Q1071.34 58.0333 1071.34 49.9314 Q1071.34 41.8701 1067.86 37.1711 Q1064.37 32.4315 1058.42 32.4315 M1058.42 26.1121 Q1068.14 26.1121 1073.69 32.4315 Q1079.24 38.7509 1079.24 49.9314 Q1079.24 61.0714 1073.69 67.4314 Q1068.14 73.7508 1058.42 73.7508 Q1048.66 73.7508 1043.11 67.4314 Q1037.6 61.0714 1037.6 49.9314 Q1037.6 38.7509 1043.11 32.4315 Q1048.66 26.1121 1058.42 26.1121 Z" fill="#000000" fill-rule="nonzero" fill-opacity="1" /><path clip-path="url(#clip580)" d="M1120.52 28.5427 L1120.52 35.5912 Q1117.36 33.9709 1113.96 33.1607 Q1110.55 32.3505 1106.91 32.3505 Q1101.36 32.3505 1098.56 34.0519 Q1095.81 35.7533 1095.81 39.156 Q1095.81 41.7486 1097.79 43.2475 Q1099.78 44.7058 1105.77 46.0426 L1108.33 46.6097 Q1116.27 48.3111 1119.59 51.4303 Q1122.95 54.509 1122.95 60.0587 Q1122.95 66.3781 1117.93 70.0644 Q1112.94 73.7508 1104.19 73.7508 Q1100.55 73.7508 1096.58 73.0216 Q1092.65 72.3329 1088.27 70.9151 L1088.27 63.2184 Q1092.41 65.3654 1096.42 66.4591 Q1100.43 67.5124 1104.36 67.5124 Q1109.62 67.5124 1112.46 65.73 Q1115.29 63.9071 1115.29 60.6258 Q1115.29 57.5877 1113.23 55.9673 Q1111.2 54.3469 1104.28 52.8481 L1101.68 52.2405 Q1094.76 50.7821 1091.68 47.7845 Q1088.6 44.7463 1088.6 39.4801 Q1088.6 33.0797 1093.14 29.5959 Q1097.67 26.1121 1106.02 26.1121 Q1110.15 26.1121 1113.79 26.7198 Q1117.44 27.3274 1120.52 28.5427 Z" fill="#000000" fill-rule="nonzero" fill-opacity="1" /><path clip-path="url(#clip580)" d="M1163.74 28.5427 L1163.74 35.5912 Q1160.58 33.9709 1157.18 33.1607 Q1153.78 32.3505 1150.13 32.3505 Q1144.58 32.3505 1141.79 34.0519 Q1139.03 35.7533 1139.03 39.156 Q1139.03 41.7486 1141.02 43.2475 Q1143 44.7058 1149 46.0426 L1151.55 46.6097 Q1159.49 48.3111 1162.81 51.4303 Q1166.17 54.509 1166.17 60.0587 Q1166.17 66.3781 1161.15 70.0644 Q1156.17 73.7508 1147.42 73.7508 Q1143.77 73.7508 1139.8 73.0216 Q1135.87 72.3329 1131.5 70.9151 L1131.5 63.2184 Q1135.63 65.3654 1139.64 66.4591 Q1143.65 67.5124 1147.58 67.5124 Q1152.85 67.5124 1155.68 65.73 Q1158.52 63.9071 1158.52 60.6258 Q1158.52 57.5877 1156.45 55.9673 Q1154.43 54.3469 1147.5 52.8481 L1144.91 52.2405 Q1137.98 50.7821 1134.9 47.7845 Q1131.82 44.7463 1131.82 39.4801 Q1131.82 33.0797 1136.36 29.5959 Q1140.9 26.1121 1149.24 26.1121 Q1153.37 26.1121 1157.02 26.7198 Q1160.66 27.3274 1163.74 28.5427 Z" fill="#000000" fill-rule="nonzero" fill-opacity="1" /><path clip-path="url(#clip580)" d="M1211.62 65.7705 L1211.62 89.8329 L1204.13 89.8329 L1204.13 27.2059 L1211.62 27.2059 L1211.62 34.0924 Q1213.97 30.0415 1217.54 28.0971 Q1221.14 26.1121 1226.13 26.1121 Q1234.39 26.1121 1239.53 32.6746 Q1244.72 39.2371 1244.72 49.9314 Q1244.72 60.6258 1239.53 67.1883 Q1234.39 73.7508 1226.13 73.7508 Q1221.14 73.7508 1217.54 71.8063 Q1213.97 69.8214 1211.62 65.7705 M1236.98 49.9314 Q1236.98 41.7081 1233.58 37.0496 Q1230.22 32.3505 1224.3 32.3505 Q1218.39 32.3505 1214.99 37.0496 Q1211.62 41.7081 1211.62 49.9314 Q1211.62 58.1548 1214.99 62.8538 Q1218.39 67.5124 1224.3 67.5124 Q1230.22 67.5124 1233.58 62.8538 Q1236.98 58.1548 1236.98 49.9314 Z" fill="#000000" fill-rule="nonzero" fill-opacity="1" /><path clip-path="url(#clip580)" d="M1295.88 48.0275 L1295.88 51.6733 L1261.61 51.6733 Q1262.1 59.3701 1266.23 63.421 Q1270.4 67.4314 1277.82 67.4314 Q1282.11 67.4314 1286.12 66.3781 Q1290.17 65.3249 1294.14 63.2184 L1294.14 70.267 Q1290.13 71.9684 1285.92 72.8596 Q1281.7 73.7508 1277.37 73.7508 Q1266.51 73.7508 1260.15 67.4314 Q1253.83 61.1119 1253.83 50.3365 Q1253.83 39.1965 1259.83 32.6746 Q1265.87 26.1121 1276.07 26.1121 Q1285.23 26.1121 1290.54 32.0264 Q1295.88 37.9003 1295.88 48.0275 M1288.43 45.84 Q1288.35 39.7232 1284.99 36.0774 Q1281.66 32.4315 1276.15 32.4315 Q1269.92 32.4315 1266.15 35.9558 Q1262.42 39.4801 1261.86 45.8805 L1288.43 45.84 Z" fill="#000000" fill-rule="nonzero" fill-opacity="1" /><path clip-path="url(#clip580)" d="M1334.41 34.1734 Q1333.15 33.4443 1331.65 33.1202 Q1330.19 32.7556 1328.41 32.7556 Q1322.09 32.7556 1318.69 36.8875 Q1315.33 40.9789 1315.33 48.6757 L1315.33 72.576 L1307.83 72.576 L1307.83 27.2059 L1315.33 27.2059 L1315.33 34.2544 Q1317.68 30.1225 1321.44 28.1376 Q1325.21 26.1121 1330.6 26.1121 Q1331.37 26.1121 1332.3 26.2337 Q1333.23 26.3147 1334.37 26.5172 L1334.41 34.1734 Z" fill="#000000" fill-rule="nonzero" fill-opacity="1" /><path clip-path="url(#clip580)" d="M1407.4 48.0275 L1407.4 51.6733 L1373.13 51.6733 Q1373.62 59.3701 1377.75 63.421 Q1381.92 67.4314 1389.34 67.4314 Q1393.63 67.4314 1397.64 66.3781 Q1401.69 65.3249 1405.66 63.2184 L1405.66 70.267 Q1401.65 71.9684 1397.44 72.8596 Q1393.23 73.7508 1388.89 73.7508 Q1378.04 73.7508 1371.68 67.4314 Q1365.36 61.1119 1365.36 50.3365 Q1365.36 39.1965 1371.35 32.6746 Q1377.39 26.1121 1387.6 26.1121 Q1396.75 26.1121 1402.06 32.0264 Q1407.4 37.9003 1407.4 48.0275 M1399.95 45.84 Q1399.87 39.7232 1396.51 36.0774 Q1393.19 32.4315 1387.68 32.4315 Q1381.44 32.4315 1377.67 35.9558 Q1373.94 39.4801 1373.38 45.8805 L1399.95 45.84 Z" fill="#000000" fill-rule="nonzero" fill-opacity="1" /><path clip-path="url(#clip580)" d="M1426.85 65.7705 L1426.85 89.8329 L1419.35 89.8329 L1419.35 27.2059 L1426.85 27.2059 L1426.85 34.0924 Q1429.2 30.0415 1432.76 28.0971 Q1436.37 26.1121 1441.35 26.1121 Q1449.61 26.1121 1454.76 32.6746 Q1459.94 39.2371 1459.94 49.9314 Q1459.94 60.6258 1454.76 67.1883 Q1449.61 73.7508 1441.35 73.7508 Q1436.37 73.7508 1432.76 71.8063 Q1429.2 69.8214 1426.85 65.7705 M1452.21 49.9314 Q1452.21 41.7081 1448.8 37.0496 Q1445.44 32.3505 1439.53 32.3505 Q1433.61 32.3505 1430.21 37.0496 Q1426.85 41.7081 1426.85 49.9314 Q1426.85 58.1548 1430.21 62.8538 Q1433.61 67.5124 1439.53 67.5124 Q1445.44 67.5124 1448.8 62.8538 Q1452.21 58.1548 1452.21 49.9314 Z" fill="#000000" fill-rule="nonzero" fill-opacity="1" /><path clip-path="url(#clip580)" d="M1489.88 32.4315 Q1483.89 32.4315 1480.4 37.1306 Q1476.92 41.7891 1476.92 49.9314 Q1476.92 58.0738 1480.36 62.7728 Q1483.84 67.4314 1489.88 67.4314 Q1495.84 67.4314 1499.32 62.7323 Q1502.8 58.0333 1502.8 49.9314 Q1502.8 41.8701 1499.32 37.1711 Q1495.84 32.4315 1489.88 32.4315 M1489.88 26.1121 Q1499.6 26.1121 1505.15 32.4315 Q1510.7 38.7509 1510.7 49.9314 Q1510.7 61.0714 1505.15 67.4314 Q1499.6 73.7508 1489.88 73.7508 Q1480.12 73.7508 1474.57 67.4314 Q1469.06 61.0714 1469.06 49.9314 Q1469.06 38.7509 1474.57 32.4315 Q1480.12 26.1121 1489.88 26.1121 Z" fill="#000000" fill-rule="nonzero" fill-opacity="1" /><path clip-path="url(#clip580)" d="M1555.71 28.9478 L1555.71 35.9153 Q1552.55 34.1734 1549.35 33.3227 Q1546.19 32.4315 1542.95 32.4315 Q1535.7 32.4315 1531.69 37.0496 Q1527.68 41.6271 1527.68 49.9314 Q1527.68 58.2358 1531.69 62.8538 Q1535.7 67.4314 1542.95 67.4314 Q1546.19 67.4314 1549.35 66.5807 Q1552.55 65.6895 1555.71 63.9476 L1555.71 70.8341 Q1552.59 72.2924 1549.23 73.0216 Q1545.9 73.7508 1542.14 73.7508 Q1531.89 73.7508 1525.85 67.3098 Q1519.82 60.8689 1519.82 49.9314 Q1519.82 38.832 1525.89 32.472 Q1532.01 26.1121 1542.62 26.1121 Q1546.07 26.1121 1549.35 26.8413 Q1552.63 27.5299 1555.71 28.9478 Z" fill="#000000" fill-rule="nonzero" fill-opacity="1" /><path clip-path="url(#clip580)" d="M1606.38 45.1919 L1606.38 72.576 L1598.93 72.576 L1598.93 45.4349 Q1598.93 38.994 1596.42 35.7938 Q1593.91 32.5936 1588.88 32.5936 Q1582.85 32.5936 1579.37 36.4419 Q1575.88 40.2903 1575.88 46.9338 L1575.88 72.576 L1568.39 72.576 L1568.39 9.54393 L1575.88 9.54393 L1575.88 34.2544 Q1578.55 30.163 1582.16 28.1376 Q1585.81 26.1121 1590.55 26.1121 Q1598.36 26.1121 1602.37 30.9732 Q1606.38 35.7938 1606.38 45.1919 Z" fill="#000000" fill-rule="nonzero" fill-opacity="1" /><polyline clip-path="url(#clip582)" style="stroke:#009af9; stroke-linecap:round; stroke-linejoin:round; stroke-width:4; stroke-opacity:1; fill:none" points="309.539,160.256 329.577,545.462 349.614,677.846 369.652,692.565 389.689,693.832 409.726,709.625 429.764,723.293 449.801,728.908 469.839,740.31 489.876,747.486 509.914,755.735 529.951,765.626 549.988,775.5 570.026,784.35 590.063,794.854 610.101,806.594 630.138,817.374 650.176,830.355 670.213,841.599 690.25,855.439 710.288,869.889 730.325,882.146 750.363,894.243 770.4,903.69 790.438,917.64 810.475,934.484 830.512,949.006 850.55,963.905 870.587,975.016 890.625,989.45 910.662,1002.09 930.7,1024.48 950.737,1041.8 970.774,1057.43 990.812,1071.9 1010.85,1088.19 1030.89,1104.31 1050.92,1118.57 1070.96,1132.81 1091,1146.99 1111.04,1161.67 1131.07,1176.14 1151.11,1192.99 1171.15,1205.14 1191.19,1220.76 1211.22,1231.41 1231.26,1248.5 1251.3,1257.22 1271.34,1271.72 1291.37,1281.32 1311.41,1292.92 1331.45,1303.77 1351.49,1306.03 1371.52,1321.23 1391.56,1331.6 1411.6,1339.19 1431.64,1326.43 1451.67,1327.96 1471.71,1344.16 1491.75,1351.03 1511.79,1350.01 1531.82,1351.94 1551.86,1362.6 1571.9,1359.53 1591.93,1351.71 1611.97,1352.34 1632.01,1368.18 1652.05,1368.82 1672.08,1365.46 1692.12,1367.83 1712.16,1374.4 1732.2,1372.78 1752.23,1374.8 1772.27,1375.56 1792.31,1377.73 1812.35,1379.68 1832.38,1380.64 1852.42,1381.39 1872.46,1381.37 1892.5,1380.65 1912.53,1382.01 1932.57,1382.85 1952.61,1382.55 1972.65,1383.17 1992.68,1383.72 2012.72,1382.09 2032.76,1383.78 2052.8,1384.42 2072.83,1384.22 2092.87,1384.99 2112.91,1384.89 2132.95,1385.4 2152.98,1385.41 2173.02,1385.64 2193.06,1385.63 2213.1,1385.73 2233.13,1386.1 2253.17,1386.08 2273.21,1386.28 2293.24,1386.4 "/>
</svg>
